<svg width="81" height="80" viewBox="0 0 81 80" fill="none" xmlns="http://www.w3.org/2000/svg">
<rect x="0.390625" width="80" height="80" rx="30" fill="#F5F5F5"/>
<path fill-rule="evenodd" clip-rule="evenodd" d="M32.5079 29.3333C28.9453 29.3333 26.0573 32.2214 26.0573 35.7839V40.8571C26.0573 42.3021 26.0573 43.4676 26.1344 44.4115C26.2138 45.3833 26.3815 46.2369 26.7839 47.0266C27.4231 48.281 28.4429 49.3009 29.6974 49.94C30.4871 50.3424 31.3407 50.5102 32.3125 50.5896C33.2563 50.6667 34.4219 50.6667 35.8669 50.6666H43.438C44.6403 50.6667 45.6102 50.6667 46.3996 50.6128C47.2112 50.5574 47.9289 50.4407 48.6085 50.1592C50.242 49.4826 51.5399 48.1847 52.2165 46.5512C52.498 45.8716 52.6147 45.1539 52.6701 44.3422C52.724 43.5529 52.724 42.583 52.724 41.3807V41.2859C52.724 40.0836 52.724 39.1137 52.6701 38.3244C52.6147 37.5127 52.498 36.795 52.2165 36.1154C51.5399 34.4819 50.242 33.1841 48.6085 32.5074C47.9289 32.226 47.2112 32.1092 46.3996 32.0538C45.6102 32 44.6403 32 43.438 32L40.461 32C39.642 32 39.3625 31.9968 39.0995 31.9588C38.7019 31.9013 38.3153 31.7842 37.9525 31.6115C37.7126 31.4973 37.4783 31.3449 36.7969 30.8906L36.0861 30.4167C35.0264 29.7103 33.7814 29.3333 32.5079 29.3333ZM39.3906 37.3333C40.127 37.3333 40.724 37.9303 40.724 38.6666V40H42.0573C42.7937 40 43.3906 40.5969 43.3906 41.3333C43.3906 42.0697 42.7937 42.6666 42.0573 42.6666H40.724V44C40.724 44.7364 40.127 45.3333 39.3906 45.3333C38.6543 45.3333 38.0573 44.7364 38.0573 44V42.6666H36.724C35.9876 42.6666 35.3906 42.0697 35.3906 41.3333C35.3906 40.5969 35.9876 40 36.724 40H38.0573V38.6666C38.0573 37.9303 38.6543 37.3333 39.3906 37.3333Z" fill="#849087"/>
</svg>
