<svg width="55" height="53" viewBox="0 0 55 53" fill="none" xmlns="http://www.w3.org/2000/svg">
<path d="M9.09082 12.1454C9.09082 6.75987 13.4566 2.39404 18.8422 2.39404H19.794C25.1795 2.39404 29.5454 6.75987 29.5454 12.1454V15.3748H9.09082V12.1454Z" fill="white"/>
<path d="M9.31317 15.3745C4.54568 15.3745 2.27295 17.538 2.27295 20.3505V40.4796C2.27295 44.4226 4.88947 45.6629 8.11711 45.6629H25.5094C25.5155 45.6629 25.5217 45.663 25.5278 45.663H34.4158C35.4917 45.663 36.3639 44.5975 36.3639 43.2832V35.062C36.3639 33.7477 35.4917 32.6822 34.4158 32.6822H31.8184V20.3505C31.8184 16.4075 30.682 15.3745 27.4544 15.3745H9.31317Z" fill="white"/>
<path fill-rule="evenodd" clip-rule="evenodd" d="M9.09091 15.3749L27.2727 15.3749C29.5455 15.3749 31.8182 17.5384 31.8182 19.7018V28.3557L20.4545 28.3557V30.5191L31.8182 30.5191V32.6826L20.4545 32.6826V34.846H31.8182V38.0912C31.8182 38.6887 32.327 39.173 32.9546 39.173C33.5821 39.173 34.0909 38.6887 34.0909 38.0912V34.846H36.3638V43.4999H27.2726V45.6634L54.5453 45.6634V43.4999H52.2727V32.6826C52.2727 28.3557 50 26.1922 45.4546 26.1922H38.6362C37.3812 26.1923 36.3638 27.1609 36.3638 28.3557V32.6826H34.0909V19.7018C34.0909 15.3749 31.8182 13.2114 27.2727 13.2114H9.09091C4.54545 13.2114 2.27273 15.3749 2.27273 19.7018V43.4999C1.01753 43.4999 0 44.4685 0 45.6634H20.4545V43.4999H4.54546V34.846H18.1818V32.6826L4.54546 32.6826V30.5191L18.1818 30.5191V28.3557L4.54545 28.3557L4.54546 19.7018C4.54546 17.5384 6.81818 15.3749 9.09091 15.3749ZM50 37.0095V32.6826C50 30.5191 47.7273 28.3557 45.4546 28.3557H38.6365V43.4999H50V39.173H43.1818C43.1818 37.9781 44.1994 37.0095 45.4546 37.0095H50Z" fill="#1A4402"/>
<path d="M25 43.4999H22.7273V45.6634H25V43.4999Z" fill="#1A4402"/>
<path d="M18.182 0.230469H20.4547V4.55739H18.182V0.230469Z" fill="#1A4402"/>
<path d="M15.9093 6.72085C14.6541 6.72085 13.6365 7.68947 13.6365 8.88432V15.3747H15.9093V8.88432H22.7275V15.3747H25.0002V8.88432C25.0002 7.68947 23.9826 6.72085 22.7275 6.72085H15.9093Z" fill="#1A4402"/>
<path d="M9.09109 2.39393H6.81836V4.55739H9.09109V6.72085H11.3638V4.55739H9.09109V2.39393Z" fill="#1A4402"/>
<path d="M29.5456 4.55739H27.2729V6.72085H29.5456V4.55739Z" fill="#1A4402"/>
<path d="M29.5456 4.55739H31.8184V2.39393H29.5456V4.55739Z" fill="#1A4402"/>
<path d="M11.3638 11.0478V8.88432H6.81836V11.0478H11.3638Z" fill="#1A4402"/>
<path d="M31.8184 8.88432V11.0478H27.2729V8.88432H31.8184Z" fill="#1A4402"/>
<path d="M10.2277 52.1537C13.3657 52.1537 15.9095 49.7322 15.9095 46.7451C15.9095 43.758 13.3657 41.3364 10.2277 41.3364C7.08974 41.3364 4.5459 43.758 4.5459 46.7451C4.5459 49.7322 7.08974 52.1537 10.2277 52.1537Z" fill="#1A4402"/>
<path d="M39.7732 52.1537C42.9112 52.1537 45.455 49.7322 45.455 46.7451C45.455 43.758 42.9112 41.3364 39.7732 41.3364C36.6352 41.3364 34.0914 43.758 34.0914 46.7451C34.0914 49.7322 36.6352 52.1537 39.7732 52.1537Z" fill="#1A4402"/>
<path d="M10.2279 49.9904C12.1107 49.9904 13.637 48.5375 13.637 46.7452C13.637 44.9529 12.1107 43.5 10.2279 43.5C8.34515 43.5 6.81885 44.9529 6.81885 46.7452C6.81885 48.5375 8.34515 49.9904 10.2279 49.9904Z" fill="white"/>
<path d="M39.7734 49.9904C41.6562 49.9904 43.1825 48.5375 43.1825 46.7452C43.1825 44.9529 41.6562 43.5 39.7734 43.5C37.8906 43.5 36.3643 44.9529 36.3643 46.7452C36.3643 48.5375 37.8906 49.9904 39.7734 49.9904Z" fill="white"/>
<path d="M15.9091 28.3554V26.1919H22.7273V28.3554L25 28.3554V34.8457H22.7273V37.0092H15.9091V34.8457L15.9091 32.6823H18.1818V34.8457H20.4546V32.6823H22.7273V30.5188H20.4546V28.3554H18.1818V30.5188H15.9091V34.8457L13.6362 34.8453V28.3549L15.9091 28.3554Z" fill="#1A4402"/>
</svg>
