<svg width="35" height="31" viewBox="0 0 35 31" fill="none" xmlns="http://www.w3.org/2000/svg">
<path fill-rule="evenodd" clip-rule="evenodd" d="M30.7369 21.3574C30.0142 22.7466 29.6659 23.367 28.7349 24.5955C27.4364 26.3093 25.6024 28.4448 23.3327 28.463C21.3167 28.4781 20.7987 27.3255 18.0599 27.3391C15.3229 27.3512 14.7524 28.4842 12.7347 28.4675C10.4649 28.4493 8.72717 26.5216 7.42692 24.8063C3.79217 20.0136 3.41242 14.3868 5.65417 11.3944C7.24667 9.26954 9.76142 8.02587 12.1239 8.02587C14.5302 8.02587 16.0439 9.16944 18.0319 9.16944C19.9622 9.16944 21.1382 8.02284 23.9207 8.02284C26.0207 8.02284 28.2502 9.01625 29.8374 10.7301C24.6364 13.2007 25.4799 19.6375 30.7369 21.3574ZM21.8102 6.1088C22.8199 4.98344 23.5882 3.397 23.3099 1.77417C21.6579 1.87275 19.7277 2.78275 18.5989 3.9703C17.5769 5.04714 16.7317 6.64419 17.0589 8.19725C18.8614 8.24427 20.7269 7.31152 21.8102 6.1088Z" fill="#EAF9D6"/>
</svg>
