<svg width="35" height="35" viewBox="0 0 35 35" fill="none" xmlns="http://www.w3.org/2000/svg">
<rect width="35" height="35" rx="10" fill="#58FD0A"/>
<path d="M28.7475 4.11548H22.7508C22.3393 4.11548 22.0056 4.44912 22.0056 4.86069V16.8416C22.0056 17.2532 22.3393 17.5868 22.7508 17.5868H28.7475C29.1591 17.5868 29.4927 17.2532 29.4927 16.8416V4.86069C29.4927 4.44912 29.1591 4.11548 28.7475 4.11548Z" fill="#1A4402"/>
<path d="M17.0267 17.1012H6.33493C5.87786 17.1012 5.50732 17.4717 5.50732 17.9288V25.3685C5.50732 25.8256 5.87786 26.1961 6.33493 26.1961H17.0267C17.4838 26.1961 17.8543 25.8256 17.8543 25.3685V17.9288C17.8543 17.4717 17.4838 17.1012 17.0267 17.1012Z" fill="#1A4402"/>
<path d="M17.0435 27.8724H6.31891C5.87392 27.8724 5.51318 28.2332 5.51318 28.6782V30.1839C5.51318 30.6289 5.87392 30.9896 6.31891 30.9896H17.0435C17.4885 30.9896 17.8492 30.6289 17.8492 30.1839V28.6782C17.8492 28.2332 17.4885 27.8724 17.0435 27.8724Z" fill="#1A4402"/>
<path d="M18.2483 4.01038L19.8649 5.48183L18.2483 6.95402" stroke="#1A4402" stroke-width="2" stroke-linecap="round" stroke-linejoin="round"/>
<path d="M10.3499 14.977V8.94098C10.3499 8.02368 10.7142 7.14393 11.3628 6.49524C12.0113 5.84654 12.891 5.482 13.8083 5.48181H19.8648M12.8771 13.7527L13.8178 14.7787L14.7584 13.7527" stroke="#1A4402" stroke-width="2" stroke-linecap="round" stroke-linejoin="round"/>
<path d="M13.8176 14.7787V9.77662C13.8176 9.50143 13.9269 9.23751 14.1215 9.04292C14.3161 8.84833 14.58 8.73901 14.8552 8.73901H19.8865" stroke="#1A4402" stroke-width="2" stroke-linecap="round" stroke-linejoin="round"/>
</svg>
