<svg width="27" height="25" viewBox="0 0 27 25" fill="none" xmlns="http://www.w3.org/2000/svg">
<path d="M14.7046 20.4799C14.6505 20.3494 14.6383 20.1594 14.6836 20.0253C15.0344 18.9633 15.3939 17.9069 15.7673 16.8524C16.1652 15.7327 16.4741 14.6055 16.3188 13.3814C16.1425 11.9916 15.6085 10.788 14.647 9.83783C14.1776 9.37578 13.6278 9.01248 13.0834 8.58024C13.1253 8.45728 13.1933 8.26538 13.2596 8.07348C13.3678 7.75675 13.2841 7.50896 13.0345 7.41021C12.778 7.30961 12.5633 7.42325 12.4429 7.73067C12.3644 7.92815 12.2946 8.12751 12.2178 8.33245C11.4918 8.14241 10.7746 8.06602 10.0469 8.17781C7.87772 8.50944 6.31237 9.72418 5.46599 11.891C4.94769 13.2231 4.52014 14.5962 4.05944 15.9525C4.00359 16.1202 3.91459 16.219 3.76277 16.2916C2.99143 16.6605 2.22533 17.0406 1.454 17.4151C1.24807 17.5138 1.0945 17.6535 1.09974 17.9144C1.10497 18.1845 1.28298 18.2926 1.49239 18.3727C2.9321 18.9242 4.36832 19.4812 5.81152 20.0215C6.02791 20.1035 6.10295 20.1948 6.09074 20.4501C6.01744 22.1604 7.51998 23.4347 9.07487 23.0006C9.70485 22.8255 10.1848 22.4324 10.546 21.8474C10.621 21.8753 10.6891 21.9014 10.7571 21.9256C12.2195 22.4846 13.6819 23.0435 15.1443 23.6061C15.3642 23.69 15.5667 23.7254 15.7481 23.526C15.9366 23.3174 15.8581 23.1031 15.7604 22.8833C15.4009 22.0877 15.0431 21.2884 14.7046 20.4799ZM8.08539 22.0933C7.38909 21.8791 6.92839 21.2121 6.97725 20.4519C7.88819 20.7985 8.77994 21.1394 9.67518 21.4803C9.4204 22.002 8.6892 22.2796 8.08539 22.0933Z" fill="#CACCCF"/>
<path d="M18.9049 14.7495C22.5933 14.7495 25.4982 11.5728 25.4982 7.76283C25.4982 3.95284 22.5933 0.776198 18.9049 0.776198C15.2165 0.776198 12.3116 3.95284 12.3116 7.76283C12.3116 11.5728 15.2165 14.7495 18.9049 14.7495Z" fill="#FF6760" stroke="#F6F8FB" stroke-width="1.55258"/>
<path d="M17.9331 7.17694C17.9331 7.49005 18.0133 7.7294 18.1738 7.89501C18.3368 8.05803 18.5671 8.13955 18.8647 8.13955C19.0199 8.13955 19.1584 8.11496 19.28 8.0658C19.4016 8.01663 19.5038 7.94935 19.5866 7.86396C19.6694 7.77857 19.7315 7.67765 19.7729 7.56121C19.8169 7.44476 19.8389 7.31926 19.8389 7.18471C19.8389 7.03204 19.8156 6.89618 19.769 6.77715C19.7225 6.65553 19.6565 6.55332 19.5711 6.47052C19.4857 6.38771 19.3835 6.32432 19.2644 6.28033C19.148 6.23634 19.0199 6.21434 18.8802 6.21434C18.7353 6.21434 18.6046 6.23892 18.4882 6.28809C18.3717 6.33467 18.2721 6.40065 18.1893 6.48604C18.1065 6.57144 18.0431 6.67365 17.9991 6.79268C17.9551 6.90912 17.9331 7.03721 17.9331 7.17694ZM19.2062 8.92748C19.2502 8.87314 19.2916 8.82009 19.3304 8.76834C19.3692 8.71659 19.4068 8.66484 19.443 8.61308C19.3136 8.69589 19.1713 8.75929 19.016 8.80327C18.8608 8.84468 18.6978 8.86538 18.527 8.86538C18.3329 8.86538 18.1427 8.83174 17.9564 8.76446C17.7701 8.69718 17.6045 8.59626 17.4596 8.46171C17.3147 8.32456 17.1969 8.15637 17.1064 7.95712C17.0184 7.75528 16.9744 7.51981 16.9744 7.25069C16.9744 6.99969 17.021 6.76422 17.1141 6.54427C17.2073 6.32432 17.338 6.13154 17.5061 5.96593C17.6743 5.80032 17.8762 5.66964 18.1117 5.5739C18.3471 5.47816 18.6072 5.43029 18.8918 5.43029C19.1791 5.43029 19.4365 5.47557 19.6642 5.56614C19.8945 5.65671 20.0899 5.7835 20.2503 5.94652C20.4134 6.10954 20.5376 6.30491 20.623 6.53262C20.7109 6.76033 20.7549 7.01004 20.7549 7.28174C20.7549 7.45511 20.7394 7.61943 20.7084 7.77469C20.6799 7.92995 20.6385 8.08003 20.5841 8.22494C20.5298 8.36726 20.4638 8.50699 20.3862 8.64414C20.3086 8.78128 20.2219 8.91713 20.1261 9.05169L18.8414 10.8837C18.7974 10.9458 18.7314 10.9989 18.6434 11.0429C18.5554 11.0843 18.4558 11.105 18.3445 11.105H17.4635L19.2062 8.92748Z" fill="white"/>
</svg>
