<svg width="146" height="150" viewBox="0 0 146 150" fill="none" xmlns="http://www.w3.org/2000/svg">
<mask id="mask0_2_1959" style="mask-type:luminance" maskUnits="userSpaceOnUse" x="31" y="0" width="115" height="115">
<path d="M31.3584 0H145.338V114.01H31.3584V0Z" fill="white"/>
</mask>
<g mask="url(#mask0_2_1959)">
<path d="M116.673 81.7365C117.107 83.6248 117.461 85.5642 117.699 87.6C118.158 91.5074 118.144 95.3447 117.694 99.0631L145.329 64.1803L136.257 56.985L116.673 81.7365ZM54.1892 79.6127L85.9993 104.754L78.8396 113.852L46.9867 88.7166C38.1992 81.7793 33.1323 72.7646 31.8659 61.6202C30.5222 50.5269 33.363 40.5859 40.3087 31.8078L65.4763 -0.00341797L74.5481 7.19312L49.4173 38.9592C44.4194 45.2758 42.4217 52.3367 43.354 60.2753C44.2851 68.215 47.8703 74.6636 54.1892 79.6127Z" fill="#1A4402" fill-opacity="0.5"/>
</g>
<mask id="mask1_2_1959" style="mask-type:luminance" maskUnits="userSpaceOnUse" x="0" y="36" width="112" height="114">
<path d="M0 36.0802H111.415V150H0V36.0802Z" fill="white"/>
</mask>
<g mask="url(#mask1_2_1959)">
<path d="M13.1434 78.9822C9.66044 76.271 4.66614 76.8572 1.94663 80.2926C-0.771687 83.7291 -0.181885 88.7591 3.25942 91.4751C6.70072 94.191 11.695 93.6048 14.455 90.1635C17.1745 86.7281 16.5835 81.6969 13.1434 78.9822ZM88.7141 70.3873L56.8624 45.2517L64.0637 36.1478L95.9154 61.2834C104.704 68.2207 109.729 77.2401 111.037 88.3798C112.339 99.479 109.539 109.414 102.595 118.192L77.427 150.003L68.3124 142.81L93.486 111.041C98.4423 104.729 100.48 97.6644 99.5493 89.7247C98.6171 81.7849 94.9915 75.3411 88.7141 70.3873Z" fill="#1A4402" fill-opacity="0.5"/>
</g>
</svg>
