<svg width="62" height="50" viewBox="0 0 62 50" fill="none" xmlns="http://www.w3.org/2000/svg">
<path d="M21.1664 0.0333824C21.0279 0.0531654 20.8697 0.13229 20.8202 0.201527C20.7609 0.270763 20.5433 0.419125 20.3257 0.537815C19.8806 0.765305 18.9113 1.7445 18.6937 2.18959C18.6146 2.34784 18.4563 2.61489 18.3475 2.76326C18.1497 3.0402 18.1497 3.18856 18.1497 10.9727V18.9051L18.4761 19.5678C18.6442 19.9338 18.7926 20.3195 18.7926 20.4283C18.7926 20.5272 18.8618 20.6756 18.9607 20.7448C19.0498 20.8239 19.1981 21.0613 19.297 21.2888C19.3959 21.5064 19.6135 21.8427 19.7817 22.0306C19.9399 22.2185 20.0982 22.446 20.1378 22.5351C20.1674 22.634 20.2367 22.7131 20.2861 22.7131C20.3455 22.7131 20.5532 22.8911 20.7411 23.1087C20.9389 23.3263 21.1565 23.5044 21.2257 23.5044C21.384 23.5044 22.0071 24.266 22.0961 24.5627C22.1753 24.8297 22.0269 24.9187 21.2554 25.077C20.9488 25.1462 20.6125 25.2748 20.5037 25.3737C20.4048 25.4726 20.0883 25.6309 19.8114 25.7199C19.5344 25.8089 19.2476 25.9573 19.1882 26.0364C19.119 26.1056 19.0003 26.1749 18.9311 26.1749C18.8519 26.1749 18.7926 26.2144 18.7926 26.2738C18.7926 26.3232 18.7036 26.3727 18.6047 26.3727C18.4959 26.3727 18.2684 26.5013 18.1002 26.6595C17.9222 26.8178 17.665 27.0057 17.5266 27.075C17.3782 27.1541 17.1309 27.3321 16.9727 27.4805C16.8144 27.6387 16.6463 27.7574 16.5968 27.7574C16.5474 27.7574 16.1715 28.0937 15.766 28.4992C15.3605 28.9048 14.9846 29.241 14.9352 29.241C14.8758 29.241 14.8363 29.2806 14.8363 29.34C14.8363 29.4488 13.8472 30.4279 13.7483 30.4279C13.6889 30.4279 13.2933 30.9818 12.8086 31.7731C12.69 31.9511 12.5317 32.1786 12.4328 32.2775C12.2548 32.4852 11.8591 33.1578 11.6118 33.6919C11.5228 33.8799 11.3448 34.2359 11.2261 34.4832C11.0975 34.7305 10.8997 35.2448 10.8008 35.6206C10.692 36.0064 10.5337 36.4515 10.4447 36.6097C10.3656 36.7779 10.2271 37.312 10.148 37.7966C10.059 38.2912 9.93041 39.0429 9.84139 39.4781C9.76226 39.9133 9.66335 41.0705 9.63368 42.0497C9.56445 44.196 9.47543 44.5224 8.90176 44.6213C8.59514 44.6708 8.427 44.6312 7.98191 44.374C7.65551 44.196 7.41813 43.9784 7.37857 43.8498C7.3489 43.7311 7.31922 36.491 7.31922 27.7673V11.9024L7.75442 11.4771L8.17973 11.0419H11.5129C15.2715 11.0419 14.9253 11.0518 15.1627 10.9232C15.4495 10.7748 15.3605 10.0429 15.0341 9.88466C14.7571 9.74619 8.6446 9.71652 7.59617 9.8451C6.9137 9.92422 6.45872 10.31 6.0532 11.1408L5.78614 11.6848L5.73669 27.9058C5.70702 36.8273 5.64767 44.196 5.60811 44.285C5.43996 44.6114 5.10367 44.6609 2.81889 44.6905C0.791267 44.7202 0.514324 44.74 0.267053 44.9081C0.0296725 45.0664 0 45.1554 0 45.6104C0 46.3621 0.34618 47.6281 0.642905 47.9347C0.781377 48.0732 0.890176 48.2414 0.890176 48.3007C0.890176 48.36 0.989084 48.4985 1.11767 48.5974C1.24625 48.6963 1.42428 48.8942 1.52319 49.0524C1.6221 49.2008 1.77046 49.3195 1.8397 49.3195C1.91882 49.3195 2.11664 49.448 2.28478 49.6063C2.54195 49.8536 2.69031 49.903 3.29365 49.9624C3.68928 49.992 16.3397 50.0118 31.4034 49.992L58.8011 49.9624L59.444 49.5173C59.8 49.2799 60.1067 49.0326 60.1264 48.9733C60.1462 48.9238 60.3045 48.7458 60.4627 48.5776C60.621 48.4194 60.8188 48.1523 60.8979 47.9842C60.977 47.8259 61.1254 47.549 61.2342 47.3809C61.4815 46.9852 61.6991 45.5708 61.5606 45.195C61.4122 44.7499 61.0265 44.6807 58.623 44.6807C56.2196 44.6708 55.9921 44.6213 55.7942 44.0674C55.7151 43.8399 55.6854 41.0804 55.6854 34.7404C55.6854 27.6783 55.6558 25.6803 55.5569 25.4825C55.458 25.2847 55.3591 25.2353 55.0524 25.2353C54.6964 25.2353 54.6568 25.2649 54.5381 25.5814C54.4392 25.8485 54.4095 27.9355 54.3996 34.8788C54.3897 44.1268 54.3897 44.1762 54.0139 44.1762C53.9545 44.1762 53.8062 44.2751 53.6875 44.3938L53.46 44.6213L49.1476 44.651C45.1022 44.6807 44.8352 44.6708 44.6374 44.5026C44.3209 44.2257 44.2318 43.6817 44.222 41.9508C44.2022 40.6056 44.1527 40.0913 43.8659 38.578C43.6879 37.5889 43.4505 36.6097 43.3417 36.402C43.2329 36.1844 43.0944 35.769 43.0351 35.4723C42.9757 35.1756 42.7878 34.7305 42.6295 34.4931C42.4614 34.2557 42.3328 33.9887 42.3328 33.8897C42.3328 33.8007 42.224 33.5732 42.0756 33.3853C41.9372 33.1974 41.7394 32.871 41.6306 32.6534C41.5317 32.4358 41.3338 32.0995 41.1954 31.9116C40.3349 30.6851 40.2261 30.5466 39.5238 29.8147C39.326 29.6169 39.1677 29.4191 39.1677 29.3894C39.1677 29.3498 38.9106 29.0828 38.604 28.796C38.2875 28.4992 37.9215 28.1432 37.783 28.0047C37.6446 27.8662 37.4863 27.7574 37.427 27.7574C37.3676 27.7574 37.2192 27.6387 37.0808 27.5003C36.9522 27.3618 36.695 27.1838 36.5071 27.1046C36.3291 27.0255 36.0224 26.8376 35.8444 26.6694C35.6565 26.5112 35.429 26.3727 35.3499 26.3727C35.2609 26.3727 35.063 26.2639 34.9048 26.1353C34.7564 26.0067 34.3905 25.8188 34.1036 25.7199C33.8168 25.6309 33.4805 25.4726 33.3519 25.3737C33.2233 25.2748 32.8871 25.1462 32.6002 25.0869C32.3134 25.0275 31.9969 24.9187 31.898 24.8495C31.5815 24.622 31.7002 24.4638 33.1838 23.0197C33.8168 22.3966 34.2916 21.8328 34.4696 21.4866C34.5289 21.3778 34.6971 21.1009 34.8355 20.8833C34.9839 20.6657 35.1224 20.3393 35.1619 20.1613C35.2015 19.9931 35.2707 19.8447 35.3202 19.8447C35.3697 19.8447 35.4092 19.7656 35.4092 19.6667C35.4092 19.5678 35.4587 19.4392 35.518 19.3799C35.8147 19.0831 35.9038 17.2533 35.9038 10.9825C35.9038 4.35568 35.8444 3.3567 35.4191 2.74347C35.3301 2.605 35.1916 2.34784 35.1224 2.1797C34.9839 1.81374 33.8761 0.68618 33.5893 0.59716C33.4706 0.56749 33.253 0.419125 33.1047 0.270763L32.8277 0.0135994L27.1207 0.0037117C23.9853 -0.00617981 21.3049 0.0037117 21.1664 0.0333824ZM32.3925 1.79395C32.5607 1.82362 32.9563 2.08079 33.3025 2.3874C33.8267 2.85227 33.9355 3.02042 34.1135 3.57431C34.3014 4.14797 34.3212 4.4447 34.3212 6.51189C34.3212 8.91536 34.252 9.48903 33.9256 9.65717C33.6486 9.80554 20.118 9.79565 19.7026 9.64728C19.2871 9.50881 19.2575 9.24176 19.297 6.27451C19.3366 3.98972 19.3465 3.85125 19.5542 3.56441C19.6729 3.40616 19.8015 3.149 19.841 2.99075C19.8707 2.84238 20.0685 2.605 20.2663 2.45664C20.4642 2.30828 20.6719 2.12035 20.7411 2.04123C20.8004 1.9621 21.0378 1.8533 21.2653 1.79395C21.6906 1.69505 31.8386 1.68515 32.3925 1.79395ZM33.975 11.21C34.0641 11.2991 34.1828 11.4771 34.2322 11.6057C34.2817 11.7343 34.3212 13.1091 34.3212 14.6521C34.3212 18.0347 34.1926 18.9348 33.53 20.2008C33.1047 21.002 32.9761 21.1602 32.2244 21.9119C31.4331 22.6933 31.1265 22.9406 30.6616 23.178C30.4143 23.3065 30.0583 23.4945 29.8703 23.6033C29.6824 23.7022 29.3857 23.7912 29.2077 23.8011C29.0395 23.8011 28.5153 23.8901 28.0405 24.0088C27.1306 24.2264 26.5075 24.2066 25.6173 23.9396C25.37 23.8604 25.0041 23.8011 24.8062 23.8011C24.4007 23.8011 23.9952 23.6527 23.6886 23.4054C23.5798 23.3164 23.3325 23.178 23.1446 23.1087C22.7193 22.9406 22.3039 22.6241 21.6807 21.9812C21.4236 21.7141 21.0675 21.3679 20.8994 21.1998C20.7213 21.0316 20.573 20.8635 20.573 20.814C20.573 20.7646 20.4147 20.5074 20.2268 20.2305C20.0388 19.9535 19.8806 19.637 19.8806 19.5381C19.8806 19.4293 19.7619 19.0733 19.6234 18.7271C19.3663 18.1237 19.3663 18.0743 19.3168 15.0774C19.2871 13.4157 19.2871 11.8925 19.3267 11.7046C19.4553 11.0221 19.208 11.0419 26.9229 11.0419C33.2036 11.0419 33.8267 11.0518 33.975 11.21ZM28.6834 25.9375C28.9802 26.0166 29.6725 26.1155 30.2264 26.165C31.1562 26.2342 31.265 26.2639 31.8287 26.6299C32.3826 26.976 32.4519 27.0651 32.6002 27.5596C32.6892 27.8563 32.8574 28.2619 32.9563 28.4696C33.0651 28.6674 33.2332 29.2015 33.3223 29.6565C33.4212 30.1114 33.5992 30.7741 33.708 31.15C34.0047 32.1193 33.7574 32.7226 32.9365 32.9897C32.4815 33.138 32.3332 33.2567 31.9573 33.7908C31.7892 34.0381 31.5815 34.3348 31.4924 34.4436C31.3045 34.7107 31.2056 35.7591 31.2946 36.5899C31.354 37.1043 31.4232 37.2922 31.6606 37.5592C31.8188 37.7373 31.9474 37.9153 31.9474 37.9549C31.9474 38.1131 32.4815 38.5582 32.8772 38.7461C33.1047 38.8451 33.4409 39.0231 33.6289 39.1319C34.0443 39.3693 35.0334 39.3989 35.4092 39.1813C35.5477 39.1022 35.8939 38.9341 36.1807 38.7956C36.4774 38.6571 36.8137 38.4197 36.9225 38.2714C37.0412 38.123 37.2192 37.9252 37.3083 37.8263C37.6841 37.4504 37.9611 36.5603 37.9709 35.6701C37.9907 34.6711 37.2588 33.5337 36.2796 33.0391C35.5477 32.6633 35.2707 32.1687 35.0828 30.9027C35.0037 30.329 34.8652 29.7257 34.7861 29.5674C34.5586 29.1322 34.4894 28.6773 34.618 28.4399C34.7169 28.2619 34.7861 28.2421 35.1422 28.2915C35.3697 28.3311 35.6763 28.4795 35.8741 28.6476C36.062 28.8157 36.2697 28.9443 36.3489 28.9443C36.428 28.9443 36.5368 29.0333 36.5961 29.1421C36.6555 29.2509 36.8236 29.3993 36.972 29.4784C37.3874 29.696 39.3656 31.7533 39.3656 31.9709C39.3656 32.0303 39.4249 32.1094 39.504 32.1391C39.692 32.2182 40.2063 32.9402 40.5228 33.593C40.6613 33.8897 40.8887 34.2755 41.0173 34.4436C41.1459 34.6118 41.2448 34.7997 41.2448 34.8689C41.2448 34.9382 41.3734 35.2646 41.5415 35.6009C41.6998 35.9371 41.8877 36.4811 41.9471 36.8075C41.9965 37.1339 42.135 37.6483 42.2438 37.945C42.501 38.6275 42.6493 40.6155 42.6098 42.6234C42.5702 44.0575 42.5702 44.0872 42.3031 44.3543L42.0361 44.6213L26.8635 44.651L11.691 44.6708L11.3745 44.3048L11.0481 43.9388L11.1173 41.9607C11.2063 39.0824 11.3052 38.3208 11.6712 37.4999C11.7701 37.2823 11.8789 36.9065 11.9185 36.6592C11.958 36.4119 12.1163 35.9668 12.2745 35.6701C12.4229 35.3734 12.6405 34.9283 12.7493 34.681C12.8581 34.4337 13.0065 34.1271 13.0856 33.9887C13.1647 33.8502 13.2933 33.6128 13.3625 33.4545C13.4417 33.2864 13.5801 33.0688 13.679 32.96C13.7878 32.8413 13.9758 32.594 14.1043 32.4061C14.2329 32.2182 14.4505 31.8918 14.589 31.694C14.9253 31.1994 16.5474 29.5674 17.1408 29.1421C17.4079 28.9542 17.764 28.6872 17.9321 28.5487C18.1101 28.4102 18.4365 28.2124 18.6739 28.1036C18.9113 28.0047 19.1388 27.8464 19.1882 27.7574C19.2377 27.6585 19.4454 27.5596 19.6531 27.52C19.8608 27.4904 20.1279 27.431 20.2367 27.4013C20.6026 27.3024 20.8499 27.6783 20.7708 28.1827C20.7114 28.5784 20.1378 30.4181 19.9894 30.7148C19.9498 30.7939 19.663 30.9423 19.3564 31.0511C19.0498 31.15 18.7926 31.2786 18.7926 31.328C18.7926 31.3676 18.6739 31.4764 18.5255 31.5555C17.942 31.8522 17.0419 32.9402 16.8342 33.6029C16.5869 34.3744 16.5078 35.7195 16.5375 38.667L16.5672 41.7233L16.8045 41.9112C17.0914 42.1486 18.1695 42.1684 18.5948 41.9508C18.8519 41.8222 18.8618 41.7826 18.7926 41.4365C18.7431 41.2287 18.6245 41.0112 18.5354 40.9617C18.4365 40.9024 18.2585 40.7639 18.1299 40.6353L17.8925 40.4177L17.9222 37.4208C17.9519 34.0975 17.9519 34.1469 18.6739 33.326C19.0201 32.9303 19.2575 32.8018 20.3949 32.4358C20.662 32.3567 22.2544 32.8908 22.4918 33.1479C23.3622 34.0777 23.3622 34.048 23.3226 37.5197L23.2929 40.5364L22.9962 40.7441C22.4918 41.1101 22.3632 41.2881 22.383 41.5749C22.4127 41.9903 22.7489 42.1189 23.6688 42.0695C24.193 42.0398 24.4798 41.9903 24.5392 41.8914C24.5985 41.8123 24.6183 40.1111 24.6084 37.7966C24.5787 33.5139 24.5886 33.6326 24.0051 32.8512C23.6787 32.4061 22.9665 31.7039 22.8281 31.6742C22.4819 31.605 22.1555 31.3577 21.9676 31.0115C21.7697 30.6653 21.7599 30.5763 21.8588 30.0323C21.9181 29.696 22.0961 29.1026 22.2643 28.697C22.4225 28.3014 22.5511 27.8563 22.5511 27.7179C22.5511 27.4409 22.7292 26.9859 22.9171 26.7881C22.9863 26.7189 23.0457 26.62 23.0457 26.5705C23.0457 26.3727 23.5897 26.1749 24.2919 26.1155C24.7073 26.0859 25.2118 25.9968 25.4096 25.9276C25.9239 25.7397 27.9911 25.7397 28.6834 25.9375ZM35.9433 34.5425C36.428 34.9678 36.5961 35.314 36.5961 35.8778C36.5961 36.402 36.4774 36.6394 35.9631 37.1933L35.518 37.668L34.5586 37.6285C33.6684 37.5889 33.5893 37.5691 33.3717 37.3219C32.8772 36.7482 32.7684 35.6701 33.1442 34.9382C33.4706 34.2656 33.8662 34.0777 34.7861 34.1172C35.4587 34.1568 35.5279 34.1865 35.9433 34.5425ZM59.1472 46.0555C59.3352 46.0555 59.5923 46.1346 59.711 46.2335C59.9286 46.3918 59.9286 46.4116 59.7803 46.8467C59.5725 47.4501 58.8505 48.1029 58.3164 48.182C58.0889 48.2117 45.5572 48.2216 30.4638 48.2117L3.00682 48.182L2.54195 47.7963C2.06719 47.4105 1.50341 46.4907 1.65177 46.3423C1.98806 46.006 1.9485 46.006 30.6319 46.0258C46.121 46.0456 58.9593 46.0555 59.1472 46.0555Z" fill="#1A4402"/>
<path d="M26.7844 3.416C26.6855 3.44567 26.4975 3.67316 26.369 3.92043C26.2404 4.1677 25.9931 4.45454 25.825 4.56334C25.6568 4.67214 25.3502 4.89963 25.1524 5.06777C24.8161 5.35461 24.8062 5.39417 24.8853 5.76013C24.9744 6.10631 25.0238 6.16566 25.4491 6.30413C26.0327 6.49205 26.2107 6.67009 26.2997 7.09539C26.3393 7.3031 26.458 7.48114 26.6261 7.57016C27.0317 7.79764 27.4075 7.58005 27.7042 6.96681C27.902 6.53162 28.001 6.43271 28.3372 6.32391C28.7724 6.17555 29.0791 5.85904 29.0692 5.55242C29.0692 5.42384 28.8516 5.19635 28.4658 4.90952C28.1394 4.66225 27.8031 4.32596 27.7339 4.1677C27.4767 3.59404 27.1009 3.29731 26.7844 3.416Z" fill="#1A4402"/>
<path d="M42.3724 3.98972C42.0658 4.04906 41.3734 4.72164 41.1361 5.16673C40.6613 6.09647 40.6514 6.25472 40.6415 11.1309C40.6415 15.9972 40.5822 16.7588 40.1865 17.5204C40.0777 17.738 39.9294 18.104 39.87 18.3314C39.8008 18.5688 39.6425 18.8754 39.514 19.0139C39.3755 19.1623 39.2667 19.3205 39.2667 19.3601C39.2667 19.548 37.9611 20.8833 37.5951 21.0811C37.4468 21.1503 37.1995 21.3778 37.0511 21.5756C36.7445 21.9713 36.7544 22.2284 37.0808 22.6241L37.2687 22.8615H48.6037H59.9386L60.1858 22.5944C60.3144 22.4559 60.5122 22.3076 60.621 22.268C60.7298 22.2383 60.8485 22.1196 60.8782 22.0108C60.9178 21.9119 61.0463 21.6943 61.1749 21.5361C61.6002 21.0415 61.6299 20.4085 61.6002 12.7728C61.5705 5.8492 61.5607 5.64149 61.3727 5.35465C61.0167 4.81066 60.8386 4.61284 60.3738 4.21721L60.0869 3.96994L51.3335 3.96004C46.5167 3.95016 42.4812 3.96004 42.3724 3.98972ZM59.1176 5.36455C59.2858 5.39422 59.6023 5.58214 59.8298 5.77996L60.2452 6.14592L60.2353 13.1684C60.2353 17.0259 60.1957 20.3195 60.1562 20.4876C60.1067 20.6855 59.9583 20.8437 59.7309 20.9525C59.4143 21.1207 58.7517 21.1306 50.0675 21.1306C41.4229 21.1306 40.7108 21.1207 40.4437 20.9624C40.2855 20.8635 40.1569 20.7547 40.1569 20.7052C40.1569 20.6558 40.325 20.3591 40.5327 20.0525C40.7404 19.7359 40.9679 19.3304 41.0372 19.1425C41.1064 18.9546 41.2745 18.5787 41.413 18.2919C41.5515 18.0149 41.6998 17.5006 41.7394 17.1544C41.7889 16.8083 41.8779 16.284 41.9471 15.9873C42.0163 15.6411 42.0856 13.7619 42.1251 10.8441C42.1944 5.67116 42.1548 5.92832 42.9362 5.53269L43.3714 5.3052H51.0961C55.3492 5.3052 58.9594 5.33487 59.1176 5.36455Z" fill="#1A4402"/>
<path d="M47.1793 9.84508C46.6749 9.94399 46.6156 10.0033 46.6057 10.3891C46.5859 11.0023 46.487 10.9924 51.0269 10.9924C53.2919 10.9924 55.2602 10.9627 55.4184 10.9133C55.6558 10.854 55.6855 10.7946 55.6855 10.4484C55.6855 9.80552 55.725 9.80552 51.3829 9.78574C49.2663 9.77585 47.3673 9.80552 47.1793 9.84508Z" fill="#1A4402"/>
<path d="M46.9518 15.6707C46.6452 15.9774 46.5858 16.0862 46.6254 16.3631C46.6452 16.551 46.7144 16.7488 46.7738 16.8082C46.8628 16.8972 47.8024 16.9269 50.196 16.9269C53.3808 16.9269 53.5094 16.917 53.6479 16.7291C53.8754 16.4224 53.8358 16.0664 53.5193 15.6905L53.2325 15.3443L50.285 15.3246L47.3276 15.3048L46.9518 15.6707Z" fill="#1A4402"/>
</svg>
