<svg width="147" height="125" viewBox="0 0 147 125" fill="none" xmlns="http://www.w3.org/2000/svg">
<path d="M83.5244 124.336H42.4714C37.1224 124.336 32.7715 120.019 32.7715 114.712V9.6244C32.7715 4.31706 37.1224 0 42.4714 0H83.5244C88.8734 0 93.2243 4.31706 93.2243 9.6244V114.71C93.2243 120.017 88.8734 124.334 83.5244 124.334V124.336Z" fill="#2F2E43"/>
<path d="M83.5654 121.738H42.43C38.4167 121.738 35.1504 118.497 35.1504 114.515V9.22863C35.1504 5.24655 38.4167 2.00562 42.43 2.00562H83.5654C87.5787 2.00562 90.8451 5.24655 90.8451 9.22863V114.515C90.8451 118.497 87.5787 121.738 83.5654 121.738Z" fill="white"/>
<path d="M69.4232 8.85616H56.3324C54.8238 8.85616 53.5957 7.63767 53.5957 6.14073C53.5957 4.64378 54.8238 3.42529 56.3324 3.42529H69.4232C70.9318 3.42529 72.1599 4.64378 72.1599 6.14073C72.1599 7.63767 70.9318 8.85616 69.4232 8.85616Z" fill="#2F2E43"/>
<path d="M71.7317 52.2967L67.6635 49.1562C67.6635 49.1562 63.0214 50.5925 62.9011 50.6511C62.7808 50.7097 55.6953 67.0149 55.6953 67.0149C55.6953 67.0149 73.8459 76.231 72.5187 75.3329C71.1915 74.4368 71.4658 62.2896 72.7002 60.7047C73.9388 59.1177 72.8816 55.1398 72.8816 55.1398L71.7359 52.2988H71.7295L71.7317 52.2967Z" fill="#2F2E43"/>
<path d="M60.4835 59.6433H66.0012V68.3277L59.918 66.345L60.4835 59.6433Z" fill="#F3A3A6"/>
<path d="M72.4822 80.2132C71.672 80.5461 70.8385 80.835 69.9839 81.0758C67.9372 81.6578 65.7744 81.9656 63.5441 81.9656C61.5902 81.9656 59.6911 81.729 57.8744 81.2789C57.2329 81.1218 56.602 80.9376 55.9859 80.7282C55.2073 80.4644 54.4477 80.165 53.707 79.8217L54.0594 78.1133L54.9899 73.5911L56.0808 68.3067L56.2834 67.3123L56.7666 64.9695L56.7729 64.9402H67.8085L67.8148 64.9611L70.7562 74.5625L71.9864 78.5844L72.4843 80.2153L72.4822 80.2132Z" fill="#28B911"/>
<path d="M76.2435 78.2597C75.0597 79.0197 73.8 79.675 72.4813 80.2131C71.671 80.546 70.8375 80.8349 69.983 81.0757L69.5821 79.4238L68.0818 73.2455L66.0625 64.9422H66.0646C66.0646 64.9422 66.2587 64.938 66.5879 64.938C66.896 64.938 67.3201 64.9422 67.8117 64.9589C68.9912 65.0008 70.5506 65.1201 71.7702 65.4342C72.7113 65.6749 73.4498 66.033 73.6608 66.5585C73.8697 67.0798 74.7411 71.0744 75.8679 76.4718C75.9903 77.0538 76.1126 77.6484 76.2414 78.2597H76.2435Z" fill="#28B911"/>
<path d="M65.2456 62.0446C68.5925 62.0446 71.3057 59.3525 71.3057 56.0317C71.3057 52.7109 68.5925 50.0188 65.2456 50.0188C61.8987 50.0188 59.1855 52.7109 59.1855 56.0317C59.1855 59.3525 61.8987 62.0446 65.2456 62.0446Z" fill="#F3A3A6"/>
<path d="M72.7944 54.9284V54.9367L71.3089 55.1901C71.2287 54.8655 71.138 54.5641 71.0451 54.2877C70.9312 53.9527 70.8109 53.6512 70.6843 53.3812C70.3615 52.6945 69.9986 52.2129 69.6272 51.88C68.2324 50.626 66.6879 51.4592 66.4832 51.4173C66.2131 51.3629 62.5733 55.2822 62.107 59.6411C62.0584 60.1247 62.0458 60.6146 62.0817 61.1067C62.0838 61.1255 62.0838 61.1422 62.0838 61.1611C62.1808 62.6476 61.6554 63.8933 60.881 64.9045C60.8726 64.915 60.8642 64.9254 60.8557 64.9359C60.5814 65.2918 60.2734 65.6184 59.9547 65.9178C59.0348 66.772 57.9966 67.3938 57.2222 67.7874C56.6251 68.0931 56.1862 68.2627 56.0786 68.3024C56.0617 68.3087 56.0533 68.3108 56.0533 68.3108C56.0533 68.3108 55.0679 70.1469 54.9898 73.5868C54.9581 75.0293 55.0847 76.7523 55.5089 78.7413C55.5975 79.1558 55.6967 79.5787 55.8127 80.0142C55.876 80.255 55.9351 80.4936 55.9857 80.7239C55.2071 80.4601 54.4475 80.1607 53.7069 79.8174C53.1161 79.5473 52.5421 79.2542 51.9809 78.936C51.4681 78.6492 50.9659 78.3414 50.4785 78.0148C50.7359 77.4055 50.9849 76.8738 51.2023 76.4529C51.35 76.1661 51.4829 75.9337 51.5905 75.7641C52.9177 73.6684 52.0125 70.0213 52.0125 70.0213C49.9637 68.2271 52.3733 64.2785 52.3733 64.2785C52.3733 64.2785 51.9492 59.013 53.2174 57.9976C54.4855 56.9801 54.5446 54.4657 54.5446 54.4657C56.7791 44.8329 64.0735 46.6878 64.0735 46.6878C73.2544 45.6871 72.8155 54.6059 72.7965 54.9221L72.7944 54.9284Z" fill="#2F2E43"/>
<path d="M61.5937 64.9777L61.1886 66.7573L60.5661 69.479L58.2535 79.6227L57.8758 81.2787C57.2343 81.1217 56.6034 80.9375 55.9873 80.7281C55.2087 80.4643 54.4491 80.1649 53.7084 79.8216C53.1176 79.5515 52.5437 79.2584 51.9824 78.9401C52.1069 78.3435 52.2272 77.7593 52.3475 77.1878C53.6008 71.1581 54.5925 66.5752 54.8183 66.0141C55.0314 65.4823 55.7151 65.1745 56.5718 65.005C56.6351 64.9924 56.7026 64.9798 56.768 64.9694C56.8292 64.9589 56.8946 64.9484 56.9558 64.9401C57.9644 64.7935 59.1334 64.804 60.047 64.85C60.3635 64.8668 60.6484 64.8877 60.8847 64.9066C61.0176 64.917 61.1379 64.9296 61.235 64.938C61.4629 64.961 61.5958 64.9777 61.5958 64.9777H61.5937Z" fill="#28B911"/>
<path d="M63.5436 82.3843C61.5897 82.3843 59.6464 82.1498 57.7705 81.685C57.1249 81.528 56.4771 81.3375 55.8462 81.124C55.0486 80.8539 54.2679 80.544 53.5272 80.2027C52.9406 79.9348 52.3498 79.6333 51.7696 79.3046C51.2484 79.0136 50.7335 78.6974 50.2398 78.3666C43.5847 73.9365 39.6094 66.5607 39.6094 58.6384C39.6094 45.5448 50.3453 34.8904 63.5436 34.8904C76.742 34.8904 87.4779 45.5428 87.4779 58.6384C87.4779 66.7407 83.3633 74.2066 76.474 78.6116C75.2649 79.3862 73.9757 80.0562 72.6443 80.6005C71.8192 80.9397 70.9647 81.2349 70.1017 81.4799C67.9811 82.0807 65.7761 82.3864 63.5457 82.3864L63.5436 82.3843ZM63.5436 35.7257C50.8116 35.7257 40.4534 46.0034 40.4534 58.6363C40.4534 66.2801 44.2873 73.3943 50.7103 77.6716C51.1851 77.9898 51.6809 78.2934 52.1853 78.5739C52.7465 78.8921 53.3162 79.1832 53.8817 79.4407C54.597 79.7715 55.3482 80.0688 56.1205 80.3305C56.7282 80.5377 57.3528 80.7199 57.9752 80.8727C59.7856 81.3207 61.6594 81.5469 63.5457 81.5469C65.6959 81.5469 67.8249 81.2517 69.8695 80.6717C70.703 80.4372 71.528 80.1504 72.3235 79.8238C73.6085 79.2983 74.8514 78.6535 76.0182 77.906C82.667 73.656 86.636 66.4518 86.636 58.6363C86.636 46.0034 76.2778 35.7257 63.5457 35.7257H63.5436Z" fill="#2F2E43"/>
<path d="M0 124.646C0 124.843 0.225775 125 0.508521 125H146.108C146.389 125 146.617 124.843 146.617 124.646C146.617 124.449 146.391 124.292 146.108 124.292H0.508521C0.227885 124.292 0 124.449 0 124.646Z" fill="#B7B7B7"/>
<path d="M90.5154 63.6169C91.0021 63.1388 91.6008 62.7865 92.2634 62.5898L97.0825 57.3308L99.6235 59.7693L94.4593 64.843C94.2377 65.4926 93.8629 66.0737 93.3625 66.538C92.1263 67.7207 90.488 68.0249 89.7019 67.2174C88.9136 66.4122 89.2769 64.7995 90.5108 63.6192H90.5154V63.6169Z" fill="#F3A3A6"/>
<path d="M92.1055 60.7669L94.6987 63.9098L108.102 54.1285L108.114 54.1062L115.947 40.0146C117.146 37.8561 116.482 35.1708 114.4 33.769C113.127 32.9096 111.543 32.6708 110.057 33.1105C108.57 33.5502 107.401 34.6061 106.845 36.0056L101.763 48.8294L92.1055 60.7625V60.7669Z" fill="#1A76BC"/>
<path d="M114.049 28.1956H108.082V36.6542L114.661 34.7225L114.049 28.1956Z" fill="#F3A3A6"/>
<path d="M103.383 24.9059C103.383 28.2809 105.906 31.0149 109.022 31.0149C112.137 31.0149 114.661 28.2809 114.661 24.9059C114.661 21.5309 112.137 18.7969 109.022 18.7969C105.906 18.7969 103.383 21.5309 103.383 24.9059Z" fill="#F3A3A6"/>
<path d="M113.237 28.9721L113.798 30.0751L116.274 25.201C117.765 20.4717 112.558 17.7554 112.558 17.7554C110.859 15.6826 107.445 18.107 107.445 18.107C102.52 16.9741 104.898 21.2737 104.898 21.2737C104.898 21.2737 106.578 21.3128 106.578 22.7191C106.578 24.1278 108.408 24.029 108.408 24.029L109.841 26.6281L110.633 25.6307C113.576 24.3393 113.237 28.9721 113.237 28.9721Z" fill="#2F2E43"/>
<path d="M115.602 113.722H110.902V120.301H115.602V113.722Z" fill="#F3A3A6"/>
<path d="M106.821 125C108.789 125 111.663 124.787 111.684 124.785C112.453 124.856 116.29 125.168 116.481 124.26C116.656 123.424 116.397 122.551 116.361 122.431C115.99 118.634 115.853 118.59 115.772 118.565C115.641 118.525 115.26 118.714 114.641 119.126L114.603 119.153L114.594 119.199C114.583 119.257 114.309 120.651 113.01 120.438C112.119 120.292 111.83 120.088 111.738 119.988C111.813 119.953 111.907 119.891 111.973 119.784C112.069 119.629 112.087 119.43 112.022 119.19C111.855 118.561 111.354 117.628 111.333 117.588L111.275 117.481L106.179 121.041L103.031 121.972C102.793 122.041 102.603 122.218 102.506 122.453C102.374 122.781 102.455 123.162 102.712 123.402C103.284 123.934 104.421 124.845 105.611 124.958C105.928 124.989 106.348 125 106.819 125H106.821Z" fill="#2F2E43"/>
<path d="M125.974 104.158L122.342 107.139L126.605 112.253L130.238 109.271L125.974 104.158Z" fill="#F3A3A6"/>
<path d="M125.723 117.892C127.392 116.608 129.687 114.572 129.703 114.556C130.404 114.112 133.873 111.846 133.418 111.028C133 110.277 132.189 109.779 132.076 109.713C129.187 107.06 129.043 107.117 128.956 107.152C128.817 107.206 128.621 107.597 128.376 108.315L128.362 108.359L128.385 108.401C128.418 108.453 129.13 109.696 127.883 110.38C127.027 110.849 126.645 110.881 126.499 110.866C126.539 110.789 126.576 110.68 126.56 110.555C126.536 110.375 126.416 110.211 126.199 110.071C125.628 109.7 124.572 109.315 124.527 109.299L124.407 109.255L122.497 115.291L120.457 118.054C120.303 118.262 120.261 118.521 120.339 118.764C120.45 119.101 120.778 119.338 121.157 119.353C122.001 119.386 123.584 119.338 124.671 118.648C124.959 118.464 125.322 118.198 125.723 117.892Z" fill="#2F2E43"/>
<path d="M103.385 62.97L110.485 115.602H115.81L119.36 62.97H103.383H103.385Z" fill="#2F2E43"/>
<path d="M117.183 91.6305L127.819 105.299L123.267 109.023L105.014 91.8272L103.383 62.97L106.647 65.8606L117.183 91.6305Z" fill="#2F2E43"/>
<path d="M106.716 31.378L103.383 62.9699H119.75L121.019 52.7168C121.8 46.3835 120.499 39.9687 117.309 34.4316L114.798 30.0752L106.716 31.378Z" fill="#1A76BC"/>
<path d="M105.559 71.7497C105.788 71.1576 106.164 70.6291 106.653 70.2089L108.722 63.9097L111.843 64.99L109.408 71.2616C109.475 71.8941 109.378 72.5287 109.132 73.1166C108.538 74.5895 107.255 75.4788 106.271 75.101C105.286 74.7232 104.969 73.2227 105.563 71.7497H105.559Z" fill="#F3A3A6"/>
<path d="M106.203 68.6986L109.754 70.4888L117.394 56.4725V56.4484L118.411 40.7692C118.566 38.3692 116.883 36.228 114.493 35.7936C113.028 35.5282 111.551 35.9362 110.441 36.9147C109.327 37.8931 108.744 39.2993 108.837 40.7692L109.694 54.2326L106.203 68.7008V68.6986Z" fill="#1A76BC"/>
<path d="M57.7784 26.8604V27.9775H52.4825V27.0215L55.023 24.2769C55.288 23.9761 55.4975 23.7147 55.6514 23.4927C55.8054 23.2707 55.9146 23.0701 55.9791 22.8911C56.0471 22.7085 56.0811 22.5348 56.0811 22.3701C56.0811 22.1302 56.0382 21.9207 55.9522 21.7417C55.8663 21.5591 55.741 21.4176 55.5762 21.3174C55.4151 21.2171 55.2164 21.167 54.9801 21.167C54.7187 21.167 54.4949 21.2279 54.3087 21.3496C54.126 21.4678 53.9864 21.6325 53.8897 21.8438C53.7966 22.055 53.7501 22.2967 53.7501 22.5688H52.3267C52.3267 22.1069 52.4342 21.6862 52.649 21.3066C52.8638 20.9235 53.1718 20.6174 53.5728 20.3882C53.9739 20.159 54.4501 20.0444 55.0015 20.0444C55.5386 20.0444 55.9934 20.134 56.3658 20.313C56.7382 20.4884 57.0211 20.7391 57.2144 21.0649C57.4078 21.3908 57.5045 21.7793 57.5045 22.2305C57.5045 22.4811 57.4633 22.7282 57.3809 22.9717C57.2986 23.2152 57.1822 23.4569 57.0318 23.6968C56.885 23.9331 56.7095 24.173 56.5054 24.4165C56.3013 24.66 56.074 24.9089 55.8233 25.1631L54.2979 26.8604H57.7784ZM64.1969 25.1255V26.2427H58.5626L58.5035 25.3833L61.8175 20.1572H62.9508L61.7261 22.2358L59.9483 25.1255H64.1969ZM63.2677 20.1572V27.9775H61.8443V20.1572H63.2677ZM68.4884 20.1572L65.5343 28.6489H64.4547L67.4088 20.1572H68.4884ZM74.4932 20.1572V20.9307L71.421 27.9775H69.9224L72.9947 21.2744H69.0201V20.1572H74.4932Z" fill="black"/>
<path d="M60.8795 93.9849C54.9952 98.2142 66.2733 108.553 70.0327 101.974" stroke="#1A4402" stroke-width="4"/>
</svg>
