<svg width="24" height="24" viewBox="0 0 24 24" fill="none" xmlns="http://www.w3.org/2000/svg">
<path fill-rule="evenodd" clip-rule="evenodd" d="M11.3572 1H12.6428C13.7266 0.999991 14.6007 0.999983 15.3086 1.05782C16.0375 1.11737 16.6777 1.24318 17.27 1.54497C18.2108 2.02434 18.9757 2.78924 19.455 3.73005C19.7568 4.32234 19.8826 4.96253 19.9422 5.69138C20 6.39926 20 7.27342 20 8.35722V8.64278C20 9.72658 20 10.6007 19.9422 11.3086C19.8826 12.0375 19.7568 12.6777 19.455 13.27C18.9757 14.2108 18.2108 14.9757 17.27 15.455C16.6777 15.7568 16.0375 15.8826 15.3086 15.9422C14.6007 16 13.7266 16 12.6428 16H11.3572C10.2734 16 9.39926 16 8.69138 15.9422C7.96253 15.8826 7.32234 15.7568 6.73005 15.455C5.78924 14.9757 5.02434 14.2108 4.54497 13.27C4.24318 12.6777 4.11737 12.0375 4.05782 11.3086C3.99998 10.6007 3.99999 9.7266 4 8.64281V8.3572C3.99999 7.27341 3.99998 6.39925 4.05782 5.69138C4.11737 4.96253 4.24318 4.32234 4.54497 3.73005C5.02434 2.78924 5.78924 2.02434 6.73005 1.54497C7.32234 1.24318 7.96253 1.11737 8.69138 1.05782C9.39925 0.999983 10.2734 0.999991 11.3572 1ZM13 8C13 7.44772 12.5523 7 12 7C11.4477 7 11 7.44772 11 8L11 14C11 14.5523 11.4477 15 12 15C12.5523 15 13 14.5523 13 14V8Z" fill="#84CC16"/>
<path d="M9 17C8.44772 17 8 17.4477 8 18C8 18.5523 8.44772 19 9 19H15C15.5523 19 16 18.5523 16 18C16 17.4477 15.5523 17 15 17H9Z" fill="#84CC16"/>
<path d="M10 21C10 20.4477 10.4477 20 11 20H13C13.5523 20 14 20.4477 14 21C14 21.5523 13.5523 22 13 22H11C10.4477 22 10 21.5523 10 21Z" fill="#84CC16"/>
</svg>
