<svg width="13" height="13" viewBox="0 0 13 13" fill="none" xmlns="http://www.w3.org/2000/svg">
<path d="M3.19286 11.1183C3.20528 11.4115 3.44624 11.6425 3.73937 11.6425H8.8455C9.13863 11.6425 9.38084 11.4115 9.39201 11.1183L9.75718 3.42002H2.82769L3.19286 11.1183ZM7.44694 5.3328C7.44694 5.20983 7.5463 5.11047 7.66927 5.11047H8.0245C8.14746 5.11047 8.24683 5.21108 8.24683 5.3328V9.73096C8.24683 9.85392 8.14622 9.95329 8.0245 9.95329H7.66927C7.5463 9.95329 7.44694 9.85392 7.44694 9.73096V5.3328ZM5.89311 5.3328C5.89311 5.20983 5.99248 5.11047 6.11544 5.11047H6.47067C6.59364 5.11047 6.693 5.21108 6.693 5.3328V9.73096C6.693 9.85392 6.59364 9.95329 6.47067 9.95329H6.11544C5.99248 9.95329 5.89311 9.85392 5.89311 9.73096V5.3328ZM4.33804 5.3328C4.33804 5.20983 4.43741 5.11047 4.55913 5.11047H4.91436C5.03733 5.11047 5.13669 5.21108 5.13669 5.3328V9.73096C5.13669 9.85392 5.03608 9.95329 4.91436 9.95329H4.55913C4.43617 9.95329 4.33804 9.85392 4.33804 9.73096V5.3328ZM9.99939 1.33459H7.64443V0.888684C7.64443 0.825339 7.5935 0.774414 7.53016 0.774414H5.05596C4.99261 0.774414 4.94169 0.825339 4.94169 0.888684V1.33459H2.58549C2.39669 1.33459 2.24268 1.48736 2.24268 1.6774V2.75551H10.3422V1.6774C10.3422 1.4886 10.1894 1.33459 9.99939 1.33459Z" fill="#FF6760"/>
</svg>
