<svg width="50" height="50" viewBox="0 0 50 50" fill="none" xmlns="http://www.w3.org/2000/svg">
<path d="M7.94917 0.0874481C7.81793 0.122444 7.65168 0.218693 7.57294 0.288689C7.50294 0.367435 7.2667 0.454933 7.05671 0.481182C6.81172 0.524929 6.55798 0.638674 6.34799 0.813667C5.77926 1.30365 5.25428 1.82862 5.25428 1.91612C5.25428 1.95987 5.15804 2.07361 5.05304 2.16111C4.9393 2.24861 4.67681 2.71234 4.46682 3.19357L4.09058 4.06853L4.04684 5.9497L4.00309 7.82212L3.50436 8.3121C2.78689 9.00332 2.62065 9.42331 2.55065 10.7183C2.5069 11.5057 2.51565 11.8207 2.60315 11.9869C2.66439 12.1094 2.79564 12.4157 2.90063 12.6607C3.00563 12.9144 3.11937 13.1244 3.16312 13.1244C3.20687 13.1244 3.36436 13.2556 3.53061 13.4219C3.7231 13.6144 3.97684 13.7456 4.26558 13.8156C4.71181 13.9206 5.25428 14.3406 5.25428 14.5681C5.25428 14.6381 5.35053 14.7956 5.46428 14.9356C5.57802 15.0668 5.75301 15.3643 5.84926 15.583C5.95426 15.8018 6.09425 16.038 6.173 16.0993C6.36549 16.2568 6.75922 17.0705 6.70672 17.2017C6.68048 17.263 6.43549 17.3855 6.1555 17.4642C5.87551 17.543 5.56052 17.683 5.44678 17.7705C5.33303 17.858 5.03554 17.9892 4.79055 18.0679C4.53682 18.1467 4.27433 18.2779 4.20433 18.3567C4.13433 18.4442 3.97684 18.5492 3.85434 18.6017C3.53061 18.7504 3.11937 19.1004 2.17441 20.0629C1.70193 20.5353 1.2382 21.0691 1.15071 21.2441C1.05446 21.4278 0.914467 21.629 0.84447 21.6903C0.765723 21.7603 0.651978 21.9965 0.581981 22.224C0.511983 22.4603 0.389489 22.749 0.310742 22.8627C0.231995 22.9852 0.127 23.3352 0.0832513 23.6415C0.0220039 24.0702 -0.0129946 26.7301 0.00450464 29.9062C0.00450464 30.1949 0.511983 30.6762 0.940715 30.7899C1.13321 30.8424 1.3782 30.9649 1.49194 31.0611C1.68443 31.2274 2.18316 31.4111 2.46315 31.4111C2.5419 31.4111 2.71689 31.5074 2.84814 31.6299C3.02313 31.7699 3.25937 31.8574 3.5831 31.9011C3.85434 31.9274 4.30932 32.0674 4.59806 32.1986C5.17554 32.4611 5.91926 32.5748 6.39174 32.4786C6.67173 32.4173 6.70672 32.3736 6.75047 32.0499C6.78547 31.7524 6.75922 31.6649 6.62798 31.5686C6.53173 31.5074 6.39174 31.3849 6.31299 31.3061C6.11175 31.0961 5.73551 30.9737 5.31553 30.9737C4.8518 30.9737 4.32682 30.8249 4.03809 30.6237C3.91559 30.5274 3.5831 30.4224 3.30312 30.3699C3.03188 30.3174 2.65564 30.1774 2.4719 30.0549C2.29691 29.9324 1.99942 29.81 1.82443 29.7837C1.14196 29.67 1.05446 29.3287 1.05446 26.8176C1.05446 24.7264 1.05446 24.7439 1.51819 23.099C1.78943 22.1278 2.72564 21.0078 4.11683 20.0016C4.33557 19.8441 4.60681 19.6779 4.72931 19.6429C4.8518 19.6079 5.07929 19.4591 5.23679 19.3279C5.40303 19.1791 5.62177 19.0742 5.77051 19.0742C5.90176 19.0742 6.1555 18.9779 6.32174 18.8642C6.80297 18.5404 7.24045 18.4354 8.18541 18.4092C8.66664 18.3917 9.08663 18.3829 9.11287 18.3829C9.14787 18.3742 9.19162 18.2254 9.22662 18.0417C9.29662 17.5867 9.13912 17.0705 8.90288 16.983C8.66664 16.8867 7.3542 15.583 7.3542 15.4431C7.3542 15.3906 7.25795 15.2506 7.14421 15.1456C7.03046 15.0406 6.87297 14.7781 6.78547 14.5593C6.70672 14.3493 6.61048 14.1744 6.56673 14.1744C6.48798 14.1744 6.26924 13.6056 6.18175 13.2031C6.1205 12.9319 5.63052 12.5994 5.28928 12.5994C5.16679 12.5994 4.9218 12.5207 4.72931 12.4244C4.53682 12.3282 4.32682 12.2494 4.26558 12.2494C4.01184 12.2494 3.85434 11.847 3.85434 11.1732C3.85434 10.4295 3.97684 10.2458 4.52807 10.1583C4.80805 10.1145 4.8868 10.0358 5.17554 9.5633C5.35928 9.26581 5.56927 8.80208 5.64802 8.53959C5.72677 8.26835 5.83176 8.04961 5.87551 8.04961C5.91926 8.04961 6.05925 7.88337 6.18175 7.67338C6.61048 7.00841 7.2667 6.32594 7.57294 6.24719C7.70418 6.21219 8.17666 6.21219 8.62289 6.22969C9.27912 6.26469 9.49786 6.31719 9.7691 6.48343C10.0841 6.67592 10.1978 6.69342 11.2478 6.69342C12.2715 6.69342 12.429 6.67592 12.8665 6.47468C13.2864 6.29094 13.4789 6.25594 14.2839 6.25594H15.2201L15.7451 6.77217C16.0338 7.06091 16.3138 7.40214 16.3751 7.54214C16.5326 7.91837 17.0313 8.13711 17.7138 8.13711C18.1775 8.13711 18.3262 8.10211 18.51 7.93587C18.7287 7.74338 18.7375 7.72588 18.7375 6.51843C18.7462 5.19723 18.5625 3.75354 18.3437 3.35106C18.2737 3.21982 18.1337 2.93983 18.0375 2.73859C17.845 2.32735 17.6263 2.04737 17.0488 1.49614C16.4363 0.901163 15.9288 0.524929 15.7451 0.524929C15.6576 0.524929 15.3251 0.402435 15.0276 0.26244L14.4677 -4.95911e-05L11.3265 0.00870132C9.60285 0.00870132 8.08042 0.0436974 7.94917 0.0874481ZM14.3189 1.47864C15.4301 1.60988 16.1738 2.16986 16.8213 3.35981C17.495 4.60226 17.6 5.59972 17.0575 5.59972C16.8738 5.59972 15.5264 4.94349 15.4476 4.8035C15.4126 4.75975 15.0889 4.72475 14.7214 4.72475C14.1789 4.72475 13.9514 4.7685 13.5664 4.95224C13.129 5.16224 12.9627 5.18848 11.694 5.23223C10.2503 5.27598 9.74285 5.21473 8.85913 4.891C8.15916 4.63726 7.72168 4.67225 6.93421 5.04849C6.56673 5.22348 6.20799 5.42472 6.14675 5.48597C6.0855 5.54722 5.95426 5.59972 5.86676 5.59972C5.77926 5.59972 5.65677 5.61722 5.58677 5.64347C5.52552 5.66971 5.41178 5.65221 5.34178 5.59972C5.18429 5.50347 5.20179 4.53226 5.37678 4.26102C5.44678 4.15603 5.56052 3.86729 5.63927 3.63105C5.71802 3.38606 5.93676 3.01857 6.12925 2.79983C6.32174 2.58109 6.47923 2.3886 6.47923 2.36235C6.47923 2.3361 6.61048 2.23986 6.76797 2.15236C6.91672 2.06487 7.15296 1.89862 7.27545 1.77613C7.44169 1.62738 7.65168 1.55739 8.15041 1.49614C9.04288 1.39114 13.4527 1.38239 14.3189 1.47864Z" fill="#1A4402"/>
<path d="M25.8684 2.94866C25.6759 2.96616 25.4221 3.0624 25.2996 3.1499C25.1684 3.2374 24.8972 3.35989 24.6784 3.42114C24.4597 3.48239 24.1097 3.66613 23.8997 3.82362C23.4097 4.19986 22.7535 4.82983 22.7535 4.93483C22.7535 4.98732 22.6573 5.11857 22.5435 5.24106C22.1935 5.62605 21.5898 7.69096 21.7648 7.9272C21.9923 8.22469 22.5785 8.43468 22.5785 8.20719C22.5785 8.14594 22.6835 8.0147 22.8147 7.91845C22.9372 7.81346 23.051 7.65596 23.0597 7.55972C23.1297 6.78975 23.226 6.44851 23.471 6.15103C23.8122 5.71354 24.5822 4.98732 24.7047 4.98732C24.7572 4.98732 24.9147 4.88233 25.0547 4.74233L25.2996 4.50609L28.9045 4.47985C31.6781 4.46235 32.5531 4.4886 32.6931 4.56734C33.6468 5.14482 34.268 5.83604 34.6093 6.73725C34.688 6.95599 34.793 7.17473 34.8455 7.23598C34.8892 7.29723 34.9505 7.57722 34.9767 7.8572C35.0555 8.68842 34.758 8.99466 34.3118 8.52218C34.198 8.40843 33.883 8.19844 33.6118 8.07594C33.3406 7.9447 33.0956 7.80471 33.0693 7.76096C32.9556 7.60347 31.8356 7.65596 31.2844 7.84845C30.4094 8.15469 29.1407 8.26844 27.8633 8.14594C26.9621 8.0672 26.7083 8.0147 26.4808 7.84845C26.2621 7.69096 26.0959 7.65596 25.5971 7.65596C25.0109 7.65596 24.9672 7.67346 24.6347 7.9797C24.4422 8.16344 24.2584 8.31219 24.2234 8.31219C24.1884 8.31219 24.2497 8.47843 24.3547 8.67967L24.5472 9.0559L25.6409 9.09965C26.6208 9.1434 26.7958 9.16965 27.3033 9.40589C27.837 9.65088 27.9333 9.66838 28.922 9.66838C29.902 9.65963 30.0069 9.64213 30.4532 9.41464C30.9607 9.1434 31.9581 9.02091 32.5793 9.13465C32.9031 9.1959 33.953 10.1234 33.953 10.3509C33.953 10.4208 34.0405 10.5783 34.1368 10.7096C34.2418 10.8408 34.3993 11.1558 34.4955 11.4008C34.5918 11.6545 34.723 11.917 34.793 11.9958C34.863 12.0745 34.9942 12.3283 35.0817 12.5645C35.248 12.9932 35.528 13.1857 36.0267 13.2032C36.5429 13.2207 36.7354 13.9557 36.4117 14.6644C36.2717 14.9619 36.1579 15.0669 35.738 15.2594C35.4492 15.3906 35.108 15.5219 34.9592 15.5481C34.5043 15.6356 34.058 16.1869 33.9093 16.8693C33.883 17.0268 33.7605 17.2631 33.6555 17.3943C33.5506 17.5255 33.4106 17.753 33.3493 17.9018C33.2881 18.0593 33.1481 18.2605 33.0431 18.3568C32.9293 18.453 32.7718 18.6455 32.6843 18.7767C32.5531 19.0042 32.1681 19.3367 31.1182 20.1329C30.9344 20.2729 30.6894 20.3867 30.5844 20.3867C29.9107 20.3867 29.2282 20.8592 29.2282 21.3229C29.2282 21.7954 29.4032 21.9179 30.0594 21.9091C30.3832 21.9004 30.6719 21.8566 30.7069 21.8129C30.7769 21.6904 31.3106 21.4629 31.6519 21.3929C31.8094 21.3579 31.9931 21.2704 32.0456 21.1829C32.1069 21.1041 32.3344 20.9117 32.5531 20.7629C32.7718 20.6142 33.1218 20.2817 33.3406 20.0279C33.5593 19.7742 33.8568 19.433 34.0143 19.2755C34.163 19.1092 34.338 18.8467 34.3905 18.6805C34.443 18.5143 34.5218 18.3743 34.5568 18.3743C34.6268 18.3743 34.863 17.8755 34.9592 17.5255C35.038 17.2368 35.6855 16.8256 36.1754 16.7556C36.5079 16.7031 36.6654 16.6156 36.9542 16.3181C37.6979 15.5656 37.7504 15.4256 37.7854 13.9819C37.8116 12.9145 37.7941 12.652 37.6716 12.3895C37.5841 12.2145 37.4879 12.0745 37.4441 12.0745C37.4004 12.0745 37.3654 12.022 37.3654 11.9608C37.3654 11.8995 37.1292 11.5933 36.8492 11.2871L36.3329 10.7358L36.2892 8.97716C36.2629 7.54222 36.2192 7.10474 36.0704 6.61476C35.9742 6.28227 35.8517 5.98478 35.7992 5.95853C35.7555 5.92354 35.6417 5.74854 35.5717 5.55605C35.3705 5.07482 33.778 3.53489 33.4018 3.45614C33.2531 3.42114 32.9031 3.2899 32.6406 3.1674L32.1594 2.93116L29.1845 2.92241C27.5483 2.91366 26.0521 2.93116 25.8684 2.94866Z" fill="#1A4402"/>
<path d="M15.6226 9.46709C15.4826 9.51959 15.3163 9.61584 15.2551 9.67709C15.1938 9.72958 14.9576 9.82583 14.7214 9.88708C14.4501 9.94833 14.1964 10.0796 14.0389 10.2458C13.9076 10.3858 13.7414 10.4996 13.6802 10.4996C13.6189 10.4996 13.5227 10.5958 13.4702 10.7095C13.4177 10.8233 13.2777 10.972 13.1639 11.0333C13.0502 11.0858 12.9364 11.2083 12.9102 11.2958C12.8839 11.3745 12.7439 11.5933 12.5952 11.777C12.4552 11.952 12.3152 12.197 12.2802 12.3107C12.254 12.4332 12.1315 12.7307 12.009 12.9757C11.7902 13.4132 11.7815 13.5094 11.729 15.3206L11.6852 17.2105L11.099 17.788C10.5828 18.2955 10.504 18.418 10.4078 18.873C10.3028 19.3804 10.2853 20.9466 10.3903 21.5241C10.469 21.9791 10.6353 22.3291 10.8715 22.539C10.9765 22.644 11.1428 22.8015 11.2215 22.9065C11.3178 23.0203 11.519 23.1078 11.7902 23.1428C12.5952 23.2478 12.6914 23.2915 12.9189 23.589C13.1202 23.8427 13.4789 24.604 13.6277 25.0414C13.6539 25.1289 13.7064 25.1989 13.7502 25.1989C13.7939 25.1989 13.9076 25.3827 14.0126 25.6102C14.1176 25.8464 14.2751 26.1176 14.3801 26.2226C14.5464 26.4151 14.5464 26.4326 14.4064 26.5901C14.3276 26.6776 14.0739 26.8001 13.8464 26.8614C13.6189 26.9139 13.3564 27.0276 13.2602 27.1151C13.1639 27.2026 12.9014 27.3338 12.6827 27.4213C12.4552 27.5001 12.2102 27.6401 12.1227 27.7363C12.044 27.8238 11.869 27.9288 11.7377 27.9551C11.6065 27.9813 11.344 28.1388 11.1515 28.3051C9.62908 29.635 9.07785 30.195 8.83286 30.6937C8.74536 30.8599 8.61412 31.0699 8.53537 31.1487C8.45662 31.2362 8.22913 31.7349 8.02789 32.2599L7.66916 33.2049L7.63416 36.3635L7.60791 39.5221L7.8354 39.7933C7.96665 39.9508 8.11539 40.0733 8.17664 40.0733C8.22913 40.0733 8.41288 40.1871 8.58787 40.3271C8.75411 40.467 9.0691 40.6245 9.27909 40.6858C9.49783 40.7383 9.81282 40.8783 9.97906 40.992C10.1628 41.1145 10.5303 41.237 10.8803 41.2983C11.2303 41.3508 11.589 41.4733 11.7377 41.5783C11.9215 41.7182 12.2277 41.797 12.8839 41.8757C13.3827 41.937 13.9776 42.0682 14.2226 42.1732C14.5464 42.3132 14.9664 42.3832 15.9288 42.4445C16.6288 42.4882 17.5125 42.567 17.8975 42.6107C18.7724 42.7245 20.3649 42.7245 21.0473 42.6195C21.3361 42.5757 21.8086 42.5145 22.0973 42.4795C22.841 42.4007 23.0073 42.3482 23.1035 42.1732C23.2698 41.8582 23.1998 41.4733 22.9373 41.202C22.6923 40.9658 22.6398 40.9483 21.9836 40.9483C21.5461 40.9483 21.1436 41.0008 20.9074 41.097C20.3211 41.3158 17.2938 41.377 16.9 41.1758C16.7163 41.0795 16.2263 41.0008 15.4388 40.9483C14.0651 40.8433 13.6802 40.7733 13.2602 40.5195C13.0852 40.4145 12.7964 40.3358 12.6215 40.3358C12.2015 40.3358 11.6415 40.1783 11.449 40.0121C11.3703 39.9421 11.029 39.8108 10.6878 39.7233C10.3378 39.6358 9.95281 39.4696 9.79532 39.3383C9.64657 39.2159 9.47158 39.1109 9.41033 39.1109C9.1216 39.1109 9.0866 38.7784 9.1216 35.891L9.14785 33.0299L9.53283 32.2424C9.74282 31.8049 10.0053 31.3412 10.1016 31.2012C10.434 30.755 11.5802 29.5738 11.694 29.5738C11.7552 29.5738 11.9127 29.46 12.044 29.3113C12.184 29.1713 12.4027 29.0313 12.534 28.9963C12.6739 28.97 12.9014 28.8475 13.0414 28.7338C13.1814 28.6113 13.5139 28.4713 13.8027 28.4101C14.0826 28.3576 14.3276 28.2876 14.3539 28.2613C14.5989 27.9901 14.9664 27.8763 15.6663 27.8763C16.5325 27.8676 16.7775 27.9201 17.0663 28.1913C17.2763 28.3838 17.3288 28.3926 19.0349 28.3926C20.3211 28.3926 20.8636 28.3576 21.0736 28.2701C21.2223 28.2088 21.3536 28.1213 21.3536 28.0863C21.3536 27.9463 21.8436 27.8238 22.4735 27.8238C23.366 27.8151 23.4622 27.7451 23.506 26.9839C23.5322 26.3889 23.576 26.3101 24.0835 25.7852C24.171 25.6977 24.3197 25.4702 24.416 25.2777C24.521 25.0852 24.6522 24.9102 24.7222 24.8752C24.7922 24.849 24.8534 24.779 24.8534 24.7177C24.8534 24.4815 25.2122 23.8252 25.4834 23.5628C25.6847 23.3703 25.9121 23.2478 26.1921 23.1953C26.7346 23.099 26.9446 22.9503 27.4433 22.2941L27.8721 21.7428V20.3341C27.8721 18.6367 27.8983 18.698 26.8484 17.5518L26.5159 17.193V15.9243C26.5159 15.2244 26.4721 14.4806 26.4196 14.2619C26.3671 14.0432 26.2534 13.5269 26.1659 13.0982C26.0521 12.5645 25.9384 12.2495 25.7809 12.0657C25.6584 11.917 25.5534 11.742 25.5534 11.6808C25.5534 11.5408 24.7222 10.5608 24.5472 10.4996C24.486 10.4733 24.311 10.3508 24.171 10.2283C24.031 10.0971 23.7597 9.94833 23.576 9.88708C23.3923 9.82583 23.0948 9.69458 22.9285 9.58959C22.631 9.4146 22.5173 9.40585 19.2537 9.38835C16.97 9.3796 15.7976 9.40585 15.6226 9.46709ZM22.6748 11.112C22.841 11.2345 23.121 11.4095 23.3048 11.5058C23.716 11.7158 24.2672 12.4157 24.7134 13.2907C25.1072 14.0694 25.2034 14.6819 24.9934 15.0056C24.8097 15.2769 24.6609 15.2506 24.0397 14.8219C23.8035 14.6556 23.5322 14.5244 23.4447 14.5244C23.2523 14.5244 22.8235 14.3406 22.736 14.2181C22.6398 14.0869 21.4498 14.1044 21.3623 14.2444C21.2486 14.4281 20.0674 14.6206 18.9912 14.6206C17.8275 14.6206 16.9263 14.4894 16.69 14.2794C16.6025 14.2006 16.3225 14.1219 16.0163 14.1044C15.5963 14.0694 15.4563 14.0957 15.2726 14.2444C15.1501 14.3406 14.8439 14.4719 14.5989 14.5331C14.3014 14.6119 14.1001 14.7256 13.9776 14.8919C13.7677 15.1806 13.4789 15.2069 13.2602 14.9619C13.1202 14.8131 13.1202 14.7256 13.2077 14.1044C13.3302 13.2994 13.4614 12.7745 13.5489 12.7745C13.5839 12.7745 13.6889 12.6432 13.7764 12.4857C13.9601 12.1707 14.7564 11.3745 14.8964 11.3745C14.9401 11.3745 15.0976 11.2958 15.2376 11.1908C15.3863 11.0858 15.6051 10.972 15.7363 10.937C15.8676 10.8933 17.4163 10.867 19.1749 10.8758L22.3773 10.8933L22.6748 11.112ZM16.4625 15.6706C16.6288 15.7318 16.83 15.8368 16.9263 15.9156C17.0575 16.0381 17.355 16.0556 18.8512 16.0556H20.6099L20.9511 15.8106C21.2398 15.6093 21.3798 15.5743 21.8961 15.5743C22.5873 15.5743 22.9723 15.7143 23.4535 16.1168C23.8385 16.4581 24.3722 17.2105 24.5735 17.718C24.6434 17.9105 24.7747 18.1642 24.8534 18.2867C24.9322 18.4092 25.0459 18.6717 25.1072 18.8817C25.2472 19.3804 25.4747 19.5992 25.8596 19.5992C26.0346 19.5992 26.3059 19.6604 26.4721 19.7217C26.7696 19.8442 26.7784 19.8704 26.7784 20.2991C26.7784 20.8766 26.5946 21.2704 26.1046 21.6903C25.7984 21.9616 25.6234 22.0491 25.2647 22.0928C24.7572 22.1541 24.416 22.2941 24.416 22.4341C24.416 22.4866 24.311 22.7228 24.1972 22.9678C24.0747 23.204 23.9785 23.4665 23.9785 23.5453C23.9785 23.7902 23.0335 25.0502 22.2985 25.7939C21.6511 26.4326 21.2573 26.7389 20.8724 26.8701C20.6799 26.9401 20.3999 27.0801 20.2424 27.1764C19.6387 27.5788 18.405 27.5176 17.5737 27.0451C17.3113 26.8964 17.0488 26.7739 16.9875 26.7739C16.9175 26.7739 16.7425 26.6689 16.585 26.5289C16.4363 26.3976 16.2176 26.2314 16.1126 26.1614C15.9463 26.0477 15.2376 25.2164 15.0101 24.8664C14.9664 24.7877 14.8351 24.6302 14.7301 24.5077C14.6251 24.3852 14.4851 24.1665 14.4326 24.0265C14.3714 23.8777 14.2314 23.6153 14.1264 23.4403C14.0214 23.2653 13.9076 22.9415 13.8726 22.7228C13.8114 22.3466 13.7852 22.3028 13.4877 22.2241C13.3127 22.1803 13.0152 22.1191 12.8314 22.1016C12.4815 22.0491 12.324 21.9703 11.834 21.5503C11.5715 21.3228 11.5452 21.2441 11.5015 20.6929C11.449 20.1504 11.4665 20.0542 11.6415 19.8354C11.7902 19.6429 11.904 19.5992 12.2015 19.5992C12.569 19.5992 12.5865 19.5817 12.8839 19.0917C13.0502 18.8205 13.2602 18.4267 13.3477 18.2167C13.4352 18.0155 13.5314 17.8492 13.5752 17.8492C13.6102 17.8492 13.7064 17.6655 13.7939 17.4293C13.8814 17.2018 13.9776 17.0005 14.0039 16.9743C14.0301 16.948 14.1701 16.773 14.3101 16.5805C14.4589 16.3881 14.7301 16.0818 14.9226 15.9068C15.2288 15.6181 15.3251 15.5831 15.7188 15.5743C15.9638 15.5743 16.2963 15.6181 16.4625 15.6706Z" fill="#1A4402"/>
<path d="M34.3644 22.4953C34.2769 22.5478 34.1194 22.574 34.0232 22.5478C33.9269 22.5215 33.5507 22.5565 33.1919 22.6265C32.8332 22.6965 32.3782 22.749 32.1857 22.749C31.792 22.749 31.1533 22.9153 31.1533 23.0115C31.1533 23.099 30.7508 23.2565 30.3396 23.3265C30.1646 23.3528 29.8758 23.4927 29.6921 23.6327C29.5171 23.7727 29.2284 23.9127 29.0534 23.939C28.8346 23.974 28.6859 24.0615 28.6159 24.1927C28.5634 24.2977 28.3796 24.4465 28.2221 24.5252C27.9247 24.6652 27.2684 25.1464 26.8835 25.4964C26.201 26.1176 25.256 27.1413 25.081 27.4651C25.0373 27.5438 24.8885 27.7363 24.7485 27.8938C24.6173 28.0513 24.5035 28.2263 24.5035 28.2875C24.5035 28.3488 24.4336 28.48 24.3461 28.5763C24.1798 28.7513 23.8911 29.32 23.8911 29.4687C23.8911 29.5212 23.7948 29.67 23.6811 29.81C23.5673 29.9412 23.4536 30.2125 23.4186 30.405C23.3836 30.5975 23.2611 31.0262 23.1474 31.3674C22.8411 32.2861 22.7449 33.1261 22.7449 34.911C22.7536 36.556 22.8586 37.4134 23.1211 37.9296C23.1999 38.0784 23.2874 38.3496 23.3136 38.5421C23.3486 38.7346 23.5323 39.2158 23.7248 39.6008C23.9086 39.9946 24.0661 40.3533 24.0661 40.397C24.0661 40.4495 24.1273 40.537 24.2061 40.607C24.2761 40.6683 24.4161 40.8608 24.5035 41.0358C24.591 41.2108 24.8098 41.5257 24.9848 41.7445C25.1598 41.9545 25.4048 42.2607 25.536 42.4182C25.886 42.8469 27.1372 44.0981 27.2247 44.0981C27.2597 44.0981 27.4784 44.2556 27.6972 44.4481C27.9159 44.6406 28.1521 44.7981 28.2221 44.7981C28.2921 44.7981 28.4759 44.9119 28.6334 45.0606C28.7909 45.2006 28.9659 45.3231 29.0359 45.3231C29.2021 45.3231 29.6483 45.5681 29.8496 45.7693C29.9371 45.8568 30.0858 45.9356 30.1733 45.9356C30.4271 45.9356 30.9695 46.1106 31.0833 46.233C31.2583 46.408 31.7395 46.5305 32.5095 46.5918C32.8944 46.6268 33.4019 46.7318 33.6469 46.828C33.9269 46.9418 34.3906 47.0205 34.9156 47.0468C35.6506 47.0905 35.8343 47.0643 36.4905 46.863C36.9018 46.7318 37.5493 46.5918 37.9342 46.5393C38.3717 46.4955 38.713 46.3993 38.8529 46.303C38.9754 46.2155 39.2904 46.0668 39.5529 45.9793C39.8154 45.9006 40.1129 45.7518 40.2091 45.6731C40.4716 45.4368 41.0579 45.3056 41.3553 45.4106C41.4866 45.4631 42.4753 46.3818 43.5515 47.4492C44.6277 48.5167 45.6427 49.4529 45.8089 49.5317C45.9752 49.6017 46.1939 49.7417 46.2901 49.8291C46.5526 50.0654 47.5326 50.0566 47.8038 49.8029C47.9088 49.7067 48.1451 49.5579 48.3376 49.4704C48.6788 49.3129 49.1775 48.6742 49.1775 48.3855C49.1775 48.3067 49.2125 48.2105 49.265 48.158C49.3088 48.1142 49.3788 47.8867 49.405 47.668C49.4575 47.3093 49.4225 47.178 49.1338 46.6005C48.95 46.233 48.705 45.8481 48.5913 45.7343C48.4688 45.6293 47.8388 45.0256 47.1826 44.3956C46.5176 43.7657 45.7564 43.0569 45.4852 42.8207C45.0389 42.4357 44.9952 42.357 44.9864 42.0245C44.9777 41.762 45.0389 41.5957 45.1877 41.412C45.3014 41.2808 45.4589 41.027 45.5377 40.8608C45.6164 40.6945 45.7477 40.432 45.8439 40.2833C45.9314 40.1433 46.0364 39.9246 46.0714 39.8108C46.1064 39.6883 46.2114 39.4958 46.3076 39.3646C46.4039 39.2421 46.5526 38.8309 46.6489 38.4459C46.7539 38.0696 46.8676 37.7109 46.9114 37.6584C47.0426 37.4922 47.2526 35.8822 47.2526 34.9898C47.2526 33.8786 47.0951 32.3036 46.9464 31.9799C46.8764 31.8312 46.7539 31.4374 46.6751 31.1049C46.5876 30.7637 46.4126 30.2562 46.2726 29.9675C46.1414 29.6787 46.0276 29.3988 46.0276 29.355C46.0276 29.3025 45.8964 29.0575 45.7477 28.8125C45.5902 28.5675 45.3802 28.2351 45.2839 28.0776C44.549 26.8876 44.409 26.7214 43.3415 25.7414C42.554 25.0152 41.9241 24.499 41.8278 24.499C41.7841 24.499 41.6178 24.3852 41.4603 24.254C41.3028 24.114 41.0754 23.974 40.9529 23.9477C40.8304 23.9215 40.5504 23.7815 40.3404 23.6415C40.1216 23.5015 39.7892 23.3528 39.5967 23.3265C39.4042 23.2915 39.0979 23.1603 38.9229 23.0378C38.5905 22.8103 38.2842 22.7665 35.9656 22.574C35.4581 22.5303 34.9331 22.469 34.7844 22.4428C34.6444 22.4165 34.4519 22.4428 34.3644 22.4953ZM37.4093 24.009C37.6542 24.1315 37.9605 24.254 38.1092 24.2802C38.2492 24.2977 38.5117 24.3415 38.6867 24.3677C38.8617 24.394 39.1154 24.5165 39.2554 24.6302C39.3954 24.7527 39.6404 24.8752 39.7979 24.9014C39.9467 24.9277 40.2179 25.0677 40.3929 25.2077C40.5679 25.3477 40.7604 25.4614 40.8216 25.4614C41.0754 25.4614 42.729 26.9314 43.5078 27.8501C43.8227 28.2176 44.4527 29.1538 44.4527 29.2588C44.4527 29.3025 44.5402 29.46 44.654 29.6087C44.7677 29.7575 44.9252 30.0725 45.0214 30.3175C45.1089 30.5537 45.2577 30.9124 45.3539 31.0962C45.5114 31.4287 45.6427 32.0586 45.8614 33.5286C46.0539 34.9023 45.7739 37.3784 45.2927 38.4196C45.1789 38.6821 45.0477 39.0146 45.0127 39.1546C44.9777 39.3033 44.8639 39.5308 44.759 39.6796C44.654 39.8196 44.479 40.1171 44.374 40.3358C44.2602 40.5545 44.1465 40.747 44.1115 40.7733C44.0765 40.7995 43.954 40.957 43.8402 41.1233C43.5603 41.517 43.3153 41.8145 43.114 41.9895C43.0178 42.0682 42.7028 42.3745 42.4053 42.6807C42.0991 42.9782 41.8278 43.2232 41.7841 43.2232C41.7491 43.2232 41.5653 43.3632 41.3816 43.5294C41.1891 43.6957 40.9791 43.8356 40.9091 43.8356C40.8391 43.8356 40.6554 43.9494 40.4979 44.0894C40.3316 44.2294 40.0429 44.3781 39.8592 44.4131C39.6667 44.4481 39.3954 44.5619 39.2642 44.6756C39.1242 44.7894 38.9317 44.9031 38.8267 44.9206C38.7217 44.9381 38.398 44.9993 38.1092 45.0518C37.8205 45.1043 37.4268 45.2268 37.2343 45.3231C36.9718 45.4543 36.6218 45.5068 35.7906 45.5506C34.6794 45.6031 33.0519 45.4806 32.8595 45.3231C32.7195 45.2093 31.7832 44.9731 31.4595 44.9731C31.302 44.9731 31.0133 44.8594 30.7945 44.7194C30.5845 44.5794 30.2696 44.4394 30.1033 44.4044C29.9371 44.3694 29.6658 44.2294 29.5083 44.0894C29.3508 43.9494 29.1671 43.8356 29.0971 43.8356C29.0271 43.8356 28.8171 43.6957 28.6246 43.5294C28.4409 43.3632 28.2571 43.2232 28.2221 43.2232C28.1959 43.2232 28.0297 43.0832 27.8634 42.9169C27.7059 42.7507 27.5309 42.6107 27.4784 42.6107C27.4259 42.6107 27.3472 42.5145 27.2947 42.4007C27.2422 42.287 27.1022 42.1382 26.9884 42.077C26.8747 42.0245 26.761 41.902 26.7347 41.8232C26.7085 41.7357 26.5772 41.552 26.446 41.412C25.9735 40.9045 25.7897 40.6595 25.5885 40.2483C25.4748 40.0208 25.326 39.7846 25.2473 39.7233C25.1773 39.6621 25.0373 39.3646 24.941 39.0583C24.8535 38.7521 24.7135 38.4109 24.6435 38.3059C24.5298 38.1134 24.4073 37.5097 24.1536 35.6985C24.0923 35.2873 24.0661 34.6573 24.0923 34.2985C24.1448 33.4236 24.4073 31.7962 24.5473 31.4112C24.6085 31.2449 24.766 30.8074 24.8973 30.4487C25.0285 30.09 25.2298 29.6787 25.3435 29.5212C25.4573 29.3725 25.5535 29.1975 25.5535 29.1363C25.5535 29.0138 25.956 28.445 26.411 27.9113C26.5597 27.7363 26.691 27.5526 26.691 27.5088C26.6997 27.4301 27.7322 26.4414 28.3971 25.8814C28.5896 25.7152 28.8871 25.5139 29.0621 25.4352C29.2371 25.3564 29.4296 25.2339 29.4908 25.1552C29.5521 25.0852 29.7883 24.9714 30.0246 24.9014C30.2521 24.8314 30.5583 24.6914 30.6895 24.5865C30.8383 24.4815 31.1883 24.3677 31.547 24.3152C31.8882 24.2627 32.2382 24.1752 32.3345 24.114C32.8682 23.7902 33.4544 23.7202 35.4406 23.7552C36.9105 23.7727 36.998 23.7815 37.4093 24.009ZM44.3565 43.5469C44.9077 44.0019 47.8126 46.9768 47.9263 47.2043C48.0138 47.353 48.0313 47.5542 47.9876 47.8255C47.9088 48.3505 47.6813 48.508 47.0426 48.4555C46.4826 48.4117 46.5351 48.4467 44.339 46.338C43.4815 45.5156 42.7465 44.8244 42.694 44.8156C42.5453 44.7544 42.6153 44.4306 42.8603 44.0894C43.0528 43.8181 43.7615 43.3457 44.024 43.3194C44.0502 43.3107 44.199 43.4157 44.3565 43.5469Z" fill="#1A4402"/>
<path d="M33.778 25.9952C33.463 26.0914 32.9031 26.2051 32.5181 26.2576C32.0368 26.3189 31.7481 26.4064 31.5556 26.5464C31.4069 26.6601 31.1269 26.8001 30.9344 26.8614C30.7419 26.9226 30.5232 27.0276 30.4532 27.0976C30.3832 27.1589 30.1382 27.3338 29.9194 27.4738C29.2107 27.9376 27.627 29.565 27.4608 30.02C27.4258 30.1162 27.3033 30.3175 27.1896 30.475C27.0758 30.6325 26.9271 30.9299 26.8658 31.1487C26.8046 31.3674 26.6908 31.6562 26.6208 31.8049C26.3758 32.2949 26.2446 33.2661 26.2533 34.631C26.2533 36.171 26.3671 37.0809 26.6296 37.5797C26.7346 37.7722 26.8221 37.9472 26.8221 37.9734C26.9358 38.4196 27.0058 38.5859 27.1808 38.8221C27.2945 38.9709 27.4345 39.2071 27.4783 39.3383C27.6095 39.6708 28.747 40.9658 29.237 41.342C29.7969 41.762 30.1819 42.0682 30.3657 42.2257C30.4882 42.3307 30.7419 42.462 30.9344 42.5232C31.1269 42.5845 31.3631 42.707 31.4681 42.7944C31.5731 42.8907 31.8969 43.0044 32.2118 43.0569C32.5181 43.1094 32.9118 43.2407 33.0781 43.3457C33.358 43.5119 33.5155 43.5294 34.6967 43.5294C35.8254 43.5294 36.0879 43.5032 36.5342 43.3369C36.8229 43.2319 37.3479 43.1007 37.6979 43.0482C38.1091 42.9782 38.3891 42.8819 38.4941 42.777C38.5816 42.6895 38.8441 42.5495 39.0891 42.4795C39.334 42.4095 39.5878 42.287 39.649 42.2082C39.719 42.1295 39.9203 41.9632 40.1128 41.8495C40.2965 41.727 40.559 41.5258 40.6902 41.4033C40.8302 41.272 40.9877 41.1233 41.0577 41.062C41.2065 40.9308 41.6352 40.4145 42.0377 39.8721C42.5977 39.1371 43.2364 37.7722 43.2364 37.3172C43.2364 37.2647 43.2976 37.1684 43.3589 37.0984C43.5776 36.8534 43.6914 35.7335 43.6476 34.2548C43.6039 32.9336 43.5864 32.8024 43.2889 31.9362C42.9476 30.9474 42.5802 30.1775 42.0727 29.39C41.7139 28.8388 40.4977 27.6226 40.1128 27.4213C39.9728 27.3426 39.7803 27.2114 39.6753 27.1151C39.5703 27.0189 39.334 26.8964 39.1503 26.8526C38.9666 26.8001 38.6866 26.6601 38.5378 26.5464C38.3453 26.4064 38.0566 26.3189 37.6191 26.2576C37.2604 26.2051 36.7004 26.1001 36.3592 26.0214C35.3705 25.8027 34.443 25.7852 33.778 25.9952ZM37.1641 27.4913C37.3479 27.6138 37.6716 27.7451 37.8729 27.7801C38.0741 27.8063 38.3628 27.9288 38.5203 28.0426C38.6778 28.1563 38.9316 28.3051 39.0716 28.3751C39.5265 28.5938 40.7165 29.7487 41.154 30.405C42.0814 31.7962 42.3527 32.6536 42.4139 34.5173C42.4489 35.436 42.4314 35.681 42.2127 36.5735C42.0814 37.1247 41.8977 37.6847 41.8102 37.8159C41.7227 37.9472 41.5827 38.2009 41.5127 38.3846C41.434 38.5684 41.2677 38.8484 41.1365 39.0059C40.839 39.3821 39.4915 40.7733 39.4303 40.7733C39.3953 40.7733 39.1765 40.9133 38.9316 41.0883C38.6866 41.2633 38.2928 41.4558 38.0566 41.5258C37.8291 41.5957 37.6104 41.692 37.5754 41.7445C37.3916 42.042 35.5892 42.2082 33.9793 42.0857C33.0343 42.007 32.8156 41.9545 32.5531 41.7795C32.3868 41.6657 32.0981 41.5433 31.9144 41.5083C31.7306 41.482 31.4769 41.3683 31.3456 41.2633C31.2144 41.1583 30.9519 40.9745 30.7507 40.8433C30.2957 40.5545 29.3857 39.6446 29.0357 39.1196C28.887 38.9009 28.7295 38.6996 28.6945 38.6734C28.6595 38.6471 28.5632 38.4546 28.4757 38.2359C28.3883 38.0171 28.292 37.8247 28.2658 37.7984C28.1083 37.6847 27.977 37.2734 27.7758 36.2847C27.4608 34.7973 27.4433 34.6048 27.6095 33.8611C27.6795 33.5023 27.8108 32.8899 27.8808 32.5049C27.9595 32.1286 28.0908 31.7087 28.1783 31.5862C28.2658 31.4637 28.4145 31.1837 28.5195 30.9649C28.6245 30.7462 28.7907 30.475 28.8782 30.3787C28.9745 30.2737 29.0532 30.1512 29.0532 30.1075C29.0532 29.9675 30.7069 28.4888 30.9606 28.4013C31.0919 28.3576 31.3194 28.2176 31.4681 28.0863C31.6519 27.9288 31.8881 27.8326 32.1856 27.7888C32.4218 27.7626 32.7281 27.6488 32.8506 27.5526C33.1831 27.2901 33.7868 27.2201 35.4142 27.2464C36.7617 27.2639 36.8404 27.2814 37.1641 27.4913Z" fill="#1A4402"/>
<path d="M14.074 31.0699C13.9865 31.1137 13.9165 31.2012 13.9165 31.2537C13.9165 31.3062 13.864 31.4199 13.794 31.4899C13.7065 31.5861 13.6627 31.8749 13.6452 32.3999C13.6277 33.1261 13.619 33.1786 13.3828 33.3711C13.1903 33.5286 12.989 33.5986 12.5428 33.6423C11.8253 33.7036 11.3441 33.8261 11.2216 33.9748C11.1778 34.0273 11.1603 34.211 11.1778 34.3685C11.2391 34.7448 11.4491 34.8235 12.3503 34.8235C13.0765 34.8235 13.4965 34.9548 13.6015 35.2172C13.6277 35.296 13.654 35.6897 13.654 36.0922C13.654 36.8097 13.654 36.8184 13.9602 37.0897C14.2402 37.3259 14.2927 37.3434 14.5115 37.2559C14.8964 37.0897 14.9052 37.0634 14.9227 36.1972C14.9314 35.751 14.9664 35.296 15.0014 35.1997C15.0802 34.946 15.3952 34.8585 16.3664 34.8323C16.8214 34.8148 17.2501 34.771 17.3113 34.7185C17.4601 34.596 17.4426 33.9923 17.2938 33.8348C17.2151 33.7561 16.9439 33.7036 16.5239 33.6948C15.5439 33.6686 15.3077 33.5898 15.1064 33.2573C14.9839 33.0473 14.9402 32.8198 14.9489 32.4261C14.9664 31.6124 14.8264 31.1749 14.5027 31.0699C14.3627 31.0174 14.2402 30.9737 14.2315 30.9737C14.2227 30.9737 14.1527 31.0174 14.074 31.0699Z" fill="#1A4402"/>
</svg>
