<svg width="13" height="14" viewBox="0 0 13 14" fill="none" xmlns="http://www.w3.org/2000/svg">
<g clip-path="url(#clip0_120_2907)">
<path d="M11.0759 12.6823C11.0263 12.2066 11.0138 11.7272 10.9666 11.2502C10.8958 10.536 10.794 9.82558 10.5828 9.13623C10.4686 8.76734 10.2947 8.44688 9.94814 8.24318C9.61651 8.04818 9.25507 7.93267 8.89238 7.81964C8.76569 7.77989 8.78805 7.86932 8.7955 7.93391C8.82904 8.24567 8.80047 8.5537 8.73588 8.85801C8.71477 8.95613 8.7483 9.00085 8.83276 9.04929C9.19048 9.24926 9.39418 9.55481 9.41653 9.96842C9.43889 10.3944 9.35195 10.813 9.32586 11.2353C9.30848 11.5222 9.27742 11.8104 9.15694 12.0774C9.01162 12.4004 8.76072 12.5283 8.41791 12.4625C8.2875 12.4376 8.20179 12.378 8.22291 12.2339C8.24402 12.0924 8.34215 12.0427 8.47256 12.0688C8.63652 12.101 8.73216 12.024 8.79923 11.8899C8.84518 11.7967 8.87003 11.6949 8.87996 11.5918C8.9284 11.1161 8.98057 10.6404 9.01907 10.1634C9.05385 9.73242 8.82283 9.40576 8.44027 9.31882C8.04529 9.22939 7.70497 9.40824 7.54225 9.81067C7.41184 10.1324 7.30502 10.464 7.18081 10.7894C7.11002 10.9732 7.04916 11.1583 7.01189 11.3508C6.96345 11.6005 7.01313 11.6924 7.24416 11.7967C7.3547 11.8464 7.40811 11.9247 7.36961 12.0427C7.3311 12.1619 7.24416 12.1954 7.12492 12.1731C6.78459 12.1085 6.58711 11.8663 6.59332 11.5173C6.5958 11.3744 6.61692 11.2366 6.65666 11.0999C6.80323 10.5932 6.99575 10.1026 7.19199 9.61318C7.36837 9.17349 7.71987 8.93129 8.19807 8.89775C8.29122 8.8903 8.33097 8.86422 8.34836 8.77355C8.40673 8.47172 8.41543 8.1699 8.3881 7.86435C8.37568 7.72027 8.31979 7.64202 8.1695 7.61842C8.04778 7.59979 7.92605 7.55881 7.81178 7.51161C7.69751 7.46565 7.64783 7.47931 7.60809 7.60849C7.46773 8.07799 7.27148 8.52638 7.04419 8.9611C6.93488 9.17101 6.80819 9.37222 6.66784 9.61567C6.61195 9.30764 6.56972 9.04556 6.51507 8.78473C6.49022 8.66797 6.49271 8.5624 6.54363 8.45185C6.5722 8.38851 6.64797 8.31398 6.5722 8.24567C6.45172 8.13637 6.32006 8.04073 6.19213 7.94012C6.1884 7.93639 6.17101 7.94509 6.16356 7.9513C6.03935 8.05812 5.89776 8.15003 5.80088 8.27672C5.7425 8.35249 5.85553 8.45185 5.88037 8.54376C5.88534 8.56488 5.89652 8.58724 5.89403 8.60711C5.84187 8.92756 5.78721 9.24677 5.72884 9.59704C5.68785 9.5486 5.66922 9.52997 5.6568 9.50885C5.32889 8.97973 5.06185 8.42328 4.85939 7.83454C4.8184 7.71406 4.82213 7.52775 4.71904 7.48925C4.62216 7.45323 4.47683 7.54887 4.35263 7.58365C4.28804 7.60228 4.23091 7.61967 4.20606 7.69543C4.15887 7.842 4.09179 7.98111 4.05702 8.12767C3.82848 9.08158 3.88561 10.0256 4.17998 10.9583C4.22469 11.0999 4.2781 11.1769 4.43957 11.208C4.75133 11.2701 4.91901 11.6117 4.81219 11.9073C4.70041 12.219 4.36381 12.3656 4.07068 12.2315C3.77507 12.0973 3.64838 11.7334 3.81978 11.4626C3.88188 11.3645 3.87443 11.2887 3.8409 11.1919C3.52541 10.2864 3.44095 9.3598 3.58627 8.41086C3.61981 8.19226 3.69309 7.98359 3.74277 7.75257C3.30929 7.87926 2.8932 7.98484 2.51809 8.20344C2.24236 8.36367 2.02872 8.57357 1.90824 8.87912C1.76416 9.24553 1.67722 9.62561 1.60393 10.0106C1.43501 10.9049 1.38285 11.8129 1.31453 12.7184C1.2959 12.9655 1.40644 13.1183 1.60269 13.2338H10.7803C11.0138 13.1233 11.1033 12.9469 11.0759 12.6823ZM4.13527 5.04362C4.21973 5.06598 4.25947 5.10697 4.29177 5.18397C4.4818 5.63857 4.71655 6.06584 5.06557 6.42107C5.34131 6.70302 5.66052 6.91417 6.06544 6.95516C6.57469 7.00733 6.97215 6.78003 7.3162 6.43598C7.66646 6.08447 7.90991 5.66217 8.09994 5.20509C8.12603 5.14299 8.13472 5.06474 8.22912 5.05604C8.5682 5.02375 8.83276 4.48717 8.77687 4.16051C8.76072 4.06736 8.72595 3.98165 8.6241 3.97544C8.49741 3.96675 8.521 3.89968 8.53964 3.82143C8.60671 3.54072 8.63527 3.2538 8.64894 3.00787C8.65763 2.75822 8.63403 2.55079 8.58435 2.35206C8.50858 2.05148 8.35333 1.79313 8.07138 1.64905C7.90494 1.56335 7.77701 1.46895 7.72111 1.28388C7.7 1.21184 7.6292 1.16464 7.57082 1.1162C7.3547 0.937346 7.09884 0.859096 6.83304 0.833013C6.03687 0.754763 5.29411 0.924926 4.63706 1.38822C4.18371 1.70619 3.87195 2.126 3.8086 2.69736C3.76637 3.0737 3.78749 3.44632 3.85828 3.8177C3.87319 3.89719 3.90548 3.98041 3.76513 3.97793C3.70178 3.97668 3.6608 4.03009 3.63968 4.0922C3.52293 4.42507 3.79246 4.95295 4.13527 5.04362Z" fill="#DBDDE0"/>
</g>
<defs>
<clipPath id="clip0_120_2907">
<rect width="12.4207" height="12.4207" fill="white" transform="translate(0 0.814453)"/>
</clipPath>
</defs>
</svg>
