<svg width="25" height="24" viewBox="0 0 25 24" fill="none" xmlns="http://www.w3.org/2000/svg">
<path fill-rule="evenodd" clip-rule="evenodd" d="M12.1965 1.99993H12.4717C13.267 1.99949 13.8577 1.99917 14.3694 2.13627C15.7497 2.50614 16.8279 3.58433 17.1978 4.9647C17.3349 5.47635 17.3346 6.067 17.3341 6.86238L17.3341 6.99997L17.4717 6.99993C18.267 6.99949 18.8577 6.99917 19.3694 7.13627C20.7497 7.50614 21.8279 8.58433 22.1978 9.9647C22.3349 10.4764 22.3346 11.067 22.3341 11.8624V12.1375C22.3346 12.9329 22.3349 13.5236 22.1978 14.0353C21.8279 15.4156 20.7497 16.4938 19.3694 16.8637C18.8577 17.0008 18.2671 17.0005 17.4717 17L17.344 17C17.3532 17.2576 17.3704 17.3988 17.4023 17.5176C17.5872 18.2078 18.1263 18.7469 18.8165 18.9319C19.0387 18.9914 19.3398 19 20.3341 19C20.8864 19 21.3341 19.4477 21.3341 20C21.3341 20.5523 20.8864 21 20.3341 21L20.1965 21C19.4011 21.0005 18.8105 21.0008 18.2988 20.8637C16.9185 20.4938 15.8403 19.4156 15.4704 18.0353C15.388 17.7278 15.3553 17.3918 15.3423 17H13.3341V21C13.3341 21.5523 12.8864 22 12.3341 22C11.7818 22 11.3341 21.5523 11.3341 21V17H9.32589C9.31296 17.3918 9.2802 17.7278 9.19781 18.0353C8.82794 19.4156 7.74975 20.4938 6.36938 20.8637C5.85773 21.0008 5.26707 21.0005 4.47169 21L4.33411 21C3.78182 21 3.33411 20.5523 3.33411 20C3.33411 19.4477 3.78182 19 4.33411 19C5.32846 19 5.62947 18.9914 5.85174 18.9319C6.54193 18.7469 7.08102 18.2078 7.26596 17.5176C7.29779 17.3988 7.31506 17.2576 7.32424 17L7.19651 17C6.40113 17.0005 5.81045 17.0008 5.2988 16.8637C3.91844 16.4938 2.84025 15.4156 2.47038 14.0353C2.33328 13.5236 2.3336 12.9329 2.33403 12.1376V11.8624C2.3336 11.067 2.33328 10.4763 2.47038 9.9647C2.84025 8.58433 3.91844 7.50614 5.2988 7.13627C5.81046 6.99917 6.40112 6.99949 7.1965 6.99993L7.33408 6.99997L7.33403 6.86239C7.3336 6.06701 7.33328 5.47635 7.47038 4.9647C7.84025 3.58433 8.91844 2.50614 10.2988 2.13627C10.8105 1.99917 11.4011 1.99949 12.1965 1.99993ZM9.33411 11C9.33411 10.4477 9.78182 10 10.3341 10H11.3341V9C11.3341 8.44772 11.7818 8 12.3341 8C12.8864 8 13.3341 8.44772 13.3341 9V10H14.3341C14.8864 10 15.3341 10.4477 15.3341 11C15.3341 11.5523 14.8864 12 14.3341 12H13.3341V13C13.3341 13.5523 12.8864 14 12.3341 14C11.7818 14 11.3341 13.5523 11.3341 13V12H10.3341C9.78182 12 9.33411 11.5523 9.33411 11Z" fill="#84CC16"/>
</svg>
