<svg width="39" height="35" viewBox="0 0 39 35" fill="none" xmlns="http://www.w3.org/2000/svg">
<path d="M34.6416 6.33106H32.8498V2.86689C32.8498 2.10655 32.5478 1.37734 32.0101 0.839694C31.4725 0.302047 30.7433 0 29.9829 0H8.24232C7.86584 0 7.49304 0.0741544 7.14521 0.218229C6.79738 0.362304 6.48134 0.573478 6.21512 0.839694C5.9489 1.10591 5.73773 1.42195 5.59366 1.76978C5.44958 2.11761 5.37543 2.49041 5.37543 2.86689V6.33106H3.58362C2.63318 6.33106 1.72168 6.70862 1.04962 7.38068C0.377559 8.05273 0 8.96424 0 9.91468L0 28.43C0 29.3805 0.377559 30.292 1.04962 30.964C1.72168 31.6361 2.63318 32.0137 3.58362 32.0137H10.1536V32.6109H8.36178V35H29.8635V32.6109H28.0717V32.0137H34.6416C35.5921 32.0137 36.5036 31.6361 37.1756 30.964C37.8477 30.292 38.2253 29.3805 38.2253 28.43V9.91468C38.2253 8.96424 37.8477 8.05273 37.1756 7.38068C36.5036 6.70862 35.5921 6.33106 34.6416 6.33106ZM15.4394 11.1092L7.76451 16.4608V3.62543L16.2637 10.4701C17.073 11.1156 18.0775 11.4671 19.1126 11.4671C20.1478 11.4671 21.1523 11.1156 21.9616 10.4701L30.4608 3.62543V16.4608L22.7858 11.0853L21.4121 13.0444L27.8626 17.5597H10.3626L16.8131 13.0444L15.4394 11.1092ZM10.0341 2.38908H28.1911L20.4625 8.61263C20.0783 8.91688 19.6027 9.08243 19.1126 9.08243C18.6226 9.08243 18.1469 8.91688 17.7628 8.61263L10.0341 2.38908ZM25.6826 32.6109H12.5427V32.0137H25.6826V32.6109ZM35.8362 28.43C35.8362 28.7468 35.7103 29.0507 35.4863 29.2747C35.2623 29.4987 34.9585 29.6246 34.6416 29.6246H3.58362C3.26681 29.6246 2.96297 29.4987 2.73895 29.2747C2.51493 29.0507 2.38908 28.7468 2.38908 28.43V9.91468C2.38908 9.59786 2.51493 9.29403 2.73895 9.07001C2.96297 8.84599 3.26681 8.72014 3.58362 8.72014H5.37543V17.0819C5.37543 17.8423 5.67747 18.5715 6.21512 19.1091C6.75277 19.6468 7.48197 19.9488 8.24232 19.9488H29.9829C30.7433 19.9488 31.4725 19.6468 32.0101 19.1091C32.5478 18.5715 32.8498 17.8423 32.8498 17.0819V8.72014H34.6416C34.9585 8.72014 35.2623 8.84599 35.4863 9.07001C35.7103 9.29403 35.8362 9.59786 35.8362 9.91468V28.43Z" fill="#66FF00"/>
</svg>
