<svg width="20" height="20" viewBox="0 0 20 20" fill="none" xmlns="http://www.w3.org/2000/svg">
<path d="M17.416 1.66669H2.58268C2.33957 1.66669 2.10641 1.76326 1.9345 1.93517C1.76259 2.10708 1.66602 2.34024 1.66602 2.58335V17.4167C1.66602 17.5371 1.68973 17.6563 1.73579 17.7675C1.78186 17.8787 1.84938 17.9797 1.9345 18.0649C2.01962 18.15 2.12067 18.2175 2.23189 18.2636C2.3431 18.3096 2.4623 18.3334 2.58268 18.3334H10.566V11.875H8.39935V9.37502H10.566V7.50002C10.5211 7.05982 10.5731 6.61513 10.7183 6.19713C10.8635 5.77914 11.0983 5.39797 11.4064 5.08036C11.7145 4.76275 12.0883 4.51639 12.5017 4.35855C12.9151 4.20072 13.358 4.13523 13.7993 4.16669C14.448 4.1627 15.0963 4.19608 15.741 4.26669V6.51669H14.416C13.366 6.51669 13.166 7.01669 13.166 7.74169V9.35002H15.666L15.341 11.85H13.166V18.3334H17.416C17.5364 18.3334 17.6556 18.3096 17.7668 18.2636C17.878 18.2175 17.9791 18.15 18.0642 18.0649C18.1493 17.9797 18.2168 17.8787 18.2629 17.7675C18.309 17.6563 18.3327 17.5371 18.3327 17.4167V2.58335C18.3327 2.46298 18.309 2.34378 18.2629 2.23256C18.2168 2.12135 18.1493 2.02029 18.0642 1.93517C17.9791 1.85005 17.878 1.78253 17.7668 1.73646C17.6556 1.6904 17.5364 1.66669 17.416 1.66669Z" fill="white"/>
</svg>
