<svg width="47" height="50" viewBox="0 0 47 50" fill="none" xmlns="http://www.w3.org/2000/svg">
<path d="M29.1246 0.0493431C29.0051 0.0749702 28.8428 0.186008 28.7488 0.297047C28.6634 0.408089 28.5353 0.502045 28.467 0.502045C28.4072 0.502045 28.262 0.647251 28.1424 0.826622C28.0313 0.997452 27.8861 1.1939 27.8093 1.2537C27.5786 1.45015 27.4761 2.4495 27.5103 4.21759C27.5359 6.02839 27.4932 5.84048 28.074 6.34443C28.1765 6.42984 28.4328 6.53234 28.6549 6.57505C29.2784 6.69463 29.2869 6.71171 29.2869 7.83065C29.2869 8.81292 29.2869 8.81292 29.0307 9.06062C28.894 9.18874 28.7744 9.33395 28.7744 9.37666C28.7744 9.41082 28.6463 9.58165 28.5011 9.74394C28.3474 9.90623 28.1424 10.1283 28.057 10.2479C27.963 10.3589 27.7068 10.675 27.4676 10.9483C26.9978 11.4949 26.7074 11.8793 26.511 12.221C26.4426 12.3491 26.2889 12.5541 26.1693 12.6822C26.0497 12.8103 25.9558 12.9555 25.9558 13.0068C25.9558 13.058 25.8191 13.2887 25.6568 13.5193C25.4945 13.7499 25.3578 13.9891 25.3578 14.0403C25.3578 14.0916 25.281 14.2197 25.1785 14.3222C25.0845 14.4332 24.9051 14.7322 24.7856 15.0055C24.6745 15.2703 24.5208 15.5522 24.461 15.6205C24.4012 15.6888 24.2902 15.9365 24.2133 16.1586C24.1364 16.3807 24.0254 16.654 23.957 16.7565C23.8887 16.859 23.7179 17.269 23.5727 17.6619C23.4275 18.0548 23.2823 18.4136 23.2396 18.4733C23.1968 18.5246 23.1371 18.7211 23.1029 18.909C23.0687 19.0969 22.9321 19.5923 22.7954 20.0194C22.6587 20.4379 22.4964 21.0785 22.4452 21.4287C22.3854 21.7789 22.2744 22.2999 22.189 22.5818C21.9498 23.3847 21.8473 24.999 21.8558 28.0057C21.8558 31.0891 21.8046 31.5931 21.4458 31.7639C21.1127 31.9091 20.0023 31.8579 19.7803 31.67L19.5923 31.5247L19.5411 26.3657C19.5069 23.5385 19.4557 21.0785 19.4215 20.9162C19.3873 20.7539 19.2678 20.4635 19.1653 20.2756C19.0628 20.0877 18.9432 19.84 18.909 19.7204C18.8749 19.6008 18.7467 19.3787 18.6186 19.2165C18.2684 18.7552 17.1324 17.679 16.9445 17.6192C16.8505 17.5936 16.6797 17.474 16.5601 17.363C16.3978 17.2177 16.1757 17.1409 15.7316 17.0725C15.3985 17.0298 14.9372 16.9188 14.7066 16.8248C14.4845 16.7394 14.0916 16.6369 13.8354 16.6028C13.1606 16.5088 13.0325 16.3465 13.0752 15.6034C13.1093 14.903 13.2887 14.6809 13.8183 14.6809C13.9891 14.6809 14.177 14.6468 14.2368 14.604C14.4845 14.4503 14.5614 13.8012 14.5443 12.2039C14.5187 9.84644 14.4504 9.55603 13.8354 8.95812C13.2802 8.42001 13.2973 8.42855 9.42796 8.46272C6.83989 8.4798 6.31031 8.50542 6.09678 8.625C5.96011 8.69334 5.84907 8.80437 5.86616 8.85563C5.8747 8.91542 5.83199 8.95812 5.7722 8.95812C5.58429 8.95812 5.40492 9.21437 5.15721 9.81227C4.94368 10.3248 4.92659 10.487 4.88388 11.9562C4.81555 14.3136 4.90951 14.5699 5.89178 14.7151C6.19073 14.7578 6.31031 14.8261 6.39573 14.9799C6.55802 15.2788 6.55802 16.1842 6.39573 16.3294C6.21636 16.4917 4.7643 16.9615 4.11515 17.064C3.8162 17.1067 3.48308 17.2007 3.37204 17.2605C3.261 17.3202 2.97913 17.474 2.74851 17.6021C2.51789 17.7217 2.27019 17.8925 2.20186 17.9779C2.13352 18.0548 1.97978 18.1829 1.8602 18.2598C1.61249 18.4136 0.895007 19.336 0.638762 19.8314C0.544806 20.0023 0.450849 20.1475 0.416683 20.1475C0.382517 20.1475 0.331268 20.25 0.305644 20.3781C0.280019 20.5148 0.194604 20.9162 0.117731 21.275C-0.00185012 21.8643 -0.0103916 22.9491 0.00669137 30.8841C0.0323159 39.3744 0.0408573 39.8612 0.194604 40.2627C0.391059 40.7837 0.929173 41.3304 1.34771 41.4243C1.51854 41.467 2.38977 41.5012 3.29517 41.5012C4.94368 41.5012 5.75512 41.5952 5.78928 41.7831C5.79782 41.8429 5.84053 43.0558 5.8747 44.4907C5.94303 47.2923 5.90886 47.0788 6.46406 48.1294C6.69468 48.565 7.53175 49.4448 7.71966 49.4448C7.77091 49.4448 7.98445 49.5729 8.18944 49.7267L8.56527 50H23.0944H37.6149L38.0505 49.7181C38.2897 49.5729 38.5288 49.4448 38.5801 49.4448C38.7765 49.4448 39.9211 48.2234 40.0919 47.8305C40.3994 47.1386 40.6813 46.703 40.8607 46.6688C40.9546 46.6517 41.655 46.6176 42.4067 46.6005L43.7904 46.5663L44.1577 46.3015C44.3627 46.1478 44.5677 46.0282 44.6275 46.0282C44.8495 46.0282 45.6012 45.1228 45.9514 44.4139L46.3272 43.6793L46.3528 34.7107C46.3785 25.3407 46.3358 23.7007 46.0368 22.7014C45.9428 22.4024 45.8233 21.8045 45.7635 21.386C45.7037 20.9589 45.567 20.4208 45.4645 20.1816C45.362 19.9425 45.2339 19.5325 45.1827 19.2677C45.1399 19.0029 44.9862 18.5502 44.8495 18.2513C44.7129 17.9523 44.5762 17.5936 44.5506 17.4484C44.525 17.3032 44.4139 17.0384 44.3029 16.8505C44.2004 16.6711 44.0979 16.4576 44.0893 16.3721C44.0552 16.1586 43.3206 14.6553 43.1327 14.4076C43.0473 14.2966 42.9448 14.1172 42.9106 14.0061C42.8764 13.8951 42.7227 13.6303 42.5604 13.4253C42.3981 13.2118 42.27 13.0153 42.27 12.9812C42.27 12.9128 42.0906 12.6566 41.5013 11.9049C41.3561 11.717 41.0486 11.3156 40.8094 11.0166C40.5788 10.7177 40.3909 10.4443 40.3909 10.4016C40.3909 10.3589 40.3482 10.3248 40.2969 10.3248C40.1859 10.3248 39.5965 9.69269 39.3915 9.35957C39.3061 9.23145 39.1951 9.12895 39.1438 9.12895C38.8876 9.12895 38.7509 6.9765 38.9815 6.74588C39.0328 6.69463 39.2549 6.61775 39.4855 6.57505C39.7673 6.5238 39.9809 6.41276 40.1859 6.2163L40.4848 5.92589L40.4592 3.74781C40.4336 1.59536 40.4336 1.56973 40.22 1.23661C39.904 0.741207 39.2036 0.100594 38.9132 0.040802C38.6228 -0.0189857 29.4321 -0.0104446 29.1246 0.0493431ZM38.9132 1.59536C39.1865 1.7491 39.3146 2.43242 39.2634 3.56844C39.2292 4.35426 39.1951 4.55925 39.0499 4.75571L38.879 4.98633L34.1898 5.01195C30.6109 5.02904 29.4578 5.01195 29.304 4.92654C28.9709 4.75571 28.8599 4.33717 28.8599 3.32074C28.8599 2.25305 29.0392 1.6466 29.3894 1.57827C29.7909 1.48432 30.1069 1.48432 34.3691 1.49286C37.538 1.49286 38.7765 1.52702 38.9132 1.59536ZM37.5039 6.79713C37.7772 7.04483 37.6661 8.07835 37.3416 8.32605C37.222 8.42001 36.5643 8.43709 34.0873 8.44563C30.6707 8.44563 30.6707 8.44563 30.4913 7.91606C30.3119 7.41211 30.423 6.83129 30.7304 6.67754C30.9098 6.58359 36.4874 6.50671 36.9657 6.59213C37.1793 6.6263 37.4184 6.71171 37.5039 6.79713ZM12.0929 9.7354C12.221 9.78665 12.4089 9.86352 12.5029 9.89769C13.2375 10.1625 13.2973 10.2223 13.357 10.5981C13.4083 10.9227 13.3656 12.7335 13.3058 13.041C13.2973 13.1093 13.1862 13.2203 13.0666 13.2972C12.8787 13.4253 12.5029 13.4424 9.81233 13.4424C6.50677 13.4424 6.50677 13.4424 6.25907 12.947C6.06261 12.5712 6.13094 10.4785 6.35302 10.2393C6.48969 10.0941 7.26696 9.76957 7.67695 9.70123C8.17236 9.61582 11.8623 9.64144 12.0929 9.7354ZM37.8711 9.91477C38.4605 10.2223 40.5873 12.5541 40.8436 13.1691C40.9204 13.3399 41.0229 13.4851 41.0657 13.4851C41.1169 13.4851 41.2365 13.6474 41.339 13.8353C41.4329 14.0318 41.6294 14.3478 41.7661 14.5357C41.9027 14.7236 42.0138 14.9201 42.0138 14.9799C42.0138 15.0397 42.0906 15.1507 42.1846 15.2361C42.27 15.313 42.4152 15.5778 42.4921 15.8084C42.6287 16.2269 42.6287 16.244 42.4494 16.4234L42.2615 16.6028L34.1556 16.6284L26.0497 16.6455L25.7849 16.4148L25.5201 16.1757L25.7166 15.7486C25.8276 15.5094 25.9985 15.202 26.1095 15.0482C26.212 14.903 26.2974 14.7578 26.2974 14.7236C26.2974 14.6895 26.4341 14.4674 26.5964 14.2453C26.7587 14.0147 26.8953 13.8012 26.8953 13.7755C26.8953 13.7328 27.3651 13.0751 27.5786 12.8274C27.6213 12.7676 27.6641 12.6993 27.6641 12.6737C27.6641 12.648 27.758 12.5285 27.8776 12.4089C27.9972 12.2893 28.0911 12.1612 28.0911 12.127C28.0911 12.0672 28.4242 11.6743 28.783 11.307C28.8342 11.2558 28.9367 11.1533 29.0136 11.0593C29.8421 10.1368 30.1923 9.8806 30.85 9.71832C31.0038 9.68415 32.5498 9.65852 34.2837 9.66707L37.4441 9.68415L37.8711 9.91477ZM11.2131 14.8005C11.5292 14.9286 11.5035 14.8603 11.6573 16.2355C11.7 16.6198 11.7598 16.765 11.9562 16.9359C12.0929 17.064 12.2039 17.1921 12.2039 17.2348C12.2039 17.269 12.3919 17.4655 12.631 17.6619L13.0581 18.0206L14.0147 18.089C14.7835 18.1402 15.0739 18.2 15.4497 18.3708C15.706 18.4904 16.0562 18.6356 16.2184 18.6869C16.6882 18.8321 18.0122 20.3269 18.0122 20.7027C18.0122 20.7625 18.089 20.9845 18.183 21.1895C18.3453 21.5568 18.3538 21.7874 18.3538 26.3999C18.3624 29.415 18.3282 31.3027 18.2769 31.4479C18.1317 31.8322 17.9097 31.8835 16.4662 31.8835C15.2276 31.8835 15.1166 31.875 14.8945 31.6956C14.7664 31.5931 14.681 31.5077 14.7066 31.5077C14.7322 31.5077 14.6981 31.3454 14.6297 31.1489C14.5272 30.85 14.5101 30.2264 14.5187 27.4932C14.5358 24.6061 14.5272 24.1705 14.4077 23.9399C14.3308 23.7947 14.2112 23.6324 14.1429 23.5812C14.0575 23.5043 12.3577 23.4787 7.78799 23.4616C0.373976 23.4274 1.14271 23.5812 1.2025 22.1974C1.24521 21.3006 1.27083 21.1895 1.72353 20.3439C2.11644 19.6008 3.03892 18.815 3.73078 18.6356C3.99557 18.5758 4.3714 18.4477 4.55931 18.3538C4.74722 18.2684 5.25971 18.1488 5.70387 18.0975C6.50677 18.0036 6.8228 17.9096 6.8228 17.7473C6.8228 17.7046 6.95093 17.585 7.11321 17.4911C7.2755 17.3971 7.44633 17.2177 7.49758 17.0896C7.54883 16.9615 7.66841 16.7565 7.77091 16.6284C7.92466 16.449 7.96736 16.2526 8.00153 15.7059C8.06132 14.7065 8.10403 14.6809 9.70129 14.6809C10.564 14.6809 11.0167 14.7151 11.2131 14.8005ZM43.4487 18.3111C43.6964 18.5844 44.1406 19.6521 44.2687 20.2841C44.337 20.6087 44.4566 21.0443 44.5335 21.2579C44.6189 21.4714 44.7556 22.1376 44.841 22.7526C44.935 23.3591 45.0545 24.1534 45.1143 24.5036C45.1827 24.9222 45.2168 26.2119 45.2168 28.2704C45.2168 31.8322 45.251 31.6785 44.5079 31.8322C44.2602 31.8835 40.2115 31.9091 33.7541 31.9006L23.3933 31.892L23.2054 31.6956L23.0089 31.4991V28.0654C23.0089 24.8709 23.026 24.5634 23.1968 23.6922C23.2993 23.1712 23.4531 22.3683 23.5214 21.8985C23.5983 21.4287 23.7008 20.9845 23.7435 20.8991C23.7862 20.8137 23.9143 20.3866 24.0254 19.951C24.2475 19.0371 24.7087 18.2171 25.0333 18.1573C25.1443 18.1402 29.2955 18.1231 34.2581 18.1317C43.1754 18.1402 43.295 18.1402 43.4487 18.3111ZM13.2204 25.0503C13.4083 25.2211 13.4083 25.2382 13.3827 28.3644C13.357 31.3966 13.3485 31.5077 13.1777 31.6785C13.0154 31.8408 12.8787 31.8579 10.9996 31.892C8.99234 31.9347 8.54819 31.986 8.27486 32.2337C8.18944 32.3106 7.96736 32.4558 7.77945 32.5583C7.18155 32.8914 6.75447 33.2501 6.55802 33.6003C6.45552 33.7882 6.30177 34.0189 6.2249 34.1128C6.14803 34.2068 6.0199 34.4545 5.94303 34.668C5.71241 35.2915 5.67824 35.3001 3.50016 35.283C1.68082 35.2745 1.56978 35.2659 1.4075 35.0951C1.22813 34.9243 1.22813 34.8388 1.2025 30.0898C1.18542 26.5194 1.2025 25.2211 1.27937 25.1357C1.33062 25.0674 1.50145 24.982 1.64666 24.9393C1.80041 24.888 4.22619 24.8624 7.47196 24.8709C12.8531 24.888 13.0496 24.8965 13.2204 25.0503ZM37.6918 33.4722C37.9138 33.5235 38.1701 33.6943 38.4861 34.0018C38.8619 34.3691 38.973 34.557 39.1097 35.0182C39.2719 35.5563 39.2805 35.8638 39.2805 40.9973C39.2805 46.1905 39.2719 46.4382 39.1097 46.8824C38.9474 47.318 38.6313 47.6853 37.8797 48.3173L37.6405 48.5052H23.2652C14.2795 48.5052 8.80443 48.4711 8.66777 48.4198C8.54819 48.3771 8.37736 48.2746 8.29194 48.1892C8.19798 48.1038 7.99299 47.9159 7.8307 47.7621C7.66841 47.6084 7.41217 47.2496 7.25842 46.9678L6.99363 46.4382V41.0058C6.99363 35.599 7.01926 35.1293 7.28404 34.8645C7.31821 34.8303 7.41217 34.6339 7.50612 34.4374C7.59154 34.2324 7.71112 34.0701 7.76237 34.0701C7.81362 34.0701 7.95882 33.9591 8.08695 33.8224C8.21507 33.6857 8.45423 33.532 8.61652 33.4893C9.00089 33.3783 37.222 33.3612 37.6918 33.4722ZM44.9179 33.5149C45.0545 33.5918 45.1912 33.7285 45.2168 33.8395C45.2424 33.942 45.251 36.0859 45.2424 38.5971L45.2168 43.1668L44.9691 43.6366C44.841 43.8928 44.7043 44.1576 44.6702 44.226C44.636 44.2943 44.5335 44.3882 44.4481 44.4395C44.3627 44.4907 44.1833 44.6359 44.0466 44.7555C43.7477 45.0374 43.4487 45.0886 42.0479 45.0886C41.0657 45.0886 40.8948 45.0716 40.724 44.9264L40.519 44.7641L40.4763 39.7758C40.4421 35.3513 40.4165 34.7705 40.2969 34.5826C40.0663 34.2324 40.015 33.737 40.1859 33.5491C40.3225 33.3953 40.4763 33.3868 42.5006 33.3868C44.2773 33.3868 44.7129 33.4124 44.9179 33.5149ZM5.26825 36.5984C5.41346 36.624 5.60991 36.7265 5.71241 36.8205C5.88324 36.9828 5.89178 37.0511 5.86616 38.4177C5.83199 40.3396 5.90886 40.2542 4.14077 40.2969C2.97059 40.3225 2.75705 40.3054 2.20186 40.1346C1.23667 39.8442 1.2025 39.7844 1.19396 38.3836C1.17688 37.1109 1.28792 36.6753 1.63812 36.6069C1.93707 36.5471 4.98638 36.5386 5.26825 36.5984Z" fill="#1A4402"/>
<path d="M32.4045 20.1304C32.3618 20.1646 32.191 20.3269 32.0458 20.4977C31.781 20.771 31.7639 20.8479 31.7127 21.5568C31.6443 22.6843 31.67 22.6587 30.4144 22.7526C30.0215 22.7868 29.6456 22.8295 29.5773 22.8551C29.3723 22.932 29.3296 23.2993 29.3296 25.1186C29.3296 26.6817 29.3467 26.9038 29.4748 27.0405C29.5858 27.1515 29.8335 27.1942 30.4912 27.2284C31.6016 27.2967 31.6785 27.3736 31.7212 28.4498C31.7468 29.1758 31.7468 29.1844 32.097 29.5517L32.4472 29.9275H34.1128H35.787L36.0774 29.5858C36.3422 29.2783 36.3678 29.1844 36.3763 28.7317C36.3763 28.0996 36.5472 27.5273 36.7607 27.3736C36.8632 27.3053 37.2732 27.2455 37.76 27.2198C38.2469 27.1942 38.6484 27.1344 38.7252 27.0661C38.8363 26.9807 38.8534 26.6476 38.8534 24.9649V22.9662L38.6484 22.8808C38.5288 22.8381 38.1017 22.7868 37.6832 22.7697C37.2646 22.7526 36.8461 22.6843 36.7521 22.6245C36.5215 22.4793 36.3763 21.9327 36.3849 21.275C36.3934 20.8735 36.3592 20.6941 36.2567 20.5916C36.1799 20.5148 36.0603 20.3696 35.992 20.2756C35.8895 20.1133 35.7699 20.1048 34.1812 20.0791C33.2501 20.0706 32.4558 20.0877 32.4045 20.1304ZM35.0097 21.6422C35.1634 21.7789 35.1805 21.907 35.1805 22.7185V23.641L35.5051 23.7264C35.6759 23.7776 36.103 23.8203 36.4447 23.8203C36.8632 23.8203 37.128 23.863 37.2732 23.957C37.8369 24.3243 37.7771 25.8447 37.1792 26.118C37.0596 26.1692 36.6667 26.2119 36.2909 26.2119C35.9236 26.2119 35.5222 26.2461 35.4026 26.2974C35.1805 26.3742 35.1805 26.3913 35.1805 27.2882C35.1805 28.4413 35.1207 28.5096 34.1299 28.5181C33.5833 28.5181 33.4124 28.484 33.2074 28.3388C32.9597 28.1679 32.9597 28.1594 32.9597 27.2711C32.9597 26.3913 32.9597 26.3742 32.7376 26.2974C32.6181 26.2461 32.2081 26.2119 31.8237 26.2119C30.9268 26.2119 30.645 26.0582 30.4827 25.503C30.3887 25.1357 30.4144 24.5293 30.5425 24.1876C30.6279 23.9655 30.9525 23.8716 31.8152 23.8203C32.3447 23.7947 32.7376 23.7264 32.8231 23.658C32.9341 23.5641 32.9597 23.3676 32.9597 22.7185C32.9683 21.5654 33.1306 21.4031 34.2239 21.4629C34.668 21.48 34.8901 21.5312 35.0097 21.6422Z" fill="#1A4402"/>
<path d="M2.91077 26.8696C2.53494 26.9465 2.42391 27.681 2.74848 28.0483L2.9364 28.2704H6.56653C8.56524 28.2704 10.3419 28.2704 10.5127 28.2618C10.786 28.2618 10.8544 28.2191 10.9739 27.9885C11.1448 27.6639 11.085 27.0831 10.8714 26.9208C10.7519 26.8354 9.88917 26.8098 6.91673 26.8183C4.82407 26.8269 3.02181 26.8525 2.91077 26.8696Z" fill="#1A4402"/>
<path d="M2.89374 30.3033C2.60333 30.3802 2.44104 30.8585 2.59479 31.166C2.65458 31.2856 2.79124 31.4564 2.89374 31.5504C3.07311 31.7126 3.20124 31.7212 5.15724 31.7212H7.22428L7.57448 31.3624C7.88198 31.0464 7.91614 30.9695 7.87343 30.7048C7.83927 30.4656 7.77094 30.3887 7.56594 30.3204C7.28407 30.2179 3.24394 30.2008 2.89374 30.3033Z" fill="#1A4402"/>
<path d="M19.1993 35.3427C18.6783 35.394 18.6014 35.4196 18.2939 35.7356C17.585 36.4446 17.2604 37.6575 17.6106 38.2981C17.6875 38.4348 17.7985 38.6483 17.8583 38.7679C17.9181 38.8875 18.1402 39.1352 18.3452 39.3231C18.7723 39.716 19.0883 39.7929 20.0193 39.7416C20.8393 39.6989 20.8991 39.6818 21.1297 39.4341C21.2408 39.306 21.4116 39.1608 21.497 39.0925C21.6764 38.9643 21.8301 38.597 21.9839 37.871C22.0949 37.3842 22.0864 37.3244 21.8814 36.6923C21.7191 36.1969 21.608 35.9919 21.4543 35.9236C21.3518 35.8809 21.2066 35.7527 21.1297 35.6417C21.0101 35.4538 20.8735 35.4196 19.9766 35.3257C19.857 35.3086 19.5068 35.3171 19.1993 35.3427ZM20.6001 36.9912C20.7881 37.1279 20.8308 37.2219 20.8308 37.5123C20.8308 37.9479 20.6599 38.17 20.1731 38.375C19.8741 38.5116 19.7716 38.5202 19.5752 38.4348C19.1139 38.2383 18.9773 38.0675 18.926 37.6233C18.8918 37.256 18.9089 37.1792 19.0968 37.0083C19.2164 36.9058 19.3872 36.7948 19.4897 36.7777C19.8058 36.7094 20.3524 36.8204 20.6001 36.9912Z" fill="#1A4402"/>
<path d="M25.9899 35.3428C25.5543 35.3855 25.4091 35.4453 25.1186 35.693C24.9307 35.8553 24.7428 36.0859 24.7086 36.2055C24.6745 36.3251 24.5976 36.4532 24.5378 36.5045C24.3414 36.6668 24.2218 37.239 24.2816 37.7344C24.3499 38.3067 24.6489 38.8534 25.1613 39.3317C25.5115 39.6563 25.5799 39.6904 26.1522 39.7417C27.049 39.8186 27.6128 39.6904 28.0484 39.2975C28.7488 38.674 28.9794 37.8797 28.7317 36.8803C28.6036 36.3678 28.5182 36.2055 28.1765 35.8553C27.8519 35.5222 27.7067 35.4368 27.3992 35.3941C26.6988 35.3001 26.5109 35.2916 25.9899 35.3428ZM27.1942 36.9657C27.4078 37.0853 27.4505 37.1707 27.4676 37.4867C27.4846 37.7857 27.4505 37.9224 27.2967 38.0846C26.9636 38.4605 26.7159 38.5373 26.3059 38.4178C25.6482 38.2213 25.3236 37.4526 25.7336 37.0682C26.118 36.7095 26.6817 36.6668 27.1942 36.9657Z" fill="#1A4402"/>
<path d="M32.7464 35.3257C32.157 35.3854 31.8751 35.5221 31.5335 35.9236C31.1149 36.4275 30.9697 36.8546 30.9697 37.5721C30.9783 38.2468 31.1491 38.6995 31.5762 39.1352C31.9947 39.5708 32.268 39.7074 32.8061 39.7416C33.6859 39.8185 34.1899 39.6989 34.6169 39.3316C34.839 39.1522 35.0099 38.9472 35.0099 38.8875C35.0099 38.8191 35.044 38.7679 35.0782 38.7679C35.1124 38.7679 35.2148 38.6483 35.3088 38.4945C35.4284 38.2895 35.4711 38.0504 35.4711 37.5294C35.4711 36.9229 35.4369 36.7777 35.2405 36.4446C35.1124 36.2225 34.8305 35.8979 34.6169 35.7015C34.2924 35.4196 34.1472 35.3513 33.8653 35.3427C33.6688 35.3427 33.4041 35.3342 33.2588 35.3257C33.1222 35.3086 32.8916 35.3171 32.7464 35.3257ZM34.0617 37.0339C34.3095 37.2304 34.3436 37.2902 34.2924 37.555C34.2155 38.0418 33.6518 38.5116 33.1478 38.5116C32.8232 38.5116 32.2766 37.8966 32.2766 37.5379C32.2766 37.2389 32.5072 36.9571 32.8574 36.829C33.182 36.7094 33.7543 36.8033 34.0617 37.0339Z" fill="#1A4402"/>
<path d="M12.0844 35.4111C11.9905 35.4367 11.7513 35.6247 11.5463 35.8382C11.068 36.3251 10.8801 36.9828 10.9655 37.8198C11.0253 38.4006 11.2303 39.0242 11.3584 39.0242C11.3926 39.0242 11.5549 39.1608 11.7172 39.3231C12.0759 39.6904 12.6909 39.8271 13.639 39.7417C14.1686 39.6989 14.2882 39.6562 14.3907 39.4854C14.4675 39.3744 14.5956 39.2633 14.6811 39.2377C14.775 39.2121 14.869 39.1181 14.8946 39.0327C14.9202 38.9388 15.0483 38.7594 15.1765 38.6313C15.3985 38.3921 15.4071 38.3494 15.4071 37.4952C15.3985 36.8632 15.3729 36.5898 15.296 36.5642C15.2363 36.5471 15.1167 36.3934 15.0313 36.2226C14.9373 36.0432 14.7238 35.7784 14.5529 35.6247L14.2369 35.3513L13.2461 35.3599C12.6909 35.3684 12.1699 35.394 12.0844 35.4111ZM13.8098 36.9571C13.9636 37.0596 13.9977 37.1536 13.9977 37.5038C13.9977 38.0248 13.8355 38.2811 13.3998 38.4263C13.118 38.5202 13.024 38.5202 12.7848 38.4006C12.2894 38.1615 12.1186 37.9479 12.1186 37.5465C12.1186 37.1023 12.1613 37.0425 12.5884 36.8632C12.9728 36.7094 13.4938 36.7521 13.8098 36.9571Z" fill="#1A4402"/>
<path d="M12.4004 42.176C11.6658 42.3639 11.2131 42.8166 11.0423 43.517C10.8287 44.4139 11.0593 45.6866 11.4864 45.9513C11.5889 46.0197 11.8195 46.182 11.9904 46.3186C12.2893 46.5578 12.3406 46.5749 13.1776 46.5749C14.0403 46.5834 14.0574 46.5834 14.3564 46.3186C14.5272 46.1649 14.698 46.0368 14.7407 46.0197C14.9628 45.9172 15.3728 45.1228 15.4326 44.6787C15.5863 43.5256 14.9116 42.3725 13.972 42.1931C13.152 42.0393 12.9299 42.0393 12.4004 42.176ZM13.4766 43.3035C13.8012 43.4145 13.9976 43.8245 13.9976 44.3626C13.9976 44.6701 13.9549 44.7726 13.767 44.9178C13.562 45.0801 13.451 45.0972 13.0324 45.063C12.3149 44.9947 12.1185 44.8409 12.1185 44.3285C12.1185 43.9441 12.1527 43.8843 12.5029 43.5597C12.9043 43.1924 13.041 43.1497 13.4766 43.3035Z" fill="#1A4402"/>
<path d="M19.1825 42.1419C18.5504 42.2529 18.1148 42.569 17.8671 43.0814C17.7987 43.2181 17.6877 43.4402 17.6194 43.5598C17.2948 44.1662 17.5852 45.5158 18.1319 45.9428C18.2258 46.0112 18.4052 46.182 18.5419 46.3101C18.7639 46.5408 18.8323 46.5578 19.601 46.592C20.4808 46.6262 20.626 46.5749 21.3435 46.0624C21.9072 45.6524 22.1805 44.4139 21.8987 43.5C21.7791 43.1242 21.6424 42.9021 21.3435 42.6031C20.9933 42.2615 20.8822 42.2017 20.4637 42.159C20.2074 42.1248 19.9427 42.0821 19.8743 42.065C19.8145 42.0479 19.4985 42.0821 19.1825 42.1419ZM20.0793 43.2864C20.1904 43.3292 20.4039 43.4914 20.5576 43.6366C20.7797 43.8673 20.831 43.9783 20.831 44.2773C20.831 44.7897 20.6345 44.9947 20.1049 45.0545C19.8487 45.0802 19.5412 45.0545 19.3362 44.9862C19.0116 44.8837 18.9946 44.8495 18.9518 44.4652C18.8664 43.7648 19.1654 43.3292 19.8231 43.2181C19.8572 43.2181 19.9683 43.2437 20.0793 43.2864Z" fill="#1A4402"/>
<path d="M26.1692 42.1076C25.9386 42.1418 25.6653 42.193 25.5628 42.2187C25.3748 42.2699 24.6744 42.9362 24.6744 43.0643C24.6744 43.0984 24.589 43.2436 24.4865 43.3803C24.3413 43.5853 24.2986 43.7561 24.2986 44.2601C24.2901 44.7811 24.3328 44.9519 24.5463 45.379C24.6915 45.6523 24.8965 45.9428 25.0161 46.0196C25.1357 46.0965 25.3065 46.2503 25.409 46.3613C25.5798 46.5663 25.6482 46.5748 26.4767 46.5748C27.4333 46.5748 27.5785 46.5321 28.1167 46.0538C28.4583 45.7548 28.6121 45.4815 28.7744 44.8922C28.9623 44.2003 28.6889 42.9874 28.3046 42.7824C28.185 42.7226 28.091 42.6201 28.091 42.5689C28.091 42.3895 27.8775 42.2699 27.3565 42.176C27.0746 42.1333 26.7927 42.0735 26.7244 42.0649C26.6561 42.0478 26.4084 42.0649 26.1692 42.1076ZM26.9209 43.312C27.4504 43.7134 27.664 44.4907 27.3308 44.8238C27.1429 45.0117 26.5194 45.1313 26.1436 45.0459C25.5884 44.9263 25.4005 44.337 25.7421 43.7561C26.0155 43.2864 26.5963 43.0728 26.9209 43.312Z" fill="#1A4402"/>
<path d="M32.268 42.2187C31.8067 42.3468 31.2772 42.8764 31.0978 43.3718C30.944 43.7903 31.0038 45.1228 31.1832 45.473C31.2601 45.6096 31.542 45.9171 31.8067 46.1478L32.3021 46.5748H33.2332C34.13 46.5748 34.1813 46.5663 34.3606 46.3698C34.4546 46.2503 34.6425 46.088 34.7792 46.0025C34.9073 45.9257 35.0098 45.8061 35.0098 45.7548C35.0098 45.7036 35.0867 45.5669 35.1892 45.4644C35.4881 45.1399 35.5821 43.833 35.3258 43.3376C35.155 42.9959 34.634 42.4237 34.3777 42.2955C34.0275 42.1162 32.7805 42.0649 32.268 42.2187ZM34.019 43.7305C34.2838 44.0807 34.3094 44.1576 34.2411 44.4395C34.2069 44.6188 34.1557 44.7726 34.1386 44.7811C33.8225 45.0203 33.6261 45.0886 33.2588 45.0886C32.7548 45.0886 32.5328 44.9263 32.379 44.4736C32.2765 44.1918 32.2936 44.132 32.5157 43.7561C32.7719 43.312 32.9769 43.2095 33.4467 43.2949C33.6346 43.3205 33.8054 43.4486 34.019 43.7305Z" fill="#1A4402"/>
</svg>
