<svg width="30" height="27" viewBox="0 0 30 27" fill="none" xmlns="http://www.w3.org/2000/svg">
<g clip-path="url(#clip0_2_322)">
<path d="M15.6 12.5467L1.08755 25.1242C0.393799 24.5554 0.0187988 23.7754 0.0187988 22.9304V3.20293C0.0187988 2.34168 0.412549 1.56168 1.12505 0.976685L15.6 12.5467Z" fill="#2196F3"/>
<path d="M28.1438 13.0666C28.1438 14.2041 27.4313 15.2116 26.2501 15.7803L22.1251 17.7628L17.0063 13.6678L15.6001 12.5466L21.0188 7.85034L26.2501 10.3528C27.4313 10.9216 28.1438 11.9291 28.1438 13.0666Z" fill="#FFC107"/>
<path d="M15.6 12.5466L1.125 0.976648C1.3125 0.814148 1.55625 0.667898 1.8 0.537898C2.98125 -0.0796022 4.40625 -0.0958523 5.625 0.489148L21.0187 7.8504L15.6 12.5466Z" fill="#4CAF50"/>
<path d="M22.1249 17.7629L5.6249 25.6441C5.04365 25.9366 4.3874 26.0666 3.7499 26.0666C3.0749 26.0666 2.3999 25.9204 1.7999 25.5954C1.53953 25.4661 1.29996 25.3077 1.0874 25.1241L15.5999 12.5466L17.0062 13.6679L22.1249 17.7629Z" fill="#F44336"/>
</g>
<defs>
<clipPath id="clip0_2_322">
<rect width="30" height="26" fill="white" transform="translate(0 0.0666504)"/>
</clipPath>
</defs>
</svg>
