<svg width="20" height="20" viewBox="0 0 20 20" fill="none" xmlns="http://www.w3.org/2000/svg">
<path d="M10 20C4.47967 19.994 0.00606237 15.5204 0 10V9.80002C0.109931 4.30455 4.63459 -0.0720257 10.1307 0.000898217C15.6268 0.0738221 20.0337 4.5689 19.9978 10.0654C19.9619 15.5618 15.4966 19.9989 10 20ZM6.11568 10.293C5.72572 9.90452 5.09489 9.90513 4.70568 10.2943C4.31594 10.6841 4.31594 11.316 4.70568 11.7057L6.99582 13.9958C7.55041 14.5504 8.44959 14.5504 9.00418 13.9958L15.295 7.70502C15.6848 7.31526 15.6859 6.68367 15.2975 6.29253C14.9072 5.89943 14.2717 5.8983 13.88 6.29002L8 12.17L6.11568 10.293Z" fill="#51CF66"/>
</svg>
