<svg width="17" height="16" viewBox="0 0 17 16" fill="none" xmlns="http://www.w3.org/2000/svg">
<path d="M7.39598 12.0712C7.17257 12.0712 6.95887 11.9889 6.7986 11.8382L4.19056 9.38472C4.03029 9.23395 3.94287 9.03749 3.94287 8.82276C3.94287 8.61259 4.03029 8.41156 4.19056 8.26079C4.35083 8.11002 4.55967 8.02778 4.78793 8.02778C5.01134 8.02778 5.22504 8.11002 5.38531 8.26079L7.39598 10.1614L13.5105 4.40928C13.6708 4.25851 13.8797 4.17627 14.1079 4.17627C14.3313 4.17627 14.545 4.25851 14.7053 4.40928C14.8656 4.56005 14.953 4.75651 14.953 4.97124C14.953 5.18141 14.8656 5.38244 14.7053 5.53321L7.99335 11.8427C7.83308 11.9889 7.61938 12.0712 7.39598 12.0712Z" fill="#39B54A"/>
</svg>
