<svg width="30" height="30" viewBox="0 0 30 30" fill="none" xmlns="http://www.w3.org/2000/svg">
<path d="M18.5376 14.1121L13.2376 8.81213C13.1214 8.69497 12.9832 8.60198 12.8308 8.53852C12.6785 8.47506 12.5151 8.44238 12.3501 8.44238C12.1851 8.44238 12.0217 8.47506 11.8694 8.53852C11.7171 8.60198 11.5788 8.69497 11.4626 8.81213C11.2298 9.04633 11.0991 9.36315 11.0991 9.69338C11.0991 10.0236 11.2298 10.3404 11.4626 10.5746L15.8876 14.9996L11.4626 19.4246C11.2298 19.6588 11.0991 19.9756 11.0991 20.3059C11.0991 20.6361 11.2298 20.9529 11.4626 21.1871C11.5794 21.303 11.7179 21.3946 11.8702 21.4568C12.0225 21.5191 12.1856 21.5506 12.3501 21.5496C12.5146 21.5506 12.6777 21.5191 12.83 21.4568C12.9823 21.3946 13.1208 21.303 13.2376 21.1871L18.5376 15.8871C18.6548 15.7709 18.7478 15.6327 18.8112 15.4804C18.8747 15.328 18.9074 15.1646 18.9074 14.9996C18.9074 14.8346 18.8747 14.6712 18.8112 14.5189C18.7478 14.3666 18.6548 14.2283 18.5376 14.1121Z" fill="#58FD0A"/>
</svg>
