<svg width="24" height="24" viewBox="0 0 24 24" fill="none" xmlns="http://www.w3.org/2000/svg">
<path d="M8 3C8.55228 3 9 3.44772 9 4V5.00435C9.26024 4.99995 9.55827 4.99998 9.91257 5H14.0875C14.4417 4.99998 14.7398 4.99995 15 5.00435V4C15 3.44772 15.4477 3 16 3C16.5523 3 17 3.44772 17 4V5.29135C18.9152 5.8614 20.482 7.22265 21.3253 9H2.67477C3.51799 7.22265 5.08477 5.86141 7 5.29135V4C7 3.44772 7.44772 3 8 3Z" fill="#8B5CF6"/>
<path fill-rule="evenodd" clip-rule="evenodd" d="M2.0718 11H21.9282C21.9324 11.0287 21.9363 11.0575 21.9401 11.0863C22.0001 11.5421 22.0001 12.0671 22 12.9125V13.0875C22.0001 13.9329 22.0001 14.4579 21.9401 14.9137C21.5266 18.0548 19.0548 20.5266 15.9137 20.9401C15.4579 21.0001 14.9329 21.0001 14.0874 21H9.91258C9.06714 21.0001 8.54208 21.0001 8.08633 20.9401C4.94519 20.5266 2.47343 18.0548 2.0599 14.9137C1.99989 14.4579 1.99994 13.9329 2 13.0875V12.9126C1.99994 12.0671 1.99989 11.5421 2.0599 11.0863C2.06369 11.0575 2.06766 11.0287 2.0718 11ZM12 14C11.4477 14 11 14.4477 11 15C11 15.5523 11.4477 16 12 16C12.5523 16 13 15.5523 13 15C13 14.4477 12.5523 14 12 14ZM15 15C15 14.4477 15.4477 14 16 14C16.5523 14 17 14.4477 17 15C17 15.5523 16.5523 16 16 16C15.4477 16 15 15.5523 15 15ZM8 14C7.44772 14 7 14.4477 7 15C7 15.5523 7.44772 16 8 16C8.55228 16 9 15.5523 9 15C9 14.4477 8.55228 14 8 14Z" fill="#8B5CF6"/>
</svg>
