<svg width="65" height="65" viewBox="0 0 65 65" fill="none" xmlns="http://www.w3.org/2000/svg">
<path d="M44.6869 8.125C52.9137 8.125 59.5827 14.8958 59.5827 24.375C59.5827 43.3333 39.2702 54.1667 32.4994 58.2292C27.1434 55.0157 13.3142 47.5654 7.7682 35.2083H20.4911L23.0202 30.9934L31.1452 44.535L36.7411 35.2083H46.041V29.7917H33.6742L31.1452 34.0066L23.0202 20.4651L17.4243 29.7917L5.98542 29.7914C5.61692 28.0654 5.41602 26.2604 5.41602 24.375C5.41602 14.8958 12.1868 8.125 20.3118 8.125C25.3493 8.125 29.791 10.8333 32.4994 13.5417C35.2077 10.8333 39.6493 8.125 44.6869 8.125Z" fill="#1A4402"/>
</svg>
