<svg width="35" height="35" viewBox="0 0 35 35" fill="none" xmlns="http://www.w3.org/2000/svg">
<rect width="35" height="35" rx="10" fill="#58FD0A"/>
<path d="M18.5938 5.74582C20.0522 4.69582 21.7438 4.17082 23.6542 4.17082C24.7042 4.17082 25.8563 4.4479 27.1105 5.03123C28.3647 5.59998 29.3563 6.27082 30.0855 7.04373C31.5876 8.9104 32.2147 11.0833 31.9959 13.5625C31.7626 16.0417 30.9459 17.9812 29.5313 19.3521L18.4626 30.4208C18.1855 30.6979 17.8355 30.8292 17.4272 30.8292C17.0188 30.8292 16.6834 30.6979 16.4063 30.4208C16.2716 30.288 16.1658 30.1287 16.0956 29.953C16.0253 29.7774 15.9921 29.5891 15.998 29.4C15.998 28.9917 16.1292 28.6417 16.4063 28.3646L23.1001 21.6708C23.4647 21.35 23.4647 21.0146 23.1001 20.65C22.7355 20.2854 22.4001 20.2854 22.0792 20.65L15.3855 27.3437C15.2505 27.4797 15.0888 27.5862 14.9106 27.6565C14.7324 27.7267 14.5415 27.7593 14.3501 27.7521C13.9417 27.7521 13.6063 27.6208 13.3292 27.3437C13.1946 27.2109 13.0888 27.0516 13.0185 26.8759C12.9482 26.7003 12.915 26.512 12.9209 26.3229C12.9209 25.9146 13.0522 25.5646 13.3292 25.2875L20.023 18.5937C20.4167 18.2292 20.4167 17.8646 20.023 17.5C19.6876 17.1354 19.3667 17.1354 19.0022 17.5L12.3084 24.2667C12.1719 24.4005 12.0099 24.5056 11.8321 24.5758C11.6542 24.6459 11.4641 24.6796 11.273 24.675C10.8647 24.675 10.5147 24.5437 10.2084 24.2667C9.91675 23.9896 9.77091 23.6542 9.77091 23.2458C9.77091 22.8375 9.93133 22.4729 10.2522 22.1521L16.9605 15.4437C17.3251 15.0792 17.3251 14.7437 16.9605 14.4229C16.5959 14.1021 16.2459 14.1021 15.9251 14.4229L9.15841 21.1458C8.83758 21.4375 8.50216 21.5979 8.13758 21.5979C7.72925 21.5979 7.37925 21.4521 7.11675 21.1458C6.83966 20.8542 6.69383 20.5042 6.69383 20.0958C6.69383 19.6875 6.83966 19.3521 7.11675 19.075C11.5792 14.5833 14.3355 11.8708 15.3855 10.8646L20.5772 15.9979C21.1459 16.5375 21.8022 16.8146 22.6042 16.8146C23.6251 16.8146 24.4272 16.4062 25.0251 15.5896C25.4334 14.9917 25.5792 14.3354 25.4626 13.6062C25.3459 12.8771 25.0397 12.2646 24.5438 11.7542L18.5938 5.74582ZM21.598 14.9771L15.3855 8.74998L5.0605 19.075C3.8355 17.8354 3.1355 15.9396 2.97508 13.3583C2.81466 10.7917 3.51466 8.5604 5.0605 6.69373C6.79591 4.9729 8.86675 4.0979 11.273 4.0979C13.6938 4.0979 15.7501 4.9729 17.4272 6.69373L23.6542 12.9208C23.9313 13.1979 24.0626 13.5333 24.0626 13.9417C24.0626 14.35 23.9313 14.7 23.6542 14.9771C23.3772 15.2396 23.0417 15.3854 22.6042 15.3854C22.2105 15.3854 21.8751 15.2396 21.598 14.9771Z" fill="#1A4402"/>
</svg>
