<svg width="13" height="13" viewBox="0 0 13 13" fill="none" xmlns="http://www.w3.org/2000/svg">
<path d="M6.21289 1.05957C3.20958 1.05957 0.776367 3.49278 0.776367 6.49113C0.776367 9.49445 3.20958 11.9277 6.21289 11.9277C9.21124 11.9277 11.6445 9.49445 11.6445 6.49113C11.6445 3.49278 9.21124 1.05957 6.21289 1.05957ZM6.83517 10.2645C6.56688 10.3092 6.31102 10.3316 6.06385 10.3316C5.80425 10.3316 5.53969 10.3092 5.2801 10.2645C5.24036 10.0049 5.218 9.74907 5.218 9.4932C5.218 9.23734 5.24036 8.97775 5.2801 8.70946C5.53969 8.66971 5.80053 8.64736 6.05142 8.64736C6.30729 8.64736 6.56688 8.66971 6.83517 8.70946C6.87988 8.97899 6.89851 9.23858 6.89851 9.48451C6.89851 9.74534 6.87988 10.0049 6.83517 10.2645ZM8.24243 5.67509C8.11698 5.91729 7.96048 6.11851 7.78038 6.28495C7.60152 6.45138 7.4177 6.58553 7.22518 6.68365C7.03638 6.78674 6.87988 6.86251 6.76313 6.91219V7.87603C6.5172 7.91578 6.27872 7.93814 6.05018 7.93814C5.82164 7.93814 5.59807 7.91578 5.38692 7.87603V6.05641C5.54839 6.02908 5.71855 5.98933 5.89368 5.93592C6.06881 5.88252 6.23401 5.81048 6.38181 5.71608C6.52962 5.62665 6.65134 5.5099 6.7445 5.37575C6.8389 5.23664 6.88734 5.06648 6.88734 4.86029C6.88734 4.55971 6.77555 4.32745 6.56067 4.16971C6.34083 4.00824 6.05018 3.93247 5.69123 3.93247C5.54342 3.93247 5.413 3.93744 5.29625 3.94613C5.17949 3.95483 5.07268 3.97346 4.97331 3.99954C4.87519 4.0219 4.7721 4.05295 4.669 4.08525C4.57088 4.1163 4.46282 4.15232 4.34607 4.19703C4.24794 4.01321 4.16721 3.82068 4.10386 3.6232C4.04176 3.42571 4.00077 3.21952 3.98711 3.00962C4.17094 2.94751 4.3411 2.89286 4.4976 2.84815C4.65037 2.79846 4.80191 2.76244 4.94971 2.73636C5.09752 2.70904 5.24532 2.68668 5.39313 2.67798C5.54094 2.66929 5.7024 2.66059 5.8676 2.66059C6.71469 2.66059 7.3556 2.85311 7.78535 3.23816C8.21511 3.6232 8.43122 4.14735 8.43122 4.82055C8.43495 5.15094 8.36788 5.43413 8.24243 5.67509Z" fill="#DBDDE0"/>
</svg>
