<svg width="50" height="50" viewBox="0 0 50 50" fill="none" xmlns="http://www.w3.org/2000/svg">
<path d="M23.4783 0.0341492C23.3588 0.059761 23.2392 0.128063 23.1966 0.196362C23.1624 0.256126 22.9148 0.375652 22.6416 0.461025C22.3769 0.546402 21.9928 0.734226 21.7879 0.887905C21.583 1.04158 21.361 1.16964 21.3012 1.16964C21.2329 1.16964 21.0963 1.28063 20.9853 1.42577C20.8829 1.56237 20.7292 1.69897 20.6438 1.73312C20.567 1.75874 20.4304 1.8868 20.345 2.0234C20.2682 2.16 20.1401 2.28806 20.0547 2.30514C19.9694 2.33075 19.8413 2.47589 19.7645 2.62957C19.44 3.32111 18.979 3.92728 18.629 4.12364L18.2618 4.32854H13.6601C8.91321 4.32854 8.93029 4.32854 8.52048 4.66151C8.38388 4.7725 8.36681 4.96886 8.36681 6.46293C8.36681 8.74246 8.35827 8.72538 9.434 8.90467C10.117 9.01566 10.1597 9.08396 10.1597 10.117C10.1597 11.1074 10.0658 11.6538 9.88649 11.7648C9.82673 11.8074 7.73503 11.8416 5.24206 11.8416C2.2966 11.8416 0.614704 11.8757 0.452491 11.927C0.307352 11.9782 0.153676 12.1148 0.0939132 12.2343C0.0256127 12.388 0 16.6226 0 28.2508C0 43.7038 0.00853756 44.3953 0.239052 44.7112C0.256127 44.7368 8.03384 44.771 17.5276 44.7966C30.7864 44.8307 34.8332 44.8649 34.9698 44.9417C35.1235 45.0356 35.1577 45.1552 35.2089 45.9235C35.2601 46.6578 35.3199 46.9054 35.5675 47.4688C35.7297 47.8359 35.9687 48.2543 36.0968 48.3994C36.6176 48.9714 37.1042 49.3983 37.3006 49.4495C37.4201 49.4837 37.6165 49.5947 37.7531 49.7057C38.0775 49.9789 38.4446 50.0386 39.5545 49.9789C40.3827 49.9362 40.5193 49.9106 40.7156 49.7227C40.8351 49.6118 41.0742 49.4666 41.2364 49.4069C41.5096 49.2959 42.3463 48.5531 42.3463 48.4165C42.3463 48.3824 42.4744 48.186 42.628 47.964C43.1488 47.2383 43.1915 46.8114 43.2086 40.9974C43.2257 35.6016 43.2171 35.4479 42.7902 35.3626C42.0389 35.2089 41.9023 35.1406 41.7828 34.8503C41.7145 34.6796 41.6633 34.2698 41.6633 33.86C41.6633 33.2453 41.6889 33.1513 41.8597 33.0062C41.9621 32.9208 42.0902 32.8525 42.1414 32.844C42.1926 32.844 42.3719 32.7501 42.5427 32.6391C42.7134 32.5196 43.0891 32.3659 43.3879 32.2891C43.6782 32.2208 44.0026 32.0842 44.0965 31.9988C44.1904 31.9049 44.4038 31.7768 44.5661 31.7085C44.7368 31.6402 44.9332 31.5292 45.0015 31.4609C45.0698 31.3841 45.2491 31.2645 45.3942 31.1877C45.7016 31.034 45.8894 30.8718 46.8285 29.9327C47.6054 29.1643 47.9725 28.7204 48.3482 28.1056C48.8178 27.3373 49.3471 26.2871 49.3471 26.1249C49.3471 26.031 49.4239 25.8005 49.5178 25.6041C49.7654 25.0919 49.8593 24.5199 49.9191 23.1539C49.9959 21.2158 49.8337 19.8498 49.4239 19.0814C49.3812 18.9961 49.3471 18.8424 49.3471 18.7399C49.3386 18.629 49.2532 18.3728 49.1422 18.1594C49.0312 17.9459 48.8348 17.5532 48.7068 17.2886C48.5787 17.0239 48.3994 16.7336 48.3141 16.6568C48.2201 16.5799 48.1518 16.4604 48.1518 16.4007C48.1518 16.3409 48.0494 16.1872 47.9128 16.0506C47.7847 15.9226 47.614 15.7091 47.5371 15.581C47.4518 15.4615 47.3066 15.3335 47.2127 15.2993C47.1188 15.2737 47.042 15.1969 47.042 15.1456C47.0334 15.0859 46.82 14.8468 46.5639 14.6163C46.2992 14.3772 45.9833 14.0955 45.8552 13.976C45.7272 13.8565 45.4796 13.6942 45.3088 13.6174C45.1295 13.532 44.9929 13.4296 44.9929 13.3784C44.9929 13.3271 44.7453 13.1735 44.438 13.0368C44.1306 12.9002 43.8831 12.7551 43.8831 12.7124C43.8831 12.6697 43.6611 12.5844 43.3964 12.5246C43.1232 12.4648 42.722 12.3197 42.5 12.2087C42.1926 12.0465 41.8767 11.9782 41.1767 11.9184C40.5705 11.8672 40.2204 11.7989 40.118 11.705C39.8875 11.5001 39.7765 10.9195 39.8021 10.0487L39.8277 9.24617L40.1692 9.04981C40.357 8.94736 40.6388 8.85345 40.7925 8.85345C41.134 8.85345 41.4072 8.72538 41.4072 8.56317C41.4072 8.49487 41.4669 8.40096 41.5352 8.34119C41.6377 8.25582 41.6633 7.93993 41.6633 6.53977C41.6633 4.94324 41.6548 4.83226 41.4925 4.67004C41.3901 4.56759 41.2193 4.4566 41.0998 4.41392C40.9717 4.36269 39.0593 4.32854 36.3956 4.32854C31.8963 4.32854 31.478 4.30293 31.2048 4.02973C31.0255 3.8419 30.5901 3.25281 30.4791 3.0479C30.1717 2.45882 29.0362 1.33186 28.4301 1.01597C28.3105 0.956203 28.1825 0.845215 28.1483 0.776917C28.1142 0.717152 27.8581 0.597626 27.5934 0.52079C27.3287 0.443951 27.0214 0.298813 26.9104 0.196362C26.7226 0.0256119 26.6116 0.0170746 25.2029 -3.8147e-06C24.3747 -3.8147e-06 23.5978 0.00853729 23.4783 0.0341492ZM26.6799 1.55383C26.825 1.58799 27.0128 1.69043 27.1068 1.77581C27.2092 1.86119 27.4312 1.98071 27.6019 2.04047C27.7727 2.10878 28.0459 2.25391 28.191 2.3649C28.6521 2.71494 29.3607 3.5004 29.4717 3.7736C29.5229 3.9102 29.6595 4.16633 29.7619 4.33708C30.0693 4.83226 30.2571 6.29218 30.1376 7.274C30.0351 8.12775 29.9071 8.65709 29.7449 8.85345C29.6936 8.92175 29.5826 9.10104 29.5143 9.24617C29.3607 9.54499 28.1569 10.8171 28.0288 10.8171C27.9776 10.8171 27.8239 10.9281 27.6958 11.0647C27.4909 11.261 27.3287 11.3293 26.8165 11.4062C26.475 11.4574 26.1249 11.5428 26.0481 11.5855C25.6212 11.8074 24.5967 11.7733 23.5637 11.4916C23.3502 11.4318 23.0429 11.355 22.8721 11.3208C22.7014 11.2781 22.4709 11.1671 22.3599 11.0647C22.2489 10.9708 22.0525 10.8342 21.933 10.7744C21.6598 10.6293 20.6609 9.5706 20.6609 9.41693C20.6609 9.35716 20.5841 9.23764 20.4987 9.1608C20.2938 8.97297 19.9267 7.81187 19.8071 6.96665C19.7303 6.43732 19.7303 6.24096 19.8498 5.77993C19.9267 5.47257 20.0462 5.00301 20.1145 4.7298C20.3535 3.79068 21.5915 2.35637 22.4538 2.0234C22.616 1.96364 22.838 1.83558 22.9404 1.74166C23.0429 1.65628 23.3246 1.55383 23.5807 1.51968C24.1357 1.44284 26.3298 1.46846 26.6799 1.55383ZM18.185 5.55795L18.4838 5.65186L18.5094 6.33487C18.535 7.1374 18.4582 7.29107 17.9716 7.40206C17.7837 7.44475 15.9482 7.47036 13.8906 7.46183L10.1426 7.44475L9.98041 7.23985C9.86088 7.08617 9.81819 6.90688 9.81819 6.47147C9.81819 5.84822 9.94626 5.55795 10.2707 5.49819C10.7146 5.40427 17.8947 5.4555 18.185 5.55795ZM40.007 5.58356C40.1521 5.66894 40.2119 5.80554 40.2546 6.19827C40.3314 6.83858 40.2546 7.2057 40.0155 7.3423C39.8704 7.41914 38.863 7.44475 35.8407 7.44475C32.4086 7.44475 31.8366 7.42767 31.7256 7.31669C31.5548 7.14594 31.5121 5.84822 31.6658 5.66894C31.7256 5.5921 31.8963 5.51526 32.0415 5.49819C32.1951 5.48111 34.0051 5.46404 36.0712 5.47257C38.8715 5.48111 39.8704 5.50673 40.007 5.58356ZM18.8851 9.04981C19.0046 9.13519 19.1327 9.2974 19.1583 9.40839C19.1924 9.52792 19.329 9.74989 19.4656 9.91211C19.6108 10.0658 19.7218 10.2451 19.7218 10.3048C19.7218 10.4158 21.0622 11.7562 21.1731 11.7562C21.2073 11.7562 21.378 11.8672 21.5488 12.0038C21.7196 12.1404 22.0013 12.277 22.172 12.3112C22.3513 12.3453 22.6331 12.4734 22.7953 12.5929C23.0599 12.7978 23.188 12.8234 24.0332 12.8746C24.5455 12.9002 25.3992 12.9088 25.9115 12.8832C26.7226 12.849 26.8933 12.8149 27.1494 12.6441C27.3202 12.5331 27.6446 12.3795 27.8837 12.3112C28.1227 12.2429 28.4045 12.0892 28.5154 11.9697C28.6264 11.8501 28.7716 11.7562 28.8313 11.7562C28.9679 11.7562 29.3692 11.3976 30.0522 10.6634C30.1717 10.5353 30.3681 10.2536 30.4791 10.0231C30.5986 9.80112 30.8291 9.45961 30.9999 9.25471L31.3158 8.89613H34.7735C38.0519 8.89613 38.2397 8.90467 38.4105 9.05835C38.5727 9.20349 38.5898 9.31448 38.5898 10.2707C38.5898 10.8427 38.5556 11.4147 38.5129 11.5257C38.419 11.7733 38.2227 11.8331 37.1811 11.9184C36.592 11.9697 36.3188 12.038 36.0285 12.2002C35.8151 12.3197 35.4565 12.4648 35.2174 12.5161C34.9869 12.5758 34.6966 12.7124 34.5771 12.8149C34.4576 12.9259 34.2185 13.0625 34.0478 13.1137C33.877 13.1735 33.6892 13.2759 33.6294 13.3442C33.5697 13.421 33.416 13.532 33.2879 13.5918C33.1599 13.6601 32.9379 13.8308 32.7842 13.9674C32.2122 14.5053 32.05 14.6419 31.6829 14.881L31.2987 15.1286L23.4271 15.1712C16.2299 15.2139 15.5298 15.2225 15.4018 15.3591C15.2822 15.4786 15.2652 15.7433 15.2737 17.5276C15.2822 18.646 15.3164 19.5937 15.3505 19.6278C15.3847 19.662 18.2704 19.6961 21.7622 19.7047C25.6383 19.7047 28.2081 19.7474 28.3362 19.7986C28.857 19.995 28.857 20.0035 28.635 21.2073C28.5496 21.6598 28.5923 21.6598 21.9928 21.6598C18.2021 21.6598 15.8116 21.6939 15.6664 21.7452C15.3078 21.8818 15.2652 22.155 15.2737 24.1698C15.2822 26.2445 15.3078 26.3725 15.803 26.475C15.9482 26.5006 19.0131 26.5262 22.6075 26.5262H29.1472L29.3436 26.714C29.4546 26.8165 29.54 26.9445 29.54 27.0128C29.54 27.0726 29.5741 27.1238 29.6083 27.1238C29.7192 27.1238 29.9498 27.5678 30.0095 27.8922C30.0522 28.1313 30.0266 28.2252 29.9071 28.3447C29.7534 28.4728 29.1216 28.4898 21.711 28.5069C17.2886 28.524 13.643 28.5667 13.6003 28.6008C13.5662 28.6435 13.515 31.8878 13.4893 35.8151C13.4637 39.7423 13.4125 43.0293 13.3784 43.1061C13.2844 43.294 13.1222 43.3452 12.5075 43.3964C12.0892 43.4306 11.944 43.4135 11.7221 43.2684L11.4403 43.0891V26.1591C11.4403 10.1255 11.4489 9.21202 11.594 9.08396C11.8074 8.89613 12.1489 8.87906 15.581 8.8876C18.3899 8.89613 18.6716 8.91321 18.8851 9.04981ZM9.81819 13.0368C9.91211 13.0881 10.0231 13.2674 10.0743 13.4467C10.1255 13.6601 10.1597 18.5521 10.1597 28.413V43.0635L9.98041 43.2257C9.80966 43.3793 9.61329 43.3879 5.81408 43.3879C2.14293 43.3879 1.80996 43.3793 1.59652 43.2342L1.36601 43.0891V28.3874C1.36601 17.2117 1.39162 13.6259 1.46846 13.404C1.52822 13.2332 1.65629 13.0966 1.78435 13.0454C2.0917 12.9344 9.61329 12.9259 9.81819 13.0368ZM41.0657 13.1478C41.2279 13.2332 41.6718 13.3613 42.0475 13.4296C42.4402 13.5064 42.8073 13.6259 42.9012 13.7199C42.9952 13.8052 43.2769 13.9504 43.5159 14.0443C43.7635 14.1382 44.088 14.3175 44.2331 14.437C44.3782 14.5565 44.549 14.659 44.6173 14.659C44.6856 14.659 44.7795 14.7444 44.8307 14.8554C44.882 14.9578 45.0271 15.0944 45.1637 15.1542C45.3003 15.2139 45.4369 15.342 45.4625 15.4359C45.4967 15.5213 45.5564 15.5981 45.5991 15.5981C45.7186 15.5981 46.6151 16.5629 46.6151 16.6824C46.6151 16.7422 46.6919 16.8275 46.7858 16.8788C46.8797 16.93 47.0505 17.1605 47.17 17.391C47.281 17.6215 47.4176 17.8264 47.4603 17.852C47.503 17.8862 47.6481 18.185 47.7762 18.5265C47.9042 18.8595 48.0579 19.1839 48.1091 19.2437C48.3226 19.4486 48.6214 21.3951 48.6214 22.5135C48.6129 23.7515 48.3311 25.3309 48.0238 25.8859C47.9128 26.0737 47.7847 26.3725 47.7335 26.5433C47.6737 26.714 47.5798 26.9019 47.5115 26.9531C47.4432 27.0128 47.2981 27.2348 47.1956 27.4483C46.9651 27.9093 45.0015 29.9327 44.5575 30.1547C44.3953 30.24 44.1563 30.3937 44.0282 30.5047C43.9001 30.6157 43.644 30.7438 43.4733 30.795C43.294 30.8377 43.0293 30.9657 42.8756 31.0853C42.6878 31.2219 42.4231 31.3072 42.0646 31.3414C41.7743 31.3755 41.245 31.5036 40.8949 31.6231C40.34 31.8109 40.1095 31.8451 39.102 31.8451C38.0178 31.8536 37.053 31.7256 37.053 31.5719C37.053 31.5377 36.7713 31.4609 36.4383 31.4011C36.0968 31.3414 35.7126 31.2389 35.5845 31.1706C35.1321 30.9401 34.8759 30.8121 34.5771 30.6755C34.0051 30.4108 33.4245 29.9583 32.6647 29.1985C32.1781 28.7033 31.4438 27.8239 31.2389 27.4824C31.1706 27.3543 30.9828 27.047 30.8377 26.7994C30.684 26.5433 30.5218 26.1591 30.462 25.9456C30.4108 25.7237 30.2998 25.3907 30.223 25.2029C29.9668 24.5967 29.8558 24.0247 29.8217 23.0258C29.7705 21.8562 29.9668 20.2426 30.2059 19.7388C30.2998 19.551 30.4023 19.2607 30.4364 19.0985C30.4962 18.7997 30.7096 18.3216 30.8121 18.2448C30.8462 18.2192 30.923 18.0655 30.9913 17.9033C31.0511 17.7411 31.1877 17.502 31.2816 17.3739C31.9646 16.469 32.1951 16.1958 32.6135 15.7774C33.2965 15.0859 33.6892 14.7529 33.9539 14.6419C34.0905 14.5907 34.3125 14.437 34.4491 14.3089C34.5942 14.1809 34.8589 14.0357 35.0467 13.9845C35.243 13.9333 35.4736 13.8223 35.5675 13.7284C35.6699 13.6345 36.037 13.5064 36.4639 13.4296C36.8566 13.3442 37.2579 13.2332 37.3604 13.1649C37.6336 12.9856 37.8555 12.9686 39.3582 12.9856C40.5363 12.9942 40.8181 13.0198 41.0657 13.1478ZM29.7705 16.4092C30.0607 16.5373 30.0693 16.5458 30.0266 16.8958C30.001 17.0922 29.8985 17.3483 29.7961 17.4678C29.7022 17.5874 29.5997 17.7496 29.5741 17.8264C29.5485 17.8947 29.4204 18.0228 29.2838 18.0996C29.0619 18.2277 28.4984 18.2448 23.0685 18.2448C19.1327 18.2448 17.0068 18.2106 16.8531 18.1594C16.4946 18.0228 16.4007 17.8264 16.3921 17.2459C16.3921 16.7251 16.4007 16.708 16.708 16.4946L17.0324 16.2811H23.2478C28.5837 16.2811 29.5058 16.2982 29.7705 16.4092ZM28.0715 23.2307C28.4642 23.2905 28.5581 23.4185 28.6862 24.0845C28.7887 24.6394 28.7887 24.6735 28.6094 24.8443L28.4215 25.0321L22.6843 25.0577C17.0837 25.0748 16.9385 25.0748 16.6739 24.9041C16.4007 24.7418 16.3921 24.7162 16.3921 24.1528C16.3921 23.5807 16.3921 23.5722 16.7165 23.3673L17.041 23.1539L22.4196 23.1709C25.3736 23.1795 27.9178 23.2051 28.0715 23.2307ZM24.204 30.1376C24.315 30.3083 24.332 31.1621 24.332 36.6603C24.332 40.1351 24.315 43.0464 24.2808 43.1232C24.2552 43.2001 24.1271 43.294 23.9991 43.3281C23.8796 43.3623 21.8391 43.3879 19.4827 43.3879H15.1798L15.0176 43.183C14.8639 42.9952 14.8554 42.7561 14.8554 36.6603V30.334L15.0432 30.1376L15.2225 29.9412H19.6535H24.0759L24.204 30.1376ZM31.8024 30.1034C31.9475 30.1888 32.272 30.462 32.5281 30.7011C32.7842 30.9401 33.0233 31.1365 33.0574 31.1365C33.0916 31.1365 33.2453 31.2475 33.3989 31.3841C33.5526 31.5121 33.8258 31.6743 34.0051 31.7341C34.1844 31.7853 34.4234 31.9219 34.543 32.0329C34.6625 32.1439 34.9186 32.2634 35.115 32.2891C35.3113 32.3232 35.6443 32.4427 35.8577 32.5452C36.0712 32.6562 36.3871 32.8098 36.5664 32.8867C36.9506 33.066 36.9932 33.2026 36.9591 34.1588C36.9164 35.0808 36.831 35.1833 36.0114 35.3028C35.687 35.354 35.3967 35.4138 35.3711 35.4394C35.226 35.5845 35.1747 36.5408 35.1747 39.6484V43.1659L34.9869 43.2769C34.8332 43.3623 33.8258 43.3879 30.4279 43.3879C26.253 43.3879 26.0481 43.3793 25.8773 43.2257C25.6981 43.0635 25.6981 43.0635 25.6981 36.6774V30.2913L25.92 30.1205C26.142 29.9498 26.2445 29.9412 28.8484 29.9412C31.3499 29.9412 31.5634 29.9498 31.8024 30.1034ZM40.1351 33.6038C40.4168 33.9539 40.2973 34.9613 39.9558 35.1491C39.7765 35.243 38.8544 35.2687 38.6325 35.1833C38.4105 35.0979 38.2483 34.6796 38.2483 34.1929C38.2483 33.4758 38.4361 33.3392 39.3496 33.3819C39.8875 33.3989 39.9985 33.4331 40.1351 33.6038ZM41.7999 36.7457C41.9109 36.8652 42.0048 37.0445 42.0048 37.1469C42.0475 40.4851 41.9792 46.5468 41.9023 46.7688C41.7572 47.1956 41.4413 47.614 40.9632 48.0323C40.5278 48.4165 40.5278 48.4165 39.7765 48.4507C38.6581 48.5019 38.1458 48.4165 37.8043 48.1262C37.1384 47.5371 37.0018 47.3835 36.7969 46.9737C36.6859 46.7602 36.6688 45.9833 36.6432 41.9877C36.6261 38.4788 36.6432 37.1896 36.72 37.0103C36.9249 36.5151 36.9762 36.5066 39.3923 36.5237L41.6035 36.5322L41.7999 36.7457Z" fill="#1A4402"/>
<path d="M24.4345 3.49189C24.3919 3.55165 24.3406 4.00414 24.3406 4.49932C24.3236 5.66897 24.3321 5.66897 23.0771 5.72019C22.4794 5.73727 22.0696 5.79703 21.9843 5.86533C21.8989 5.94217 21.8562 6.13 21.8562 6.51419C21.8562 7.03498 21.8647 7.06059 22.0953 7.12035C22.2233 7.1545 22.4026 7.17158 22.4965 7.1545C22.8722 7.09474 24.0845 7.24842 24.204 7.37648C24.2979 7.47039 24.3321 7.70944 24.3321 8.34122C24.3321 9.40842 24.4089 9.58771 24.8529 9.60478C25.0407 9.61332 25.3054 9.56209 25.4505 9.49379L25.6981 9.35719V8.52051C25.6981 8.05095 25.7237 7.60699 25.7493 7.53869C25.8432 7.28257 26.1591 7.19719 27.1495 7.14597L28.1313 7.10328L28.1569 6.48857C28.174 5.96778 28.1569 5.86533 28.0289 5.79703C27.9435 5.74581 27.4568 5.71166 26.936 5.70312C25.7237 5.70312 25.6981 5.67751 25.6981 4.49932C25.6981 3.48335 25.6383 3.38944 24.9809 3.38944C24.7163 3.38944 24.4858 3.43213 24.4345 3.49189Z" fill="#1A4402"/>
<path d="M5.63505 15.1712C3.61165 15.2225 3.41528 15.2737 3.41528 15.8116C3.41528 16.0165 3.46651 16.1275 3.5775 16.1958C3.79094 16.3067 7.50477 16.3153 7.80359 16.1958C7.97434 16.136 8.02557 16.0506 8.02557 15.8713C8.02557 15.5981 7.90604 15.4274 7.59869 15.2481C7.42794 15.1542 7.05228 15.1371 5.63505 15.1712Z" fill="#1A4402"/>
<path d="M3.64568 20.1401C3.55177 20.2084 3.47493 20.4219 3.44078 20.7121C3.36394 21.4122 3.33833 21.4037 5.72031 21.4037C8.02545 21.4037 8.07667 21.3951 7.99983 20.8402C7.923 20.2767 7.88885 20.1828 7.71809 20.1145C7.42782 19.995 3.80789 20.0291 3.64568 20.1401Z" fill="#1A4402"/>
<path d="M3.67114 25.1517C3.50892 25.1943 3.44916 25.2712 3.43209 25.5017C3.38086 26.0481 3.48331 26.3298 3.77359 26.4323C4.05533 26.5347 7.23984 26.5603 7.58134 26.475C7.82039 26.4067 7.99114 26.0737 8.01676 25.6212C8.02529 25.3224 7.99968 25.2626 7.81185 25.1773C7.5728 25.0663 4.05533 25.0407 3.67114 25.1517Z" fill="#1A4402"/>
<path d="M3.65433 30.2998C3.44943 30.3681 3.41528 30.4278 3.41528 30.7181C3.41528 31.0169 3.44943 31.0681 3.74825 31.2133C4.04706 31.367 4.25196 31.384 5.8058 31.384H7.53892L7.76944 31.1535C8.06825 30.8462 8.06825 30.462 7.76944 30.3083C7.50477 30.1717 4.01291 30.1632 3.65433 30.2998Z" fill="#1A4402"/>
<path d="M3.75654 35.354C3.26136 35.5333 3.28697 36.1822 3.79922 36.3956C4.14073 36.5322 7.18863 36.5749 7.53867 36.4383C7.8631 36.3102 8.02532 36.0968 8.02532 35.7894C8.02532 35.3284 7.70943 35.2516 5.72017 35.2516C4.5676 35.243 3.96144 35.2772 3.75654 35.354Z" fill="#1A4402"/>
<path d="M3.69702 40.4424C3.44943 40.5875 3.41528 40.6558 3.41528 40.9546C3.41528 41.2534 3.44943 41.3132 3.6458 41.39C3.97876 41.5096 7.72675 41.4583 7.86335 41.3217C7.91458 41.2705 7.9658 41.0741 7.97434 40.8949C7.98288 40.6046 7.94873 40.5534 7.68406 40.4253C7.42794 40.2972 7.12912 40.2716 5.67774 40.2716C4.1239 40.2716 3.94461 40.2887 3.69702 40.4424Z" fill="#1A4402"/>
<path d="M39.0851 15.1371C39.0509 15.1627 38.5557 15.2396 37.9752 15.2993C36.9165 15.4103 36.4555 15.5213 36.4555 15.675C36.4555 15.7262 36.225 15.8287 35.9433 15.9055C35.6359 15.9909 35.3627 16.1275 35.2773 16.2385C35.1919 16.3409 35.0297 16.4775 34.9187 16.5373C34.7992 16.597 34.6199 16.7251 34.5175 16.8276C33.6296 17.6984 33.4588 17.8862 33.4161 18.0314C33.382 18.1253 33.2795 18.2875 33.1771 18.3814C33.0746 18.4838 32.938 18.7144 32.8783 18.8936C32.81 19.0815 32.6819 19.3291 32.5965 19.4486C32.3746 19.7474 31.9733 21.8903 31.9818 22.727C31.9904 23.4869 32.3831 25.3651 32.5795 25.5871C32.6392 25.6639 32.7587 25.8688 32.8441 26.0652C33.0917 26.6201 33.8003 27.4397 34.6029 28.1057C34.7736 28.2423 35.0383 28.4643 35.1834 28.6009C35.3371 28.7289 35.6017 28.8741 35.781 28.9338C35.9603 28.985 36.1908 29.1046 36.2848 29.1899C36.3787 29.2839 36.6604 29.3863 36.908 29.429C37.8898 29.5997 38.2825 29.6937 38.4021 29.7961C38.6155 29.9669 39.751 29.9156 40.3657 29.7022C40.656 29.5997 41.1256 29.4802 41.4073 29.4461C41.7146 29.4034 42.0391 29.2924 42.2354 29.1558C42.4147 29.0363 42.6538 28.9082 42.7733 28.8741C42.8928 28.8399 43.0807 28.7289 43.2002 28.6179C43.3197 28.5155 43.5331 28.3533 43.6697 28.2679C43.9429 28.1057 44.3186 27.7812 44.5491 27.5166C44.6259 27.4227 44.8223 27.2092 44.976 27.0385C45.1211 26.8592 45.2492 26.6884 45.2492 26.6458C45.2492 26.6031 45.3858 26.3982 45.548 26.1933C45.7102 25.9884 45.8468 25.7749 45.8468 25.7152C45.8468 25.6554 45.9663 25.3822 46.1029 25.1175C46.2908 24.7589 46.3847 24.4345 46.4445 23.8881C46.6237 22.3343 46.4957 20.3706 46.1883 19.8413C46.0944 19.6876 45.9663 19.3888 45.8895 19.1839C45.8212 18.9705 45.7102 18.757 45.6505 18.7144C45.5907 18.6631 45.4199 18.4326 45.2663 18.2021C44.8735 17.5874 44.0539 16.7678 43.6185 16.5458C43.4905 16.4861 43.2941 16.3409 43.166 16.2214C43.0465 16.1104 42.7477 15.9567 42.5172 15.8884C42.2781 15.8201 42.0903 15.7347 42.0903 15.6921C42.0903 15.5384 41.6293 15.4189 40.5535 15.3079C39.9218 15.2396 39.3412 15.1627 39.2644 15.1286C39.1961 15.103 39.1107 15.103 39.0851 15.1371ZM40.1864 16.4007C40.4852 16.4604 40.8097 16.5714 40.9121 16.6397C41.0231 16.6995 41.3219 16.8105 41.578 16.8702C41.8342 16.9385 42.1586 17.0751 42.2867 17.1861C42.4233 17.2971 42.5684 17.391 42.6111 17.391C42.6538 17.391 43.0124 17.7069 43.3965 18.0911C44.3784 19.0729 44.7711 19.7559 45.0272 20.9341C45.1126 21.3098 45.2236 21.7281 45.2833 21.8733C45.437 22.2831 45.4029 23.7771 45.2321 24.1357C45.1553 24.2979 45.0016 24.6394 44.9077 24.8956C44.8052 25.1517 44.6345 25.4676 44.515 25.6042C44.404 25.7408 44.3101 25.8944 44.3101 25.9371C44.3101 26.0481 42.9355 27.38 42.816 27.38C42.7648 27.38 42.6367 27.4739 42.5342 27.5849C42.4403 27.7044 42.2013 27.841 42.0135 27.8922C41.8256 27.9435 41.45 28.0971 41.1768 28.2423L40.6816 28.5069L39.1448 28.4728C37.6678 28.4472 37.591 28.4301 37.2239 28.2167C37.0104 28.0971 36.7031 27.952 36.5323 27.9008C36.3616 27.8495 36.1311 27.7044 36.0286 27.5934C35.9176 27.4739 35.7725 27.38 35.7042 27.38C35.5505 27.38 34.3211 26.1164 34.3211 25.9542C34.3211 25.8944 34.2784 25.8432 34.2272 25.8432C34.1845 25.8432 34.0223 25.57 33.8772 25.2456C33.732 24.9126 33.5869 24.648 33.5442 24.648C33.3991 24.648 33.2625 23.5978 33.2539 22.4709C33.2539 21.2159 33.3137 20.8744 33.6893 20.0889C33.8003 19.8499 33.8942 19.6193 33.8942 19.5681C33.8942 19.5169 33.9625 19.3974 34.0479 19.3034C34.1333 19.2181 34.287 19.0046 34.4065 18.8424C34.7053 18.4155 35.67 17.4935 35.8835 17.4252C35.9859 17.3996 36.1482 17.2886 36.2421 17.1776C36.3445 17.0666 36.5921 16.9471 36.8738 16.8873C37.1214 16.8361 37.4373 16.7166 37.5654 16.6227C37.9837 16.3238 39.307 16.2129 40.1864 16.4007Z" fill="#1A4402"/>
<path d="M38.5044 18.501C38.3849 18.5863 38.1459 18.6888 37.9751 18.7144C37.7958 18.7485 37.5312 18.8595 37.3775 18.9791C37.2238 19.09 36.9335 19.2693 36.7372 19.3718C36.5323 19.4742 36.3701 19.6023 36.3701 19.6621C36.3701 19.7218 36.2761 19.8499 36.1566 19.9609C35.9176 20.1829 35.3882 21.1817 35.3029 21.5745C35.226 21.9331 35.3712 22.138 35.7468 22.1977C36.2761 22.2831 36.5664 22.1636 36.6603 21.8221C36.7799 21.3866 37.4458 20.3963 37.6678 20.328C37.7788 20.2938 37.9837 20.1829 38.1288 20.0719C38.2739 19.9609 38.4532 19.867 38.5215 19.867C38.5984 19.867 38.7435 19.7987 38.8545 19.7047C39.0167 19.5767 39.0509 19.4828 39.0252 19.1413C38.9996 18.6973 38.8886 18.3302 38.7862 18.3302C38.7435 18.3302 38.624 18.407 38.5044 18.501Z" fill="#1A4402"/>
<path d="M21.3525 36.1651C21.233 36.2761 21.1476 36.4639 21.122 36.7457C21.0537 37.2921 21.1647 37.386 21.8306 37.3518L22.3258 37.3262L22.3514 36.8908C22.3685 36.6603 22.3343 36.3615 22.2916 36.2334C22.2148 36.037 22.155 36.0029 21.8733 36.0029C21.6684 36.0029 21.472 36.0627 21.3525 36.1651Z" fill="#1A4402"/>
<path d="M27.7982 36.1395C27.6957 36.4127 27.7469 37.258 27.875 37.3689C28.0116 37.4799 28.5665 37.4202 28.7544 37.2665C28.8824 37.1555 28.891 36.7542 28.7629 36.3188C28.6775 36.0115 28.669 36.0029 28.2677 36.0029C27.9689 36.0029 27.8323 36.0371 27.7982 36.1395Z" fill="#1A4402"/>
<path d="M38.7778 38.6751C38.7265 38.7349 38.6582 38.9398 38.6241 39.1276C38.5643 39.5545 38.7265 39.7594 39.1278 39.7594C39.5547 39.7594 39.7852 39.5545 39.7852 39.1703C39.7852 38.9142 39.734 38.8117 39.5718 38.7007C39.3242 38.5385 38.9058 38.5215 38.7778 38.6751Z" fill="#1A4402"/>
<path d="M38.7521 42.1243C38.6581 42.2267 38.624 42.7134 38.6155 44.2757C38.5984 45.3856 38.624 46.3418 38.6667 46.4016C38.7435 46.5297 39.196 46.5724 39.5546 46.4784L39.7851 46.4187V44.3867C39.7851 42.3719 39.7851 42.3463 39.5887 42.167C39.3497 41.945 38.9143 41.9194 38.7521 42.1243Z" fill="#1A4402"/>
</svg>
