<svg width="64" height="64" viewBox="0 0 64 64" fill="none" xmlns="http://www.w3.org/2000/svg">
<path d="M50.0448 12.9875C43.4423 12.9875 38.0898 18.34 38.0898 24.9425C38.0898 31.545 43.4423 36.8975 50.0448 36.8975C56.6473 36.8975 61.9998 31.545 61.9998 24.9425C61.9998 18.34 56.6473 12.9875 50.0448 12.9875ZM51.9773 31.1663C51.8323 32.1038 51.0223 32.82 50.0448 32.82C49.0673 32.82 48.2573 32.1025 48.1123 31.1663C48.0873 31.0088 48.2073 30.8638 48.3673 30.8638H51.7223C51.8823 30.8638 52.0023 31.0075 51.9773 31.1663ZM56.1448 29.2788C56.1448 29.6188 55.8698 29.8938 55.5298 29.8938H44.5598C44.2198 29.8938 43.9448 29.6188 43.9448 29.2788V28.805C43.9448 28.395 44.0786 27.9975 44.3261 27.6713L44.8673 26.9575C45.2811 26.4125 45.5273 25.7588 45.5761 25.0763L45.7498 22.6438C45.8873 20.715 47.2811 19.16 49.0961 18.7513C49.0948 18.7163 49.0923 18.6813 49.0923 18.645C49.0923 17.7725 49.5186 17.065 50.0436 17.065C50.5686 17.065 50.9948 17.7725 50.9948 18.645C50.9948 18.6813 50.9936 18.7163 50.9911 18.7513C52.8061 19.16 54.1998 20.715 54.3373 22.6438L54.5111 25.0763C54.5598 25.7588 54.8061 26.4125 55.2198 26.9575L55.7611 27.6713C56.0086 27.9975 56.1423 28.3963 56.1423 28.805V29.2788H56.1448Z" fill="#1A4402"/>
<path d="M32.6241 28.1413L31.0878 18.6388C30.6191 15.7413 28.1178 13.6113 25.1828 13.6113H23.8741C22.1091 13.6113 20.6528 14.9338 20.4416 16.6413H25.4366C25.6778 16.6413 25.8741 16.8376 25.8741 17.0788C25.8741 17.3201 25.6778 17.5163 25.4366 17.5163H20.4141V23.4851H27.4866C27.7278 23.4851 27.9241 23.6813 27.9241 23.9226C27.9241 24.1638 27.7278 24.3601 27.4866 24.3601H20.4141V28.7713C20.4141 30.6376 21.9266 32.1501 23.7928 32.1501H29.2103C31.3403 32.1513 32.9641 30.2438 32.6241 28.1413Z" fill="#749D1C"/>
<path d="M25.5278 43.2311C25.4315 43.2311 25.334 43.1999 25.2528 43.1336L2.01404 24.3336C1.82654 24.1811 1.79654 23.9061 1.94904 23.7186C2.10154 23.5311 2.37654 23.5011 2.56404 23.6536L25.8028 42.4549C25.9903 42.6074 26.0015 42.8424 25.849 43.0299C25.7628 43.1361 25.6553 43.2311 25.5278 43.2311Z" fill="#424852"/>
<path d="M32.681 43.2313C32.5535 43.2313 32.5498 43.0976 32.4635 42.9913C32.311 42.8038 32.2173 42.6063 32.406 42.4538L40.976 35.5201C41.1635 35.3688 41.4398 35.3976 41.591 35.5851C41.7435 35.7726 41.7135 36.0488 41.526 36.2001L32.956 43.1338C32.8748 43.2001 32.7773 43.2313 32.681 43.2313Z" fill="#424852"/>
<path d="M53.4113 62.2663H4.8C3.015 62.2663 1.5625 60.8138 1.5625 59.0288V25.355C1.5625 24.2075 2.07375 23.135 2.96625 22.4138L10.43 16.375C10.6175 16.2238 10.8938 16.2525 11.045 16.44C11.1975 16.6275 11.1675 16.9038 10.98 17.055L3.51625 23.0938C2.83 23.6488 2.4375 24.4725 2.4375 25.355V59.0288C2.4375 60.3313 3.4975 61.3913 4.8 61.3913H53.4113C54.7138 61.3913 55.7738 60.3313 55.7738 59.0288V36.8975C55.7738 36.6563 55.97 36.46 56.2113 36.46C56.4525 36.46 56.6488 36.6563 56.6488 36.8975V59.03C56.6488 60.815 55.1963 62.2663 53.4113 62.2663Z" fill="#424852"/>
<path d="M37.794 9.29758C37.6978 9.29758 37.6003 9.26633 37.519 9.20008L29.579 2.77633C29.304 2.55383 28.904 2.55383 28.629 2.77633L20.689 9.20008C20.5015 9.35133 20.2253 9.32258 20.074 9.13508C19.9215 8.94758 19.9515 8.67133 20.139 8.52008L28.079 2.09633C28.6728 1.61633 29.5353 1.61633 30.129 2.09633L38.069 8.52008C38.2565 8.67258 38.2865 8.94758 38.134 9.13508C38.0478 9.24258 37.9215 9.29758 37.794 9.29758Z" fill="#424852"/>
<path d="M23.668 8.86011L26.4317 6.62386C28.9392 4.59511 32.523 4.59511 35.0305 6.62386L37.7942 8.86011H23.668Z" fill="#424852"/>
<path d="M7.33432 28.1563L10.7031 30.8013L10.5643 19.8301L7.29307 22.4776C5.47932 23.9451 5.49932 26.7163 7.33432 28.1563Z" fill="#424852"/>
<path d="M55.3029 61.5313C55.2067 61.5313 55.1092 61.5001 55.0279 61.4338L29.9242 41.1238C29.4505 40.7413 28.7642 40.7413 28.2904 41.1238L5.3492 59.6838C5.1617 59.8351 4.88545 59.8063 4.7342 59.6188C4.5817 59.4313 4.6117 59.1551 4.7992 59.0038L27.7392 40.4438C28.5317 39.8026 29.6817 39.8026 30.4742 40.4438L55.5792 60.7538C55.7667 60.9063 55.7967 61.1813 55.6442 61.3688C55.5567 61.4763 55.4304 61.5313 55.3029 61.5313Z" fill="#424852"/>
<path d="M10.7031 31.2389C10.4619 31.2389 10.2656 31.0426 10.2656 30.8014V10.6126C10.2656 9.40511 11.2481 8.42261 12.4556 8.42261H45.7506C46.9581 8.42261 47.9406 9.40511 47.9406 10.6126V11.4351C47.9406 11.6764 47.7444 11.8726 47.5031 11.8726C47.2619 11.8726 47.0656 11.6764 47.0656 11.4351V10.6126C47.0656 9.88761 46.4756 9.29761 45.7506 9.29761H12.4556C11.7306 9.29761 11.1406 9.88761 11.1406 10.6126V30.8014C11.1406 31.0426 10.9456 31.2389 10.7031 31.2389Z" fill="#424852"/>
<path d="M38.7152 16.6575H18.2539C18.0127 16.6575 17.8164 16.4612 17.8164 16.22C17.8164 15.9787 18.0127 15.7825 18.2539 15.7825H38.7152C38.9564 15.7825 39.1527 15.9787 39.1527 16.22C39.1527 16.4612 38.9564 16.6575 38.7152 16.6575Z" fill="#424852"/>
<path d="M36.1627 23.4951H18.2539C18.0127 23.4951 17.8164 23.2989 17.8164 23.0576C17.8164 22.8164 18.0127 22.6201 18.2539 22.6201H36.1627C36.4039 22.6201 36.6002 22.8164 36.6002 23.0576C36.6002 23.2989 36.4039 23.4951 36.1627 23.4951Z" fill="#424852"/>
<path d="M36.5489 30.3313H18.2539C18.0127 30.3313 17.8164 30.135 17.8164 29.8938C17.8164 29.6525 18.0127 29.4563 18.2539 29.4563H36.5502C36.7914 29.4563 36.9877 29.6525 36.9877 29.8938C36.9877 30.135 36.7914 30.3313 36.5489 30.3313Z" fill="#424852"/>
</svg>
