<svg width="65" height="64" viewBox="0 0 65 64" fill="none" xmlns="http://www.w3.org/2000/svg">
<path d="M61.536 49.2812L48.7373 41.8824C47.3323 41.0699 45.5085 41.4799 44.586 42.8149L42.0173 46.5336C41.5598 47.1961 40.6723 47.4224 39.9523 47.0574L36.9698 45.5462C33.1398 43.6049 29.6586 41.0812 26.621 38.0449C23.5835 35.0086 21.0611 31.5274 19.1198 27.6962L17.6085 24.7137C17.2435 23.9949 17.4698 23.1074 18.1323 22.6487L21.851 20.0799C23.1861 19.1574 23.5961 17.3337 22.7836 15.9287L15.3848 3.1299C14.6423 1.84615 13.0835 1.2549 11.676 1.72365C8.59105 2.7524 5.9798 4.8599 4.3223 7.6574L3.3798 9.24865C2.1623 11.3037 1.89605 13.7824 2.6498 16.0487C6.18855 26.7037 12.2561 36.5324 20.1948 44.4711C28.1335 52.4099 37.9623 58.4774 48.6173 62.0162C49.4648 62.2974 50.3423 62.4374 51.216 62.4374C52.6786 62.4374 54.1311 62.0487 55.4173 61.2862L57.0085 60.3437C59.806 58.6861 61.9135 56.0749 62.9423 52.9899C63.411 51.5837 62.8198 50.0237 61.536 49.2812ZM45.306 43.3124C45.9711 42.3499 47.2861 42.0536 48.2998 42.6399L50.1398 43.7037C48.6598 43.4074 47.0948 43.8374 45.9686 44.9137L44.701 44.1887L45.306 43.3124ZM56.5623 59.5912L54.9711 60.5336C53.1335 61.6212 50.9185 61.8599 48.8923 61.1861C38.3661 57.6899 28.656 51.6949 20.8123 43.8524C12.9685 36.0099 6.97605 26.2999 3.4798 15.7737C2.8073 13.7474 3.0448 11.5324 4.1323 9.6949L5.0748 8.10365C6.6248 5.4874 9.0673 3.51615 11.9523 2.5549C12.186 2.4774 12.426 2.4399 12.6623 2.4399C13.4535 2.4399 14.2148 2.85615 14.626 3.56865L16.291 6.44865C15.1098 5.4749 13.5673 4.9999 12.0085 5.1749L11.5085 4.2999C11.3885 4.0899 11.121 4.0174 10.911 4.1374C10.701 4.2574 10.6285 4.5249 10.7485 4.7349L19.751 20.4674L17.636 21.9287C16.6148 22.6337 16.2673 24.0012 16.8285 25.1087L18.3398 28.0912C20.3235 32.0037 22.9023 35.5611 26.0035 38.6624C29.106 41.7636 32.6623 44.3424 36.5748 46.3261L39.5573 47.8374C40.6648 48.3987 42.0323 48.0512 42.7373 47.0299L44.2023 44.9099L61.266 54.6749C60.1823 56.6999 58.5623 58.4074 56.5623 59.5912Z" fill="#424852"/>
<path d="M35.1818 50.1236C34.6105 49.7761 34.0393 49.4149 33.483 49.0524C33.2805 48.9199 33.0093 48.9774 32.878 49.1786C32.7455 49.3811 32.803 49.6524 33.0043 49.7836C33.5668 50.1524 34.1468 50.5174 34.7268 50.8711C34.798 50.9149 34.8768 50.9349 34.9543 50.9349C35.1018 50.9349 35.2455 50.8599 35.328 50.7249C35.4543 50.5186 35.388 50.2486 35.1818 50.1236Z" fill="#424852"/>
<path d="M31.5608 47.7412C24.6633 42.8487 18.9371 36.7062 14.5421 29.4837C14.4171 29.2775 14.1471 29.2125 13.9408 29.3375C13.7346 29.4625 13.6683 29.7325 13.7946 29.9387C18.2521 37.2637 24.0583 43.4937 31.0546 48.455C31.1308 48.51 31.2196 48.5362 31.3071 48.5362C31.4446 48.5362 31.5796 48.4725 31.6646 48.3525C31.8046 48.1537 31.7583 47.8812 31.5608 47.7412Z" fill="#424852"/>
<path d="M56.9264 2H37.2439C34.0739 2 31.5039 4.57 31.5039 7.74V22.6038C31.5039 25.7738 34.0739 28.3438 37.2439 28.3438C38.2477 28.3438 39.0627 29.1575 39.0627 30.1625V33.9487C39.0627 34.6675 39.9327 35.0288 40.4402 34.52L45.6452 29.315C46.2664 28.6938 47.1089 28.345 47.9864 28.345H56.9252C60.0952 28.345 62.6652 25.775 62.6652 22.605V7.74C62.6664 4.57 60.0964 2 56.9264 2ZM55.9114 17.25C55.9114 17.7825 55.4802 18.215 54.9464 18.215H50.1677C50.0302 18.215 49.9189 18.3263 49.9189 18.4638V23.2425C49.9189 23.775 49.4877 24.2075 48.9539 24.2075H45.2139C44.6814 24.2075 44.2489 23.7763 44.2489 23.2425V18.4625C44.2489 18.325 44.1377 18.2138 44.0002 18.2138H39.2214C38.6889 18.2138 38.2564 17.7825 38.2564 17.2488V13.5087C38.2564 12.9762 38.6877 12.5437 39.2214 12.5437H44.0002C44.1377 12.5437 44.2489 12.4325 44.2489 12.295V7.5175C44.2489 6.985 44.6802 6.5525 45.2139 6.5525H48.9539C49.4864 6.5525 49.9189 6.98375 49.9189 7.5175V12.2963C49.9189 12.4338 50.0302 12.545 50.1677 12.545H54.9464C55.4789 12.545 55.9114 12.9763 55.9114 13.51V17.25Z" fill="#1A4402"/>
<path d="M13.0027 11.5038L10.4902 6.91756C9.94022 5.91256 8.51772 5.85506 7.88647 6.81131L5.81147 9.96381C4.78897 11.5176 5.59897 13.6151 7.40022 14.0788L10.4015 14.8501C12.359 15.3526 13.9727 13.2763 13.0027 11.5038Z" fill="#749D1C"/>
<path d="M54.973 52.5301L57.7793 54.2201C58.8168 54.8451 58.9168 56.3113 57.9743 57.0713L56.7755 58.0388C55.6793 58.9238 54.0393 58.5001 53.508 57.1951L52.478 54.6651C51.8505 53.1238 53.548 51.6726 54.973 52.5301Z" fill="#749D1C"/>
</svg>
