<svg width="65" height="64" viewBox="0 0 65 64" fill="none" xmlns="http://www.w3.org/2000/svg">
<path d="M25.9688 61.9998H31.8962V50.7889C31.8962 50.5473 32.0921 50.3514 32.3337 50.3514C32.5753 50.3514 32.7712 50.5473 32.7712 50.7889V61.9998H38.6987V48.7024H25.9688V61.9998Z" fill="#1A4402"/>
<path d="M53.6362 30.4775H50.9278C50.5233 30.4775 50.1953 30.8055 50.1953 31.21V33.9184C50.1953 34.323 50.5233 34.6509 50.9278 34.6509H53.6362C54.0407 34.6509 54.3687 34.323 54.3687 33.9184V31.21C54.3687 30.8055 54.0407 30.4775 53.6362 30.4775Z" fill="#1A4402"/>
<path d="M53.6362 39.5898H50.9278C50.5233 39.5898 50.1953 39.9178 50.1953 40.3223V43.0307C50.1953 43.4353 50.5233 43.7632 50.9278 43.7632H53.6362C54.0407 43.7632 54.3687 43.4353 54.3687 43.0307V40.3223C54.3687 39.9178 54.0407 39.5898 53.6362 39.5898Z" fill="#1A4402"/>
<path d="M53.6362 48.7024H50.9278C50.5233 48.7024 50.1953 49.0303 50.1953 49.4349V52.1433C50.1953 52.5478 50.5233 52.8758 50.9278 52.8758H53.6362C54.0407 52.8758 54.3687 52.5478 54.3687 52.1433V49.4349C54.3687 49.0303 54.0407 48.7024 53.6362 48.7024Z" fill="#1A4402"/>
<path d="M13.7417 30.4775H11.0333C10.6287 30.4775 10.3008 30.8055 10.3008 31.21V33.9184C10.3008 34.323 10.6287 34.6509 11.0333 34.6509H13.7417C14.1462 34.6509 14.4742 34.323 14.4742 33.9184V31.21C14.4742 30.8055 14.1462 30.4775 13.7417 30.4775Z" fill="#1A4402"/>
<path d="M13.7417 39.5898H11.0333C10.6287 39.5898 10.3008 39.9178 10.3008 40.3223V43.0307C10.3008 43.4353 10.6287 43.7632 11.0333 43.7632H13.7417C14.1462 43.7632 14.4742 43.4353 14.4742 43.0307V40.3223C14.4742 39.9178 14.1462 39.5898 13.7417 39.5898Z" fill="#1A4402"/>
<path d="M13.7417 48.7024H11.0333C10.6287 48.7024 10.3008 49.0303 10.3008 49.4349V52.1433C10.3008 52.5478 10.6287 52.8758 11.0333 52.8758H13.7417C14.1462 52.8758 14.4742 52.5478 14.4742 52.1433V49.4349C14.4742 49.0303 14.1462 48.7024 13.7417 48.7024Z" fill="#1A4402"/>
<path d="M37.608 7.21043H31.6339C31.397 7.21043 31.1847 7.03302 31.1723 6.79643C31.1591 6.54412 31.3598 6.33543 31.6092 6.33543H36.5371C37.0463 6.33543 37.4398 5.88862 37.3755 5.38357L37.3026 4.81008C37.2304 4.24333 36.7495 3.81774 36.1782 3.81508L28.1833 3.77784C27.4952 3.77464 26.9615 4.37776 27.0483 5.06038L27.3712 7.59694C27.4433 8.16369 27.9242 8.58927 28.4955 8.59193L36.4904 8.62916C37.1785 8.63237 37.7122 8.02926 37.6254 7.34665L37.608 7.21043Z" fill="#749D1C"/>
<path d="M25.0281 27.1607C25.0454 29.0753 25.098 34.9017 26.9856 36.5891C27.373 36.9355 27.8167 37.1102 28.3073 37.1101C28.3803 37.1101 28.4544 37.1063 28.5294 37.0985C29.1692 37.0325 29.6429 36.4668 29.6081 35.8108C29.4715 33.2416 30.2743 30.9512 31.5603 30.2411C32.0469 29.9724 32.628 29.9724 33.1145 30.2411C34.4005 30.9512 35.2034 33.2416 35.0668 35.8107C35.0319 36.4668 35.5057 37.0325 36.1455 37.0985C36.7248 37.1584 37.2442 36.987 37.6892 36.5891C38.1561 36.1718 39.5769 34.9017 39.6468 27.1607C39.6478 27.042 39.6772 26.9262 39.7317 26.8259C41.878 22.8733 41.2416 18.6465 38.2516 16.9941C37.0879 16.3511 35.6908 16.2748 34.4188 16.7848C33.5735 17.1236 32.9284 17.3538 32.3375 17.5271C31.6905 17.3363 30.9976 17.0821 30.2561 16.7848C28.9841 16.2748 27.587 16.3511 26.4233 16.9941C23.4332 18.6465 22.7968 22.8733 24.9432 26.826C24.9977 26.9262 25.0271 27.042 25.0281 27.1607ZM26.8465 17.7599C27.7792 17.2445 28.9032 17.1852 29.9305 17.597C31.9561 18.409 34.2771 19.2156 36.1892 18.5034C36.4156 18.419 36.5308 18.1671 36.4464 17.9407C36.3621 17.7143 36.1104 17.5992 35.8837 17.6834C35.323 17.8924 34.7044 17.9453 34.0229 17.8783C34.2484 17.7932 34.4876 17.6999 34.7444 17.597C35.7716 17.1851 36.8957 17.2445 37.8283 17.7599C40.385 19.1728 40.8727 22.8908 38.9627 26.4084C38.8402 26.634 38.7741 26.8914 38.7718 27.1527C38.7415 30.5078 38.4279 34.7552 37.1061 35.9368C36.8452 36.17 36.5682 36.2626 36.2353 36.2282C36.0628 36.2104 35.9306 36.044 35.9406 35.8572C36.0967 32.9198 35.131 30.355 33.5375 29.4751C33.1618 29.2676 32.7496 29.1639 32.3374 29.1639C31.9253 29.1639 31.5131 29.2676 31.1374 29.4751C29.5439 30.355 28.5782 32.9198 28.7343 35.8572C28.7442 36.044 28.612 36.2104 28.4395 36.2282C28.1065 36.2626 27.8296 36.17 27.5688 35.9368C26.2469 34.7552 25.9334 30.5078 25.9031 27.1527C25.9007 26.8914 25.8347 26.634 25.7121 26.4084C23.8021 22.8908 24.2898 19.1728 26.8465 17.7599Z" fill="#424852"/>
<path d="M62.3359 61.5625H45.8674V26.2863H58.7009V59.8427C58.7009 60.0843 58.8968 60.2802 59.1384 60.2802C59.3801 60.2802 59.5759 60.0843 59.5759 59.8427V26.2863H60.1468C60.8535 26.2863 61.4285 25.7113 61.4285 25.0046V23.0779C61.4285 22.3712 60.8535 21.7963 60.1468 21.7963H55.7684V16.7787H56.8784C57.1201 16.7787 57.3159 16.5829 57.3159 16.3412C57.3159 16.0996 57.1201 15.9037 56.8784 15.9037H45.8674V14.7188H47.3331C48.0399 14.7188 48.6148 14.1439 48.6148 13.4371V11.5104C48.6148 10.8037 48.0399 10.2288 47.3331 10.2288H25.5809V2.4375H39.091V8.3103C39.091 8.55194 39.2869 8.7478 39.5285 8.7478C39.7701 8.7478 39.966 8.55194 39.966 8.3103V2.4375H40.6995C40.9412 2.4375 41.137 2.24164 41.137 2C41.137 1.75836 40.9412 1.5625 40.6995 1.5625H23.9724C23.7307 1.5625 23.5349 1.75836 23.5349 2C23.5349 2.24164 23.7307 2.4375 23.9724 2.4375H24.7059V10.2288H17.3387C16.632 10.2288 16.0571 10.8037 16.0571 11.5104V13.4371C16.0571 14.1439 16.632 14.7188 17.3387 14.7188H18.8045V21.7963H9.77844V16.7787H16.9161C17.1578 16.7787 17.3536 16.5829 17.3536 16.3412C17.3536 16.0996 17.1578 15.9037 16.9161 15.9037H7.79346C7.55182 15.9037 7.35596 16.0996 7.35596 16.3412C7.35596 16.5829 7.55182 16.7787 7.79346 16.7787H8.90344V21.7963H4.52508C3.81836 21.7963 3.24341 22.3712 3.24341 23.0779V25.0046C3.24341 25.7113 3.81836 26.2863 4.52508 26.2863H5.09595V61.5625H2.33594C2.0943 61.5625 1.89844 61.7584 1.89844 62C1.89844 62.2416 2.0943 62.4375 2.33594 62.4375H62.3359C62.5776 62.4375 62.7734 62.2416 62.7734 62C62.7734 61.7584 62.5776 61.5625 62.3359 61.5625ZM45.8674 16.7787H54.8934V21.7963H45.8674V16.7787ZM45.8674 22.6713H49.8598C49.0787 23.0953 48.4611 23.8022 48.1643 24.6847C48.078 24.9414 48.1169 25.2018 48.2397 25.4113H45.8674V22.6713ZM4.52508 25.4113C4.30084 25.4113 4.11841 25.2288 4.11841 25.0046V23.0779C4.11841 22.8537 4.30084 22.6713 4.52508 22.6713H8.64142C7.88215 23.0897 7.28387 23.783 6.99995 24.6462C6.91055 24.918 6.95612 25.1927 7.09062 25.4113L4.52508 25.4113ZM18.8045 61.5625H5.97095V26.2863H18.8045V61.5625ZM17.3387 13.8438C17.1145 13.8438 16.9321 13.6614 16.9321 13.4371V11.5104C16.9321 11.2862 17.1145 11.1038 17.3387 11.1038H23.3841C22.5202 11.5185 21.7965 12.2084 21.3489 13.0959C21.2212 13.349 21.2399 13.6228 21.3566 13.8438H17.3387ZM44.9924 25.8469C44.9924 25.8476 44.9922 25.8481 44.9922 25.8488C44.9922 25.8494 44.9924 25.8499 44.9924 25.8506V61.5625H19.6795V25.8506C19.6795 25.8499 19.6797 25.8494 19.6797 25.8488C19.6797 25.8481 19.6795 25.8476 19.6795 25.8469V14.7188H44.9924V25.8469Z" fill="#424852"/>
<path d="M39.3628 44.9958H25.308C24.6729 44.9958 24.1562 45.5125 24.1562 46.1476V47.9883C24.1562 48.6234 24.6729 49.14 25.308 49.14H39.3628C39.9979 49.14 40.5145 48.6234 40.5145 47.9883V46.1476C40.5145 45.5125 39.9979 44.9958 39.3628 44.9958ZM39.6395 47.9883C39.6395 48.1409 39.5154 48.265 39.3628 48.265H25.308C25.1554 48.265 25.0312 48.1409 25.0312 47.9883V46.1476C25.0312 45.995 25.1554 45.8708 25.308 45.8708H39.3628C39.5154 45.8708 39.6395 45.995 39.6395 46.1476V47.9883Z" fill="#424852"/>
<path d="M52.0159 18.6001H48.7461C48.5045 18.6001 48.3086 18.796 48.3086 19.0376C48.3086 19.2792 48.5045 19.4751 48.7461 19.4751H52.0159C52.2575 19.4751 52.4534 19.2792 52.4534 19.0376C52.4534 18.796 52.2575 18.6001 52.0159 18.6001Z" fill="#424852"/>
<path d="M12.6562 18.6001C12.4146 18.6001 12.2188 18.796 12.2188 19.0376C12.2188 19.2792 12.4146 19.4751 12.6562 19.4751H15.926C16.1677 19.4751 16.3635 19.2792 16.3635 19.0376C16.3635 18.796 16.1677 18.6001 15.926 18.6001H12.6562Z" fill="#424852"/>
<path d="M28.9883 5.46436C28.7466 5.46436 28.5508 5.66022 28.5508 5.90186C28.5508 6.14349 28.7466 6.33936 28.9883 6.33936H35.4775C35.7191 6.33936 35.915 6.14349 35.915 5.90186C35.915 5.66022 35.7191 5.46436 35.4775 5.46436H28.9883Z" fill="#424852"/>
<path d="M37.6901 39.2817C37.6901 39.0401 37.4942 38.8442 37.2526 38.8442H27.4219C27.1802 38.8442 26.9844 39.0401 26.9844 39.2817C26.9844 39.5234 27.1802 39.7192 27.4219 39.7192H37.2526C37.4942 39.7192 37.6901 39.5234 37.6901 39.2817Z" fill="#424852"/>
<path d="M28.6992 41.9199C28.4576 41.9199 28.2617 42.1158 28.2617 42.3574C28.2617 42.5991 28.4576 42.7949 28.6992 42.7949H35.9719C36.2136 42.7949 36.4094 42.5991 36.4094 42.3574C36.4094 42.1158 36.2136 41.9199 35.9719 41.9199H28.6992Z" fill="#424852"/>
</svg>
