<svg width="13" height="13" viewBox="0 0 13 13" fill="none" xmlns="http://www.w3.org/2000/svg">
<g clip-path="url(#clip0_120_2903)">
<path d="M12.1463 5.83275C11.7066 5.48622 10.8856 5.78183 10.2459 6.49229C9.64851 6.32586 9.11815 6.36684 8.66604 6.62147C7.80032 7.1096 7.47241 8.23243 7.35069 9.08573C7.33206 9.21739 7.31467 9.35153 7.29604 9.48567C7.10228 10.9625 6.91845 12.3586 5.16714 12.3586C5.13857 12.3586 5.11 12.3586 5.08019 12.3573C4.58337 12.3449 4.22565 12.1909 3.98717 11.8853C3.54748 11.3214 3.62325 10.3998 3.67914 10.0173C3.85303 9.93903 3.97599 9.76762 3.9822 9.56517L4.00829 8.80875L4.93611 8.53301C5.05162 8.49823 5.14105 8.42495 5.20564 8.33428C5.37208 8.37154 5.5795 8.36284 5.72607 8.27093C5.98317 8.1107 6.35828 7.80267 6.8253 7.22014C7.33579 6.58296 7.46124 6.06999 7.47366 5.73712C7.47987 5.49988 7.31467 5.25892 7.19171 5.19185C7.06874 5.12478 7.04638 5.25023 7.06998 5.48622C7.10476 5.84145 7.04887 6.38175 6.59055 6.96925C6.58185 6.97918 6.5744 6.98663 6.56695 6.99657L6.57067 6.97049C6.67997 6.80157 6.77437 6.62395 6.84641 6.43391C7.59165 4.46027 5.98069 2.15748 5.91113 2.0606C5.89623 2.03948 5.87636 2.02582 5.85648 2.00967C5.90244 1.9041 5.89126 1.80846 5.81425 1.75878C5.69377 1.68052 5.50498 1.44577 5.39568 1.23462L5.20191 0.864487C5.09385 0.654578 4.86531 0.617316 4.69391 0.781268L4.21323 1.24829C4.04058 1.41224 4.07412 1.63457 4.28403 1.74511L4.62311 1.919C4.83302 2.02955 5.0628 2.22828 5.13733 2.36366C5.19322 2.46427 5.3224 2.47917 5.4553 2.41086C5.59192 2.60959 6.91845 4.62298 6.30984 6.23394C6.285 6.29977 6.24649 6.36063 6.2142 6.42398L6.21047 6.42522C6.17321 6.41653 6.13719 6.40286 6.09869 6.40286C6.00305 6.40286 5.91362 6.43143 5.8391 6.47863L5.95212 6.58669C5.88381 6.66991 5.83785 6.77176 5.83785 6.88727C5.83785 6.91584 5.84406 6.94316 5.84903 6.97049C5.6354 7.204 5.36835 7.41266 5.04541 7.59028C4.92618 7.52321 4.7821 7.50209 4.64174 7.54432L3.51146 7.87968L2.30169 7.49712C2.16382 7.45365 2.01974 7.47228 1.90174 7.53687C1.32542 7.1953 0.932931 6.75934 0.732958 6.23394C0.0957776 4.54597 1.58502 2.41459 1.59992 2.39347C1.60116 2.38975 1.60116 2.38602 1.60489 2.38229C1.60489 2.38229 1.63967 2.41583 1.68314 2.45433C1.72661 2.49532 1.82101 2.41831 1.89553 2.28293C1.96881 2.1463 2.20108 1.94757 2.41099 1.83827L2.74883 1.66314C2.95998 1.55383 2.99228 1.3315 2.82087 1.16631L2.33895 0.700534C2.16755 0.535339 1.94149 0.572601 1.83095 0.783753L1.63842 1.15389C1.52788 1.36504 1.34033 1.59855 1.21985 1.67804C1.09688 1.75505 1.04347 1.86062 1.09688 1.91031L1.19501 2.00222C1.17141 2.01837 1.15029 2.03576 1.13166 2.0606C1.06211 2.15748 -0.548855 4.46027 0.196385 6.43391C0.447283 7.09469 0.929205 7.63251 1.6347 8.04239C1.65333 8.23988 1.78871 8.41625 1.98993 8.48084L2.97737 8.7926L2.95129 9.52915C2.94756 9.68192 3.01091 9.82103 3.11276 9.9204C3.04444 10.3762 2.95377 11.4916 3.53382 12.2356C3.88036 12.6803 4.39581 12.9138 5.06653 12.9299C5.10255 12.9324 5.13733 12.9324 5.1721 12.9324C7.42149 12.9324 7.66742 11.0656 7.86491 9.56144C7.8823 9.42978 7.89968 9.29812 7.91832 9.1677C8.06488 8.14051 8.43005 7.41391 8.94799 7.12202C9.20758 6.97421 9.51934 6.93323 9.87457 6.99533C9.42867 7.73187 9.37278 8.50071 9.77893 8.82365C10.2497 9.19627 11.1614 8.82862 11.8147 8.00265C12.468 7.17667 12.6158 6.20537 12.1463 5.83275ZM6.48497 7.09469C6.44647 7.14065 6.40796 7.19033 6.3707 7.23256C6.40796 7.18537 6.44522 7.13817 6.48 7.08973L6.48497 7.09469ZM10.975 7.31951C10.7304 7.63003 10.3888 7.76789 10.2124 7.62754C10.0832 7.52569 10.0795 7.30336 10.1814 7.06985C10.2745 7.09966 10.3689 7.13196 10.4658 7.17295C10.6136 7.23505 10.78 7.16798 10.8421 7.02141C10.9042 6.87609 10.8359 6.70717 10.6894 6.64507C10.6459 6.62644 10.6049 6.61277 10.5614 6.59787C10.7614 6.4513 10.9713 6.40659 11.0968 6.5072C11.2744 6.64755 11.2185 7.01148 10.975 7.31951Z" fill="#DBDDE0"/>
</g>
<defs>
<clipPath id="clip0_120_2903">
<rect width="12.4207" height="12.4207" fill="white" transform="translate(0 0.552734)"/>
</clipPath>
</defs>
</svg>
