<svg width="18" height="18" viewBox="0 0 18 18" fill="none" xmlns="http://www.w3.org/2000/svg">
<path d="M8.99935 6.93335C8.5906 6.93335 8.19103 7.05456 7.85117 7.28165C7.51131 7.50874 7.24642 7.83151 7.09 8.20914C6.93358 8.58678 6.89265 9.00231 6.97239 9.40321C7.05214 9.8041 7.24897 10.1723 7.538 10.4614C7.82702 10.7504 8.19527 10.9472 8.59616 11.027C8.99706 11.1067 9.41259 11.0658 9.79023 10.9094C10.1679 10.753 10.4906 10.4881 10.7177 10.1482C10.9448 9.80834 11.066 9.40877 11.066 9.00002C11.066 8.72862 11.0126 8.45988 10.9087 8.20914C10.8048 7.9584 10.6526 7.73057 10.4607 7.53867C10.2688 7.34676 10.041 7.19453 9.79023 7.09067C9.53949 6.98681 9.27075 6.93335 8.99935 6.93335V6.93335ZM17.2744 4.89169C17.27 4.24815 17.1515 3.6105 16.9243 3.00835C16.7571 2.56774 16.4983 2.1676 16.165 1.83434C15.8318 1.50108 15.4316 1.24229 14.991 1.07502C14.3889 0.847907 13.7512 0.729404 13.1077 0.72502C12.0327 0.666687 11.716 0.666687 8.99935 0.666687C6.28268 0.666687 5.96602 0.666687 4.89102 0.72502C4.24748 0.729404 3.60983 0.847907 3.00768 1.07502C2.56707 1.24229 2.16693 1.50108 1.83367 1.83434C1.50041 2.1676 1.24161 2.56774 1.07435 3.00835C0.847235 3.6105 0.728733 4.24815 0.724349 4.89169C0.666016 5.96669 0.666016 6.28335 0.666016 9.00002C0.666016 11.7167 0.666016 12.0334 0.724349 13.1084C0.733319 13.7542 0.851661 14.3938 1.07435 15C1.24087 15.4386 1.49946 15.8364 1.83268 16.1667C2.16451 16.5019 2.56551 16.7607 3.00768 16.925C3.60983 17.1521 4.24748 17.2706 4.89102 17.275C5.96602 17.3334 6.28268 17.3334 8.99935 17.3334C11.716 17.3334 12.0327 17.3334 13.1077 17.275C13.7512 17.2706 14.3889 17.1521 14.991 16.925C15.4332 16.7607 15.8342 16.5019 16.166 16.1667C16.4992 15.8364 16.7578 15.4386 16.9243 15C17.1512 14.3949 17.2697 13.7546 17.2744 13.1084C17.3327 12.0334 17.3327 11.7167 17.3327 9.00002C17.3327 6.28335 17.3327 5.96669 17.2744 4.89169V4.89169ZM15.1577 11.5584C15.1309 12.0726 15.0212 12.5792 14.8327 13.0584C14.6709 13.4581 14.4304 13.8212 14.1255 14.1261C13.8205 14.4311 13.4574 14.6716 13.0577 14.8334C12.5739 15.0113 12.0646 15.1098 11.5493 15.125C10.891 15.125 10.716 15.125 8.99935 15.125C7.28268 15.125 7.10768 15.125 6.44935 15.125C5.93412 15.1098 5.42476 15.0113 4.94102 14.8334C4.52777 14.6798 4.15458 14.4348 3.84935 14.1167C3.5474 13.8177 3.31422 13.4566 3.16602 13.0584C2.98731 12.5751 2.89152 12.0652 2.88268 11.55C2.88268 10.8917 2.88268 10.7167 2.88268 9.00002C2.88268 7.28335 2.88268 7.10835 2.88268 6.45002C2.89152 5.93488 2.98731 5.42492 3.16602 4.94169C3.31958 4.52844 3.56458 4.15525 3.88268 3.85002C4.18296 3.54971 4.54374 3.31677 4.94102 3.16669C5.42476 2.98869 5.93412 2.8902 6.44935 2.87502V2.87502C7.10768 2.87502 7.28268 2.87502 8.99935 2.87502C10.716 2.87502 10.891 2.87502 11.5493 2.87502C12.0646 2.8902 12.5739 2.98869 13.0577 3.16669C13.4709 3.32025 13.8441 3.56525 14.1493 3.88335C14.4513 4.18231 14.6845 4.54346 14.8327 4.94169C15.0107 5.42543 15.1092 5.9348 15.1243 6.45002C15.1243 7.10835 15.1243 7.28335 15.1243 9.00002C15.1243 10.7167 15.1827 10.8917 15.1577 11.55V11.5584ZM13.8244 5.35835C13.7251 5.08917 13.5687 4.84472 13.3658 4.64187C13.163 4.43901 12.9185 4.28257 12.6493 4.18335C12.2797 4.05524 11.8905 3.99318 11.4993 4.00002C10.8493 4.00002 10.666 4.00002 8.99935 4.00002C7.33268 4.00002 7.14935 4.00002 6.49935 4.00002C6.10624 4.00386 5.71691 4.07722 5.34935 4.21669C5.08429 4.3114 4.84243 4.46145 4.63984 4.65685C4.43724 4.85226 4.27857 5.08855 4.17435 5.35002C4.05333 5.72116 3.99421 6.10968 3.99935 6.50002C3.99935 7.15002 3.99935 7.33335 3.99935 9.00002C3.99935 10.6667 3.99935 10.85 3.99935 11.5C4.00761 11.8927 4.08082 12.2813 4.21602 12.65C4.31524 12.9192 4.47167 13.1637 4.67453 13.3665C4.87738 13.5694 5.12184 13.7258 5.39102 13.825C5.74657 13.9558 6.12073 14.0289 6.49935 14.0417V14.0417C7.14935 14.0417 7.33268 14.0417 8.99935 14.0417C10.666 14.0417 10.8493 14.0417 11.4993 14.0417C11.8925 14.0378 12.2818 13.9645 12.6493 13.825C12.9185 13.7258 13.163 13.5694 13.3658 13.3665C13.5687 13.1637 13.7251 12.9192 13.8244 12.65C13.9638 12.2825 14.0372 11.8931 14.041 11.5C14.041 10.85 14.041 10.6667 14.041 9.00002C14.041 7.33335 14.041 7.15002 14.041 6.50002C14.0413 6.10652 13.9678 5.71646 13.8244 5.35002V5.35835ZM8.99935 12.1834C8.5817 12.1834 8.16815 12.101 7.7824 11.9409C7.39665 11.7808 7.04627 11.5462 6.75133 11.2505C6.4564 10.9548 6.2227 10.6038 6.06364 10.2176C5.90457 9.83143 5.82325 9.41767 5.82435 9.00002V9.00002C5.82435 8.37006 6.01126 7.75427 6.36142 7.23059C6.71158 6.70692 7.20924 6.29891 7.79141 6.05822C8.37357 5.81752 9.01406 5.75497 9.63179 5.87848C10.2495 6.00198 10.8167 6.306 11.2616 6.75203C11.7065 7.19806 12.009 7.76605 12.1309 8.38411C12.2527 9.00216 12.1885 9.64248 11.9463 10.224C11.7041 10.8055 11.2948 11.3021 10.7702 11.6509C10.2456 11.9997 9.62931 12.185 8.99935 12.1834V12.1834ZM12.3327 6.44169C12.1485 6.42219 11.978 6.3352 11.8541 6.1975C11.7302 6.05979 11.6616 5.8811 11.6616 5.69585C11.6616 5.51061 11.7302 5.33192 11.8541 5.19421C11.978 5.0565 12.1485 4.96952 12.3327 4.95002V4.95002C12.5169 4.96952 12.6874 5.0565 12.8113 5.19421C12.9352 5.33192 13.0037 5.51061 13.0037 5.69585C13.0037 5.8811 12.9352 6.05979 12.8113 6.1975C12.6874 6.3352 12.5169 6.42219 12.3327 6.44169Z" fill="white"/>
</svg>
