<svg width="80" height="80" viewBox="0 0 80 80" fill="none" xmlns="http://www.w3.org/2000/svg">
<rect width="80" height="80" rx="30" fill="#ECFCCB"/>
<path d="M42.1111 29.4847C42.8054 29.2393 43.1693 28.4775 42.9239 27.7832C42.6785 27.0889 41.9167 26.725 41.2224 26.9704C39.1528 27.702 37.6668 29.6757 37.6668 31.9999L37.6667 36.1834C37.6661 37.2439 37.6657 38.0315 37.8485 38.7137C38.3416 40.5541 39.7792 41.9917 41.6197 42.4849C42.0297 42.5947 42.4777 42.6384 43.0001 42.6557V45.3334C43.0001 46.6363 42.9936 47.0931 42.9232 47.447C42.6076 49.0338 41.3672 50.2742 39.7804 50.5898C39.4265 50.6602 38.9697 50.6667 37.6668 50.6667C36.3638 50.6667 35.907 50.6602 35.5531 50.5898C33.9663 50.2742 32.7259 49.0338 32.4103 47.447C32.3399 47.0931 32.3334 46.6363 32.3334 45.3334V40C32.3334 39.9621 32.3318 39.9245 32.3287 39.8874C33.6936 39.5362 34.7361 38.4042 34.9573 36.9903C35.0007 36.7132 35.0004 36.4075 35.0001 36.0791L35.0001 36L35.0001 35.9209C35.0004 35.5926 35.0007 35.2869 34.9573 35.0097C34.7181 33.4811 33.519 32.282 31.9904 32.0428C31.7132 31.9994 31.4075 31.9997 31.0792 32L31.0001 32L30.921 32C30.5926 31.9997 30.287 31.9994 30.0098 32.0428C28.4812 32.282 27.282 33.4811 27.0429 35.0097C26.9995 35.2869 26.9998 35.5926 27 35.9209L27.0001 36L27 36.0791C26.9998 36.4075 26.9995 36.7131 27.0429 36.9903C27.2641 38.4042 28.3066 39.5362 29.6714 39.8874C29.6683 39.9245 29.6668 39.9621 29.6668 40L29.6667 45.4877C29.6665 46.5778 29.6663 47.3209 29.7949 47.9673C30.3209 50.6119 32.3882 52.6792 35.0328 53.2053C35.6792 53.3338 36.4223 53.3336 37.5124 53.3334H37.8211C38.9112 53.3336 39.6543 53.3338 40.3007 53.2053C42.9453 52.6792 45.0126 50.6119 45.5387 47.9673C45.6672 47.3209 45.6671 46.5778 45.6668 45.4877L45.6668 42.6557C46.1892 42.6384 46.6372 42.5947 47.0471 42.4849C48.8876 41.9917 50.3252 40.5541 50.8184 38.7136C51.0012 38.0314 51.0007 37.2439 51.0002 36.1834L51.0001 31.9999C51.0001 29.6757 49.5141 27.702 47.4444 26.9704C46.7501 26.725 45.9884 27.0889 45.743 27.7832C45.4976 28.4775 45.8615 29.2393 46.5558 29.4847C47.5933 29.8514 48.3334 30.8409 48.3334 31.9999V35.9999C48.3334 37.3258 48.322 37.7271 48.2426 38.0235C47.996 38.9437 47.2772 39.6625 46.3569 39.9091C46.0606 39.9885 45.6592 39.9999 44.3334 39.9999C43.0076 39.9999 42.6063 39.9885 42.3099 39.9091C41.3897 39.6625 40.6709 38.9437 40.4243 38.0235C40.3449 37.7271 40.3334 37.3258 40.3334 35.9999V31.9999C40.3334 30.8409 41.0736 29.8514 42.1111 29.4847Z" fill="#84CC16"/>
</svg>
