<svg width="80" height="80" viewBox="0 0 80 80" fill="none" xmlns="http://www.w3.org/2000/svg">
<rect width="80" height="80" rx="30" fill="#FFE4E7"/>
<path d="M33.6667 28C34.4031 28 35.0001 28.597 35.0001 29.3333V30.6725C35.3471 30.6666 35.7444 30.6666 36.2168 30.6667H41.7833C42.2557 30.6666 42.6531 30.6666 43.0001 30.6725V29.3333C43.0001 28.597 43.597 28 44.3334 28C45.0698 28 45.6667 28.597 45.6667 29.3333V31.0551C48.2204 31.8152 50.3094 33.6302 51.4338 36H26.5664C27.6907 33.6302 29.7798 31.8152 32.3334 31.0551V29.3333C32.3334 28.597 32.9304 28 33.6667 28Z" fill="#F43F5E"/>
<path fill-rule="evenodd" clip-rule="evenodd" d="M25.7625 38.6667H52.2377C52.2432 38.705 52.2485 38.7433 52.2536 38.7818C52.3336 39.3894 52.3335 40.0895 52.3334 41.2167V41.45C52.3335 42.5772 52.3336 43.2773 52.2536 43.8849C51.7022 48.0731 48.4065 51.3688 44.2183 51.9202C43.6107 52.0002 42.9106 52.0001 41.7833 52H36.2169C35.0896 52.0001 34.3895 52.0002 33.7818 51.9202C29.5937 51.3688 26.298 48.0731 25.7466 43.8849C25.6666 43.2773 25.6667 42.5772 25.6668 41.4499V41.2168C25.6667 40.0895 25.6666 39.3894 25.7466 38.7818C25.7517 38.7433 25.757 38.705 25.7625 38.6667ZM39.0001 42.6667C38.2637 42.6667 37.6667 43.2636 37.6667 44C37.6667 44.7364 38.2637 45.3333 39.0001 45.3333C39.7365 45.3333 40.3334 44.7364 40.3334 44C40.3334 43.2636 39.7365 42.6667 39.0001 42.6667ZM43.0001 44C43.0001 43.2636 43.597 42.6667 44.3334 42.6667C45.0698 42.6667 45.6667 43.2636 45.6667 44C45.6667 44.7364 45.0698 45.3333 44.3334 45.3333C43.597 45.3333 43.0001 44.7364 43.0001 44ZM33.6667 42.6667C32.9304 42.6667 32.3334 43.2636 32.3334 44C32.3334 44.7364 32.9304 45.3333 33.6667 45.3333C34.4031 45.3333 35.0001 44.7364 35.0001 44C35.0001 43.2636 34.4031 42.6667 33.6667 42.6667Z" fill="#F43F5E"/>
</svg>
