<svg width="25" height="24" viewBox="0 0 25 24" fill="none" xmlns="http://www.w3.org/2000/svg">
<path d="M20.9705 2.00002H4.03055C3.84013 1.99737 3.65105 2.03227 3.47411 2.1027C3.29718 2.17314 3.13585 2.27774 2.99934 2.41053C2.86284 2.54332 2.75383 2.7017 2.67854 2.87663C2.60325 3.05155 2.56316 3.2396 2.56055 3.43002V20.57C2.56316 20.7604 2.60325 20.9485 2.67854 21.1234C2.75383 21.2983 2.86284 21.4567 2.99934 21.5895C3.13585 21.7223 3.29718 21.8269 3.47411 21.8973C3.65105 21.9678 3.84013 22.0027 4.03055 22H20.9705C21.161 22.0027 21.35 21.9678 21.527 21.8973C21.7039 21.8269 21.8652 21.7223 22.0017 21.5895C22.1383 21.4567 22.2473 21.2983 22.3226 21.1234C22.3978 20.9485 22.4379 20.7604 22.4405 20.57V3.43002C22.4379 3.2396 22.3978 3.05155 22.3226 2.87663C22.2473 2.7017 22.1383 2.54332 22.0017 2.41053C21.8652 2.27774 21.7039 2.17314 21.527 2.1027C21.35 2.03227 21.161 1.99737 20.9705 2.00002ZM8.59055 18.74H5.59055V9.74002H8.59055V18.74ZM7.09055 8.48002C6.67681 8.48002 6.28002 8.31566 5.98746 8.0231C5.6949 7.73055 5.53055 7.33376 5.53055 6.92002C5.53055 6.50628 5.6949 6.10949 5.98746 5.81693C6.28002 5.52437 6.67681 5.36002 7.09055 5.36002C7.31024 5.3351 7.53272 5.35687 7.74342 5.4239C7.95412 5.49093 8.14829 5.60171 8.3132 5.74898C8.47812 5.89625 8.61007 6.0767 8.70042 6.2785C8.79076 6.4803 8.83746 6.69891 8.83746 6.92002C8.83746 7.14112 8.79076 7.35973 8.70042 7.56154C8.61007 7.76334 8.47812 7.94378 8.3132 8.09106C8.14829 8.23833 7.95412 8.3491 7.74342 8.41613C7.53272 8.48316 7.31024 8.50493 7.09055 8.48002ZM19.4105 18.74H16.4105V13.91C16.4105 12.7 15.9805 11.91 14.8905 11.91C14.5532 11.9125 14.2247 12.0183 13.9494 12.2132C13.674 12.4081 13.465 12.6827 13.3505 13C13.2723 13.2351 13.2384 13.4826 13.2505 13.73V18.73H10.2505C10.2505 18.73 10.2505 10.55 10.2505 9.73002H13.2505V11C13.5231 10.5271 13.9195 10.1375 14.397 9.87322C14.8745 9.6089 15.4151 9.47987 15.9605 9.50002C17.9605 9.50002 19.4105 10.79 19.4105 13.56V18.74Z" fill="white"/>
</svg>
