<svg width="52" height="50" viewBox="0 0 52 50" fill="none" xmlns="http://www.w3.org/2000/svg">
<path d="M39.716 27.0835C39.716 28.2335 38.7646 29.1668 37.5882 29.1668C36.4132 29.1668 35.4618 28.2335 35.4618 27.0835C35.4618 25.9335 36.4146 25.0001 37.5882 25.0001C38.7646 25.0001 39.716 25.9335 39.716 27.0835ZM15.6034 38.8891H21.277V36.1113H15.6034V38.8891ZM21.277 44.4446H15.6034V41.6668H21.277V44.4446Z" fill="#1A4402"/>
<path fill-rule="evenodd" clip-rule="evenodd" d="M29.3938 22.4252C30.0883 22.4252 30.2022 22.2988 30.423 22.0557C30.5522 21.9168 30.7147 21.7363 31.048 21.521C31.9772 22.1114 33.0583 22.4184 34.1591 22.4043L37.6758 21.1849C38.6563 20.4235 39.3386 19.3421 39.6036 18.1293C39.8591 16.9275 39.6737 15.6738 39.0814 14.5974C38.4725 13.4984 37.506 12.6407 36.3425 12.1668C36.0651 10.9917 35.3862 9.95032 34.423 9.22234L30.9897 8.07789H30.6036C29.8209 7.00362 28.6767 6.24804 27.3813 5.95011L21.4396 5.55566C20.2174 5.65289 19.0632 6.139 18.1646 6.93622C16.7057 6.59527 15.1711 6.84596 13.8966 7.63345C13.0209 8.17181 12.321 8.95368 11.8827 9.88346L9.0882 11.7696C8.39612 12.6559 8.01974 13.7479 8.01875 14.8724C8.01181 15.3404 8.07708 15.8057 8.2132 16.2543C7.48375 17.1481 7.08711 18.2673 7.09097 19.421C7.09473 20.7619 7.63018 22.0466 8.57986 22.9932C8.65625 23.9446 9.00486 24.8571 9.5882 25.6321C10.1715 26.4099 10.9632 27.0182 11.884 27.396C12.9339 28.0198 13.8309 28.8707 14.5091 29.8863C15.1785 30.8932 15.4535 32.0308 15.6021 33.2141H21.4396V27.6891C21.4396 26.7085 21.7257 25.7474 22.2688 24.9141C22.3521 24.7877 22.4285 24.6641 22.5035 24.546C22.9202 23.8821 23.2563 23.3432 24.0396 22.9766C24.8978 22.6654 25.6766 22.1683 26.3202 21.521C27.2356 22.1123 28.3027 22.4259 29.3924 22.4238M31.5244 18.4988L32.598 19.1863C32.9355 19.4015 33.3258 19.5432 33.7355 19.5946L36.1911 18.7432C36.5147 18.4015 36.7313 17.989 36.8244 17.5515C36.9441 16.989 36.8568 16.4021 36.5786 15.8988C36.2793 15.3629 35.806 14.9454 35.2369 14.7154L33.8966 14.1599L33.5744 12.771C33.4759 12.3535 33.2662 11.9704 32.9674 11.6626L30.5188 10.846H29.1299L28.2827 9.66818C27.9423 9.20262 27.4597 8.86041 26.9077 8.69317L21.4938 8.33484C20.9654 8.40723 20.4699 8.63326 20.0688 8.98484L18.9716 9.95846L17.5285 9.63484C17.1712 9.5484 16.8003 9.5336 16.4372 9.59129C16.0742 9.64898 15.7261 9.77802 15.4132 9.97096C15.0007 10.2236 14.6706 10.5908 14.4632 11.0279L14.1368 11.7251L11.1452 13.746C10.9521 14.0918 10.8535 14.4737 10.8535 14.8599V14.9043C10.8507 15.0904 10.8771 15.2793 10.9313 15.4599L11.3479 16.8404L10.434 17.9696C10.0965 18.3863 9.92292 18.889 9.92709 19.3946V19.4154C9.92709 20.0099 10.1632 20.596 10.6132 21.0502L11.3243 21.7668L11.4063 22.7641C11.441 23.1946 11.5993 23.6154 11.8715 23.9779C12.1452 24.3432 12.5243 24.6377 12.9771 24.8224L13.1757 24.9043L13.3604 25.0155C13.7813 25.2655 14.1854 25.5432 14.5674 25.846C15.0604 26.2252 15.6743 26.7793 16.4702 27.7738C17.3035 28.8155 17.7591 29.9807 17.8827 30.4321H18.6091V29.2169C18.6091 29.096 18.6063 28.9502 18.6035 28.7877C18.5896 27.9905 18.566 26.7641 18.8146 25.7988C19.1132 24.6377 19.7285 23.5043 20.498 22.4238C21.2688 21.3446 22.4327 20.5904 22.8702 20.4279C23.3077 20.2654 23.7508 20.0974 24.1827 19.6738C24.5299 19.3349 25.4883 18.3613 25.923 17.9168L27.8674 19.1918C28.2397 19.4349 28.7327 19.571 28.9313 19.6085C28.9855 19.5668 29.1535 19.4349 29.3966 19.2557C29.641 19.0779 30.5994 18.4557 31.0494 18.1654L31.5244 18.4988Z" fill="#1A4402"/>
<path fill-rule="evenodd" clip-rule="evenodd" d="M47.8224 26.8974C47.8224 26.8974 51.5057 30.1418 51.0196 32.7446C50.5335 35.3474 45.7377 36.0641 45.7377 36.0641C45.7377 46.5822 35.4793 45.9127 30.3598 44.9238C29.4025 44.7441 28.4557 44.5123 27.5237 44.2294V46.2072C27.5237 46.2072 27.4168 46.5377 27.0876 47.0044C26.3056 48.1113 24.2695 49.9794 19.4278 49.9794C16.1876 50.2308 10.6417 48.1544 9.17225 45.2266V36.2696C3.99168 32.478 0 27.371 0 20.7501C0 15.2459 2.34445 9.96815 6.51947 6.07786C10.6945 2.18618 16.357 6.30634e-05 22.2612 6.30634e-05C26.75 -0.00873489 31.1929 0.903107 35.3154 2.67924C38.5376 3.94313 41.3599 5.95703 43.5099 8.52648C45.4765 11.2251 46.5654 14.3959 46.6488 17.6557C46.6654 18.4057 46.6557 19.1168 46.6446 19.8043C46.6085 22.2307 46.5752 24.3682 47.8224 26.8974ZM45.5099 28.5974L45.2668 28.1043C43.6988 24.9238 43.7557 21.971 43.8029 19.4696C43.814 18.8585 43.8251 18.2765 43.8126 17.7237C43.7348 15.021 42.8442 12.4044 41.2571 10.2154C39.4224 8.05009 37.0182 6.34036 34.2598 5.25702L34.214 5.23897L34.1682 5.21953C30.4096 3.60079 26.3591 2.76979 22.2667 2.77785H22.2626C17.0681 2.77785 12.1098 4.70286 8.47781 8.08898C4.84863 11.4709 2.8389 16.0293 2.8389 20.7501C2.8389 26.1418 6.05974 30.5238 10.8723 34.0446L12.0112 34.878V44.4197C12.4834 44.971 13.4028 45.6572 14.7834 46.253C16.4764 46.9849 18.1917 47.2891 19.2056 47.2113L19.3167 47.2016H19.4292C22.307 47.2016 23.664 46.428 24.2487 45.953C24.4501 45.7905 24.5917 45.6363 24.6876 45.5155V40.396L28.4043 41.5905H28.4084L28.4293 41.5974L28.5487 41.6335C28.6598 41.6655 28.8293 41.7155 29.0515 41.7738C29.4959 41.8919 30.1418 42.0502 30.9195 42.2002C32.4973 42.5058 34.5084 42.7558 36.4473 42.6308C38.4182 42.5058 39.9987 42.0169 41.0543 41.1377C42.0029 40.3474 42.9015 38.9308 42.9015 36.0655V33.6793L45.3002 33.321L45.3154 33.3182L45.414 33.3002C45.9978 33.1916 46.5699 33.0274 47.1224 32.8099C47.5988 32.6196 47.9432 32.421 48.1474 32.2502C48.1728 32.2289 48.1973 32.2067 48.221 32.1835C48.1955 32.043 48.1536 31.9059 48.096 31.7752C47.8925 31.3192 47.6336 30.89 47.3252 30.4974C46.9067 29.9493 46.4421 29.4382 45.9363 28.9696L45.9252 28.9627V28.9613L45.9224 28.9599L45.921 28.9571L45.5099 28.5974ZM48.271 32.1252V32.1279L48.2668 32.1307C48.2681 32.1288 48.2695 32.1269 48.271 32.1252Z" fill="#1A4402"/>
</svg>
