<svg width="24" height="24" viewBox="0 0 24 24" fill="none" xmlns="http://www.w3.org/2000/svg">
<path fill-rule="evenodd" clip-rule="evenodd" d="M5.33337 12C5.33337 11.4201 5.79004 10.95 6.35337 10.95H15.3809L12.4464 8.2069C12.0403 7.80497 12.0277 7.14027 12.4181 6.72226C12.8086 6.30425 13.4543 6.29122 13.8603 6.69315L18.6203 11.2431C18.8203 11.4411 18.9334 11.7144 18.9334 12C18.9334 12.2856 18.8203 12.5589 18.6203 12.7569L13.8603 17.3069C13.4543 17.7088 12.8086 17.6958 12.4181 17.2778C12.0277 16.8598 12.0403 16.1951 12.4464 15.7931L15.3809 13.05H6.35337C5.79004 13.05 5.33337 12.5799 5.33337 12Z" fill="#1A4402"/>
</svg>
