<svg width="13" height="13" viewBox="0 0 13 13" fill="none" xmlns="http://www.w3.org/2000/svg">
<g clip-path="url(#clip0_120_2915)">
<path d="M5.68945 1.37451C5.68945 1.94586 5.22616 2.41039 4.65357 2.41039C4.08097 2.41039 3.61768 1.9471 3.61768 1.37451C3.61768 0.801914 4.08346 0.338623 4.65481 0.338623C5.22616 0.338623 5.68945 0.803156 5.68945 1.37451ZM8.8443 9.85286C8.64433 9.75722 8.40585 9.84168 8.31021 10.0416C7.75377 11.2042 6.56138 11.9557 5.27212 11.9557C3.41647 11.9557 1.90736 10.4466 1.90736 8.59092C1.90736 7.53764 2.38679 6.56386 3.22395 5.92047C3.40032 5.78509 3.43261 5.53419 3.29723 5.35782C3.16309 5.18268 2.91095 5.15039 2.73581 5.28453C1.69869 6.08194 1.10498 7.28675 1.10498 8.59216C1.10498 10.8887 2.97429 12.7593 5.27212 12.7593C6.86693 12.7593 8.34375 11.8277 9.03309 10.3882C9.12873 10.1882 9.04303 9.94849 8.8443 9.85286ZM11.2576 10.1621L9.09892 6.69925C8.99583 6.53281 8.79213 6.49431 8.57353 6.503H5.85589C5.74534 6.503 5.65591 6.49058 5.65591 6.47692L5.6584 6.45208V6.01114C5.6584 5.9006 5.67579 5.8149 5.69814 5.81614C5.71056 5.81738 5.72423 5.81862 5.73913 5.81862H8.11024C8.37728 5.81862 8.59464 5.6025 8.59464 5.33422C8.59464 5.06717 8.37852 4.84981 8.11024 4.84981H5.73913C5.72423 4.84981 5.71181 4.85105 5.69814 4.85354C5.67579 4.85478 5.6584 4.76908 5.6584 4.65853V3.52577C5.6584 3.09477 5.30814 2.74575 4.87838 2.74575H4.66226C4.23251 2.74575 3.88348 3.09477 3.88348 3.52577V7.44449C3.88348 7.87424 4.23251 8.22451 4.66226 8.22451H8.39467C8.50522 8.22451 8.64309 8.29903 8.70519 8.39094C9.08029 8.95732 10.2814 10.772 10.2814 10.772C10.4255 11.0043 10.7633 11.0577 11.0328 10.8887C11.3024 10.7211 11.403 10.3956 11.2576 10.1621Z" fill="#DBDDE0"/>
</g>
<defs>
<clipPath id="clip0_120_2915">
<rect width="12.4207" height="12.4207" fill="white" transform="translate(0 0.338623)"/>
</clipPath>
</defs>
</svg>
