<svg width="80" height="80" viewBox="0 0 80 80" fill="none" xmlns="http://www.w3.org/2000/svg">
<rect width="80" height="80" rx="30" fill="#F5F5F5"/>
<path fill-rule="evenodd" clip-rule="evenodd" d="M32.1174 29.3333C28.5548 29.3333 25.6667 32.2214 25.6667 35.7839V40.8571C25.6667 42.3021 25.6667 43.4676 25.7438 44.4115C25.8232 45.3833 25.991 46.2369 26.3934 47.0266C27.0325 48.281 28.0524 49.3009 29.3068 49.94C30.0965 50.3424 30.9501 50.5102 31.9219 50.5896C32.8658 50.6667 34.0313 50.6667 35.4764 50.6666H43.0474C44.2498 50.6667 45.2197 50.6667 46.009 50.6128C46.8207 50.5574 47.5384 50.4407 48.218 50.1592C49.8515 49.4826 51.1493 48.1847 51.8259 46.5512C52.1074 45.8716 52.2242 45.1539 52.2796 44.3422C52.3334 43.5529 52.3334 42.583 52.3334 41.3807V41.2859C52.3334 40.0836 52.3334 39.1137 52.2796 38.3244C52.2242 37.5127 52.1074 36.795 51.8259 36.1154C51.1493 34.4819 49.8515 33.1841 48.218 32.5074C47.5384 32.226 46.8207 32.1092 46.009 32.0538C45.2197 32 44.2498 32 43.0474 32L40.0704 32C39.2515 32 38.972 31.9968 38.709 31.9588C38.3114 31.9013 37.9247 31.7842 37.562 31.6115C37.3221 31.4973 37.0878 31.3449 36.4063 30.8906L35.6955 30.4167C34.6359 29.7103 33.3909 29.3333 32.1174 29.3333ZM39.0001 37.3333C39.7365 37.3333 40.3334 37.9303 40.3334 38.6666V40H41.6667C42.4031 40 43.0001 40.5969 43.0001 41.3333C43.0001 42.0697 42.4031 42.6666 41.6667 42.6666H40.3334V44C40.3334 44.7364 39.7365 45.3333 39.0001 45.3333C38.2637 45.3333 37.6667 44.7364 37.6667 44V42.6666H36.3334C35.597 42.6666 35.0001 42.0697 35.0001 41.3333C35.0001 40.5969 35.597 40 36.3334 40H37.6667V38.6666C37.6667 37.9303 38.2637 37.3333 39.0001 37.3333Z" fill="#849087"/>
</svg>
