<svg width="13" height="14" viewBox="0 0 13 14" fill="none" xmlns="http://www.w3.org/2000/svg">
<path d="M11.6445 4.04232C11.6445 3.54674 11.2408 3.14307 10.7452 3.14307H1.67562C1.18004 3.14307 0.776367 3.54674 0.776367 4.04232V4.5466H11.6445V4.04232ZM0.777609 6.0582V9.58442C0.777609 10.0813 1.18004 10.4849 1.67687 10.4849H10.744C11.2408 10.4849 11.6445 10.0813 11.6445 9.58442V6.0582H0.777609ZM4.1138 9.20187C4.1138 9.23913 4.08275 9.26894 4.04673 9.26894H2.11159C2.07557 9.26894 2.04452 9.23913 2.04452 9.20187V8.57214C2.04452 8.53612 2.07557 8.50507 2.11159 8.50507H4.04673C4.08275 8.50507 4.1138 8.53612 4.1138 8.57214V9.20187Z" fill="#DBDDE0"/>
</svg>
