<svg width="14" height="13" viewBox="0 0 14 13" fill="none" xmlns="http://www.w3.org/2000/svg">
<g clip-path="url(#clip0_182_3571)">
<path d="M0.791016 11.9265C1.13631 10.7416 1.48036 9.55669 1.82566 8.37176C1.85298 8.27736 1.88155 8.18297 1.90639 8.08857C1.94614 7.94573 2.02066 7.83022 2.13493 7.73458C2.24175 7.6464 2.33615 7.54082 2.43427 7.4427C4.05268 5.83919 5.6711 4.23569 7.28827 2.63094C7.32553 2.59368 7.35782 2.55145 7.38391 2.51916C7.60375 2.74024 7.80994 2.94767 8.03972 3.17869C8.01488 3.19608 7.96644 3.22092 7.92918 3.25818C6.25238 4.93124 4.57684 6.6043 2.90377 8.28109C2.84415 8.34195 2.79447 8.42517 2.77087 8.50714C2.56966 9.17165 2.37838 9.83988 2.17965 10.5069C2.15481 10.5901 2.16723 10.6423 2.23057 10.6994C2.33366 10.7925 2.42433 10.8994 2.52867 10.9913C2.56469 11.0223 2.633 11.0459 2.67647 11.0347C3.34471 10.8435 4.0117 10.6485 4.67744 10.4472C4.73458 10.4299 4.78799 10.3814 4.8327 10.3355C6.53309 8.64005 8.231 6.94215 9.9289 5.24549C9.9612 5.21319 9.98852 5.17717 10.0072 5.15606C10.2481 5.39702 10.4816 5.63053 10.7375 5.88639C10.7263 5.89384 10.6816 5.91247 10.6505 5.94353C8.97624 7.60168 7.29945 9.25611 5.63384 10.923C5.40157 11.1565 5.14943 11.3005 4.83767 11.3887C3.73223 11.7017 2.63176 12.0321 1.5288 12.3563C1.45552 12.3774 1.381 12.3973 1.30772 12.4184H1.20835C1.15494 12.3948 1.10029 12.3737 1.04688 12.3488C0.897833 12.2793 0.846909 12.1377 0.791016 11.9998V11.9265ZM4.13093 9.86845C4.09864 9.66226 4.06386 9.47347 4.04151 9.28468C4.03033 9.19525 3.99431 9.15923 3.90736 9.14308C3.69497 9.10209 3.48506 9.04869 3.28881 9.00521C5.05006 7.24024 6.81131 5.47403 8.56139 3.71899C8.84085 3.99845 9.13274 4.2891 9.41469 4.5698C7.67083 6.31863 5.91082 8.0836 4.13093 9.86845ZM9.20354 0.793929C9.36252 0.638671 9.52151 0.473476 9.69167 0.31946C10.1798 -0.12023 10.8157 -0.110294 11.2915 0.354238C11.8168 0.865969 12.3348 1.38391 12.8465 1.9093C13.3309 2.40489 13.3235 3.06815 12.8403 3.56249C12.695 3.71154 12.5447 3.85686 12.4056 3.99349C11.3424 2.93152 10.2804 1.8708 9.20354 0.793929ZM7.90806 1.96644C8.14902 1.74038 8.39619 1.50812 8.63094 1.28703C9.74384 2.39992 10.8505 3.50784 11.9671 4.62445C11.7349 4.84182 11.4852 5.07657 11.2443 5.30262L7.90806 1.96644Z" fill="#A0A4A8"/>
</g>
<defs>
<clipPath id="clip0_182_3571">
<rect width="12.4207" height="12.4207" fill="white" transform="translate(0.791016 -0.00170898)"/>
</clipPath>
</defs>
</svg>
