<svg width="25" height="24" viewBox="0 0 25 24" fill="none" xmlns="http://www.w3.org/2000/svg">
<path d="M12.302 2C11.8634 1.99999 11.4849 1.99998 11.1716 2.02135C10.8418 2.04386 10.5119 2.09336 10.1859 2.22836C9.45085 2.53285 8.86683 3.11687 8.56235 3.85195C8.42734 4.17788 8.37784 4.50779 8.35534 4.83762C8.33396 5.15088 8.33397 5.52936 8.33399 5.96801L8.33399 6C8.33399 6.47963 8.33344 6.78926 8.31728 7.02624C8.30172 7.25424 8.2751 7.34107 8.25787 7.38269C8.15637 7.62771 7.9617 7.82239 7.71667 7.92388C7.67506 7.94112 7.58822 7.96774 7.36023 7.98329C7.12325 7.99946 6.81361 8 6.33399 8L6.302 8C5.86335 7.99999 5.48486 7.99998 5.1716 8.02135C4.84177 8.04386 4.51186 8.09336 4.18594 8.22836C3.45085 8.53285 2.86683 9.11687 2.56235 9.85195C2.42734 10.1779 2.37784 10.5078 2.35534 10.8376C2.33396 11.1509 2.33397 11.5293 2.33398 11.968V12.032C2.33397 12.4706 2.33396 12.8491 2.35534 13.1624C2.37784 13.4922 2.42734 13.8221 2.56235 14.1481C2.86683 14.8831 3.45085 15.4672 4.18594 15.7716C4.51186 15.9066 4.84177 15.9561 5.1716 15.9787C5.48485 16 5.86332 16 6.30195 16H6.33399C6.81361 16 7.12325 16.0005 7.36023 16.0167C7.58822 16.0323 7.67506 16.0589 7.71667 16.0761C7.9617 16.1776 8.15637 16.3723 8.25787 16.6173C8.2751 16.6589 8.30172 16.7458 8.31728 16.9738C8.33344 17.2107 8.33399 17.5204 8.33399 18L8.33399 18.032C8.33397 18.4706 8.33396 18.8491 8.35534 19.1624C8.37784 19.4922 8.42734 19.8221 8.56235 20.1481C8.86683 20.8831 9.45085 21.4672 10.1859 21.7716C10.5119 21.9066 10.8418 21.9561 11.1716 21.9787C11.4849 22 11.8633 22 12.302 22H12.366C12.8046 22 13.1831 22 13.4964 21.9787C13.8262 21.9561 14.1561 21.9066 14.482 21.7716C15.2171 21.4672 15.8011 20.8831 16.1056 20.1481C16.2406 19.8221 16.2901 19.4922 16.3126 19.1624C16.334 18.8491 16.334 18.4707 16.334 18.032V18C16.334 17.5204 16.3345 17.2107 16.3507 16.9738C16.3663 16.7458 16.3929 16.6589 16.4101 16.6173C16.5116 16.3723 16.7063 16.1776 16.9513 16.0761C16.9929 16.0589 17.0797 16.0323 17.3077 16.0167C17.5447 16.0005 17.8544 16 18.334 16H18.366C18.8046 16 19.1831 16 19.4964 15.9787C19.8262 15.9561 20.1561 15.9066 20.482 15.7716C21.2171 15.4672 21.8011 14.8831 22.1056 14.1481C22.2406 13.8221 22.2901 13.4922 22.3126 13.1624C22.334 12.8491 22.334 12.4706 22.334 12.032V11.968C22.334 11.5294 22.334 11.1509 22.3126 10.8376C22.2901 10.5078 22.2406 10.1779 22.1056 9.85195C21.8011 9.11687 21.2171 8.53285 20.482 8.22836C20.1561 8.09336 19.8262 8.04386 19.4964 8.02135C19.1831 7.99998 18.8046 7.99999 18.366 8L18.334 8C17.8544 8 17.5447 7.99946 17.3077 7.98329C17.0797 7.96774 16.9929 7.94112 16.9513 7.92388C16.7063 7.82239 16.5116 7.62771 16.4101 7.38269C16.3929 7.34107 16.3663 7.25424 16.3507 7.02624C16.3345 6.78926 16.334 6.47963 16.334 6V5.96801C16.334 5.52938 16.334 5.15087 16.3126 4.83762C16.2901 4.50779 16.2406 4.17788 16.1056 3.85195C15.8011 3.11687 15.2171 2.53285 14.482 2.22836C14.1561 2.09336 13.8262 2.04386 13.4964 2.02135C13.1831 1.99998 12.8046 1.99999 12.366 2H12.302Z" fill="#60A5FA"/>
</svg>
