<svg width="13" height="13" viewBox="0 0 13 13" fill="none" xmlns="http://www.w3.org/2000/svg">
<g clip-path="url(#clip0_120_2911)">
<path d="M4.04476 3.54067C4.12798 3.71083 4.21741 3.85988 4.25219 4.0375C4.34907 4.5306 4.5714 4.97401 4.90427 5.34042C5.11543 5.57269 5.10301 5.81117 5.03097 6.05089C4.96886 6.25831 4.98749 6.40984 5.12536 6.56883C5.30919 6.78246 5.49301 6.99486 5.74764 7.13024C6.04201 7.28798 6.45437 7.26066 6.78725 7.00107C7.05926 6.78867 7.26296 6.51666 7.45175 6.23099C7.48529 6.1813 7.47163 6.13783 7.46169 6.09063C7.44927 6.03226 7.43809 5.97388 7.42567 5.91674C7.37475 5.68199 7.4443 5.49568 7.60453 5.31186C7.92498 4.94296 8.13862 4.51321 8.23798 4.03253C8.274 3.85864 8.36592 3.71456 8.4628 3.56054C8.46031 3.62016 8.4628 3.68102 8.4541 3.74064C8.36219 4.35422 8.43175 4.96035 8.54105 5.56151C8.587 5.80868 8.66774 6.05213 8.7671 6.28688C8.82548 6.42351 8.96459 6.42102 9.07141 6.46449C9.45769 6.61851 9.8328 6.7924 10.188 7.011C10.5097 7.20849 10.6724 7.50907 10.7867 7.84816C10.9656 8.37728 11.1221 8.91261 11.2289 9.46284C11.3456 10.0665 11.3916 10.6726 11.3568 11.2862C11.3407 11.5545 11.1717 11.7147 10.9469 11.7992C10.4141 11.9991 9.86509 12.1544 9.30616 12.2687C8.97701 12.3357 8.64662 12.3867 8.31872 12.45C8.0703 12.4985 7.82686 12.4922 7.57969 12.4935C6.92884 12.4985 6.27676 12.4848 5.62592 12.4985C4.99991 12.5109 4.38509 12.445 3.76903 12.3295C3.13433 12.2115 2.50833 12.0699 1.89723 11.8675C1.72458 11.8104 1.55442 11.7458 1.38674 11.675C1.12715 11.5657 1.08616 11.3322 1.06753 11.0986C1.03896 10.7347 1.10479 10.3745 1.1433 10.0156C1.19546 9.5324 1.27868 9.05296 1.39792 8.58098C1.50971 8.13756 1.64509 7.70035 1.88854 7.31158C2.08354 6.99983 2.39903 6.82842 2.73811 6.70421C3.02006 6.60236 3.30325 6.50424 3.5852 6.40115C3.64979 6.37755 3.69574 6.33656 3.72555 6.26204C3.89447 5.82856 3.99136 5.38265 4.03359 4.91812C4.07085 4.51569 4.08824 4.11699 4.02862 3.7158C4.02241 3.66488 4.01123 3.61022 4.04476 3.54067ZM5.86936 10.7223C5.86936 10.8366 5.87433 10.931 5.86812 11.0254C5.86191 11.1198 5.89172 11.1607 5.99233 11.1558C6.14137 11.1496 6.29042 11.1496 6.43947 11.1558C6.54132 11.1607 6.5674 11.116 6.56492 11.0241C6.55995 10.8453 6.56864 10.6664 6.56119 10.4875C6.55747 10.3807 6.58852 10.3348 6.70403 10.3397C6.88289 10.3472 7.06175 10.3373 7.2406 10.3435C7.33873 10.3472 7.37475 10.3074 7.3735 10.2131C7.37102 10.064 7.36729 9.91496 7.37475 9.76715C7.38096 9.66157 7.33003 9.6417 7.2406 9.64294C7.07168 9.64667 6.90276 9.64419 6.73384 9.64667C6.61088 9.64915 6.5525 9.60196 6.55995 9.46905C6.56989 9.29641 6.56119 9.12128 6.56492 8.94739C6.56616 8.86541 6.53884 8.83187 6.45189 8.83436C6.29787 8.83933 6.14386 8.83808 5.98984 8.83436C5.9029 8.83312 5.86439 8.86168 5.86688 8.95484C5.87184 9.1337 5.86191 9.31255 5.8706 9.49141C5.87557 9.60568 5.8234 9.6417 5.72155 9.6417C5.59238 9.6417 5.4632 9.64294 5.33403 9.64419C5.05705 9.64791 5.05705 9.64915 5.05829 9.9311C5.05953 10.3422 5.05953 10.3397 5.46817 10.3435C5.59611 10.3447 5.75882 10.2876 5.84079 10.3708C5.92525 10.4515 5.8557 10.6155 5.86936 10.7223ZM4.56767 2.97677C4.39875 2.97677 4.22983 2.97304 4.06091 2.97801C3.94788 2.98174 3.90193 2.93951 3.8982 2.82275C3.88826 2.53459 3.86839 2.24395 3.90814 1.95952C4.00378 1.28259 4.36149 0.52493 5.2533 0.252917C5.65448 0.129953 6.05815 0.0380399 6.47176 0.0914487C7.2493 0.190814 7.93368 0.480216 8.31375 1.22173C8.55844 1.69744 8.55719 2.22532 8.53608 2.74823C8.53484 2.79543 8.54229 2.84387 8.45286 2.82648C8.3833 2.81282 8.37213 2.90349 8.36095 2.95566C8.34356 3.03763 8.31996 3.05005 8.24171 3.00906C7.90262 2.83145 7.68029 2.55447 7.54367 2.20545C7.50641 2.10981 7.49026 2.09242 7.39462 2.15949C6.77483 2.59173 6.08548 2.83393 5.33651 2.9333C5.08065 2.96808 4.82478 2.97925 4.56767 2.97677Z" fill="#DBDDE0"/>
</g>
<defs>
<clipPath id="clip0_120_2911">
<rect width="12.4207" height="12.4207" fill="white" transform="translate(0 0.0766602)"/>
</clipPath>
</defs>
</svg>
