<svg width="30" height="27" viewBox="0 0 30 27" fill="none" xmlns="http://www.w3.org/2000/svg">
<mask id="mask0_2_304" style="mask-type:luminance" maskUnits="userSpaceOnUse" x="6" y="0" width="24" height="20">
<path d="M6.27075 0.0666504H29.0666V19.8284H6.27075V0.0666504Z" fill="white"/>
</mask>
<g mask="url(#mask0_2_304)">
<path d="M23.334 14.2342C23.4208 14.5615 23.4917 14.8976 23.5392 15.2505C23.631 15.9278 23.6282 16.5929 23.5383 17.2375L29.0653 11.1911L27.2509 9.94391L23.334 14.2342ZM10.8373 13.8661L17.1993 18.2239L15.7674 19.8009L9.39681 15.4441C7.6393 14.2416 6.62593 12.679 6.37265 10.7473C6.10391 8.82451 6.67207 7.1014 8.0612 5.57987L13.0947 0.065918L14.9091 1.31332L9.88292 6.81944C8.88335 7.91431 8.48381 9.13822 8.67026 10.5142C8.85648 11.8905 9.57352 13.0082 10.8373 13.8661Z" fill="#EAF9D6"/>
</g>
<mask id="mask1_2_304" style="mask-type:luminance" maskUnits="userSpaceOnUse" x="0" y="6" width="23" height="21">
<path d="M0 6.32056H22.2831V26.0667H0V6.32056Z" fill="white"/>
</mask>
<g mask="url(#mask1_2_304)">
<path d="M2.62887 13.7569C1.93228 13.287 0.933424 13.3886 0.389522 13.984C-0.154142 14.5797 -0.0361817 15.4516 0.652079 15.9223C1.34034 16.3931 2.3392 16.2915 2.89119 15.695C3.43509 15.0995 3.31689 14.2275 2.62887 13.7569ZM17.743 12.2671L11.3727 7.91028L12.8129 6.33228L19.1833 10.6891C20.941 11.8916 21.9461 13.4549 22.2077 15.3858C22.4681 17.3097 21.908 19.0318 20.5191 20.5533L15.4856 26.0672L13.6627 24.8205L18.6974 19.3137C19.6887 18.2197 20.0963 16.9952 19.9101 15.6189C19.7236 14.2427 18.9985 13.1258 17.743 12.2671Z" fill="#EAF9D6"/>
</g>
</svg>
