<svg width="15" height="15" viewBox="0 0 15 15" fill="none" xmlns="http://www.w3.org/2000/svg">
<mask id="mask0_1127_1349" style="mask-type:luminance" maskUnits="userSpaceOnUse" x="3" y="0" width="12" height="12">
<path d="M3.13477 0H14.5327V11.401H3.13477V0Z" fill="white"/>
</mask>
<g mask="url(#mask0_1127_1349)">
<path d="M11.6654 8.17362C11.7088 8.36246 11.7442 8.5564 11.768 8.75998C11.8139 9.15072 11.8125 9.53445 11.7675 9.90629L14.5311 6.41801L13.6239 5.69848L11.6654 8.17362ZM5.41707 7.96125L8.59807 10.4754L7.88211 11.3852L4.69682 8.87163C3.81806 8.1779 3.31138 7.27643 3.18474 6.16199C3.05037 5.05267 3.33445 4.05857 4.02901 3.18076L6.54578 -0.000366211L7.45295 0.719287L4.93987 3.89589C4.44009 4.52755 4.24032 5.23365 4.33354 6.0275C4.42665 6.82148 4.78517 7.46634 5.41707 7.96125Z" fill="#58FD0A"/>
</g>
<mask id="mask1_1127_1349" style="mask-type:luminance" maskUnits="userSpaceOnUse" x="0" y="3" width="12" height="12">
<path d="M0 3.60803H11.1415V15H0V3.60803Z" fill="white"/>
</mask>
<g mask="url(#mask1_1127_1349)">
<path d="M1.3159 7.89818C0.967606 7.62706 0.468177 7.68569 0.196226 8.02922C-0.0756062 8.37288 -0.016626 8.87587 0.327504 9.14747C0.671635 9.41906 1.17106 9.36044 1.44706 9.01631C1.71901 8.67277 1.65991 8.16966 1.3159 7.89818ZM8.87297 7.03869L5.68781 4.52513L6.40793 3.61475L9.5931 6.1283C10.472 6.82203 10.9745 7.72398 11.1053 8.83794C11.2355 9.94786 10.9555 10.9414 10.261 11.8192L7.74426 15.0003L6.83281 14.281L9.35017 11.104C9.84579 10.4729 10.0496 9.7664 9.9565 8.97243C9.86327 8.17846 9.50071 7.53408 8.87297 7.03869Z" fill="#58FD0A"/>
</g>
</svg>
