<svg width="143" height="30" viewBox="0 0 143 30" fill="none" xmlns="http://www.w3.org/2000/svg">
<mask id="mask0_120_2883" style="mask-type:luminance" maskUnits="userSpaceOnUse" x="6" y="0" width="24" height="23">
<path d="M6.26953 0H29.0654V22.802H6.26953V0Z" fill="white"/>
</mask>
<g mask="url(#mask0_120_2883)">
<path d="M23.3328 16.3473C23.4196 16.7249 23.4904 17.1128 23.538 17.52C23.6298 18.3014 23.6269 19.0689 23.5371 19.8126L29.0641 12.836L27.2497 11.397L23.3328 16.3473ZM10.8361 15.9225L17.1981 20.9508L15.7662 22.7704L9.39559 17.7433C7.63808 16.3558 6.62471 14.5529 6.37143 12.324C6.10269 10.1053 6.67085 8.11713 8.05998 6.36152L13.0935 -0.000732422L14.9079 1.43858L9.8817 7.79179C8.88213 9.05511 8.48259 10.4673 8.66904 12.055C8.85526 13.643 9.57229 14.9327 10.8361 15.9225Z" fill="#1A4402"/>
</g>
<mask id="mask1_120_2883" style="mask-type:luminance" maskUnits="userSpaceOnUse" x="0" y="7" width="23" height="23">
<path d="M0 7.21606H22.2831V30H0V7.21606Z" fill="white"/>
</mask>
<g mask="url(#mask1_120_2883)">
<path d="M2.62936 15.7964C1.93277 15.2541 0.933913 15.3714 0.390011 16.0584C-0.153654 16.7458 -0.0356935 17.7518 0.652568 18.2949C1.34083 18.8381 2.33969 18.7209 2.89168 18.0326C3.43558 17.3456 3.31738 16.3393 2.62936 15.7964ZM17.7435 14.0774L11.3732 9.05027L12.8134 7.22949L19.1838 12.2566C20.9415 13.6441 21.9466 15.448 22.2082 17.6759C22.4686 19.8957 21.9085 21.8827 20.5196 23.6384L15.4861 30.0006L13.6632 28.562L18.6979 22.2081C19.6891 20.9457 20.0968 19.5328 19.9106 17.9449C19.7241 16.3569 18.999 15.0682 17.7435 14.0774Z" fill="#1A4402"/>
</g>
<path d="M40.8594 7.78125H45.8887C46.9694 7.78125 47.8906 7.94401 48.6523 8.26953C49.4141 8.59505 49.9967 9.07682 50.4004 9.71484C50.8105 10.3464 51.0156 11.1276 51.0156 12.0586C51.0156 12.7682 50.8854 13.3932 50.625 13.9336C50.3646 14.474 49.9967 14.9297 49.5215 15.3008C49.0462 15.6654 48.4798 15.9486 47.8223 16.1504L47.0801 16.5117H42.5586L42.5391 14.5684H45.9277C46.5137 14.5684 47.002 14.4642 47.3926 14.2559C47.7832 14.0475 48.0762 13.7643 48.2715 13.4062C48.4733 13.0417 48.5742 12.6315 48.5742 12.1758C48.5742 11.681 48.4766 11.2513 48.2812 10.8867C48.0924 10.5156 47.7995 10.2324 47.4023 10.0371C47.0052 9.83529 46.5007 9.73438 45.8887 9.73438H43.3105V22H40.8594V7.78125ZM48.9746 22L45.6348 15.6133L48.2031 15.6035L51.5918 21.873V22H48.9746ZM59.1797 19.8809V14.8418C59.1797 14.4642 59.1113 14.1387 58.9746 13.8652C58.8379 13.5918 58.6296 13.3802 58.3496 13.2305C58.0762 13.0807 57.7311 13.0059 57.3145 13.0059C56.9303 13.0059 56.5983 13.071 56.3184 13.2012C56.0384 13.3314 55.8203 13.5072 55.6641 13.7285C55.5078 13.9499 55.4297 14.2005 55.4297 14.4805H53.0859C53.0859 14.0638 53.1868 13.6602 53.3887 13.2695C53.5905 12.8789 53.8835 12.5306 54.2676 12.2246C54.6517 11.9186 55.1107 11.6777 55.6445 11.502C56.1784 11.3262 56.7773 11.2383 57.4414 11.2383C58.2357 11.2383 58.9388 11.3717 59.5508 11.6387C60.1693 11.9056 60.6543 12.3092 61.0059 12.8496C61.3639 13.3835 61.543 14.054 61.543 14.8613V19.5586C61.543 20.0404 61.5755 20.4733 61.6406 20.8574C61.7122 21.235 61.8132 21.5638 61.9434 21.8438V22H59.5312C59.4206 21.7461 59.3327 21.4238 59.2676 21.0332C59.209 20.6361 59.1797 20.252 59.1797 19.8809ZM59.5215 15.5742L59.541 17.0293H57.8516C57.4154 17.0293 57.0312 17.0716 56.6992 17.1562C56.3672 17.2344 56.0905 17.3516 55.8691 17.5078C55.6478 17.6641 55.4818 17.8529 55.3711 18.0742C55.2604 18.2956 55.2051 18.5462 55.2051 18.8262C55.2051 19.1061 55.2702 19.3633 55.4004 19.5977C55.5306 19.8255 55.7194 20.0046 55.9668 20.1348C56.2207 20.265 56.5267 20.3301 56.8848 20.3301C57.3665 20.3301 57.7865 20.2324 58.1445 20.0371C58.5091 19.8353 58.7956 19.5911 59.0039 19.3047C59.2122 19.0117 59.3229 18.735 59.3359 18.4746L60.0977 19.5195C60.0195 19.7865 59.8861 20.0729 59.6973 20.3789C59.5085 20.6849 59.2611 20.9779 58.9551 21.2578C58.6556 21.5312 58.2943 21.7559 57.8711 21.9316C57.4544 22.1074 56.9727 22.1953 56.4258 22.1953C55.7357 22.1953 55.1204 22.0586 54.5801 21.7852C54.0397 21.5052 53.6165 21.1309 53.3105 20.6621C53.0046 20.1868 52.8516 19.6497 52.8516 19.0508C52.8516 18.4909 52.9557 17.9961 53.1641 17.5664C53.3789 17.1302 53.6914 16.7656 54.1016 16.4727C54.5182 16.1797 55.026 15.9583 55.625 15.8086C56.224 15.6523 56.9076 15.5742 57.6758 15.5742H59.5215ZM66.3672 13.4648V26.0625H64.0137V11.4336H66.1816L66.3672 13.4648ZM73.252 16.6191V16.8242C73.252 17.5924 73.1608 18.3053 72.9785 18.9629C72.8027 19.6139 72.5391 20.1836 72.1875 20.6719C71.8424 21.1536 71.416 21.528 70.9082 21.7949C70.4004 22.0618 69.8145 22.1953 69.1504 22.1953C68.4928 22.1953 67.9167 22.0749 67.4219 21.834C66.9336 21.5866 66.5202 21.2383 66.1816 20.7891C65.8431 20.3398 65.5697 19.8125 65.3613 19.207C65.1595 18.5951 65.0163 17.9245 64.9316 17.1953V16.4043C65.0163 15.6296 65.1595 14.9264 65.3613 14.2949C65.5697 13.6634 65.8431 13.1198 66.1816 12.6641C66.5202 12.2083 66.9336 11.8568 67.4219 11.6094C67.9102 11.362 68.4798 11.2383 69.1309 11.2383C69.7949 11.2383 70.3841 11.3685 70.8984 11.6289C71.4128 11.8828 71.8457 12.2474 72.1973 12.7227C72.5488 13.1914 72.8125 13.7578 72.9883 14.4219C73.1641 15.0794 73.252 15.8118 73.252 16.6191ZM70.8984 16.8242V16.6191C70.8984 16.1309 70.8529 15.6784 70.7617 15.2617C70.6706 14.8385 70.5273 14.4674 70.332 14.1484C70.1367 13.8294 69.8861 13.582 69.5801 13.4062C69.2806 13.224 68.9193 13.1328 68.4961 13.1328C68.0794 13.1328 67.7214 13.2044 67.4219 13.3477C67.1224 13.4844 66.8717 13.6764 66.6699 13.9238C66.4681 14.1712 66.3118 14.4609 66.2012 14.793C66.0905 15.1185 66.0124 15.4733 65.9668 15.8574V17.752C66.0449 18.2207 66.1784 18.6504 66.3672 19.041C66.556 19.4316 66.8229 19.7441 67.168 19.9785C67.5195 20.2064 67.9688 20.3203 68.5156 20.3203C68.9388 20.3203 69.3001 20.2292 69.5996 20.0469C69.8991 19.8646 70.1432 19.6139 70.332 19.2949C70.5273 18.9694 70.6706 18.5951 70.7617 18.1719C70.8529 17.7487 70.8984 17.2995 70.8984 16.8242ZM77.7734 11.4336V22H75.4102V11.4336H77.7734ZM75.2539 8.66016C75.2539 8.30208 75.3711 8.00586 75.6055 7.77148C75.8464 7.5306 76.1784 7.41016 76.6016 7.41016C77.0182 7.41016 77.347 7.5306 77.5879 7.77148C77.8288 8.00586 77.9492 8.30208 77.9492 8.66016C77.9492 9.01172 77.8288 9.30469 77.5879 9.53906C77.347 9.77344 77.0182 9.89062 76.6016 9.89062C76.1784 9.89062 75.8464 9.77344 75.6055 9.53906C75.3711 9.30469 75.2539 9.01172 75.2539 8.66016ZM86.7969 19.8125V7H89.1602V22H87.0215L86.7969 19.8125ZM79.9219 16.834V16.6289C79.9219 15.8281 80.0163 15.099 80.2051 14.4414C80.3939 13.7773 80.6673 13.2077 81.0254 12.7324C81.3835 12.2507 81.8197 11.8828 82.334 11.6289C82.8483 11.3685 83.4277 11.2383 84.0723 11.2383C84.7103 11.2383 85.2702 11.362 85.752 11.6094C86.2337 11.8568 86.6439 12.2116 86.9824 12.6738C87.321 13.1296 87.5911 13.6764 87.793 14.3145C87.9948 14.946 88.138 15.6491 88.2227 16.4238V17.0781C88.138 17.8333 87.9948 18.5234 87.793 19.1484C87.5911 19.7734 87.321 20.3138 86.9824 20.7695C86.6439 21.2253 86.2305 21.5768 85.7422 21.8242C85.2604 22.0716 84.6973 22.1953 84.0527 22.1953C83.4147 22.1953 82.8385 22.0618 82.3242 21.7949C81.8164 21.528 81.3835 21.1536 81.0254 20.6719C80.6673 20.1901 80.3939 19.6237 80.2051 18.9727C80.0163 18.3151 79.9219 17.6022 79.9219 16.834ZM82.2754 16.6289V16.834C82.2754 17.3158 82.3177 17.765 82.4023 18.1816C82.4935 18.5983 82.6335 18.9661 82.8223 19.2852C83.0111 19.5977 83.2552 19.8451 83.5547 20.0273C83.8607 20.2031 84.2253 20.291 84.6484 20.291C85.1823 20.291 85.6217 20.1738 85.9668 19.9395C86.3118 19.7051 86.582 19.3893 86.7773 18.9922C86.9792 18.5885 87.1159 18.1393 87.1875 17.6445V15.877C87.1484 15.4928 87.0671 15.1348 86.9434 14.8027C86.8262 14.4707 86.6667 14.181 86.4648 13.9336C86.263 13.6797 86.0124 13.4844 85.7129 13.3477C85.4199 13.2044 85.0716 13.1328 84.668 13.1328C84.2383 13.1328 83.8737 13.224 83.5742 13.4062C83.2747 13.5885 83.0273 13.8392 82.832 14.1582C82.6432 14.4772 82.5033 14.8483 82.4121 15.2715C82.321 15.6947 82.2754 16.1471 82.2754 16.6289ZM91.8555 7.78125H96.8848C97.9655 7.78125 98.8867 7.94401 99.6484 8.26953C100.41 8.59505 100.993 9.07682 101.396 9.71484C101.807 10.3464 102.012 11.1276 102.012 12.0586C102.012 12.7682 101.882 13.3932 101.621 13.9336C101.361 14.474 100.993 14.9297 100.518 15.3008C100.042 15.6654 99.4759 15.9486 98.8184 16.1504L98.0762 16.5117H93.5547L93.5352 14.5684H96.9238C97.5098 14.5684 97.998 14.4642 98.3887 14.2559C98.7793 14.0475 99.0723 13.7643 99.2676 13.4062C99.4694 13.0417 99.5703 12.6315 99.5703 12.1758C99.5703 11.681 99.4727 11.2513 99.2773 10.8867C99.0885 10.5156 98.7956 10.2324 98.3984 10.0371C98.0013 9.83529 97.4967 9.73438 96.8848 9.73438H94.3066V22H91.8555V7.78125ZM99.9707 22L96.6309 15.6133L99.1992 15.6035L102.588 21.873V22H99.9707ZM108.877 22.1953C108.096 22.1953 107.389 22.0684 106.758 21.8145C106.133 21.554 105.599 21.1927 105.156 20.7305C104.72 20.2682 104.385 19.7246 104.15 19.0996C103.916 18.4746 103.799 17.8008 103.799 17.0781V16.6875C103.799 15.8607 103.919 15.112 104.16 14.4414C104.401 13.7708 104.736 13.1979 105.166 12.7227C105.596 12.2409 106.104 11.873 106.689 11.6191C107.275 11.3652 107.91 11.2383 108.594 11.2383C109.349 11.2383 110.01 11.3652 110.576 11.6191C111.143 11.873 111.611 12.2311 111.982 12.6934C112.36 13.1491 112.64 13.6927 112.822 14.3242C113.011 14.9557 113.105 15.6523 113.105 16.4141V17.4199H104.941V15.7305H110.781V15.5449C110.768 15.1217 110.684 14.7246 110.527 14.3535C110.378 13.9824 110.146 13.6829 109.834 13.4551C109.521 13.2272 109.105 13.1133 108.584 13.1133C108.193 13.1133 107.845 13.1979 107.539 13.3672C107.24 13.5299 106.989 13.7676 106.787 14.0801C106.585 14.3926 106.429 14.7702 106.318 15.2129C106.214 15.6491 106.162 16.1406 106.162 16.6875V17.0781C106.162 17.5404 106.224 17.9701 106.348 18.3672C106.478 18.7578 106.667 19.0996 106.914 19.3926C107.161 19.6855 107.461 19.9167 107.812 20.0859C108.164 20.2487 108.564 20.3301 109.014 20.3301C109.58 20.3301 110.085 20.2161 110.527 19.9883C110.97 19.7604 111.354 19.4382 111.68 19.0215L112.92 20.2227C112.692 20.5547 112.396 20.8737 112.031 21.1797C111.667 21.4792 111.221 21.7233 110.693 21.9121C110.173 22.1009 109.567 22.1953 108.877 22.1953ZM117.461 7V22H115.098V7H117.461ZM122.559 11.4336V22H120.195V11.4336H122.559ZM120.039 8.66016C120.039 8.30208 120.156 8.00586 120.391 7.77148C120.632 7.5306 120.964 7.41016 121.387 7.41016C121.803 7.41016 122.132 7.5306 122.373 7.77148C122.614 8.00586 122.734 8.30208 122.734 8.66016C122.734 9.01172 122.614 9.30469 122.373 9.53906C122.132 9.77344 121.803 9.89062 121.387 9.89062C120.964 9.89062 120.632 9.77344 120.391 9.53906C120.156 9.30469 120.039 9.01172 120.039 8.66016ZM129.795 22.1953C129.014 22.1953 128.307 22.0684 127.676 21.8145C127.051 21.554 126.517 21.1927 126.074 20.7305C125.638 20.2682 125.303 19.7246 125.068 19.0996C124.834 18.4746 124.717 17.8008 124.717 17.0781V16.6875C124.717 15.8607 124.837 15.112 125.078 14.4414C125.319 13.7708 125.654 13.1979 126.084 12.7227C126.514 12.2409 127.021 11.873 127.607 11.6191C128.193 11.3652 128.828 11.2383 129.512 11.2383C130.267 11.2383 130.928 11.3652 131.494 11.6191C132.061 11.873 132.529 12.2311 132.9 12.6934C133.278 13.1491 133.558 13.6927 133.74 14.3242C133.929 14.9557 134.023 15.6523 134.023 16.4141V17.4199H125.859V15.7305H131.699V15.5449C131.686 15.1217 131.602 14.7246 131.445 14.3535C131.296 13.9824 131.064 13.6829 130.752 13.4551C130.439 13.2272 130.023 13.1133 129.502 13.1133C129.111 13.1133 128.763 13.1979 128.457 13.3672C128.158 13.5299 127.907 13.7676 127.705 14.0801C127.503 14.3926 127.347 14.7702 127.236 15.2129C127.132 15.6491 127.08 16.1406 127.08 16.6875V17.0781C127.08 17.5404 127.142 17.9701 127.266 18.3672C127.396 18.7578 127.585 19.0996 127.832 19.3926C128.079 19.6855 128.379 19.9167 128.73 20.0859C129.082 20.2487 129.482 20.3301 129.932 20.3301C130.498 20.3301 131.003 20.2161 131.445 19.9883C131.888 19.7604 132.272 19.4382 132.598 19.0215L133.838 20.2227C133.61 20.5547 133.314 20.8737 132.949 21.1797C132.585 21.4792 132.139 21.7233 131.611 21.9121C131.09 22.1009 130.485 22.1953 129.795 22.1953ZM139.043 22H136.689V10.418C136.689 9.63021 136.836 8.9694 137.129 8.43555C137.428 7.89518 137.855 7.48828 138.408 7.21484C138.962 6.9349 139.616 6.79492 140.371 6.79492C140.605 6.79492 140.837 6.8112 141.064 6.84375C141.292 6.86979 141.514 6.91211 141.729 6.9707L141.67 8.78711C141.54 8.75456 141.396 8.73177 141.24 8.71875C141.09 8.70573 140.928 8.69922 140.752 8.69922C140.394 8.69922 140.085 8.76758 139.824 8.9043C139.57 9.03451 139.375 9.22656 139.238 9.48047C139.108 9.73438 139.043 10.0469 139.043 10.418V22ZM141.221 11.4336V13.1523H135.068V11.4336H141.221Z" fill="#1A4402"/>
</svg>
