<svg width="32" height="42" viewBox="0 0 32 42" fill="none" xmlns="http://www.w3.org/2000/svg">
<path d="M15.9383 8.02104C15.9021 7.94241 15.8442 7.87579 15.7713 7.82909C15.6984 7.78239 15.6137 7.75757 15.5271 7.75757C15.4406 7.75757 15.3558 7.78239 15.283 7.82909C15.2101 7.87579 15.1522 7.94241 15.116 8.02104L13.2647 12.0366C13.2322 12.1065 13.1823 12.167 13.1199 12.2123C13.0574 12.2575 12.9844 12.286 12.9078 12.2952L8.51478 12.8175C8.42911 12.8278 8.3482 12.8625 8.28159 12.9173C8.21497 12.9722 8.16543 13.0449 8.13879 13.127C8.11216 13.2091 8.10955 13.2971 8.13127 13.3806C8.15299 13.4641 8.19813 13.5396 8.26138 13.5983L11.509 16.6003C11.5661 16.6529 11.6086 16.7193 11.6326 16.7931C11.6566 16.8669 11.6613 16.9457 11.646 17.0218L10.7824 21.358C10.7655 21.4428 10.7732 21.5306 10.8047 21.6111C10.8361 21.6917 10.89 21.7615 10.9599 21.8124C11.0298 21.8633 11.1129 21.893 11.1992 21.8982C11.2855 21.9033 11.3715 21.8837 11.4469 21.8415L15.3073 19.6824C15.3746 19.6451 15.4502 19.6255 15.5271 19.6255C15.604 19.6255 15.6797 19.6451 15.7469 19.6824L19.6073 21.8415C19.9435 22.0302 20.3468 21.7381 20.2718 21.358L19.4108 17.0218C19.3956 16.9457 19.4002 16.8669 19.4242 16.7931C19.4482 16.7193 19.4908 16.6529 19.5479 16.6003L22.7929 13.5983C22.8561 13.5396 22.9013 13.4641 22.923 13.3806C22.9447 13.2971 22.9421 13.2091 22.9155 13.127C22.8888 13.0449 22.8393 12.9722 22.7727 12.9173C22.7061 12.8625 22.6251 12.8278 22.5395 12.8175L18.149 12.2952C18.072 12.2865 17.9985 12.2581 17.9355 12.2128C17.8726 12.1676 17.8223 12.1069 17.7896 12.0366L15.9383 8.02104Z" fill="#EAF9D6"/>
<path d="M31.0281 15.5144C31.0305 17.6975 30.571 19.8564 29.6797 21.8493C28.7884 23.8422 27.4856 25.624 25.8568 27.0776V40.0783C25.8567 40.3047 25.7972 40.5272 25.6841 40.7233C25.5711 40.9195 25.4086 41.0825 25.2127 41.1962C25.0169 41.3098 24.7947 41.37 24.5683 41.3708C24.3419 41.3715 24.1193 41.3128 23.9227 41.2005L15.5141 36.3963L7.10544 41.2005C6.90886 41.3128 6.68623 41.3715 6.45983 41.3708C6.23343 41.37 6.0112 41.3098 5.81538 41.1962C5.61955 41.0825 5.457 40.9195 5.34398 40.7233C5.23095 40.5272 5.17143 40.3047 5.17136 40.0783V27.0776C3.24248 25.3523 1.77582 23.172 0.904915 20.7351C0.0340137 18.2982 -0.213456 15.6821 0.185042 13.1251C0.583539 10.5681 1.61534 8.15141 3.1865 6.09509C4.75765 4.03876 6.81824 2.40812 9.18064 1.35166C11.543 0.295195 14.1322 -0.153528 16.7123 0.0463462C19.2924 0.246221 21.7816 1.08834 23.9531 2.49603C26.1246 3.90372 27.9095 5.83226 29.1452 8.10602C30.3809 10.3798 31.0282 12.9266 31.0281 15.5144ZM15.5141 31.0285C12.7905 31.0324 10.1144 30.3161 7.75703 28.9522V37.8521L14.8728 33.7848C15.0681 33.6732 15.2891 33.6146 15.5141 33.6146C15.739 33.6146 15.96 33.6732 16.1553 33.7848L23.2711 37.8547V28.9548C20.9135 30.3179 18.2374 31.0333 15.5141 31.0285ZM15.5141 28.4428C18.9429 28.4428 22.2313 27.0807 24.6558 24.6562C27.0804 22.2316 28.4424 18.9432 28.4424 15.5144C28.4424 12.0856 27.0804 8.79721 24.6558 6.37267C22.2313 3.94813 18.9429 2.58603 15.5141 2.58603C12.0852 2.58603 8.79686 3.94813 6.37232 6.37267C3.94777 8.79721 2.58568 12.0856 2.58568 15.5144C2.58568 18.9432 3.94777 22.2316 6.37232 24.6562C8.79686 27.0807 12.0852 28.4428 15.5141 28.4428Z" fill="#EAF9D6"/>
</svg>
