<svg width="50" height="50" viewBox="0 0 50 50" fill="none" xmlns="http://www.w3.org/2000/svg">
<circle cx="25" cy="25" r="24.25" stroke="white" stroke-width="1.5"/>
<g clip-path="url(#clip0_170_1105)">
<path d="M18.4668 23.7333H18.7002C19.5985 23.7333 20.3335 24.4683 20.3335 25.3666V33.5333C20.3335 34.4316 19.5985 35.1666 18.7002 35.1666H18.4668C17.5685 35.1666 16.8335 34.4316 16.8335 33.5333V25.3666C16.8335 24.4683 17.5685 23.7333 18.4668 23.7333V23.7333ZM25.0002 18.8333C25.8985 18.8333 26.6335 19.5683 26.6335 20.4666V33.5333C26.6335 34.4316 25.8985 35.1666 25.0002 35.1666C24.1018 35.1666 23.3668 34.4316 23.3668 33.5333V20.4666C23.3668 19.5683 24.1018 18.8333 25.0002 18.8333ZM31.5335 28.1666C32.4318 28.1666 33.1668 28.9016 33.1668 29.7999V33.5333C33.1668 34.4316 32.4318 35.1666 31.5335 35.1666C30.6352 35.1666 29.9002 34.4316 29.9002 33.5333V29.7999C29.9002 28.9016 30.6352 28.1666 31.5335 28.1666V28.1666Z" fill="white"/>
</g>
<defs>
<clipPath id="clip0_170_1105">
<rect width="28" height="28" fill="white" transform="translate(11 13)"/>
</clipPath>
</defs>
</svg>
