<svg width="81" height="80" viewBox="0 0 81 80" fill="none" xmlns="http://www.w3.org/2000/svg">
<rect x="0.390625" width="80" height="80" rx="30" fill="#EDE9FE"/>
<path fill-rule="evenodd" clip-rule="evenodd" d="M32.724 30.8328C32.2984 30.9054 31.896 31.0127 31.5061 31.1742C29.8726 31.8508 28.5747 33.1486 27.8981 34.7821C27.6166 35.4617 27.4998 36.1794 27.4445 36.9911C27.4113 37.4771 27.3986 38.0316 27.3937 38.6667H27.3906C26.6543 38.6667 26.0573 39.2636 26.0573 40C26.0573 40.7364 26.6543 41.3334 27.3906 41.3334H27.3937C27.3986 41.9684 27.4113 42.5229 27.4445 43.0089C27.4998 43.8206 27.6166 44.5383 27.8981 45.2179C28.5747 46.8514 29.8726 48.1493 31.5061 48.8259C32.1857 49.1074 32.9034 49.2241 33.715 49.2795C34.5043 49.3334 35.4742 49.3334 36.6764 49.3334H42.1047C43.3069 49.3334 44.2769 49.3334 45.0662 49.2795C45.8779 49.2241 46.5956 49.1074 47.2752 48.8259C48.9087 48.1493 50.2065 46.8514 50.8832 45.2179C51.1647 44.5383 51.2814 43.8206 51.3368 43.0089C51.37 42.5229 51.3827 41.9684 51.3876 41.3334H51.3906C52.127 41.3334 52.724 40.7364 52.724 40C52.724 39.2636 52.127 38.6667 51.3906 38.6667H51.3876C51.3827 38.0316 51.37 37.4771 51.3368 36.9911C51.2814 36.1794 51.1647 35.4617 50.8832 34.7821C50.2065 33.1486 48.9087 31.8508 47.2752 31.1742C46.8853 31.0127 46.4828 30.9054 46.0573 30.8328C46.0572 31.3655 46.0553 31.8285 46.0288 32.2165C45.9988 32.6563 45.9328 33.0962 45.7528 33.5308C45.3468 34.5109 44.5681 35.2896 43.588 35.6955C43.1535 35.8755 42.7136 35.9415 42.2738 35.9716C41.8561 36.0001 41.3515 36 40.7666 36H38.0146C37.4298 36 36.9251 36.0001 36.5075 35.9716C36.0677 35.9415 35.6278 35.8755 35.1932 35.6955C34.2131 35.2896 33.4344 34.5109 33.0284 33.5308C32.8484 33.0962 32.7824 32.6563 32.7524 32.2165C32.726 31.8285 32.7241 31.3655 32.724 30.8328ZM36.724 40C36.724 40.7364 36.127 41.3334 35.3906 41.3334C34.6543 41.3334 34.0573 40.7364 34.0573 40C34.0573 39.2636 34.6543 38.6667 35.3906 38.6667C36.127 38.6667 36.724 39.2636 36.724 40ZM43.3906 41.3334C44.127 41.3334 44.724 40.7364 44.724 40C44.724 39.2636 44.127 38.6667 43.3906 38.6667C42.6543 38.6667 42.0573 39.2636 42.0573 40C42.0573 40.7364 42.6543 41.3334 43.3906 41.3334Z" fill="#8B5CF6"/>
<path d="M43.3906 30.6697C42.9944 30.6667 42.5668 30.6667 42.1049 30.6667H36.6766C36.2147 30.6667 35.7869 30.6667 35.3906 30.6697C35.3906 31.3075 35.3914 31.7195 35.4129 32.035C35.4337 32.339 35.4691 32.4548 35.4921 32.5103C35.6274 32.837 35.887 33.0965 36.2137 33.2319C36.2692 33.2548 36.385 33.2903 36.689 33.3111C37.005 33.3326 37.4178 33.3334 38.0573 33.3334H40.724C41.3635 33.3334 41.7763 33.3326 42.0923 33.3111C42.3963 33.2903 42.5121 33.2548 42.5675 33.2319C42.8942 33.0965 43.1538 32.837 43.2891 32.5103C43.3121 32.4548 43.3476 32.339 43.3684 32.035C43.3899 31.7195 43.3906 31.3075 43.3906 30.6697Z" fill="#8B5CF6"/>
</svg>
