<svg width="25" height="24" viewBox="0 0 25 24" fill="none" xmlns="http://www.w3.org/2000/svg">
<path fill-rule="evenodd" clip-rule="evenodd" d="M13.6969 22.2856C13.0172 22.4288 12.315 22.4288 11.6353 22.2856C10.8645 22.1232 10.1562 21.7181 9.13159 21.1321L8.25555 20.6315C7.21549 20.0377 6.49665 19.6273 5.96082 19.0359C5.48833 18.5145 5.13123 17.8991 4.91288 17.2301C4.66527 16.4715 4.66559 15.6438 4.66606 14.4461L4.6661 9.35719C4.66609 8.27341 4.66608 7.39926 4.72391 6.69138C4.78346 5.96253 4.90928 5.32234 5.21106 4.73005C5.69043 3.78924 6.45533 3.02433 7.39614 2.54497C7.98844 2.24318 8.62862 2.11737 9.35747 2.05782C10.0653 1.99998 10.9394 1.99999 12.0231 2H13.3089C14.3926 1.99999 15.2669 1.99998 15.9747 2.05782C16.7036 2.11737 17.3438 2.24318 17.936 2.54497C18.8769 3.02433 19.6418 3.78924 20.1211 4.73005C20.4229 5.32234 20.5487 5.96253 20.6083 6.69138C20.6661 7.39926 20.6661 8.27342 20.6661 9.35722L20.6661 14.4461C20.6666 15.6438 20.6669 16.4715 20.4193 17.2301C20.201 17.8991 19.8439 18.5145 19.3714 19.0359C18.8356 19.6273 18.1167 20.0377 17.0767 20.6315L16.2006 21.1321C15.176 21.7181 14.4677 22.1232 13.6969 22.2856ZM8.66608 12C8.66608 11.4477 9.11379 11 9.66608 11H11.6661V9C11.6661 8.44772 12.1138 8 12.6661 8C13.2184 8 13.6661 8.44772 13.6661 9V11H15.6661C16.2184 11 16.6661 11.4477 16.6661 12C16.6661 12.5523 16.2184 13 15.6661 13H13.6661V15C13.6661 15.5523 13.2184 16 12.6661 16C12.1138 16 11.6661 15.5523 11.6661 15V13H9.66608C9.11379 13 8.66608 12.5523 8.66608 12Z" fill="#849087"/>
</svg>
