<svg width="35" height="35" viewBox="0 0 35 35" fill="none" xmlns="http://www.w3.org/2000/svg">
<rect width="35" height="35" rx="10" fill="#58FD0A"/>
<path d="M21.5935 21.5631C26.2648 21.4873 29.75 18.029 29.75 13.4065C29.75 9.8969 28.5883 11.0586 27.4196 12.2413C26.2648 13.3832 23.9239 15.737 23.9239 15.737L19.263 11.0761C19.263 11.0761 21.6168 8.73517 22.7587 7.58044C23.9414 6.41172 23.9414 5.25 21.5935 5.25C16.971 5.25 13.4987 8.73517 13.4369 13.4065C13.4859 14.5438 13.4369 16.9022 13.4369 16.9022C11.2405 19.1126 8.37987 21.9744 6.4456 23.8935C3.02918 27.3239 7.67608 31.9708 11.1065 28.5544C13.0291 26.6178 15.899 23.7479 18.0978 21.5631C18.0978 21.5631 20.4562 21.5141 21.5935 21.5631Z" fill="#1A4402"/>
</svg>
