<svg width="65" height="65" viewBox="0 0 65 65" fill="none" xmlns="http://www.w3.org/2000/svg">
<path d="M16.25 10.8334V21.6667H48.75V10.8334H54.1845C55.6703 10.8334 56.875 12.0384 56.875 13.5238V56.8929C56.875 58.3787 55.6701 59.5834 54.1845 59.5834H10.8155C9.32956 59.5834 8.125 58.3784 8.125 56.8929V13.5238C8.125 12.0379 9.33007 10.8334 10.8155 10.8334H16.25ZM24.375 46.0417H18.9583V51.4584H24.375V46.0417ZM24.375 37.9167H18.9583V43.3334H24.375V37.9167ZM24.375 29.7917H18.9583V35.2084H24.375V29.7917ZM43.3333 5.41669V16.25H21.6667V5.41669H43.3333Z" fill="#1A4402"/>
</svg>
