<svg width="80" height="80" viewBox="0 0 80 80" fill="none" xmlns="http://www.w3.org/2000/svg">
<rect width="80" height="80" rx="30" fill="#EDE9FE"/>
<path fill-rule="evenodd" clip-rule="evenodd" d="M32.3334 30.8328C31.9079 30.9053 31.5054 31.0126 31.1155 31.1741C29.482 31.8508 28.1842 33.1486 27.5076 34.7821C27.2261 35.4617 27.1093 36.1794 27.0539 36.9911C27.0208 37.4771 27.008 38.0316 27.0031 38.6667H27.0001C26.2637 38.6667 25.6667 39.2636 25.6667 40C25.6667 40.7364 26.2637 41.3333 27.0001 41.3333H27.0031C27.008 41.9684 27.0208 42.5229 27.0539 43.0089C27.1093 43.8206 27.2261 44.5383 27.5076 45.2179C28.1842 46.8514 29.482 48.1492 31.1155 48.8259C31.7951 49.1074 32.5128 49.2241 33.3245 49.2795C34.1138 49.3333 35.0836 49.3333 36.2859 49.3333H41.7141C42.9164 49.3333 43.8864 49.3333 44.6757 49.2795C45.4873 49.2241 46.205 49.1074 46.8846 48.8259C48.5182 48.1492 49.816 46.8514 50.4926 45.2179C50.7741 44.5383 50.8909 43.8206 50.9462 43.0089C50.9794 42.5229 50.9921 41.9684 50.997 41.3333H51.0001C51.7365 41.3333 52.3334 40.7364 52.3334 40C52.3334 39.2636 51.7365 38.6667 51.0001 38.6667H50.997C50.9921 38.0316 50.9794 37.4771 50.9462 36.9911C50.8909 36.1794 50.7741 35.4617 50.4926 34.7821C49.816 33.1486 48.5182 31.8508 46.8846 31.1741C46.4947 31.0126 46.0923 30.9053 45.6667 30.8328C45.6666 31.3655 45.6648 31.8285 45.6383 32.2165C45.6083 32.6563 45.5423 33.0962 45.3623 33.5307C44.9563 34.5108 44.1776 35.2895 43.1975 35.6955C42.7629 35.8755 42.323 35.9415 41.8833 35.9715C41.4656 36 40.9609 36 40.3761 36H37.6241C37.0392 36 36.5346 36 36.1169 35.9715C35.6771 35.9415 35.2373 35.8755 34.8027 35.6955C33.8226 35.2895 33.0439 34.5108 32.6379 33.5307C32.4579 33.0962 32.3919 32.6563 32.3619 32.2165C32.3354 31.8285 32.3335 31.3655 32.3334 30.8328ZM36.3334 40C36.3334 40.7364 35.7365 41.3333 35.0001 41.3333C34.2637 41.3333 33.6667 40.7364 33.6667 40C33.6667 39.2636 34.2637 38.6667 35.0001 38.6667C35.7365 38.6667 36.3334 39.2636 36.3334 40ZM43.0001 41.3333C43.7365 41.3333 44.3334 40.7364 44.3334 40C44.3334 39.2636 43.7365 38.6667 43.0001 38.6667C42.2637 38.6667 41.6667 39.2636 41.6667 40C41.6667 40.7364 42.2637 41.3333 43.0001 41.3333Z" fill="#8B5CF6"/>
<path d="M43.0001 30.6697C42.6038 30.6667 42.1762 30.6667 41.7143 30.6667H36.2861C35.8241 30.6667 35.3963 30.6667 35.0001 30.6697C35.0001 31.3075 35.0008 31.7195 35.0224 32.035C35.0431 32.339 35.0786 32.4548 35.1016 32.5102C35.2369 32.8369 35.4965 33.0965 35.8232 33.2318C35.8787 33.2548 35.9944 33.2903 36.2984 33.311C36.6144 33.3326 37.0273 33.3333 37.6667 33.3333H40.3334C40.9729 33.3333 41.3858 33.3326 41.7017 33.311C42.0057 33.2903 42.1215 33.2548 42.177 33.2318C42.5037 33.0965 42.7633 32.8369 42.8986 32.5102C42.9216 32.4548 42.9571 32.339 42.9778 32.035C42.9993 31.7195 43.0001 31.3075 43.0001 30.6697Z" fill="#8B5CF6"/>
</svg>
