<svg width="71" height="70" viewBox="0 0 71 70" fill="none" xmlns="http://www.w3.org/2000/svg">
<path d="M35.1255 70C30.2494 70 25.6056 69.0026 21.3879 67.2011H24.8506H26.5162C30.7994 67.2011 34.2719 63.7289 34.2719 59.4453V56.5133H33.1885V54.3915H36.7885V42.3085C36.7885 41.461 36.6525 40.6455 36.4011 39.8821C37.7374 40.3096 38.8829 40.9662 39.6356 41.9384C43.909 47.4593 39.4679 57.9265 39.4075 58.067C39.4073 58.0672 39.4073 58.0674 39.4073 58.0677L40.334 58.4693L41.5057 58.9781C41.7144 58.4979 46.5543 47.1394 41.4446 40.5382C40.078 38.7729 37.8623 37.6425 34.8335 37.1605C33.4126 35.5608 31.3402 34.5526 29.0325 34.5526H26.052V32.6357H26.8216C27.1161 32.6357 27.3552 32.3966 27.3552 32.102C27.3552 31.8071 27.1161 31.568 26.8216 31.568H26.052V30.3481H26.8216C27.1161 30.3481 27.3552 30.1093 27.3552 29.8143C27.3552 29.5195 27.1161 29.2807 26.8216 29.2807H26.052V26.0781H19.3553V29.2807H18.5863C18.2913 29.2807 18.0523 29.5195 18.0523 29.8143C18.0523 30.1093 18.2913 30.3481 18.5863 30.3481H19.3553V31.568H18.5863C18.2913 31.568 18.0523 31.8071 18.0523 32.102C18.0523 32.3966 18.2913 32.6357 18.5863 32.6357H19.3553V34.5526H16.375C12.0915 34.5526 8.61924 38.0252 8.61924 42.3084V54.3915H12.2188V56.5132H11.1356V59.4453C11.1356 59.8238 11.1628 60.1959 11.2153 60.5597C4.39005 54.1728 0.125488 45.085 0.125488 34.9999C0.125488 15.67 15.7954 0 35.1254 0C54.4555 0 70.1254 15.67 70.1254 34.9999C70.1254 54.33 54.4555 70 35.1254 70H35.1255Z" fill="#266E43"/>
</svg>
