<svg width="24" height="24" viewBox="0 0 24 24" fill="none" xmlns="http://www.w3.org/2000/svg">
<path d="M7.58791 21.6196C16.5348 21.6196 21.4284 14.207 21.4284 7.7791C21.4284 7.56861 21.4284 7.35892 21.4142 7.15027C22.3662 6.46165 23.1879 5.60917 23.8409 4.63234C22.9532 5.02565 22.0114 5.28382 21.0469 5.39762C22.0625 4.78961 22.8225 3.8336 23.1855 2.70714C22.2306 3.27379 21.186 3.67316 20.0967 3.88786C18.2545 1.92894 15.1731 1.83437 13.2141 3.67659C11.9507 4.86469 11.4149 6.63499 11.8069 8.32442C7.89613 8.12815 4.252 6.28093 1.78201 3.24192C0.490901 5.46454 1.15029 8.30808 3.28808 9.73539C2.51384 9.71247 1.75672 9.50356 1.08021 9.12658C1.08021 9.1466 1.08021 9.16742 1.08021 9.18823C1.08074 11.5038 2.713 13.4981 4.98277 13.9567C4.26675 14.1519 3.51516 14.1806 2.78623 14.0402C3.42349 16.0218 5.24964 17.3793 7.33079 17.4183C5.60817 18.7721 3.48039 19.5068 1.28964 19.5047C0.902654 19.5039 0.516191 19.4805 0.131836 19.4344C2.3563 20.8619 4.94484 21.6191 7.58791 21.6156" fill="white"/>
</svg>
