<svg width="145" height="125" viewBox="0 0 145 125" fill="none" xmlns="http://www.w3.org/2000/svg">
<g clip-path="url(#clip0_2569_2030)">
<path d="M0 123.5C0 123.777 0.146482 124 0.328889 124H144.671C144.854 124 145 123.777 145 123.5C145 123.223 144.854 123 144.671 123H0.328889C0.14648 123 0 123.223 0 123.5Z" fill="#B7B7B7"/>
<path d="M47.0935 13.2844L48.6631 20.4494L45.3244 30.4223L39.9453 19.7072L40.6917 13.4909L47.0935 13.2844Z" fill="#FDB4B4"/>
<path d="M48.9556 20.0782H39.668V31.3036H48.9556V20.0782Z" fill="#1A76BC"/>
<path d="M45.1358 16.8935C48.6388 16.8935 51.4786 14.0528 51.4786 10.5487C51.4786 7.04453 48.6388 4.20386 45.1358 4.20386C41.6327 4.20386 38.793 7.04453 38.793 10.5487C38.793 14.0528 41.6327 16.8935 45.1358 16.8935Z" fill="#FDB4B4"/>
<path d="M39.6154 15.2667C39.6154 15.2667 34.8874 6.53219 39.1502 2.32894C43.413 -1.87432 46.835 0.895362 46.835 0.895362L48.7891 0.816365C48.7891 0.816365 49.1966 2.35467 49.8538 1.52192C50.5109 0.68917 51.6984 3.72194 51.6984 3.72194C53.9025 7.69256 46.2619 8.58205 46.2619 8.58205C46.2619 8.58205 46.8136 10.3401 46.2528 10.7083C45.692 11.0765 44.1937 12.4615 44.1937 12.4615L42.8526 13.4747L42.0556 12.26C42.0556 12.26 41.2231 11.6026 40.8025 11.8788C40.3819 12.1549 40.9605 15.7882 40.9605 15.7882L39.6154 15.2667Z" fill="#2E2E41"/>
<path d="M32.0051 79.5248L29.5801 115.709L35.5416 115.912L43.4229 79.8281L32.0051 79.5248Z" fill="#2E2E41"/>
<path d="M46.4543 79.3227L44.0293 115.507L49.9908 115.709L57.8721 79.6259L46.4543 79.3227Z" fill="#2E2E41"/>
<path d="M30.5456 87.792L33.7192 48.3818L28.8523 27.86C28.4327 24.8094 30.3542 21.923 33.3198 21.1359L38.0821 19.872L40.1899 17.7634L44.9843 28.3544L47.9787 17.7715L50.3139 19.4704L57.2399 22.527L57.2368 22.5986L56.1258 47.3888L58.6057 87.4411L58.4957 87.4425L30.5456 87.792Z" fill="#E8E9EA"/>
<path d="M49.6086 115.298L51.3348 120.453C51.3348 120.453 58.088 121.372 58.1931 123.463C58.2981 125.554 49.0151 124.344 43.5793 124.617C38.1436 124.89 42.6684 119.002 42.6684 119.002L43.2477 115.618L49.6086 115.298Z" fill="#2E2E41"/>
<path d="M35.5109 114.927L37.2371 120.082C37.2371 120.082 43.9903 121 44.0954 123.092C44.2005 125.183 34.9174 123.973 29.4817 124.246C24.0459 124.519 28.5708 118.631 28.5708 118.631L29.15 115.247L35.5109 114.927Z" fill="#2E2E41"/>
<path d="M27.0897 66.8617C27.0165 65.8453 27.1877 64.8262 27.5891 63.8897L26.3008 53.318L31.3474 52.8519L32.1107 63.6258C32.6179 64.5091 32.9062 65.5011 32.9516 66.5188C33.1 69.0643 31.9081 71.2036 30.2891 71.2981C28.6702 71.3926 27.2377 69.4063 27.0897 66.8617Z" fill="#FDB4B4"/>
<path d="M59.0533 68.4134C58.9912 67.3963 59.1736 66.3791 59.5851 65.447L58.4121 54.862L63.4635 54.4509L64.1094 65.2325C64.6069 66.1213 64.8844 67.1164 64.9186 68.1345C65.0393 70.6815 63.8241 72.8076 62.2043 72.8844C60.5844 72.9613 59.1736 70.9595 59.0533 68.4134Z" fill="#FDB4B4"/>
<path d="M26.28 62.6221L26.263 62.5309L23.6328 48.4144L26.7406 25.4273C27.0179 23.375 28.8499 21.8967 30.9157 22.0619C31.9945 22.1483 32.9625 22.6601 33.6415 23.5034C34.3204 24.3466 34.6141 25.4017 34.4686 26.4746L32.1296 43.7146L33.6022 62.1545L26.28 62.6221Z" fill="#E8E9EA"/>
<path d="M57.495 62.2908L52.2071 26.9819C51.9322 25.9466 52.0931 24.8631 52.6624 23.9424C53.2317 23.0217 54.129 22.3939 55.1889 22.1746C57.2167 21.7551 59.2191 22.995 59.7483 24.997L64.8284 61.8474L57.495 62.2908Z" fill="#E8E9EA"/>
<path d="M45.1394 31.5819C45.498 31.5819 45.7886 31.2912 45.7886 30.9325C45.7886 30.5739 45.498 30.2831 45.1394 30.2831C44.7809 30.2831 44.4902 30.5739 44.4902 30.9325C44.4902 31.2912 44.7809 31.5819 45.1394 31.5819Z" fill="#D6D7D8"/>
<path d="M45.1394 36.4989C45.498 36.4989 45.7886 36.2081 45.7886 35.8495C45.7886 35.4908 45.498 35.2001 45.1394 35.2001C44.7809 35.2001 44.4902 35.4908 44.4902 35.8495C44.4902 36.2081 44.7809 36.4989 45.1394 36.4989Z" fill="#D6D7D8"/>
<path d="M45.1394 41.4158C45.498 41.4158 45.7886 41.1251 45.7886 40.7664C45.7886 40.4078 45.498 40.117 45.1394 40.117C44.7809 40.117 44.4902 40.4078 44.4902 40.7664C44.4902 41.1251 44.7809 41.4158 45.1394 41.4158Z" fill="#D6D7D8"/>
<path d="M45.1394 46.3327C45.498 46.3327 45.7886 46.0419 45.7886 45.6833C45.7886 45.3246 45.498 45.0339 45.1394 45.0339C44.7809 45.0339 44.4902 45.3246 44.4902 45.6833C44.4902 46.0419 44.7809 46.3327 45.1394 46.3327Z" fill="#D6D7D8"/>
<path d="M45.1394 51.2496C45.498 51.2496 45.7886 50.9589 45.7886 50.6002C45.7886 50.2416 45.498 49.9508 45.1394 49.9508C44.7809 49.9508 44.4902 50.2416 44.4902 50.6002C44.4902 50.9589 44.7809 51.2496 45.1394 51.2496Z" fill="#D6D7D8"/>
<path d="M45.1394 56.1665C45.498 56.1665 45.7886 55.8758 45.7886 55.5171C45.7886 55.1585 45.498 54.8677 45.1394 54.8677C44.7809 54.8677 44.4902 55.1585 44.4902 55.5171C44.4902 55.8758 44.7809 56.1665 45.1394 56.1665Z" fill="#D6D7D8"/>
<path d="M45.1394 61.0834C45.498 61.0834 45.7886 60.7927 45.7886 60.434C45.7886 60.0754 45.498 59.7846 45.1394 59.7846C44.7809 59.7846 44.4902 60.0754 44.4902 60.434C44.4902 60.7927 44.7809 61.0834 45.1394 61.0834Z" fill="#D6D7D8"/>
<path d="M45.1394 66.0003C45.498 66.0003 45.7886 65.7096 45.7886 65.3509C45.7886 64.9923 45.498 64.7015 45.1394 64.7015C44.7809 64.7015 44.4902 64.9923 44.4902 65.3509C44.4902 65.7096 44.7809 66.0003 45.1394 66.0003Z" fill="#D6D7D8"/>
<path d="M45.1402 69.8039L32.8566 68.1664L32.62 68.135L26.3422 53.6551L22.6035 45.0342H32.3416L45.1402 69.8039Z" fill="#1A76BC"/>
<path d="M94.3923 14.8597L102.202 10.58V22.8076H93.1699L94.3923 14.8597Z" fill="#2E2E41"/>
<path d="M103.876 17.5858L104.596 23.5888L99.4019 33.9363L96.1777 24.3055L97.6936 17.3864L103.876 17.5858Z" fill="#FDB4B4"/>
<path d="M104.865 23.9471H95.8965V34.7874H104.865V23.9471Z" fill="#1A76BC"/>
<path d="M112.264 81.3539L114.606 116.297L108.849 116.492L101.238 81.6467L112.264 81.3539Z" fill="#2E2E41"/>
<path d="M98.3112 81.1587L100.653 116.102L94.8961 116.297L87.2852 81.4515L98.3112 81.1587Z" fill="#2E2E41"/>
<path d="M118.347 88.7652L118.21 88.7647L81.5352 88.6449L81.5681 88.5151L90.997 51.1457L88.6351 32.2867C88.1876 28.7131 90.1 25.3354 93.3939 23.8818L94.583 23.357L96.8421 21.7137L99.7321 31.9289L104.36 21.7057L106.399 23.7448L110.997 24.9651C113.862 25.7255 115.719 28.5147 115.315 31.4528L115.31 31.4732L108.289 51.5146L118.347 88.7652Z" fill="#E8E9EA"/>
<path d="M95.2654 115.9L101.408 116.209L101.967 119.476C101.967 119.476 106.337 125.163 101.088 124.899C95.8385 124.635 86.874 125.804 86.9755 123.784C87.0769 121.765 93.5984 120.878 93.5984 120.878L95.2654 115.9Z" fill="#2E2E41"/>
<path d="M108.879 115.542L115.021 115.85L115.581 119.118C115.581 119.118 119.95 124.804 114.701 124.54C109.452 124.276 100.487 125.445 100.589 123.426C100.69 121.406 107.212 120.519 107.212 120.519L108.879 115.542Z" fill="#2E2E41"/>
<path d="M114.505 68.7669C114.362 71.2243 112.979 73.1424 111.415 73.0511C109.852 72.9598 108.701 70.894 108.844 68.4358C108.888 67.4531 109.166 66.4951 109.656 65.6421L110.393 55.2379L115.267 55.688L114.023 65.8969C114.41 66.8013 114.576 67.7855 114.505 68.7669Z" fill="#FDB4B4"/>
<path d="M89.46 67.8325C89.2648 70.2862 87.8409 72.1744 86.2798 72.0499C84.7188 71.9254 83.612 69.8355 83.8076 67.3809C83.8723 66.3993 84.171 65.4475 84.6788 64.6051L85.6372 54.219L90.5 54.7728L89.0389 64.9528C89.4072 65.8653 89.5515 66.8528 89.46 67.8325Z" fill="#FDB4B4"/>
<path d="M115.289 64.6766L108.211 64.2246L108.22 64.1185L109.634 46.4142L107.375 29.7662C107.234 28.7292 107.518 27.7092 108.174 26.8942C108.831 26.0791 109.766 25.5844 110.809 25.5008C112.806 25.3434 114.577 26.7702 114.845 28.7538L117.846 50.9527L117.843 50.9693L115.289 64.6766Z" fill="#E8E9EA"/>
<path d="M90.6379 63.9984L83.5488 63.5696L83.5644 63.4577L88.4528 27.992C88.9669 26.0441 90.9032 24.846 92.8625 25.2513C93.887 25.4633 94.7542 26.0701 95.3045 26.9601C95.8548 27.8502 96.0104 28.8974 95.7424 29.909L90.6379 63.9984Z" fill="#E8E9EA"/>
<path d="M99.582 35.0561C99.9282 35.0561 100.209 34.7753 100.209 34.429C100.209 34.0827 99.9282 33.8019 99.582 33.8019C99.2358 33.8019 98.9551 34.0827 98.9551 34.429C98.9551 34.7753 99.2358 35.0561 99.582 35.0561Z" fill="#D6D7D8"/>
<path d="M99.582 39.8043C99.9282 39.8043 100.209 39.5236 100.209 39.1772C100.209 38.8309 99.9282 38.5501 99.582 38.5501C99.2358 38.5501 98.9551 38.8309 98.9551 39.1772C98.9551 39.5236 99.2358 39.8043 99.582 39.8043Z" fill="#D6D7D8"/>
<path d="M99.582 44.5525C99.9282 44.5525 100.209 44.2717 100.209 43.9254C100.209 43.579 99.9282 43.2983 99.582 43.2983C99.2358 43.2983 98.9551 43.579 98.9551 43.9254C98.9551 44.2717 99.2358 44.5525 99.582 44.5525Z" fill="#D6D7D8"/>
<path d="M99.582 49.3007C99.9282 49.3007 100.209 49.02 100.209 48.6736C100.209 48.3273 99.9282 48.0465 99.582 48.0465C99.2358 48.0465 98.9551 48.3273 98.9551 48.6736C98.9551 49.02 99.2358 49.3007 99.582 49.3007Z" fill="#D6D7D8"/>
<path d="M99.582 54.0489C99.9282 54.0489 100.209 53.7681 100.209 53.4218C100.209 53.0755 99.9282 52.7947 99.582 52.7947C99.2358 52.7947 98.9551 53.0755 98.9551 53.4218C98.9551 53.7681 99.2358 54.0489 99.582 54.0489Z" fill="#D6D7D8"/>
<path d="M99.582 58.7971C99.9282 58.7971 100.209 58.5164 100.209 58.17C100.209 57.8237 99.9282 57.5429 99.582 57.5429C99.2358 57.5429 98.9551 57.8237 98.9551 58.17C98.9551 58.5164 99.2358 58.7971 99.582 58.7971Z" fill="#D6D7D8"/>
<path d="M99.582 63.5453C99.9282 63.5453 100.209 63.2645 100.209 62.9182C100.209 62.5718 99.9282 62.2911 99.582 62.2911C99.2358 62.2911 98.9551 62.5718 98.9551 62.9182C98.9551 63.2645 99.2358 63.5453 99.582 63.5453Z" fill="#D6D7D8"/>
<path d="M99.582 68.2935C99.9282 68.2935 100.209 68.0127 100.209 67.6664C100.209 67.32 99.9282 67.0392 99.582 67.0392C99.2358 67.0392 98.9551 67.32 98.9551 67.6664C98.9551 68.0127 99.2358 68.2935 99.582 68.2935Z" fill="#D6D7D8"/>
<path d="M100.534 20.6495C103.772 20.6495 106.398 18.0233 106.398 14.7837C106.398 11.5442 103.772 8.91797 100.534 8.91797C97.2953 8.91797 94.6699 11.5442 94.6699 14.7837C94.6699 18.0233 97.2953 20.6495 100.534 20.6495Z" fill="#FDB4B4"/>
<path d="M103.607 7.93617C103.888 8.50783 103.442 9.22191 102.852 9.46225C102.263 9.70259 101.597 9.60521 100.968 9.50517C100.339 9.40513 99.6715 9.31026 99.0835 9.55486C98.3226 9.87134 97.8938 10.6652 97.5242 11.4019C96.8343 12.7773 96.1444 14.1526 95.4545 15.5279C95.1174 16.1998 94.7727 16.902 94.7662 17.6538C94.7543 19.0337 95.8486 20.1365 96.4374 21.3845C97.1543 22.904 97.0952 24.7662 96.2834 26.2371C95.4715 27.708 93.9277 28.7502 92.2603 28.9529C91.8216 29.0063 91.3572 29.0005 90.9628 28.8011C90.5684 28.6017 90.2673 28.1664 90.3404 27.7304C90.4832 26.8776 91.7859 26.6783 92.0251 25.8475C92.15 25.4137 91.9288 24.9505 91.6306 24.6117C91.3325 24.273 90.9554 24.0087 90.671 23.6583C90.0152 22.8503 89.9715 21.6029 90.5691 20.7509C90.9204 20.2503 91.4636 19.8783 91.6907 19.3103C91.8841 18.8262 91.8139 18.282 91.7406 17.7658C91.6464 17.1026 91.5523 16.4393 91.4581 15.776C91.3482 15.0021 91.24 14.2005 91.4572 13.4497C91.9547 11.7291 93.897 10.9209 95.036 9.53886C95.5652 8.89661 95.9213 8.12422 96.4643 7.49353C97.3755 6.43515 98.8101 5.8513 100.201 5.97266C101.592 6.09404 102.904 6.91752 103.618 8.11772" fill="#2E2E41"/>
<path d="M102.681 8.04468C102.394 8.14716 102.288 8.52042 102.371 8.81338C102.453 9.10634 102.669 9.33911 102.867 9.57049C105.102 12.1875 105.622 16.1459 104.137 19.2514C103.743 20.0775 103.217 20.8549 103.004 21.7453C102.849 22.3933 102.857 23.104 102.498 23.6649C102.132 24.236 101.407 24.6186 101.335 25.2931C101.289 25.7259 101.553 26.1463 101.907 26.4001C102.26 26.6538 102.692 26.7699 103.117 26.8646C104.221 27.1107 105.349 27.245 106.48 27.2649C106.849 27.2714 107.229 27.2634 107.567 27.1165C107.906 26.9695 108.194 26.6508 108.198 26.282C108.201 25.9922 108.034 25.7248 108.013 25.4357C107.949 24.5694 109.114 24.1086 109.341 23.2702C109.49 22.719 109.196 22.1518 108.883 21.6744C108.57 21.197 108.212 20.6958 108.22 20.1248C108.227 19.5781 108.57 19.0967 108.704 18.5665C108.888 17.8332 108.661 17.0661 108.437 16.3441C108.246 15.7303 108.055 15.1164 107.864 14.5026C107.661 13.8501 107.458 13.1975 107.255 12.545C106.9 11.4058 106.528 10.2336 105.761 9.31991C104.994 8.40623 103.723 7.80737 102.591 8.18041" fill="#2E2E41"/>
<path d="M106.677 30.7746L106.275 30.6574C107.113 27.7855 105.307 22.426 105.289 22.3722L105.685 22.2371C105.762 22.4619 107.551 27.7769 106.677 30.7746Z" fill="#3F3C57"/>
<path d="M106.475 34.0734C107.441 34.0734 108.224 33.2902 108.224 32.324C108.224 31.3579 107.441 30.5747 106.475 30.5747C105.51 30.5747 104.727 31.3579 104.727 32.324C104.727 33.2902 105.51 34.0734 106.475 34.0734Z" fill="#3F3C57"/>
<path d="M94.9851 38.5172H93.9245C93.8088 38.5172 93.7152 38.4234 93.7152 38.3078C93.7152 38.1922 93.8088 38.0984 93.9245 38.0984H94.9851C95.2774 38.0984 95.552 37.9845 95.7584 37.7776C95.9647 37.5707 96.0782 37.2958 96.0775 37.0036L96.0647 30.469C96.0647 29.0494 94.9105 27.8949 93.4918 27.8949C92.0731 27.8949 90.9187 29.0494 90.9187 30.4686L90.9315 36.585C90.9328 37.1817 91.4191 37.6708 92.0156 37.6754L92.7436 37.6809C92.8591 37.6819 92.9521 37.7762 92.9513 37.892C92.9504 38.007 92.8568 38.0997 92.7419 38.0997H92.7403L92.0123 38.0942C91.1873 38.0879 90.5145 37.4111 90.5129 36.5858L90.5 30.469C90.5 28.8185 91.8421 27.4761 93.4918 27.4761C95.1413 27.4761 96.4833 28.8185 96.4833 30.4686L96.4962 37.0027C96.497 37.407 96.3402 37.7873 96.0547 38.0733C95.7693 38.3595 95.3892 38.5172 94.9851 38.5172Z" fill="#3F3C57"/>
<path d="M92.7419 38.6325C93.1517 38.6325 93.4839 38.3003 93.4839 37.8904C93.4839 37.4805 93.1517 37.1482 92.7419 37.1482C92.3322 37.1482 92 37.4805 92 37.8904C92 38.3003 92.3322 38.6325 92.7419 38.6325Z" fill="#3F3C57"/>
<path d="M93.9236 39.05C94.3333 39.05 94.6655 38.7177 94.6655 38.3079C94.6655 37.898 94.3333 37.5657 93.9236 37.5657C93.5138 37.5657 93.1816 37.898 93.1816 38.3079C93.1816 38.7177 93.5138 39.05 93.9236 39.05Z" fill="#3F3C57"/>
<path d="M51.0926 27.6358L50.6907 27.5186C51.528 24.6467 49.7428 19.2042 49.7246 19.1504L50.227 19.5292C50.3036 19.754 51.9667 24.6381 51.0926 27.6358Z" fill="#3F3C57"/>
<path d="M36.9641 28.146L37.366 28.0289C36.5286 25.1569 38.3341 19.7974 38.3523 19.7437L37.9224 20.0317C37.8457 20.2566 36.09 25.1483 36.9641 28.146Z" fill="#3F3C57"/>
<path d="M50.8914 30.9346C51.8572 30.9346 52.6401 30.1514 52.6401 29.1852C52.6401 28.2191 51.8572 27.4359 50.8914 27.4359C49.9255 27.4359 49.1426 28.2191 49.1426 29.1852C49.1426 30.1514 49.9255 30.9346 50.8914 30.9346Z" fill="#3F3C57"/>
<path d="M38.8288 38.9037H37.7683C37.6526 38.9037 37.559 38.81 37.559 38.6943C37.559 38.5787 37.6526 38.4849 37.7683 38.4849H38.8288C39.1212 38.4849 39.3957 38.371 39.6022 38.1641C39.8085 37.9572 39.9219 37.6823 39.9213 37.3901L39.9084 30.8555C39.9084 29.436 38.7542 28.2814 37.3355 28.2814C35.9168 28.2814 34.7624 29.436 34.7624 30.8551L34.7753 36.9715C34.7765 37.5682 35.2628 38.0573 35.8594 38.0619L36.5873 38.0675C36.7028 38.0684 36.7958 38.1628 36.795 38.2785C36.7942 38.3935 36.7006 38.4863 36.5857 38.4863H36.584L35.8561 38.4807C35.031 38.4744 34.3583 37.7976 34.3566 36.9723L34.3438 30.8555C34.3438 29.2051 35.6858 27.8626 37.3355 27.8626C38.985 27.8626 40.3271 29.2051 40.3271 30.8551L40.34 37.3893C40.3408 37.7936 40.184 38.1738 39.8984 38.4599C39.613 38.7461 39.233 38.9037 38.8288 38.9037Z" fill="#3F3C57"/>
<path d="M36.5857 39.0191C36.9955 39.0191 37.3276 38.6868 37.3276 38.2769C37.3276 37.867 36.9955 37.5347 36.5857 37.5347C36.1759 37.5347 35.8438 37.867 35.8438 38.2769C35.8438 38.6868 36.1759 39.0191 36.5857 39.0191Z" fill="#3F3C57"/>
<path d="M37.7673 39.4366C38.1771 39.4366 38.5093 39.1043 38.5093 38.6944C38.5093 38.2845 38.1771 37.9522 37.7673 37.9522C37.3576 37.9522 37.0254 38.2845 37.0254 38.6944C37.0254 39.1043 37.3576 39.4366 37.7673 39.4366Z" fill="#3F3C57"/>
</g>
<defs>
<clipPath id="clip0_2569_2030">
<rect width="145" height="125" fill="white"/>
</clipPath>
</defs>
</svg>
