<svg width="123" height="125" viewBox="0 0 123 125" fill="none" xmlns="http://www.w3.org/2000/svg">
<g clip-path="url(#clip0_2569_2095)">
<path d="M84.2259 29.6271H83.5391V10.8612C83.5391 7.98061 82.3902 5.21803 80.3452 3.18116C78.3002 1.1443 75.5267 1.41678e-09 72.6346 1.41678e-09H32.7171C31.2851 -2.30353e-05 29.8672 0.280887 28.5442 0.82669C27.2212 1.37249 26.019 2.1725 25.0065 3.18104C23.9939 4.18957 23.1906 5.38689 22.6426 6.70462C22.0946 8.02235 21.8125 9.43468 21.8125 10.861V113.813C21.8125 116.693 22.9614 119.456 25.0063 121.493C27.0513 123.529 29.8249 124.674 32.7169 124.674H72.6341C75.5261 124.674 78.2997 123.529 80.3447 121.493C82.3897 119.456 83.5385 116.693 83.5385 113.813V42.9851H84.2254L84.2259 29.6271Z" fill="#3F3D56"/>
<path d="M81.4816 10.9793V114.946C81.4813 117.121 80.6082 119.207 79.0544 120.745C77.5005 122.283 75.3931 123.147 73.1954 123.148H32.366C30.1674 123.148 28.0587 122.285 26.5038 120.746C24.9488 119.208 24.0749 117.122 24.0742 114.946V10.9793C24.0749 8.80373 24.9487 6.71748 26.5036 5.17943C28.0585 3.64138 30.1671 2.77749 32.3656 2.77777H37.3184C37.0753 3.3696 36.9827 4.01148 37.0489 4.64699C37.1151 5.28251 37.338 5.89221 37.6981 6.42249C38.0582 6.95278 38.5444 7.38741 39.114 7.6882C39.6835 7.98899 40.3191 8.14673 40.9647 8.14753H64.2422C64.8878 8.14673 65.5233 7.98899 66.0929 7.6882C66.6625 7.38741 67.1487 6.95278 67.5088 6.42249C67.8688 5.89221 68.0918 5.28251 68.158 4.64699C68.2242 4.01148 68.1316 3.3696 67.8884 2.77777H73.1938C75.3915 2.77814 77.4991 3.64213 79.0532 5.1798C80.6073 6.71747 81.4808 8.80295 81.4816 10.9778V10.9793Z" fill="white"/>
<path d="M71.2034 70.2728H35.0043C34.8266 70.2726 34.6562 70.2022 34.5305 70.077C34.4049 69.9519 34.3342 69.7821 34.334 69.6051V60.6615C34.3342 60.4845 34.4049 60.3148 34.5306 60.1896C34.6562 60.0645 34.8266 59.9941 35.0043 59.9938H71.2034C71.3811 59.9941 71.5514 60.0645 71.6771 60.1896C71.8028 60.3148 71.8735 60.4845 71.8737 60.6615V69.6053C71.8735 69.7823 71.8028 69.952 71.6771 70.0771C71.5514 70.2023 71.3811 70.2727 71.2034 70.273V70.2728ZM35.0043 60.2608C34.8976 60.2609 34.7954 60.3032 34.72 60.3783C34.6445 60.4534 34.6021 60.5552 34.602 60.6615V69.6053C34.6021 69.7115 34.6445 69.8134 34.72 69.8885C34.7954 69.9636 34.8976 70.0059 35.0043 70.006H71.2034C71.31 70.0059 71.4123 69.9636 71.4877 69.8885C71.5631 69.8134 71.6055 69.7115 71.6056 69.6053V60.6615C71.6055 60.5552 71.5631 60.4534 71.4877 60.3783C71.4123 60.3032 71.31 60.2609 71.2034 60.2608H35.0043Z" fill="#E6E6E6"/>
<path d="M46.1997 63.2147C46.0753 63.2147 45.9559 63.264 45.8679 63.3516C45.7799 63.4393 45.7305 63.5582 45.7305 63.6821C45.7305 63.8061 45.7799 63.925 45.8679 64.0126C45.9559 64.1003 46.0753 64.1495 46.1997 64.1495H68.3212C68.4456 64.1543 68.5668 64.1096 68.6582 64.0254C68.7495 63.9411 68.8035 63.8242 68.8082 63.7003C68.813 63.5764 68.7682 63.4557 68.6836 63.3647C68.599 63.2737 68.4816 63.22 68.3572 63.2152C68.3503 63.215 68.3434 63.2149 68.3366 63.2149L46.1997 63.2147Z" fill="#E6E6E6"/>
<path d="M46.1997 66.0186C46.0753 66.0186 45.9559 66.0679 45.8679 66.1555C45.7799 66.2432 45.7305 66.3621 45.7305 66.486C45.7305 66.61 45.7799 66.7289 45.8679 66.8165C45.9559 66.9042 46.0753 66.9534 46.1997 66.9534H68.3212C68.4456 66.9582 68.5668 66.9135 68.6582 66.8293C68.7495 66.745 68.8035 66.6281 68.8082 66.5042C68.813 66.3803 68.7682 66.2596 68.6836 66.1686C68.599 66.0776 68.4816 66.0239 68.3572 66.0191C68.3503 66.0189 68.3434 66.0188 68.3366 66.0188L46.1997 66.0186Z" fill="#E6E6E6"/>
<path d="M71.2034 85.1803H35.0043C34.8266 85.1801 34.6562 85.1097 34.5305 84.9845C34.4049 84.8593 34.3342 84.6896 34.334 84.5126V75.569C34.3342 75.392 34.4049 75.2223 34.5306 75.0971C34.6562 74.972 34.8266 74.9015 35.0043 74.9013H71.2034C71.3811 74.9015 71.5514 74.972 71.6771 75.0971C71.8028 75.2223 71.8735 75.392 71.8737 75.569V84.5128C71.8734 84.6897 71.8027 84.8594 71.677 84.9845C71.5514 85.1096 71.3811 85.18 71.2034 85.1803ZM35.0043 75.1683C34.8976 75.1684 34.7954 75.2106 34.72 75.2857C34.6445 75.3609 34.6021 75.4627 34.602 75.569V84.5128C34.6021 84.619 34.6445 84.7209 34.72 84.796C34.7954 84.8711 34.8976 84.9133 35.0043 84.9134H71.2034C71.31 84.9133 71.4123 84.8711 71.4877 84.796C71.5631 84.7209 71.6055 84.619 71.6056 84.5128V75.569C71.6055 75.4627 71.5631 75.3609 71.4877 75.2857C71.4123 75.2106 71.31 75.1684 71.2034 75.1683H35.0043Z" fill="#E6E6E6"/>
<path d="M46.1997 78.1702C46.0753 78.1702 45.9559 78.2194 45.8679 78.3071C45.7799 78.3947 45.7305 78.5136 45.7305 78.6376C45.7305 78.7615 45.7799 78.8804 45.8679 78.9681C45.9559 79.0557 46.0753 79.105 46.1997 79.105H68.3212C68.4439 79.1043 68.5615 79.0558 68.6487 78.9698C68.7359 78.8839 68.7859 78.7673 68.7879 78.6451C68.7899 78.5229 68.7438 78.4048 68.6594 78.3161C68.5751 78.2273 68.4592 78.175 68.3366 78.1703H46.1997V78.1702Z" fill="#E6E6E6"/>
<path d="M46.1997 80.975C46.0753 80.975 45.9559 81.0243 45.8679 81.1119C45.7799 81.1996 45.7305 81.3185 45.7305 81.4424C45.7305 81.5664 45.7799 81.6853 45.8679 81.773C45.9559 81.8606 46.0753 81.9099 46.1997 81.9099H68.3212C68.4439 81.9092 68.5615 81.8606 68.6487 81.7747C68.7359 81.6887 68.7859 81.5722 68.7879 81.45C68.7899 81.3278 68.7438 81.2097 68.6594 81.1209C68.5751 81.0322 68.4592 80.9799 68.3366 80.9752H46.1997V80.975Z" fill="#E6E6E6"/>
<path d="M71.2034 100.136H35.0043C34.8266 100.136 34.6562 100.066 34.5305 99.9404C34.4049 99.8153 34.3342 99.6455 34.334 99.4685V90.5249C34.3342 90.3479 34.4049 90.1782 34.5306 90.053C34.6562 89.9279 34.8266 89.8575 35.0043 89.8572H71.2034C71.3811 89.8575 71.5514 89.9279 71.6771 90.053C71.8028 90.1782 71.8735 90.3479 71.8737 90.5249V99.4687C71.8735 99.6457 71.8028 99.8154 71.6771 99.9406C71.5514 100.066 71.3811 100.136 71.2034 100.136V100.136ZM35.0043 90.1242C34.8976 90.1243 34.7954 90.1666 34.72 90.2417C34.6445 90.3168 34.6021 90.4187 34.602 90.5249V99.4687C34.6021 99.5749 34.6445 99.6768 34.72 99.7519C34.7954 99.827 34.8976 99.8693 35.0043 99.8694H71.2034C71.31 99.8693 71.4123 99.827 71.4877 99.7519C71.5631 99.6768 71.6055 99.5749 71.6056 99.4687V90.5249C71.6055 90.4187 71.5631 90.3168 71.4877 90.2417C71.4123 90.1666 71.31 90.1243 71.2034 90.1242H35.0043Z" fill="#E6E6E6"/>
<path d="M46.1997 93.1271C46.0753 93.1271 45.9559 93.1763 45.8679 93.264C45.7799 93.3516 45.7305 93.4705 45.7305 93.5945C45.7305 93.7184 45.7799 93.8373 45.8679 93.925C45.9559 94.0126 46.0753 94.0619 46.1997 94.0619H68.3212C68.3828 94.0642 68.4443 94.0545 68.5021 94.0332C68.5599 94.0119 68.6129 93.9794 68.6582 93.9377C68.7034 93.896 68.7399 93.8458 68.7656 93.79C68.7914 93.7343 68.8059 93.674 68.8082 93.6126C68.8106 93.5513 68.8008 93.4901 68.7794 93.4325C68.758 93.3749 68.7254 93.3221 68.6836 93.2771C68.6417 93.232 68.5913 93.1956 68.5353 93.17C68.4793 93.1443 68.4188 93.1299 68.3572 93.1276C68.3503 93.1273 68.3434 93.1272 68.3366 93.1272L46.1997 93.1271Z" fill="#E6E6E6"/>
<path d="M46.1997 95.9314C46.0753 95.9314 45.9559 95.9806 45.8679 96.0683C45.7799 96.156 45.7305 96.2748 45.7305 96.3988C45.7305 96.5228 45.7799 96.6417 45.8679 96.7293C45.9559 96.817 46.0753 96.8662 46.1997 96.8662H68.3212C68.3828 96.8686 68.4443 96.8588 68.5021 96.8375C68.5599 96.8162 68.6129 96.7838 68.6582 96.7421C68.7034 96.7003 68.7399 96.6502 68.7656 96.5944C68.7914 96.5386 68.8059 96.4783 68.8082 96.417C68.8106 96.3556 68.8008 96.2944 68.7794 96.2368C68.758 96.1793 68.7254 96.1264 68.6836 96.0814C68.6417 96.0363 68.5913 96 68.5353 95.9743C68.4793 95.9487 68.4188 95.9343 68.3572 95.9319C68.3503 95.9317 68.3434 95.9315 68.3366 95.9316H46.1997V95.9314Z" fill="#E6E6E6"/>
<path d="M118.2 125H-3.384C-3.56012 125 -3.70312 124.793 -3.70312 124.537C-3.70312 124.281 -3.56012 124.074 -3.384 124.074H118.2C118.376 124.074 118.519 124.281 118.519 124.537C118.519 124.793 118.376 125 118.2 125Z" fill="#B7B7B7"/>
<path d="M1.33065 117.849C1.88636 118.044 2.48301 118.093 3.06313 117.991C3.64324 117.889 4.18725 117.64 4.64275 117.268C5.80285 116.298 6.16654 114.7 6.46242 113.221L7.33773 108.845L5.50521 110.102C4.18731 111.006 2.83982 111.939 1.92716 113.248C1.01451 114.557 0.616306 116.344 1.34949 117.761" fill="#28B911"/>
<path d="M1.61328 123.451C1.38257 121.778 1.14533 120.082 1.30719 118.391C1.4509 116.888 1.9111 115.421 2.84806 114.217C3.34536 113.58 3.95048 113.034 4.6362 112.604C4.81496 112.491 4.97963 112.773 4.80157 112.885C3.61482 113.632 2.69685 114.735 2.18004 116.035C1.60941 117.481 1.51783 119.056 1.61645 120.592C1.67598 121.521 1.8019 122.443 1.92889 123.365C1.93888 123.406 1.93262 123.45 1.91137 123.488C1.89012 123.525 1.85547 123.553 1.81441 123.565C1.77252 123.577 1.72788 123.571 1.69016 123.55C1.65245 123.528 1.6247 123.493 1.61293 123.451H1.61328Z" fill="#1A4402"/>
<path d="M3.27148 120.766C3.50981 121.127 3.83742 121.42 4.22273 121.618C4.60804 121.816 5.03807 121.912 5.47139 121.897C6.585 121.844 7.5135 121.07 8.34919 120.336L10.8212 118.162L9.18523 118.084C8.00875 118.028 6.8018 117.976 5.68045 118.337C4.5591 118.698 3.52633 119.568 3.3215 120.723" fill="#28B911"/>
<path d="M0.960849 124.414C2.0704 122.457 3.35924 120.282 5.6606 119.587C6.30049 119.394 6.97146 119.325 7.63736 119.383C7.8473 119.401 7.79482 119.724 7.58453 119.705C6.4683 119.613 5.35423 119.907 4.42987 120.537C3.54029 121.14 2.84779 121.978 2.26167 122.867C1.90256 123.411 1.58097 123.98 1.25937 124.547C1.15687 124.728 0.857465 124.597 0.960849 124.414Z" fill="#1A4402"/>
<path d="M39.5205 67.8826C41.0755 67.8826 42.336 66.6271 42.336 65.0783C42.336 63.5296 41.0755 62.274 39.5205 62.274C37.9656 62.274 36.7051 63.5296 36.7051 65.0783C36.7051 66.6271 37.9656 67.8826 39.5205 67.8826Z" fill="#1A76BC"/>
<path d="M38.1719 64.5545C38.1395 64.5545 38.1133 64.7638 38.1133 65.0218C38.1133 65.2799 38.1395 65.4893 38.1719 65.4893H40.9404C40.9728 65.4935 40.9995 65.2878 41.0001 65.0297C41.018 64.8691 40.9983 64.7064 40.9423 64.5547H38.1719V64.5545Z" fill="#E6E6E6"/>
<path d="M39.5205 82.8451C41.0755 82.8451 42.336 81.5895 42.336 80.0408C42.336 78.492 41.0755 77.2365 39.5205 77.2365C37.9656 77.2365 36.7051 78.492 36.7051 80.0408C36.7051 81.5895 37.9656 82.8451 39.5205 82.8451Z" fill="#1A76BC"/>
<path d="M38.1719 79.517C38.1395 79.517 38.1133 79.7262 38.1133 79.9843C38.1133 80.2423 38.1395 80.4518 38.1719 80.4518H40.9404C40.9728 80.456 40.9995 80.2502 41.0001 79.9922C41.018 79.8315 40.9983 79.6689 40.9423 79.5171L38.1719 79.517Z" fill="#E6E6E6"/>
<path d="M39.5205 97.8009C41.0755 97.8009 42.336 96.5454 42.336 94.9967C42.336 93.4479 41.0755 92.1924 39.5205 92.1924C37.9656 92.1924 36.7051 93.4479 36.7051 94.9967C36.7051 96.5454 37.9656 97.8009 39.5205 97.8009Z" fill="#1A76BC"/>
<path d="M38.1719 94.4728C38.1395 94.4728 38.1133 94.6821 38.1133 94.9402C38.1133 95.1982 38.1395 95.4077 38.1719 95.4077H40.9404C40.9728 95.4119 40.9995 95.2061 41.0001 94.9481C41.018 94.7874 40.9983 94.6248 40.9423 94.473L38.1719 94.4728Z" fill="#E6E6E6"/>
<path d="M61.7582 45.0248C61.612 45.0253 61.4686 44.9854 61.3438 44.9095C61.2191 44.8337 61.1179 44.7248 61.0515 44.5951C60.4867 43.4953 59.707 42.5189 58.7582 41.7233C57.8094 40.9277 56.7106 40.3289 55.5263 39.962C55.0413 39.8155 54.5464 39.7039 54.0454 39.6281L53.9434 39.6127L59.2128 23.2027L59.3019 23.2058C69.5393 25.9765 75.3966 34.1488 76.9479 36.5874C77.007 36.6806 77.0459 36.7852 77.0619 36.8943C77.078 37.0034 77.0708 37.1146 77.041 37.2208C77.0112 37.327 76.9593 37.4258 76.8888 37.5108C76.8183 37.5958 76.7306 37.6651 76.6315 37.7142L62.1138 44.9411C62.0034 44.9962 61.8817 45.0248 61.7582 45.0248Z" fill="#E6E6E6"/>
<path d="M91.7158 71.5448C91.7744 71.2552 91.8865 70.9842 92.0445 70.7507C92.2024 70.5172 92.4023 70.3271 92.63 70.1936C92.8577 70.06 93.1077 69.9864 93.3624 69.978C93.6171 69.9695 93.8703 70.0263 94.1042 70.1444L98.291 64.8148L99.0734 68.4602L94.9773 72.9622C94.7814 73.408 94.4522 73.7543 94.0522 73.9355C93.6522 74.1167 93.2091 74.1203 92.807 73.9455C92.4049 73.7707 92.0717 73.4298 91.8705 72.9872C91.6694 72.5447 91.6143 72.0314 91.7156 71.5446L91.7158 71.5448Z" fill="#FEB8B8"/>
<path d="M100.925 121.296H98.4163L97.2227 111.111H100.926L100.925 121.296Z" fill="#FEB8B8"/>
<path d="M101.851 121.296H96.1957C95.2399 121.296 94.3233 121.674 93.6475 122.347C92.9716 123.02 92.5919 123.932 92.5918 124.883V125H101.85L101.851 121.296Z" fill="#2F2E41"/>
<path d="M117.593 119.375L115.073 120.37L110.186 110.728L113.904 109.259L117.593 119.375Z" fill="#FEB8B8"/>
<path d="M117.286 118.518L112.354 120.441C111.521 120.766 110.847 121.418 110.481 122.253C110.116 123.089 110.088 124.039 110.404 124.895L110.444 125L118.519 121.852L117.286 118.518Z" fill="#2F2E41"/>
<path d="M108.233 86.1111L110.62 98.4649C110.62 98.4649 117.098 115.847 116.643 116.285C116.189 116.722 109.938 118.253 110.279 117.269C110.62 116.285 102.777 101.526 102.777 101.526L108.233 86.1111Z" fill="#2F2E41"/>
<path d="M98.6383 62.963C98.6383 62.963 93.8778 69.5843 94.5017 69.9459C95.1256 70.3075 97.5421 72.2222 97.5421 72.2222L100.001 65.0427L98.6383 62.963Z" fill="#1A76BC"/>
<path d="M97.4925 69.4978C97.4925 69.4978 96.7193 75.246 97.0507 76.462C97.3821 77.6779 97.1611 112.167 96.9403 112.72C96.7195 113.272 96.0563 115.151 96.3881 116.036C96.72 116.92 101.248 119.131 101.911 118.357C102.574 117.583 107.434 89.3953 107.434 89.3953C107.434 89.3953 114.283 72.3718 112.736 70.714C111.19 69.0561 97.4925 69.4978 97.4925 69.4978Z" fill="#2F2E41"/>
<path d="M106.944 31.4815C109.757 31.4815 112.037 29.2015 112.037 26.3889C112.037 23.5764 109.757 21.2963 106.944 21.2963C104.132 21.2963 101.852 23.5764 101.852 26.3889C101.852 29.2015 104.132 31.4815 106.944 31.4815Z" fill="#FEB8B8"/>
<path d="M101.507 38.7138C101.65 37.8219 102.104 37.0056 102.793 36.4039L103.822 33.3333H109.867L111.551 35.9142C113.373 36.6803 114.723 37.8951 114.774 39.3271C115.052 40.2781 113.852 70.4674 113.507 71.5914C113.406 71.9186 112.029 72.0935 110.092 72.1714C108.317 72.2421 106.073 72.2321 103.919 72.1837C100.352 72.1028 97.0271 71.9161 96.4676 71.8161C95.2022 71.5916 101.382 39.4231 101.507 38.7138Z" fill="#1A76BC"/>
<path d="M106.639 78.3926C106.872 78.2413 107.069 78.0398 107.217 77.8025C107.365 77.5651 107.461 77.2976 107.496 77.0188C107.532 76.74 107.506 76.4566 107.423 76.1887C107.339 75.9208 107.198 75.6749 107.011 75.4682L110.185 69.4445L106.707 69.7675L104.227 75.4379C103.906 75.7811 103.72 76.232 103.704 76.7052C103.689 77.1785 103.844 77.6411 104.142 78.0054C104.439 78.3697 104.858 78.6103 105.318 78.6816C105.778 78.753 106.248 78.65 106.639 78.3924L106.639 78.3926Z" fill="#FEB8B8"/>
<path d="M107.346 35.3211C107.346 35.3211 102.233 37.4484 104.122 42.8234C106.012 48.1984 108.124 54.5802 108.124 54.5802C108.124 54.5802 105.456 69.0242 105.456 69.5848C105.456 70.1454 103.789 73.1678 104.456 73.7277C105.122 74.2877 109.569 75.4072 109.68 74.8474C110.02 73.5576 110.428 72.2868 110.902 71.0404C111.125 70.5926 116.349 56.5964 115.681 55.3648C115.191 54.4585 114.76 46.1536 114.567 41.8317C114.522 40.5984 114.159 39.398 113.514 38.3487C112.869 37.2995 111.964 36.4375 110.888 35.8475C109.853 35.2928 108.646 34.9935 107.346 35.3211Z" fill="#1A76BC"/>
<path d="M109.523 28.4722C109.09 28.2853 108.589 28.2465 108.122 28.1304C106.449 27.7144 105.329 26.1661 105.686 24.765C105.752 24.5869 105.782 24.3988 105.774 24.2104C105.712 23.7954 105.193 23.5276 104.696 23.4325C104.199 23.3374 103.67 23.3514 103.195 23.1983C102.851 23.0841 102.546 22.8851 102.313 22.6224C102.079 22.3596 101.925 22.0427 101.868 21.705C101.794 21.0489 101.973 20.3896 102.371 19.8457L102.551 20.2691C102.817 20.0885 103.021 19.8386 103.138 19.5504C103.333 19.5723 103.519 19.6392 103.68 19.745C103.84 19.8509 103.971 19.9924 104.059 20.1569C104.347 20.2962 104.389 19.7245 104.707 19.6402C104.846 19.6258 104.985 19.6542 105.105 19.7213C105.747 19.9664 106.492 19.7568 107.181 19.6209C108.377 19.3868 109.611 19.3856 110.808 19.6175C111.6 19.7722 112.384 20.0418 112.951 20.5206C113.386 20.9208 113.727 21.4013 113.953 21.9317C114.561 23.1849 114.963 24.541 114.762 25.8794C114.58 27.0025 114.016 28.0405 113.154 28.8393C112.695 29.2726 111.197 30.7837 110.376 30.5263C109.343 30.2019 110.739 28.9987 109.523 28.4722Z" fill="#2F2E41"/>
<path d="M52.9168 48.1461C53.6949 48.1461 54.3257 47.5178 54.3257 46.7427C54.3257 45.9677 53.6949 45.3394 52.9168 45.3394C52.1386 45.3394 51.5078 45.9677 51.5078 46.7427C51.5078 47.5178 52.1386 48.1461 52.9168 48.1461Z" fill="#3F3D56"/>
<path d="M43.4624 45.0046C43.3335 45.0045 43.2065 44.9729 43.0926 44.9126L28.6591 37.3284C28.5633 37.2781 28.4789 37.2088 28.4111 37.1248C28.3433 37.0407 28.2935 36.9437 28.2648 36.8398C28.236 36.7358 28.229 36.6271 28.244 36.5203C28.2591 36.4136 28.296 36.311 28.3524 36.219C30.2804 33.1409 32.7219 30.4134 35.5717 28.154C40.5562 24.2192 46.2259 22.2451 52.4225 22.2782C54.7465 22.2885 57.0593 22.6004 59.3024 23.206L59.3913 23.23L54.1206 39.639L54.0464 39.6278C53.5717 39.5565 53.093 39.5142 52.613 39.5012C47.2501 39.3505 44.926 42.9879 44.1755 44.5585C44.1303 44.6538 44.0661 44.7389 43.9868 44.8086C43.9074 44.8782 43.8146 44.9311 43.7141 44.9638C43.6329 44.9908 43.548 45.0045 43.4624 45.0046Z" fill="#00BA03"/>
<path d="M59.2807 23.2907L55.554 39.8785C55.065 39.7306 54.5659 39.6181 54.0605 39.5417L59.2789 23.2907H59.2807Z" fill="#3F3D56"/>
</g>
<defs>
<clipPath id="clip0_2569_2095">
<rect width="122.222" height="125" fill="white"/>
</clipPath>
</defs>
</svg>
