<svg width="25" height="24" viewBox="0 0 25 24" fill="none" xmlns="http://www.w3.org/2000/svg">
<path fill-rule="evenodd" clip-rule="evenodd" d="M7.89438 5.85196C8.08219 5.39853 8.37637 5.00258 8.74675 4.69427C9.06 6.01638 10.2481 7.00001 11.666 7.00001H13.666C15.0839 7.00001 16.2721 6.01635 16.5853 4.69422C17.1745 5.18499 17.5719 5.89757 17.6516 6.70596C17.7057 7.25558 18.1951 7.65726 18.7448 7.60313C19.2944 7.54899 19.6961 7.05955 19.6419 6.50992C19.4081 4.13604 17.53 2.25789 15.1561 2.02409C14.9107 1.99992 14.6325 1.99995 14.2239 2L12.6305 2.00001C11.7287 2 11.0013 2 10.4093 2.04039C9.80058 2.08192 9.2623 2.16949 8.7526 2.38061C7.52746 2.88808 6.55409 3.86145 6.04662 5.08659C5.83549 5.59629 5.74793 6.13457 5.7064 6.74332C5.666 7.33532 5.66601 8.06273 5.66602 8.96449V15.0355C5.66601 15.9373 5.666 16.6647 5.7064 17.2567C5.74793 17.8654 5.83549 18.4037 6.04662 18.9134C6.55409 20.1386 7.52746 21.1119 8.7526 21.6194C9.2623 21.8305 9.80058 21.9181 10.4093 21.9596C11.0013 22 11.7287 22 12.6305 22L13.3398 22.0001C14.567 22.0005 15.405 22.0008 16.1174 21.7847C17.7154 21.3 18.966 20.0494 19.4507 18.4514C19.6668 17.739 19.6665 16.901 19.6661 15.6737L19.666 15.5C19.666 14.9477 19.2183 14.5 18.666 14.5C18.1137 14.5 17.666 14.9477 17.666 15.5C17.666 16.9683 17.6552 17.4808 17.5368 17.8709C17.246 18.8297 16.4957 19.58 15.5369 19.8708C15.1468 19.9892 14.6343 20 13.166 20H12.666C11.7205 20 11.0614 19.9995 10.5455 19.9643C10.0386 19.9297 9.74335 19.865 9.51797 19.7716C8.78288 19.4672 8.19886 18.8831 7.89438 18.1481C7.80102 17.9227 7.73634 17.6275 7.70176 17.1206C7.66656 16.6047 7.66602 15.9456 7.66602 15V9.00001C7.66602 8.05444 7.66656 7.39535 7.70176 6.87946C7.73634 6.37255 7.80102 6.07734 7.89438 5.85196Z" fill="#F43F5E"/>
<path d="M22.3731 8.70712C22.7636 8.31659 22.7636 7.68343 22.3731 7.2929C21.9826 6.90238 21.3494 6.90238 20.9589 7.2929L15.9589 12.2929C15.0839 13.1679 14.8111 13.422 14.554 13.5494C13.9945 13.8267 13.3375 13.8267 12.778 13.5494C12.521 13.422 12.2481 13.1679 11.3731 12.2929C10.9826 11.9024 10.3494 11.9024 9.95891 12.2929C9.56838 12.6834 9.56838 13.3166 9.95891 13.7071L10.0798 13.8281C10.7785 14.5278 11.2983 15.0483 11.89 15.3414C13.0091 15.896 14.323 15.896 15.4421 15.3414C16.0337 15.0483 16.5535 14.5278 17.2523 13.8281L22.3731 8.70712Z" fill="#F43F5E"/>
</svg>
