<svg width="39" height="39" viewBox="0 0 39 39" fill="none" xmlns="http://www.w3.org/2000/svg">
<path d="M24.7635 11.0746C24.9777 10.8604 25.098 10.5699 25.098 10.2669C25.098 9.96401 24.9777 9.67349 24.7635 9.45929C24.5493 9.24509 24.2587 9.12476 23.9558 9.12476C23.6529 9.12476 23.3624 9.24509 23.1482 9.45929L12.5484 20.0613L8.79309 16.3037C8.68703 16.1977 8.56111 16.1135 8.42254 16.0561C8.28396 15.9987 8.13544 15.9692 7.98544 15.9692C7.83545 15.9692 7.68692 15.9987 7.54835 16.0561C7.40977 16.1135 7.28386 16.1977 7.1778 16.3037C7.07174 16.4098 6.98761 16.5357 6.93021 16.6743C6.87281 16.8129 6.84326 16.9614 6.84326 17.1114C6.84326 17.2614 6.87281 17.4099 6.93021 17.5485C6.98761 17.687 7.07174 17.813 7.1778 17.919L11.7408 22.482C11.8467 22.5882 11.9726 22.6725 12.1112 22.73C12.2498 22.7875 12.3984 22.8171 12.5484 22.8171C12.6985 22.8171 12.847 22.7875 12.9856 22.73C13.1242 22.6725 13.2501 22.5882 13.356 22.482L24.7635 11.0746Z" fill="#EAF9D6"/>
<path d="M6.11893 0C5.31538 0 4.5197 0.158271 3.77732 0.465776C3.03493 0.773281 2.36039 1.224 1.79219 1.79219C0.644671 2.93972 0 4.49609 0 6.11893V25.8218C0 29.2029 2.73778 31.9407 6.11893 31.9407H20.6474C20.8185 31.0966 21.1744 30.3209 21.6741 29.6592H6.11893C5.10118 29.6592 4.1251 29.2549 3.40544 28.5353C2.68578 27.8156 2.28148 26.8395 2.28148 25.8218V6.11893C2.28148 3.99944 3.99944 2.28148 6.11893 2.28148H25.8218C27.9413 2.28148 29.6592 3.99944 29.6592 6.11893V16.0662C30.4145 15.9394 31.1855 15.9394 31.9407 16.0662V6.11893C31.9407 2.73778 29.2029 0 25.8218 0H6.11893Z" fill="#EAF9D6"/>
<path d="M35.3631 22.8149C35.3631 24.0251 34.8823 25.1857 34.0266 26.0414C33.1709 26.8971 32.0103 27.3779 30.8001 27.3779C29.59 27.3779 28.4293 26.8971 27.5736 26.0414C26.7179 25.1857 26.2372 24.0251 26.2372 22.8149C26.2372 21.6047 26.7179 20.4441 27.5736 19.5884C28.4293 18.7327 29.59 18.252 30.8001 18.252C32.0103 18.252 33.1709 18.7327 34.0266 19.5884C34.8823 20.4441 35.3631 21.6047 35.3631 22.8149ZM38.7853 33.0816C38.7853 35.922 36.5038 38.7853 30.8001 38.7853C25.0964 38.7853 22.8149 35.9334 22.8149 33.0816C22.8149 32.1739 23.1755 31.3035 23.8173 30.6617C24.4591 30.0199 25.3295 29.6594 26.2372 29.6594H35.3631C36.2707 29.6594 37.1412 30.0199 37.783 30.6617C38.4247 31.3035 38.7853 32.1739 38.7853 33.0816Z" fill="#EAF9D6"/>
</svg>
