<svg width="75" height="20" viewBox="0 0 75 20" fill="none" xmlns="http://www.w3.org/2000/svg">
    <rect width="75" height="20" rx="10" fill="#EAF9D6" />
    <path
        d="M22.0117 6.23901L19.6813 13H18.2723L21.2081 5.19968H22.1082L22.0117 6.23901ZM23.9618 13L21.626 6.23901L21.5242 5.19968H22.4296L25.3762 13H23.9618ZM23.8493 10.107V11.1731H19.6063V10.107H23.8493ZM27.7388 11.9767L29.1585 7.20333H30.4978L28.4834 13H27.6477L27.7388 11.9767ZM26.6512 7.20333L28.0977 11.9982L28.1673 13H27.3316L25.3065 7.20333H26.6512ZM34.4783 11.8375V9.07305C34.4783 8.8659 34.4408 8.68732 34.3658 8.53732C34.2908 8.38731 34.1765 8.27123 34.0229 8.18909C33.8729 8.10694 33.6836 8.06587 33.4551 8.06587C33.2443 8.06587 33.0622 8.10158 32.9086 8.17302C32.755 8.24445 32.6354 8.34088 32.5497 8.46231C32.464 8.58375 32.4211 8.72125 32.4211 8.87483H31.1353C31.1353 8.64625 31.1907 8.42481 31.3014 8.21052C31.4121 7.99622 31.5728 7.80514 31.7836 7.63728C31.9943 7.46941 32.2461 7.33727 32.539 7.24083C32.8318 7.1444 33.1604 7.09619 33.5247 7.09619C33.9604 7.09619 34.3462 7.1694 34.6819 7.31584C35.0212 7.46227 35.2873 7.68371 35.4802 7.98015C35.6766 8.27302 35.7748 8.64089 35.7748 9.08377V11.6607C35.7748 11.925 35.7927 12.1625 35.8284 12.3732C35.8677 12.5803 35.923 12.7607 35.9945 12.9143V13H34.6712C34.6105 12.8607 34.5623 12.6839 34.5265 12.4696C34.4944 12.2518 34.4783 12.041 34.4783 11.8375ZM34.6658 9.47485L34.6765 10.2731H33.7497C33.5104 10.2731 33.2997 10.2963 33.1176 10.3427C32.9354 10.3856 32.7836 10.4499 32.6622 10.5356C32.5407 10.6213 32.4497 10.7249 32.389 10.8463C32.3282 10.9678 32.2979 11.1053 32.2979 11.2589C32.2979 11.4124 32.3336 11.5535 32.405 11.6821C32.4765 11.8071 32.58 11.9053 32.7158 11.9767C32.855 12.0482 33.0229 12.0839 33.2193 12.0839C33.4836 12.0839 33.714 12.0303 33.9104 11.9232C34.1105 11.8125 34.2676 11.6785 34.3819 11.5214C34.4962 11.3606 34.5569 11.2089 34.564 11.066L34.9819 11.6392C34.9391 11.7857 34.8658 11.9428 34.7623 12.1107C34.6587 12.2785 34.523 12.4393 34.3551 12.5928C34.1908 12.7428 33.9926 12.8661 33.7604 12.9625C33.5319 13.0589 33.2676 13.1071 32.9675 13.1071C32.589 13.1071 32.2514 13.0321 31.955 12.8821C31.6586 12.7286 31.4264 12.5232 31.2585 12.266C31.0907 12.0053 31.0068 11.7107 31.0068 11.3821C31.0068 11.0749 31.0639 10.8035 31.1782 10.5678C31.296 10.3285 31.4675 10.1285 31.6925 9.96773C31.9211 9.80701 32.1997 9.68558 32.5282 9.60343C32.8568 9.51771 33.2318 9.47485 33.6533 9.47485H34.6658ZM38.5071 7.20333V13H37.2106V7.20333H38.5071ZM37.1249 5.68184C37.1249 5.4854 37.1891 5.3229 37.3177 5.19432C37.4499 5.06217 37.632 4.9961 37.8642 4.9961C38.0928 4.9961 38.2731 5.06217 38.4053 5.19432C38.5374 5.3229 38.6035 5.4854 38.6035 5.68184C38.6035 5.87471 38.5374 6.03543 38.4053 6.164C38.2731 6.29258 38.0928 6.35687 37.8642 6.35687C37.632 6.35687 37.4499 6.29258 37.3177 6.164C37.1891 6.03543 37.1249 5.87471 37.1249 5.68184ZM41.3036 4.77109V13H40.0071V4.77109H41.3036ZM45.9859 11.8375V9.07305C45.9859 8.8659 45.9484 8.68732 45.8734 8.53732C45.7984 8.38731 45.6841 8.27123 45.5306 8.18909C45.3806 8.10694 45.1913 8.06587 44.9627 8.06587C44.752 8.06587 44.5698 8.10158 44.4162 8.17302C44.2627 8.24445 44.143 8.34088 44.0573 8.46231C43.9716 8.58375 43.9287 8.72125 43.9287 8.87483H42.6429C42.6429 8.64625 42.6983 8.42481 42.809 8.21052C42.9197 7.99622 43.0805 7.80514 43.2912 7.63728C43.5019 7.46941 43.7537 7.33727 44.0466 7.24083C44.3394 7.1444 44.668 7.09619 45.0323 7.09619C45.4681 7.09619 45.8538 7.1694 46.1895 7.31584C46.5288 7.46227 46.7949 7.68371 46.9878 7.98015C47.1842 8.27302 47.2824 8.64089 47.2824 9.08377V11.6607C47.2824 11.925 47.3003 12.1625 47.336 12.3732C47.3753 12.5803 47.4306 12.7607 47.5021 12.9143V13H46.1788C46.1181 12.8607 46.0699 12.6839 46.0342 12.4696C46.002 12.2518 45.9859 12.041 45.9859 11.8375ZM46.1734 9.47485L46.1842 10.2731H45.2573C45.018 10.2731 44.8073 10.2963 44.6252 10.3427C44.443 10.3856 44.2912 10.4499 44.1698 10.5356C44.0484 10.6213 43.9573 10.7249 43.8966 10.8463C43.8359 10.9678 43.8055 11.1053 43.8055 11.2589C43.8055 11.4124 43.8412 11.5535 43.9126 11.6821C43.9841 11.8071 44.0876 11.9053 44.2234 11.9767C44.3627 12.0482 44.5305 12.0839 44.727 12.0839C44.9913 12.0839 45.2216 12.0303 45.4181 11.9232C45.6181 11.8125 45.7752 11.6785 45.8895 11.5214C46.0038 11.3606 46.0645 11.2089 46.0717 11.066L46.4895 11.6392C46.4467 11.7857 46.3735 11.9428 46.2699 12.1107C46.1663 12.2785 46.0306 12.4393 45.8627 12.5928C45.6984 12.7428 45.5002 12.8661 45.2681 12.9625C45.0395 13.0589 44.7752 13.1071 44.4752 13.1071C44.0966 13.1071 43.7591 13.0321 43.4626 12.8821C43.1662 12.7286 42.934 12.5232 42.7662 12.266C42.5983 12.0053 42.5144 11.7107 42.5144 11.3821C42.5144 11.0749 42.5715 10.8035 42.6858 10.5678C42.8037 10.3285 42.9751 10.1285 43.2001 9.96773C43.4287 9.80701 43.7073 9.68558 44.0359 9.60343C44.3644 9.51771 44.7395 9.47485 45.1609 9.47485H46.1734ZM48.6378 4.77109H49.929V11.7624L49.8057 13H48.6378V4.77109ZM53.7113 10.0481V10.1606C53.7113 10.5892 53.663 10.9838 53.5666 11.3446C53.4737 11.7017 53.3309 12.0125 53.138 12.2768C52.9487 12.5411 52.713 12.7464 52.4308 12.8929C52.1523 13.0357 51.829 13.1071 51.4612 13.1071C51.1004 13.1071 50.7861 13.0393 50.5183 12.9036C50.2504 12.7678 50.0254 12.575 49.8432 12.325C49.6647 12.075 49.52 11.7767 49.4093 11.4303C49.2986 11.0838 49.22 10.7017 49.1736 10.2838V9.92487C49.22 9.50343 49.2986 9.12127 49.4093 8.7784C49.52 8.43195 49.6647 8.13373 49.8432 7.88372C50.0254 7.63014 50.2486 7.43548 50.5129 7.29976C50.7808 7.16405 51.0933 7.09619 51.4505 7.09619C51.8219 7.09619 52.1487 7.16762 52.4308 7.31048C52.7166 7.45334 52.9541 7.65692 53.1434 7.92122C53.3327 8.18194 53.4737 8.49267 53.5666 8.8534C53.663 9.21413 53.7113 9.61236 53.7113 10.0481ZM52.4201 10.1606V10.0481C52.4201 9.78737 52.3987 9.54271 52.3558 9.31413C52.313 9.08198 52.2416 8.8784 52.1416 8.70339C52.0451 8.52839 51.913 8.39088 51.7451 8.29088C51.5808 8.1873 51.3754 8.13551 51.129 8.13551C50.9004 8.13551 50.704 8.1748 50.5397 8.25338C50.3754 8.33195 50.2379 8.4391 50.1272 8.57482C50.0165 8.71054 49.929 8.86769 49.8647 9.04627C49.804 9.22484 49.7629 9.41771 49.7415 9.62486V10.5945C49.7736 10.8624 49.8415 11.1089 49.945 11.3339C50.0522 11.5553 50.2022 11.7339 50.3951 11.8696C50.5879 12.0017 50.8361 12.0678 51.1397 12.0678C51.379 12.0678 51.5808 12.0196 51.7451 11.9232C51.9094 11.8267 52.0398 11.6928 52.1362 11.5214C52.2362 11.3464 52.3076 11.1428 52.3505 10.9106C52.3969 10.6785 52.4201 10.4285 52.4201 10.1606ZM56.1864 4.77109V13H54.8899V4.77109H56.1864ZM60.1562 13.1071C59.7276 13.1071 59.3401 13.0375 58.9936 12.8982C58.6508 12.7553 58.3579 12.5571 58.115 12.3035C57.8757 12.05 57.6918 11.7517 57.5632 11.4089C57.4346 11.066 57.3703 10.6963 57.3703 10.2999V10.0856C57.3703 9.632 57.4364 9.22127 57.5686 8.8534C57.7007 8.48553 57.8846 8.17123 58.1204 7.9105C58.3561 7.64621 58.6347 7.44441 58.9561 7.30512C59.2776 7.16583 59.6258 7.09619 60.0008 7.09619C60.4151 7.09619 60.7776 7.16583 61.0884 7.30512C61.3991 7.44441 61.6562 7.64085 61.8598 7.89443C62.067 8.14444 62.2205 8.44267 62.3205 8.78911C62.4241 9.13555 62.4759 9.51771 62.4759 9.93559V10.4874H57.9972V9.56057H61.2009V9.45878C61.1937 9.22663 61.1473 9.00876 61.0616 8.80518C60.9794 8.6016 60.8526 8.43731 60.6812 8.31231C60.5098 8.1873 60.2812 8.1248 59.9954 8.1248C59.7812 8.1248 59.5901 8.17123 59.4222 8.26409C59.2579 8.35338 59.1204 8.48374 59.0097 8.65518C58.899 8.82661 58.8133 9.03377 58.7525 9.27663C58.6954 9.51593 58.6668 9.78558 58.6668 10.0856V10.2999C58.6668 10.5535 58.7008 10.7892 58.7686 11.0071C58.84 11.2214 58.9436 11.4089 59.0793 11.5696C59.2151 11.7303 59.3794 11.8571 59.5722 11.95C59.7651 12.0392 59.9847 12.0839 60.2312 12.0839C60.5419 12.0839 60.8187 12.0214 61.0616 11.8964C61.3044 11.7714 61.5152 11.5946 61.6937 11.366L62.3741 12.025C62.2491 12.2071 62.0866 12.3821 61.8866 12.55C61.6866 12.7143 61.4419 12.8482 61.1526 12.9518C60.8669 13.0554 60.5348 13.1071 60.1562 13.1071Z"
        fill="#404040" />
    <circle cx="9.98881" cy="9.90873" r="3.90873" fill="#299205" />
</svg>