<svg width="35" height="35" viewBox="0 0 35 35" fill="none" xmlns="http://www.w3.org/2000/svg">
    <path
        d="M16.4639 22.9104C16.6026 23.0432 16.7662 23.1472 16.9452 23.2166C17.3002 23.3625 17.6985 23.3625 18.0535 23.2166C18.2325 23.1472 18.3961 23.0432 18.5348 22.9104L22.9098 18.5354C23.1844 18.2608 23.3386 17.8883 23.3386 17.5C23.3386 17.1116 23.1844 16.7392 22.9098 16.4646C22.6352 16.1899 22.2627 16.0357 21.8743 16.0357C21.486 16.0357 21.1135 16.1899 20.8389 16.4646L18.9577 18.3604V13.125C18.9577 12.7382 18.804 12.3673 18.5305 12.0938C18.2571 11.8203 17.8861 11.6666 17.4993 11.6666C17.1126 11.6666 16.7416 11.8203 16.4682 12.0938C16.1947 12.3673 16.041 12.7382 16.041 13.125V18.3604L14.1598 16.4646C14.0242 16.3279 13.8629 16.2194 13.6852 16.1453C13.5075 16.0713 13.3169 16.0332 13.1243 16.0332C12.9318 16.0332 12.7412 16.0713 12.5635 16.1453C12.3858 16.2194 12.2245 16.3279 12.0889 16.4646C11.9522 16.6001 11.8438 16.7614 11.7697 16.9391C11.6957 17.1168 11.6576 17.3074 11.6576 17.5C11.6576 17.6925 11.6957 17.8831 11.7697 18.0608C11.8438 18.2385 11.9522 18.3998 12.0889 18.5354L16.4639 22.9104ZM17.4993 32.0833C20.3837 32.0833 23.2032 31.228 25.6014 29.6256C27.9996 28.0231 29.8688 25.7455 30.9726 23.0808C32.0764 20.416 32.3652 17.4838 31.8025 14.6549C31.2398 11.826 29.8508 9.22751 27.8113 7.18799C25.7718 5.14848 23.1733 3.75955 20.3444 3.19685C17.5155 2.63415 14.5833 2.92294 11.9185 4.02672C9.25379 5.1305 6.97619 6.99968 5.37375 9.3979C3.77131 11.7961 2.91602 14.6157 2.91602 17.5C2.91602 21.3677 4.45247 25.077 7.18738 27.8119C8.54156 29.1661 10.1492 30.2403 11.9185 30.9732C13.6879 31.7061 15.5842 32.0833 17.4993 32.0833ZM17.4993 5.8333C19.8068 5.8333 22.0624 6.51754 23.981 7.79949C25.8996 9.08144 27.3949 10.9035 28.2779 13.0353C29.161 15.1671 29.392 17.5129 28.9418 19.776C28.4917 22.0391 27.3805 24.1179 25.7489 25.7495C24.1173 27.3812 22.0385 28.4923 19.7754 28.9425C17.5123 29.3926 15.1665 29.1616 13.0347 28.2786C10.9029 27.3955 9.08082 25.9002 7.79887 23.9816C6.51692 22.063 5.83268 19.8074 5.83268 17.5C5.83268 14.4058 7.06185 11.4383 9.24977 9.25039C11.4377 7.06246 14.4052 5.8333 17.4993 5.8333Z"
        fill="#58FD0B" fill-opacity="0.5" />
</svg>