<svg width="36" height="32" viewBox="0 0 36 32" fill="none" xmlns="http://www.w3.org/2000/svg">
    <rect x="4.4375" y="3.96802" width="2.69231" height="1.32267" fill="#1A4402" fill-opacity="0.5" />
    <rect x="0.398438" y="11.9041" width="35" height="19.8401" fill="#1A4402" fill-opacity="0.5" />
    <rect x="28.668" y="3.96803" width="2.69231" height="1.32267" fill="#1A4402" fill-opacity="0.5" />
    <path fill-rule="evenodd" clip-rule="evenodd"
        d="M31.36 5.2907V7.93605H28.6677V5.2907H24.6292V2.81895V2.64535C24.5871 1.14081 23.485 0 21.9201 0H13.5823C12.0174 0 11.1677 1.13254 11.1677 2.64535V2.81895V5.2907H7.12921V7.93605H4.4369V5.2907H0.398438V10.5814H35.3984V5.2907H31.36ZM23.2849 5.24937V5.2907H12.5156V5.24937V2.81895C12.5156 1.97575 12.7596 1.32268 13.6683 1.32268H21.8377C22.7127 1.32268 23.2849 1.95921 23.2849 2.81895V5.24937Z"
        fill="#1A4402" fill-opacity="0.5" />
</svg>