<svg width="30" height="30" viewBox="0 0 30 30" fill="none" xmlns="http://www.w3.org/2000/svg">
    <path fill-rule="evenodd" clip-rule="evenodd"
        d="M28.1406 15.2561C29.2188 14.9045 30 13.8887 30 12.6933C30 11.2087 28.7969 9.99767 27.3047 9.99767H19.2891C19.4453 8.04431 20.0703 5.80968 19.375 3.17656C18.7891 0.95755 16.2969 -0.706706 15.2812 0.301224C14.8906 0.684081 15.0078 1.48886 15.0078 2.94216C15.0078 6.2863 13.6172 9.6695 11.8984 11.4353C11.1641 12.1932 9.92969 12.4511 8.75781 12.498V11.2478H0V30H8.75V27.4997C10.3594 27.4606 12.8594 27.906 14.6719 28.0154C18.7344 28.2576 22.6406 27.8279 24.5391 27.3825C26.4375 26.9371 27.2734 26.3668 27.2734 24.9916C27.2734 24.4915 27.125 24.0306 26.875 23.6399C27.7969 23.2727 28.4453 22.3741 28.4453 21.3193C28.4453 20.7567 28.2578 20.241 27.9453 19.8191C28.875 19.4597 29.5391 18.5534 29.5391 17.4907C29.5312 16.5141 28.9609 15.6624 28.1406 15.2561ZM3.75 27.4763C3.0625 27.4763 2.5 26.9215 2.5 26.2261C2.5 25.5385 3.0625 24.976 3.75 24.976C4.4375 24.976 5 25.5307 5 26.2261C5 26.9137 4.4375 27.4763 3.75 27.4763Z"
        fill="#1A4402" fill-opacity="0.5" />
</svg>