<svg width="35" height="35" viewBox="0 0 35 35" fill="none" xmlns="http://www.w3.org/2000/svg">
    <path d="M0 0H17.5C27.165 0 35 7.83502 35 17.5C35 27.165 27.165 35 17.5 35C7.83502 35 0 27.165 0 17.5V0Z"
        fill="#FEFEFE" />
    <path
        d="M0.5 0.5H17.5C26.8888 0.5 34.5 8.11116 34.5 17.5C34.5 26.8888 26.8888 34.5 17.5 34.5C8.11116 34.5 0.5 26.8888 0.5 17.5V0.5Z"
        stroke="#1A4402" stroke-opacity="0.5" />
    <mask id="mask0_2152_3326" style="mask-type:luminance" maskUnits="userSpaceOnUse" x="0" y="0" width="35"
        height="35">
        <path d="M0 0H17.5C27.165 0 35 7.83502 35 17.5C35 27.165 27.165 35 17.5 35C7.83502 35 0 27.165 0 17.5V0Z"
            fill="white" />
        <path
            d="M0.5 0.5H17.5C26.8888 0.5 34.5 8.11116 34.5 17.5C34.5 26.8888 26.8888 34.5 17.5 34.5C8.11116 34.5 0.5 26.8888 0.5 17.5V0.5Z"
            stroke="white" />
    </mask>
    <g mask="url(#mask0_2152_3326)">
    </g>
    <path
        d="M16.0526 12.8154L16.8042 9.27941C17.0339 8.19898 18.0959 7.50929 19.1764 7.73894L22.3725 8.4183C22.8351 7.90546 23.5509 7.64644 24.275 7.80035C25.3554 8.03 26.0451 9.09204 25.8155 10.1725C25.5858 11.2529 24.5238 11.9426 23.4434 11.7129C22.7193 11.559 22.1707 11.0312 21.9567 10.3746L18.7605 9.69523L18.0943 12.8298C19.8789 12.9668 21.6522 13.5608 23.2581 14.5296C24.0892 14.0676 25.0992 13.9934 26.007 14.3609C27.1731 14.833 27.9531 15.9459 27.9991 17.2031L27.9996 17.2241C28.0151 18.2277 27.559 19.1657 26.792 19.7742C26.7899 19.8178 26.7871 19.859 26.7836 19.8971C26.7836 23.8949 22.3341 26.9267 16.9852 26.9267C11.6523 26.9267 7.27693 23.9027 7.27987 19.9738C7.27523 19.9134 7.27162 19.853 7.26905 19.7926C6.46701 19.1873 5.98472 18.2277 6.00037 17.1962C6.01955 15.9317 6.78341 14.7978 7.94804 14.3049C8.85909 13.9194 9.881 13.983 10.7237 14.4438C12.3578 13.4665 14.1578 12.9124 16.0526 12.8154ZM25.3385 18.341C25.7466 18.1382 26.003 17.7207 26.0001 17.2656C25.9789 16.8005 25.6887 16.3897 25.2565 16.2147C24.821 16.0384 24.3226 16.1343 23.9837 16.4597L23.3991 17.0207L22.729 16.5652C21.1137 15.4672 19.2771 14.8397 17.4995 14.8013L16.493 14.8012C14.6179 14.8295 12.8414 15.4002 11.2555 16.4757L10.5925 16.9254L10.009 16.3764C9.66501 16.0528 9.16243 15.9627 8.7275 16.1468C8.29257 16.3308 8.0073 16.7543 8 17.2265C7.99298 17.6987 8.26526 18.1307 8.69441 18.3278L9.32738 18.6186L9.27399 19.3132C9.261 19.482 9.261 19.6516 9.27693 19.8971C9.27693 22.6071 12.6331 24.9267 16.9852 24.9267C21.3561 24.9267 24.7836 22.5913 24.7865 19.8205C24.7995 19.6516 24.7995 19.482 24.7865 19.3132L24.7348 18.6411L25.3385 18.341ZM11.9507 18.4999C11.9507 17.6715 12.6223 16.9999 13.4507 16.9999C14.2792 16.9999 14.9507 17.6715 14.9507 18.4999C14.9507 19.3283 14.2792 19.9999 13.4507 19.9999C13.0529 19.9999 12.6714 19.8419 12.3901 19.5606C12.1088 19.2793 11.9507 18.8977 11.9507 18.4999ZM18.9507 18.4999C18.9507 17.6715 19.6223 16.9999 20.4507 16.9999C21.2792 16.9999 21.9507 17.6715 21.9507 18.4999C21.9507 19.3283 21.2792 19.9999 20.4507 19.9999C20.0529 19.9999 19.6714 19.8419 19.3901 19.5606C19.1088 19.2793 18.9507 18.8977 18.9507 18.4999ZM16.9665 23.6028C15.5693 23.6028 14.1999 23.2329 13.085 22.3928C12.9466 22.2241 12.9587 21.9779 13.113 21.8236C13.2673 21.6693 13.5135 21.6572 13.6822 21.7956C14.627 22.4886 15.805 22.7856 16.9507 22.7856C18.0965 22.7856 19.2813 22.5112 20.235 21.8271C20.3473 21.7176 20.5095 21.6763 20.6604 21.7188C20.8114 21.7613 20.9282 21.8811 20.9669 22.0331C21.0055 22.1851 20.9517 22.3346 20.8479 22.4556C20.1638 23.2531 18.3636 23.6028 16.9665 23.6028Z"
        fill="#1A4402" />
</svg>