<svg width="24" height="24" viewBox="0 0 24 24" fill="none" xmlns="http://www.w3.org/2000/svg">
    <path
        d="M12.0005 2C10.061 2.00369 8.16442 2.57131 6.54177 3.63374C4.91911 4.69617 3.64043 6.20754 2.86148 7.98377C2.08252 9.76 1.83691 11.7244 2.15456 13.6378C2.47221 15.5511 3.33941 17.3308 4.65054 18.76C5.58696 19.775 6.72348 20.5851 7.98847 21.1392C9.25347 21.6933 10.6195 21.9793 12.0005 21.9793C13.3816 21.9793 14.7476 21.6933 16.0126 21.1392C17.2776 20.5851 18.4141 19.775 19.3505 18.76C20.6617 17.3308 21.5289 15.5511 21.8465 13.6378C22.1642 11.7244 21.9186 9.76 21.1396 7.98377C20.3606 6.20754 19.082 4.69617 17.4593 3.63374C15.8367 2.57131 13.9401 2.00369 12.0005 2ZM12.0005 20C9.929 19.9969 7.93945 19.1903 6.45054 17.75C6.90258 16.6495 7.67157 15.7083 8.65979 15.0459C9.64801 14.3835 10.8108 14.0298 12.0005 14.0298C13.1902 14.0298 14.3531 14.3835 15.3413 15.0459C16.3295 15.7083 17.0985 16.6495 17.5505 17.75C16.0616 19.1903 14.0721 19.9969 12.0005 20ZM10.0005 10C10.0005 9.60444 10.1178 9.21776 10.3376 8.88886C10.5574 8.55996 10.8697 8.30362 11.2352 8.15224C11.6006 8.00087 12.0028 7.96126 12.3907 8.03843C12.7787 8.1156 13.135 8.30608 13.4148 8.58579C13.6945 8.86549 13.8849 9.22186 13.9621 9.60982C14.0393 9.99778 13.9997 10.3999 13.8483 10.7654C13.6969 11.1308 13.4406 11.4432 13.1117 11.6629C12.7828 11.8827 12.3961 12 12.0005 12C11.4701 12 10.9614 11.7893 10.5863 11.4142C10.2113 11.0391 10.0005 10.5304 10.0005 10ZM18.9105 16C18.0171 14.4718 16.6419 13.283 15.0005 12.62C15.5097 12.0427 15.8415 11.3307 15.956 10.5694C16.0705 9.80822 15.963 9.03011 15.6463 8.3285C15.3296 7.62688 14.8171 7.03156 14.1704 6.61397C13.5238 6.19637 12.7703 5.97425 12.0005 5.97425C11.2307 5.97425 10.4773 6.19637 9.83063 6.61397C9.18395 7.03156 8.67151 7.62688 8.35479 8.3285C8.03807 9.03011 7.93052 9.80822 8.04507 10.5694C8.15961 11.3307 8.49137 12.0427 9.00054 12.62C7.35914 13.283 5.98401 14.4718 5.09054 16C4.37848 14.7871 4.00226 13.4065 4.00054 12C4.00054 9.87827 4.84339 7.84344 6.34368 6.34315C7.84397 4.84285 9.87881 4 12.0005 4C14.1223 4 16.1571 4.84285 17.6574 6.34315C19.1577 7.84344 20.0005 9.87827 20.0005 12C19.9988 13.4065 19.6226 14.7871 18.9105 16Z"
        fill="#749D1C" />
</svg>