<svg width="218" height="81" viewBox="0 0 218 81" fill="none" xmlns="http://www.w3.org/2000/svg">
<path d="M108.487 37.0874L104.682 49.9268H102.298L99.6013 40.2095L96.7378 49.9268L94.3732 49.9452L90.7338 37.0874H92.9692L95.6294 47.5436L98.5113 37.0874H100.876L103.555 47.4882L106.233 37.0874H108.487ZM109.522 44.791C109.522 43.7688 109.732 42.8636 110.15 42.0753C110.581 41.2871 111.16 40.6775 111.887 40.2464C112.626 39.8031 113.439 39.5814 114.325 39.5814C115.126 39.5814 115.822 39.7415 116.413 40.0617C117.016 40.3696 117.497 40.7575 117.854 41.2255V39.7476H119.978V49.9268H117.854V48.4119C117.497 48.8922 117.01 49.2925 116.395 49.6127C115.779 49.9329 115.077 50.093 114.288 50.093C113.414 50.093 112.614 49.8713 111.887 49.428C111.16 48.9723 110.581 48.3442 110.15 47.5436C109.732 46.7308 109.522 45.8132 109.522 44.791ZM117.854 44.828C117.854 44.126 117.706 43.5163 117.411 42.999C117.127 42.4818 116.752 42.0877 116.284 41.8167C115.816 41.5458 115.311 41.4103 114.769 41.4103C114.227 41.4103 113.722 41.5458 113.254 41.8167C112.786 42.0753 112.404 42.4633 112.109 42.9806C111.825 43.4855 111.684 44.089 111.684 44.791C111.684 45.493 111.825 46.1088 112.109 46.6384C112.404 47.168 112.786 47.5744 113.254 47.8577C113.734 48.1286 114.239 48.2641 114.769 48.2641C115.311 48.2641 115.816 48.1286 116.284 47.8577C116.752 47.5867 117.127 47.1926 117.411 46.6754C117.706 46.1458 117.854 45.53 117.854 44.828ZM125.202 41.4657V47.1003C125.202 47.482 125.288 47.7592 125.46 47.9316C125.645 48.0917 125.953 48.1717 126.384 48.1717H127.677V49.9268H126.015C125.066 49.9268 124.34 49.7051 123.835 49.2617C123.33 48.8183 123.077 48.0978 123.077 47.1003V41.4657H121.876V39.7476H123.077V37.2167H125.202V39.7476H127.677V41.4657H125.202ZM128.916 44.828C128.916 43.7811 129.126 42.8636 129.544 42.0753C129.975 41.2748 130.567 40.659 131.318 40.228C132.069 39.7969 132.931 39.5814 133.904 39.5814C135.136 39.5814 136.152 39.877 136.952 40.4681C137.765 41.047 138.313 41.8783 138.597 42.9621H136.324C136.14 42.4571 135.844 42.063 135.437 41.7798C135.031 41.4965 134.52 41.3549 133.904 41.3549C133.042 41.3549 132.352 41.6628 131.835 42.2786C131.33 42.882 131.078 43.7318 131.078 44.828C131.078 45.9241 131.33 46.78 131.835 47.3958C132.352 48.0116 133.042 48.3195 133.904 48.3195C135.123 48.3195 135.93 47.7838 136.324 46.7123H138.597C138.301 47.7468 137.747 48.572 136.934 49.1878C136.121 49.7913 135.111 50.093 133.904 50.093C132.931 50.093 132.069 49.8775 131.318 49.4464C130.567 49.0031 129.975 48.3873 129.544 47.599C129.126 46.7985 128.916 45.8748 128.916 44.828ZM145.96 39.5814C146.736 39.5814 147.426 39.7476 148.029 40.0802C148.645 40.4127 149.126 40.9053 149.47 41.5581C149.828 42.2108 150.006 42.999 150.006 43.9227V49.9268H147.919V44.2368C147.919 43.3254 147.691 42.6296 147.235 42.1492C146.779 41.6566 146.157 41.4103 145.369 41.4103C144.581 41.4103 143.953 41.6566 143.485 42.1492C143.029 42.6296 142.801 43.3254 142.801 44.2368V49.9268H140.695V36.2561H142.801V40.93C143.159 40.4989 143.608 40.1664 144.15 39.9324C144.704 39.6984 145.308 39.5814 145.96 39.5814ZM161.426 48.0424L164.308 39.7476H166.544L162.664 49.9268H160.152L156.291 39.7476H158.544L161.426 48.0424ZM169.207 38.399C168.825 38.399 168.505 38.2697 168.246 38.0111C167.988 37.7525 167.858 37.4322 167.858 37.0504C167.858 36.6687 167.988 36.3484 168.246 36.0898C168.505 35.8312 168.825 35.7018 169.207 35.7018C169.577 35.7018 169.891 35.8312 170.149 36.0898C170.408 36.3484 170.537 36.6687 170.537 37.0504C170.537 37.4322 170.408 37.7525 170.149 38.0111C169.891 38.2697 169.577 38.399 169.207 38.399ZM170.242 39.7476V49.9268H168.136V39.7476H170.242ZM172.305 44.791C172.305 43.7688 172.514 42.8636 172.933 42.0753C173.364 41.2871 173.943 40.6775 174.669 40.2464C175.408 39.8031 176.227 39.5814 177.126 39.5814C177.791 39.5814 178.444 39.7292 179.085 40.0247C179.737 40.308 180.255 40.6898 180.636 41.1701V36.2561H182.761V49.9268H180.636V48.3934C180.292 48.8861 179.811 49.2925 179.195 49.6127C178.592 49.9329 177.896 50.093 177.108 50.093C176.221 50.093 175.408 49.8713 174.669 49.428C173.943 48.9723 173.364 48.3442 172.933 47.5436C172.514 46.7308 172.305 45.8132 172.305 44.791ZM180.636 44.828C180.636 44.126 180.489 43.5163 180.193 42.999C179.91 42.4818 179.534 42.0877 179.066 41.8167C178.598 41.5458 178.093 41.4103 177.551 41.4103C177.009 41.4103 176.504 41.5458 176.036 41.8167C175.568 42.0753 175.187 42.4633 174.891 42.9806C174.608 43.4855 174.466 44.089 174.466 44.791C174.466 45.493 174.608 46.1088 174.891 46.6384C175.187 47.168 175.568 47.5744 176.036 47.8577C176.517 48.1286 177.022 48.2641 177.551 48.2641C178.093 48.2641 178.598 48.1286 179.066 47.8577C179.534 47.5867 179.91 47.1926 180.193 46.6754C180.489 46.1458 180.636 45.53 180.636 44.828ZM194.856 44.5878C194.856 44.9696 194.832 45.3144 194.782 45.6223H187.005C187.067 46.4352 187.368 47.0879 187.91 47.5806C188.452 48.0732 189.117 48.3195 189.905 48.3195C191.038 48.3195 191.839 47.8454 192.307 46.897H194.579C194.271 47.833 193.711 48.6028 192.898 49.2063C192.098 49.7974 191.1 50.093 189.905 50.093C188.932 50.093 188.058 49.8775 187.282 49.4464C186.518 49.0031 185.915 48.3873 185.472 47.599C185.041 46.7985 184.825 45.8748 184.825 44.828C184.825 43.7811 185.034 42.8636 185.453 42.0753C185.884 41.2748 186.482 40.659 187.245 40.228C188.021 39.7969 188.908 39.5814 189.905 39.5814C190.866 39.5814 191.722 39.7907 192.473 40.2095C193.224 40.6282 193.81 41.2194 194.228 41.983C194.647 42.7343 194.856 43.6025 194.856 44.5878ZM192.658 43.9227C192.646 43.1468 192.369 42.5249 191.827 42.0569C191.285 41.5889 190.614 41.3549 189.813 41.3549C189.086 41.3549 188.464 41.5889 187.947 42.0569C187.43 42.5126 187.122 43.1345 187.023 43.9227H192.658ZM201.344 50.093C200.384 50.093 199.515 49.8775 198.739 49.4464C197.963 49.0031 197.354 48.3873 196.91 47.599C196.467 46.7985 196.245 45.8748 196.245 44.828C196.245 43.7934 196.473 42.8759 196.929 42.0753C197.385 41.2748 198.007 40.659 198.795 40.228C199.583 39.7969 200.464 39.5814 201.437 39.5814C202.409 39.5814 203.29 39.7969 204.078 40.228C204.867 40.659 205.488 41.2748 205.944 42.0753C206.4 42.8759 206.628 43.7934 206.628 44.828C206.628 45.8625 206.394 46.78 205.926 47.5806C205.458 48.3811 204.817 49.0031 204.004 49.4464C203.204 49.8775 202.317 50.093 201.344 50.093ZM201.344 48.2641C201.886 48.2641 202.391 48.1348 202.859 47.8762C203.339 47.6175 203.727 47.2296 204.023 46.7123C204.318 46.195 204.466 45.5669 204.466 44.828C204.466 44.089 204.325 43.467 204.041 42.9621C203.758 42.4448 203.382 42.0569 202.914 41.7982C202.446 41.5396 201.941 41.4103 201.4 41.4103C200.858 41.4103 200.353 41.5396 199.885 41.7982C199.429 42.0569 199.066 42.4448 198.795 42.9621C198.524 43.467 198.388 44.089 198.388 44.828C198.388 45.9241 198.665 46.7739 199.22 47.3774C199.786 47.9685 200.494 48.2641 201.344 48.2641ZM212.404 50.093C211.604 50.093 210.883 49.9514 210.243 49.6681C209.615 49.3725 209.116 48.9784 208.747 48.4858C208.377 47.9808 208.18 47.4205 208.155 46.8047H210.335C210.372 47.2357 210.575 47.599 210.945 47.8946C211.327 48.1779 211.801 48.3195 212.367 48.3195C212.959 48.3195 213.414 48.2087 213.735 47.987C214.067 47.753 214.233 47.4574 214.233 47.1003C214.233 46.7185 214.049 46.4352 213.679 46.2505C213.322 46.0657 212.749 45.8625 211.961 45.6408C211.197 45.4314 210.575 45.2282 210.095 45.0312C209.615 44.8341 209.196 44.5324 208.839 44.126C208.494 43.7195 208.322 43.1838 208.322 42.5187C208.322 41.9768 208.482 41.4842 208.802 41.0408C209.122 40.5851 209.578 40.228 210.169 39.9693C210.773 39.7107 211.462 39.5814 212.238 39.5814C213.396 39.5814 214.326 39.877 215.028 40.4681C215.742 41.047 216.124 41.8413 216.173 42.8513H214.067C214.03 42.3956 213.845 42.0322 213.513 41.7613C213.18 41.4903 212.731 41.3549 212.164 41.3549C211.61 41.3549 211.185 41.4596 210.89 41.6689C210.594 41.8783 210.446 42.1554 210.446 42.5002C210.446 42.7712 210.545 42.999 210.742 43.1838C210.939 43.3685 211.179 43.5163 211.462 43.6272C211.746 43.7257 212.164 43.855 212.718 44.0151C213.457 44.2122 214.061 44.4154 214.529 44.6247C215.009 44.8218 215.422 45.1174 215.767 45.5115C216.112 45.9056 216.29 46.429 216.302 47.0818C216.302 47.6606 216.142 48.1779 215.822 48.6336C215.502 49.0893 215.046 49.4464 214.455 49.7051C213.876 49.9637 213.193 50.093 212.404 50.093Z" fill="white"/>
<circle cx="39.9801" cy="40.3503" r="28.8747" fill="#1A4402"/>
<path d="M34.1035 31.4656V49.2346L47.9393 40.3501L34.1035 31.4656Z" stroke="white" stroke-width="2.22113" stroke-linecap="round" stroke-linejoin="round"/>
<circle cx="39.9803" cy="40.3499" r="38.8698" stroke="#C7C7C7" stroke-width="2.22113"/>
</svg>
