<svg width="337" height="99" viewBox="0 0 337 99" fill="none" xmlns="http://www.w3.org/2000/svg">
    <path
        d="M105.986 68.5538C105.106 68.5538 104.293 68.3496 103.549 67.9411C102.813 67.5235 102.228 66.947 101.792 66.2117C101.366 65.4674 101.152 64.6322 101.152 63.7063C101.152 62.7803 101.366 61.9497 101.792 61.2144C102.228 60.4791 102.813 59.9072 103.549 59.4987C104.293 59.0811 105.106 58.8723 105.986 58.8723C106.876 58.8723 107.688 59.0811 108.424 59.4987C109.168 59.9072 109.753 60.4791 110.18 61.2144C110.607 61.9497 110.82 62.7803 110.82 63.7063C110.82 64.6322 110.607 65.4674 110.18 66.2117C109.753 66.947 109.168 67.5235 108.424 67.9411C107.688 68.3496 106.876 68.5538 105.986 68.5538ZM105.986 67.2058C106.613 67.2058 107.171 67.0651 107.661 66.7836C108.151 66.4931 108.533 66.0846 108.805 65.5581C109.086 65.0225 109.227 64.4053 109.227 63.7063C109.227 63.0073 109.086 62.3945 108.805 61.868C108.533 61.3415 108.151 60.9375 107.661 60.6561C107.171 60.3747 106.613 60.234 105.986 60.234C105.36 60.234 104.802 60.3747 104.311 60.6561C103.821 60.9375 103.435 61.3415 103.154 61.868C102.882 62.3945 102.745 63.0073 102.745 63.7063C102.745 64.4053 102.882 65.0225 103.154 65.5581C103.435 66.0846 103.821 66.4931 104.311 66.7836C104.802 67.0651 105.36 67.2058 105.986 67.2058ZM116.133 60.8331C116.723 60.8331 117.25 60.9557 117.713 61.2008C118.185 61.4459 118.552 61.809 118.816 62.2901C119.079 62.7712 119.21 63.3522 119.21 64.0331V68.4585H117.672V64.2645C117.672 63.5928 117.504 63.0799 117.168 62.7259C116.832 62.3627 116.374 62.1812 115.793 62.1812C115.212 62.1812 114.749 62.3627 114.404 62.7259C114.068 63.0799 113.9 63.5928 113.9 64.2645V68.4585H112.348V60.9557H113.9V61.8135C114.154 61.5049 114.476 61.2643 114.867 61.0918C115.266 60.9194 115.688 60.8331 116.133 60.8331ZM122.743 58.3821V68.4585H121.191V58.3821H122.743ZM125.571 59.9617C125.289 59.9617 125.053 59.8663 124.863 59.6757C124.672 59.4851 124.577 59.2491 124.577 58.9676C124.577 58.6862 124.672 58.4502 124.863 58.2596C125.053 58.0689 125.289 57.9736 125.571 57.9736C125.843 57.9736 126.074 58.0689 126.265 58.2596C126.456 58.4502 126.551 58.6862 126.551 58.9676C126.551 59.2491 126.456 59.4851 126.265 59.6757C126.074 59.8663 125.843 59.9617 125.571 59.9617ZM126.333 60.9557V68.4585H124.781V60.9557H126.333ZM132.157 60.8331C132.747 60.8331 133.273 60.9557 133.736 61.2008C134.208 61.4459 134.576 61.809 134.839 62.2901C135.102 62.7712 135.234 63.3522 135.234 64.0331V68.4585H133.695V64.2645C133.695 63.5928 133.527 63.0799 133.192 62.7259C132.856 62.3627 132.397 62.1812 131.816 62.1812C131.235 62.1812 130.772 62.3627 130.427 62.7259C130.091 63.0799 129.924 63.5928 129.924 64.2645V68.4585H128.371V60.9557H129.924V61.8135C130.178 61.5049 130.5 61.2643 130.89 61.0918C131.29 60.9194 131.712 60.8331 132.157 60.8331ZM144.091 64.5233C144.091 64.8047 144.072 65.0589 144.036 65.2858H138.303C138.349 65.8849 138.571 66.3661 138.971 66.7292C139.37 67.0923 139.86 67.2738 140.441 67.2738C141.276 67.2738 141.867 66.9243 142.211 66.2254H143.886C143.659 66.9153 143.246 67.4826 142.647 67.9274C142.057 68.3632 141.322 68.581 140.441 68.581C139.724 68.581 139.08 68.4222 138.508 68.1045C137.945 67.7777 137.5 67.3238 137.173 66.7428C136.856 66.1527 136.697 65.4719 136.697 64.7003C136.697 63.9287 136.851 63.2524 137.16 62.6714C137.477 62.0813 137.918 61.6274 138.48 61.3097C139.052 60.992 139.706 60.8331 140.441 60.8331C141.149 60.8331 141.78 60.9875 142.334 61.2961C142.888 61.6047 143.319 62.0405 143.628 62.6033C143.936 63.1571 144.091 63.797 144.091 64.5233ZM142.47 64.0331C142.461 63.4612 142.257 63.0027 141.857 62.6578C141.458 62.3128 140.963 62.1403 140.373 62.1403C139.838 62.1403 139.379 62.3128 138.998 62.6578C138.617 62.9937 138.39 63.4521 138.317 64.0331H142.47ZM148.638 64.673C148.638 63.9196 148.792 63.2524 149.101 62.6714C149.419 62.0904 149.845 61.6411 150.381 61.3233C150.926 60.9965 151.525 60.8331 152.178 60.8331C152.768 60.8331 153.281 60.9511 153.717 61.1872C154.162 61.4141 154.516 61.7001 154.779 62.045V60.9557H156.345V68.4585H154.779V67.3419C154.516 67.696 154.157 67.991 153.703 68.227C153.249 68.463 152.732 68.581 152.151 68.581C151.507 68.581 150.916 68.4176 150.381 68.0908C149.845 67.755 149.419 67.292 149.101 66.7019C148.792 66.1028 148.638 65.4265 148.638 64.673ZM154.779 64.7003C154.779 64.1828 154.67 63.7335 154.452 63.3522C154.243 62.971 153.967 62.6805 153.622 62.4808C153.277 62.281 152.904 62.1812 152.505 62.1812C152.106 62.1812 151.733 62.281 151.388 62.4808C151.044 62.6714 150.762 62.9573 150.544 63.3386C150.335 63.7108 150.231 64.1556 150.231 64.673C150.231 65.1905 150.335 65.6444 150.544 66.0347C150.762 66.4251 151.044 66.7246 151.388 66.9334C151.743 67.1331 152.115 67.233 152.505 67.233C152.904 67.233 153.277 67.1331 153.622 66.9334C153.967 66.7337 154.243 66.4432 154.452 66.062C154.67 65.6716 154.779 65.2177 154.779 64.7003ZM159.936 62.0586C160.199 61.7137 160.558 61.4232 161.012 61.1872C161.466 60.9511 161.979 60.8331 162.551 60.8331C163.204 60.8331 163.799 60.9965 164.334 61.3233C164.879 61.6411 165.306 62.0904 165.614 62.6714C165.923 63.2524 166.077 63.9196 166.077 64.673C166.077 65.4265 165.923 66.1028 165.614 66.7019C165.306 67.292 164.879 67.755 164.334 68.0908C163.799 68.4176 163.204 68.581 162.551 68.581C161.979 68.581 161.47 68.4676 161.026 68.2406C160.581 68.0046 160.218 67.7141 159.936 67.3692V72.0261H158.384V60.9557H159.936V62.0586ZM164.498 64.673C164.498 64.1556 164.389 63.7108 164.171 63.3386C163.962 62.9573 163.681 62.6714 163.327 62.4808C162.982 62.281 162.61 62.1812 162.21 62.1812C161.82 62.1812 161.448 62.281 161.094 62.4808C160.749 62.6805 160.467 62.971 160.249 63.3522C160.041 63.7335 159.936 64.1828 159.936 64.7003C159.936 65.2177 160.041 65.6716 160.249 66.062C160.467 66.4432 160.749 66.7337 161.094 66.9334C161.448 67.1331 161.82 67.233 162.21 67.233C162.61 67.233 162.982 67.1331 163.327 66.9334C163.681 66.7246 163.962 66.4251 164.171 66.0347C164.389 65.6444 164.498 65.1905 164.498 64.673ZM169.165 62.0586C169.428 61.7137 169.787 61.4232 170.24 61.1872C170.694 60.9511 171.207 60.8331 171.779 60.8331C172.433 60.8331 173.027 60.9965 173.563 61.3233C174.108 61.6411 174.534 62.0904 174.843 62.6714C175.152 63.2524 175.306 63.9196 175.306 64.673C175.306 65.4265 175.152 66.1028 174.843 66.7019C174.534 67.292 174.108 67.755 173.563 68.0908C173.027 68.4176 172.433 68.581 171.779 68.581C171.207 68.581 170.699 68.4676 170.254 68.2406C169.809 68.0046 169.446 67.7141 169.165 67.3692V72.0261H167.612V60.9557H169.165V62.0586ZM173.726 64.673C173.726 64.1556 173.617 63.7108 173.4 63.3386C173.191 62.9573 172.909 62.6714 172.555 62.4808C172.21 62.281 171.838 62.1812 171.439 62.1812C171.048 62.1812 170.676 62.281 170.322 62.4808C169.977 62.6805 169.696 62.971 169.478 63.3522C169.269 63.7335 169.165 64.1828 169.165 64.7003C169.165 65.2177 169.269 65.6716 169.478 66.062C169.696 66.4432 169.977 66.7337 170.322 66.9334C170.676 67.1331 171.048 67.233 171.439 67.233C171.838 67.233 172.21 67.1331 172.555 66.9334C172.909 66.7246 173.191 66.4251 173.4 66.0347C173.617 65.6444 173.726 65.1905 173.726 64.673ZM180.095 68.581C179.387 68.581 178.747 68.4222 178.175 68.1045C177.603 67.7777 177.154 67.3238 176.827 66.7428C176.501 66.1527 176.337 65.4719 176.337 64.7003C176.337 63.9377 176.505 63.2614 176.841 62.6714C177.177 62.0813 177.635 61.6274 178.216 61.3097C178.797 60.992 179.446 60.8331 180.163 60.8331C180.881 60.8331 181.53 60.992 182.111 61.3097C182.692 61.6274 183.15 62.0813 183.486 62.6714C183.822 63.2614 183.99 63.9377 183.99 64.7003C183.99 65.4628 183.817 66.1391 183.472 66.7292C183.127 67.3192 182.655 67.7777 182.056 68.1045C181.466 68.4222 180.812 68.581 180.095 68.581ZM180.095 67.233C180.495 67.233 180.867 67.1377 181.212 66.947C181.566 66.7564 181.852 66.4705 182.07 66.0892C182.288 65.7079 182.397 65.2449 182.397 64.7003C182.397 64.1556 182.292 63.6972 182.083 63.325C181.875 62.9437 181.598 62.6578 181.253 62.4671C180.908 62.2765 180.536 62.1812 180.136 62.1812C179.737 62.1812 179.365 62.2765 179.02 62.4671C178.684 62.6578 178.416 62.9437 178.216 63.325C178.017 63.6972 177.917 64.1556 177.917 64.7003C177.917 65.5082 178.121 66.1346 178.529 66.5794C178.947 67.0151 179.469 67.233 180.095 67.233ZM186.314 59.9617C186.033 59.9617 185.797 59.8663 185.606 59.6757C185.415 59.4851 185.32 59.2491 185.32 58.9676C185.32 58.6862 185.415 58.4502 185.606 58.2596C185.797 58.0689 186.033 57.9736 186.314 57.9736C186.586 57.9736 186.818 58.0689 187.008 58.2596C187.199 58.4502 187.294 58.6862 187.294 58.9676C187.294 59.2491 187.199 59.4851 187.008 59.6757C186.818 59.8663 186.586 59.9617 186.314 59.9617ZM187.077 60.9557V68.4585H185.524V60.9557H187.077ZM192.9 60.8331C193.49 60.8331 194.017 60.9557 194.48 61.2008C194.952 61.4459 195.319 61.809 195.583 62.2901C195.846 62.7712 195.977 63.3522 195.977 64.0331V68.4585H194.439V64.2645C194.439 63.5928 194.271 63.0799 193.935 62.7259C193.599 62.3627 193.141 62.1812 192.56 62.1812C191.979 62.1812 191.516 62.3627 191.171 62.7259C190.835 63.0799 190.667 63.5928 190.667 64.2645V68.4585H189.115V60.9557H190.667V61.8135C190.921 61.5049 191.243 61.2643 191.634 61.0918C192.033 60.9194 192.455 60.8331 192.9 60.8331ZM199.769 62.222V66.3751C199.769 66.6565 199.832 66.8608 199.959 66.9879C200.095 67.1059 200.322 67.1649 200.64 67.1649H201.593V68.4585H200.368C199.669 68.4585 199.133 68.2951 198.761 67.9683C198.389 67.6415 198.203 67.1104 198.203 66.3751V62.222H197.317V60.9557H198.203V59.0902H199.769V60.9557H201.593V62.222H199.769ZM212.106 60.8331C212.696 60.8331 213.223 60.9557 213.686 61.2008C214.158 61.4459 214.525 61.809 214.789 62.2901C215.061 62.7712 215.197 63.3522 215.197 64.0331V68.4585H213.659V64.2645C213.659 63.5928 213.491 63.0799 213.155 62.7259C212.819 62.3627 212.36 62.1812 211.779 62.1812C211.198 62.1812 210.735 62.3627 210.391 62.7259C210.055 63.0799 209.887 63.5928 209.887 64.2645V68.4585H208.348V64.2645C208.348 63.5928 208.18 63.0799 207.844 62.7259C207.508 62.3627 207.05 62.1812 206.469 62.1812C205.888 62.1812 205.425 62.3627 205.08 62.7259C204.744 63.0799 204.576 63.5928 204.576 64.2645V68.4585H203.024V60.9557H204.576V61.8135C204.83 61.5049 205.153 61.2643 205.543 61.0918C205.933 60.9194 206.351 60.8331 206.796 60.8331C207.395 60.8331 207.93 60.9602 208.402 61.2144C208.875 61.4686 209.238 61.8362 209.492 62.3174C209.719 61.8635 210.073 61.5049 210.554 61.2416C211.035 60.9693 211.552 60.8331 212.106 60.8331ZM224.049 64.5233C224.049 64.8047 224.031 65.0589 223.994 65.2858H218.262C218.307 65.8849 218.53 66.3661 218.929 66.7292C219.328 67.0923 219.819 67.2738 220.4 67.2738C221.235 67.2738 221.825 66.9243 222.17 66.2254H223.845C223.618 66.9153 223.205 67.4826 222.606 67.9274C222.016 68.3632 221.28 68.581 220.4 68.581C219.683 68.581 219.038 68.4222 218.466 68.1045C217.903 67.7777 217.458 67.3238 217.132 66.7428C216.814 66.1527 216.655 65.4719 216.655 64.7003C216.655 63.9287 216.809 63.2524 217.118 62.6714C217.436 62.0813 217.876 61.6274 218.439 61.3097C219.011 60.992 219.664 60.8331 220.4 60.8331C221.108 60.8331 221.739 60.9875 222.292 61.2961C222.846 61.6047 223.277 62.0405 223.586 62.6033C223.895 63.1571 224.049 63.797 224.049 64.5233ZM222.429 64.0331C222.419 63.4612 222.215 63.0027 221.816 62.6578C221.416 62.3128 220.922 62.1403 220.332 62.1403C219.796 62.1403 219.338 62.3128 218.956 62.6578C218.575 62.9937 218.348 63.4521 218.275 64.0331H222.429ZM229.362 60.8331C229.952 60.8331 230.479 60.9557 230.942 61.2008C231.414 61.4459 231.781 61.809 232.045 62.2901C232.308 62.7712 232.439 63.3522 232.439 64.0331V68.4585H230.901V64.2645C230.901 63.5928 230.733 63.0799 230.397 62.7259C230.061 62.3627 229.603 62.1812 229.022 62.1812C228.441 62.1812 227.978 62.3627 227.633 62.7259C227.297 63.0799 227.129 63.5928 227.129 64.2645V68.4585H225.577V60.9557H227.129V61.8135C227.383 61.5049 227.705 61.2643 228.096 61.0918C228.495 60.9194 228.917 60.8331 229.362 60.8331ZM236.23 62.222V66.3751C236.23 66.6565 236.294 66.8608 236.421 66.9879C236.557 67.1059 236.784 67.1649 237.102 67.1649H238.055V68.4585H236.83C236.131 68.4585 235.595 68.2951 235.223 67.9683C234.851 67.6415 234.665 67.1104 234.665 66.3751V62.222H233.779V60.9557H234.665V59.0902H236.23V60.9557H238.055V62.222H236.23Z"
        fill="#9D9D9D" />
    <g filter="url(#filter0_bd_0_1)">
        <rect x="17" y="14" width="302.493" height="65" rx="15" fill="white" />
        <rect x="17.5" y="14.5" width="301.493" height="64" rx="14.5" stroke="#1A4402" stroke-opacity="0.5" />
    </g>
    <path
        d="M106.465 35.0382C107.088 35.1495 107.617 35.4779 108.051 36.0235C108.485 36.569 108.703 37.1869 108.703 37.8771C108.703 38.4672 108.547 39.0016 108.235 39.4803C107.934 39.9479 107.495 40.3209 106.916 40.5992C106.337 40.8664 105.663 41 104.895 41H100.252V29.3937H104.678C105.468 29.3937 106.147 29.5273 106.715 29.7945C107.283 30.0617 107.712 30.4235 108.001 30.8799C108.291 31.3253 108.435 31.8263 108.435 32.3829C108.435 33.0509 108.257 33.6076 107.901 34.0529C107.545 34.4982 107.066 34.8267 106.465 35.0382ZM102.156 34.27H104.511C105.134 34.27 105.619 34.1308 105.964 33.8525C106.32 33.563 106.498 33.1511 106.498 32.6167C106.498 32.0935 106.32 31.6871 105.964 31.3976C105.619 31.097 105.134 30.9467 104.511 30.9467H102.156V34.27ZM104.728 39.4469C105.374 39.4469 105.88 39.2911 106.248 38.9793C106.615 38.6676 106.799 38.2334 106.799 37.6767C106.799 37.109 106.604 36.6581 106.214 36.3241C105.825 35.9901 105.307 35.8231 104.661 35.8231H102.156V39.4469H104.728ZM114.763 41.1503C113.894 41.1503 113.109 40.9555 112.408 40.5658C111.707 40.165 111.155 39.6084 110.755 38.8958C110.354 38.1722 110.153 37.3372 110.153 36.3909C110.153 35.4557 110.359 34.6263 110.771 33.9026C111.183 33.1789 111.746 32.6223 112.458 32.2326C113.171 31.843 113.967 31.6481 114.846 31.6481C115.726 31.6481 116.522 31.843 117.234 32.2326C117.947 32.6223 118.509 33.1789 118.921 33.9026C119.333 34.6263 119.539 35.4557 119.539 36.3909C119.539 37.3261 119.327 38.1555 118.904 38.8791C118.481 39.6028 117.902 40.165 117.167 40.5658C116.444 40.9555 115.642 41.1503 114.763 41.1503ZM114.763 39.497C115.252 39.497 115.709 39.3801 116.132 39.1463C116.566 38.9125 116.917 38.5618 117.184 38.0942C117.451 37.6266 117.585 37.0589 117.585 36.3909C117.585 35.7229 117.457 35.1607 117.201 34.7042C116.945 34.2366 116.605 33.8859 116.182 33.6521C115.759 33.4183 115.303 33.3014 114.813 33.3014C114.323 33.3014 113.866 33.4183 113.443 33.6521C113.031 33.8859 112.703 34.2366 112.458 34.7042C112.213 35.1607 112.091 35.7229 112.091 36.3909C112.091 37.3817 112.341 38.1499 112.842 38.6954C113.354 39.2298 113.994 39.497 114.763 39.497ZM125.412 41.1503C124.544 41.1503 123.759 40.9555 123.057 40.5658C122.356 40.165 121.805 39.6084 121.404 38.8958C121.003 38.1722 120.803 37.3372 120.803 36.3909C120.803 35.4557 121.009 34.6263 121.421 33.9026C121.833 33.1789 122.395 32.6223 123.107 32.2326C123.82 31.843 124.616 31.6481 125.495 31.6481C126.375 31.6481 127.171 31.843 127.884 32.2326C128.596 32.6223 129.158 33.1789 129.57 33.9026C129.982 34.6263 130.188 35.4557 130.188 36.3909C130.188 37.3261 129.977 38.1555 129.554 38.8791C129.13 39.6028 128.552 40.165 127.817 40.5658C127.093 40.9555 126.291 41.1503 125.412 41.1503ZM125.412 39.497C125.902 39.497 126.358 39.3801 126.781 39.1463C127.216 38.9125 127.566 38.5618 127.833 38.0942C128.101 37.6266 128.234 37.0589 128.234 36.3909C128.234 35.7229 128.106 35.1607 127.85 34.7042C127.594 34.2366 127.255 33.8859 126.831 33.6521C126.408 33.4183 125.952 33.3014 125.462 33.3014C124.972 33.3014 124.516 33.4183 124.093 33.6521C123.681 33.8859 123.352 34.2366 123.107 34.7042C122.862 35.1607 122.74 35.7229 122.74 36.3909C122.74 37.3817 122.991 38.1499 123.491 38.6954C124.004 39.2298 124.644 39.497 125.412 39.497ZM135.711 36.4076L139.952 41H137.381L133.974 37.0422V41H132.07V28.6422H133.974V35.8231L137.314 31.7984H139.952L135.711 36.4076ZM145.02 36.3575C145.02 35.4334 145.21 34.6151 145.588 33.9026C145.978 33.1901 146.501 32.639 147.158 32.2493C147.826 31.8485 148.561 31.6481 149.362 31.6481C150.086 31.6481 150.715 31.7929 151.249 32.0823C151.795 32.3607 152.229 32.7114 152.552 33.1344V31.7984H154.472V41H152.552V39.6306C152.229 40.0648 151.789 40.4266 151.233 40.7161C150.676 41.0056 150.041 41.1503 149.329 41.1503C148.538 41.1503 147.815 40.9499 147.158 40.5491C146.501 40.1372 145.978 39.5694 145.588 38.8457C145.21 38.1109 145.02 37.2815 145.02 36.3575ZM152.552 36.3909C152.552 35.7563 152.418 35.2052 152.151 34.7376C151.895 34.27 151.556 33.9137 151.132 33.6688C150.709 33.4239 150.253 33.3014 149.763 33.3014C149.273 33.3014 148.817 33.4239 148.394 33.6688C147.971 33.9026 147.626 34.2533 147.358 34.7209C147.102 35.1774 146.974 35.7229 146.974 36.3575C146.974 36.9921 147.102 37.5487 147.358 38.0274C147.626 38.5062 147.971 38.8736 148.394 39.1296C148.828 39.3746 149.284 39.497 149.763 39.497C150.253 39.497 150.709 39.3746 151.132 39.1296C151.556 38.8847 151.895 38.5284 152.151 38.0608C152.418 37.5821 152.552 37.0255 152.552 36.3909ZM161.615 31.6481C162.339 31.6481 162.985 31.7984 163.553 32.099C164.132 32.3996 164.582 32.845 164.905 33.435C165.228 34.0251 165.39 34.7376 165.39 35.5726V41H163.503V35.8565C163.503 35.0326 163.297 34.4036 162.885 33.9694C162.473 33.5241 161.91 33.3014 161.198 33.3014C160.485 33.3014 159.918 33.5241 159.495 33.9694C159.083 34.4036 158.877 35.0326 158.877 35.8565V41H156.973V31.7984H158.877V32.8505C159.188 32.472 159.584 32.177 160.062 31.9654C160.552 31.7539 161.07 31.6481 161.615 31.6481ZM171.521 36.3575C171.521 35.4334 171.711 34.6151 172.089 33.9026C172.479 33.1901 173.002 32.639 173.659 32.2493C174.327 31.8485 175.062 31.6481 175.863 31.6481C176.587 31.6481 177.216 31.7929 177.75 32.0823C178.296 32.3607 178.73 32.7114 179.053 33.1344V31.7984H180.973V41H179.053V39.6306C178.73 40.0648 178.29 40.4266 177.734 40.7161C177.177 41.0056 176.542 41.1503 175.83 41.1503C175.04 41.1503 174.316 40.9499 173.659 40.5491C173.002 40.1372 172.479 39.5694 172.089 38.8457C171.711 38.1109 171.521 37.2815 171.521 36.3575ZM179.053 36.3909C179.053 35.7563 178.919 35.2052 178.652 34.7376C178.396 34.27 178.057 33.9137 177.634 33.6688C177.21 33.4239 176.754 33.3014 176.264 33.3014C175.774 33.3014 175.318 33.4239 174.895 33.6688C174.472 33.9026 174.127 34.2533 173.859 34.7209C173.603 35.1774 173.475 35.7229 173.475 36.3575C173.475 36.9921 173.603 37.5487 173.859 38.0274C174.127 38.5062 174.472 38.8736 174.895 39.1296C175.329 39.3746 175.785 39.497 176.264 39.497C176.754 39.497 177.21 39.3746 177.634 39.1296C178.057 38.8847 178.396 38.5284 178.652 38.0608C178.919 37.5821 179.053 37.0255 179.053 36.3909ZM185.378 33.1511C185.701 32.7281 186.14 32.3718 186.697 32.0823C187.254 31.7929 187.883 31.6481 188.584 31.6481C189.386 31.6481 190.115 31.8485 190.772 32.2493C191.44 32.639 191.963 33.1901 192.342 33.9026C192.72 34.6151 192.909 35.4334 192.909 36.3575C192.909 37.2815 192.72 38.1109 192.342 38.8457C191.963 39.5694 191.44 40.1372 190.772 40.5491C190.115 40.9499 189.386 41.1503 188.584 41.1503C187.883 41.1503 187.259 41.0111 186.714 40.7328C186.168 40.4433 185.723 40.0871 185.378 39.664V45.3753H183.474V31.7984H185.378V33.1511ZM190.972 36.3575C190.972 35.7229 190.839 35.1774 190.571 34.7209C190.315 34.2533 189.97 33.9026 189.536 33.6688C189.113 33.4239 188.656 33.3014 188.167 33.3014C187.688 33.3014 187.231 33.4239 186.797 33.6688C186.374 33.9137 186.029 34.27 185.762 34.7376C185.506 35.2052 185.378 35.7563 185.378 36.3909C185.378 37.0255 185.506 37.5821 185.762 38.0608C186.029 38.5284 186.374 38.8847 186.797 39.1296C187.231 39.3746 187.688 39.497 188.167 39.497C188.656 39.497 189.113 39.3746 189.536 39.1296C189.97 38.8736 190.315 38.5062 190.571 38.0274C190.839 37.5487 190.972 36.9921 190.972 36.3575ZM196.696 33.1511C197.019 32.7281 197.458 32.3718 198.015 32.0823C198.572 31.7929 199.201 31.6481 199.902 31.6481C200.704 31.6481 201.433 31.8485 202.09 32.2493C202.758 32.639 203.281 33.1901 203.66 33.9026C204.038 34.6151 204.227 35.4334 204.227 36.3575C204.227 37.2815 204.038 38.1109 203.66 38.8457C203.281 39.5694 202.758 40.1372 202.09 40.5491C201.433 40.9499 200.704 41.1503 199.902 41.1503C199.201 41.1503 198.577 41.0111 198.032 40.7328C197.486 40.4433 197.041 40.0871 196.696 39.664V45.3753H194.792V31.7984H196.696V33.1511ZM202.29 36.3575C202.29 35.7229 202.157 35.1774 201.889 34.7209C201.633 34.2533 201.288 33.9026 200.854 33.6688C200.431 33.4239 199.975 33.3014 199.485 33.3014C199.006 33.3014 198.549 33.4239 198.115 33.6688C197.692 33.9137 197.347 34.27 197.08 34.7376C196.824 35.2052 196.696 35.7563 196.696 36.3909C196.696 37.0255 196.824 37.5821 197.08 38.0608C197.347 38.5284 197.692 38.8847 198.115 39.1296C198.549 39.3746 199.006 39.497 199.485 39.497C199.975 39.497 200.431 39.3746 200.854 39.1296C201.288 38.8736 201.633 38.5062 201.889 38.0274C202.157 37.5487 202.29 36.9921 202.29 36.3575ZM210.101 41.1503C209.233 41.1503 208.448 40.9555 207.747 40.5658C207.045 40.165 206.494 39.6084 206.093 38.8958C205.693 38.1722 205.492 37.3372 205.492 36.3909C205.492 35.4557 205.698 34.6263 206.11 33.9026C206.522 33.1789 207.084 32.6223 207.797 32.2326C208.509 31.843 209.305 31.6481 210.185 31.6481C211.064 31.6481 211.86 31.843 212.573 32.2326C213.285 32.6223 213.848 33.1789 214.259 33.9026C214.671 34.6263 214.877 35.4557 214.877 36.3909C214.877 37.3261 214.666 38.1555 214.243 38.8791C213.82 39.6028 213.241 40.165 212.506 40.5658C211.782 40.9555 210.981 41.1503 210.101 41.1503ZM210.101 39.497C210.591 39.497 211.048 39.3801 211.471 39.1463C211.905 38.9125 212.256 38.5618 212.523 38.0942C212.79 37.6266 212.924 37.0589 212.924 36.3909C212.924 35.7229 212.795 35.1607 212.539 34.7042C212.283 34.2366 211.944 33.8859 211.521 33.6521C211.098 33.4183 210.641 33.3014 210.151 33.3014C209.661 33.3014 209.205 33.4183 208.782 33.6521C208.37 33.8859 208.042 34.2366 207.797 34.7042C207.552 35.1607 207.429 35.7229 207.429 36.3909C207.429 37.3817 207.68 38.1499 208.181 38.6954C208.693 39.2298 209.333 39.497 210.101 39.497ZM217.728 30.5794C217.383 30.5794 217.093 30.4625 216.86 30.2287C216.626 29.9949 216.509 29.7054 216.509 29.3603C216.509 29.0151 216.626 28.7257 216.86 28.4919C217.093 28.2581 217.383 28.1412 217.728 28.1412C218.062 28.1412 218.346 28.2581 218.58 28.4919C218.813 28.7257 218.93 29.0151 218.93 29.3603C218.93 29.7054 218.813 29.9949 218.58 30.2287C218.346 30.4625 218.062 30.5794 217.728 30.5794ZM218.663 31.7984V41H216.759V31.7984H218.663ZM225.805 31.6481C226.529 31.6481 227.175 31.7984 227.742 32.099C228.321 32.3996 228.772 32.845 229.095 33.435C229.418 34.0251 229.579 34.7376 229.579 35.5726V41H227.692V35.8565C227.692 35.0326 227.486 34.4036 227.074 33.9694C226.662 33.5241 226.1 33.3014 225.388 33.3014C224.675 33.3014 224.107 33.5241 223.684 33.9694C223.272 34.4036 223.066 35.0326 223.066 35.8565V41H221.163V31.7984H223.066V32.8505C223.378 32.472 223.773 32.177 224.252 31.9654C224.742 31.7539 225.26 31.6481 225.805 31.6481ZM234.229 33.3515V38.4449C234.229 38.7901 234.307 39.0406 234.463 39.1964C234.63 39.3412 234.908 39.4135 235.298 39.4135H236.467V41H234.964C234.106 41 233.449 40.7996 232.993 40.3988C232.536 39.998 232.308 39.3467 232.308 38.4449V33.3515H231.223V31.7984H232.308V29.5106H234.229V31.7984H236.467V33.3515H234.229ZM249.36 31.6481C250.084 31.6481 250.729 31.7984 251.297 32.099C251.876 32.3996 252.327 32.845 252.65 33.435C252.984 34.0251 253.151 34.7376 253.151 35.5726V41H251.264V35.8565C251.264 35.0326 251.058 34.4036 250.646 33.9694C250.234 33.5241 249.672 33.3014 248.959 33.3014C248.247 33.3014 247.679 33.5241 247.256 33.9694C246.844 34.4036 246.638 35.0326 246.638 35.8565V41H244.751V35.8565C244.751 35.0326 244.545 34.4036 244.133 33.9694C243.721 33.5241 243.159 33.3014 242.446 33.3014C241.734 33.3014 241.166 33.5241 240.743 33.9694C240.331 34.4036 240.125 35.0326 240.125 35.8565V41H238.221V31.7984H240.125V32.8505C240.437 32.472 240.832 32.177 241.311 31.9654C241.789 31.7539 242.301 31.6481 242.847 31.6481C243.582 31.6481 244.239 31.804 244.818 32.1157C245.396 32.4275 245.842 32.8784 246.154 33.4684C246.432 32.9118 246.866 32.472 247.456 32.1491C248.046 31.8151 248.681 31.6481 249.36 31.6481ZM264.007 36.1738C264.007 36.5189 263.984 36.8306 263.94 37.109H256.909C256.965 37.8437 257.238 38.4338 257.728 38.8791C258.217 39.3245 258.819 39.5471 259.531 39.5471C260.555 39.5471 261.279 39.1185 261.702 38.2612H263.756C263.478 39.1074 262.971 39.8032 262.236 40.3487C261.513 40.8831 260.611 41.1503 259.531 41.1503C258.652 41.1503 257.861 40.9555 257.16 40.5658C256.469 40.165 255.924 39.6084 255.523 38.8958C255.133 38.1722 254.939 37.3372 254.939 36.3909C254.939 35.4445 255.128 34.6151 255.506 33.9026C255.896 33.1789 256.436 32.6223 257.126 32.2326C257.828 31.843 258.629 31.6481 259.531 31.6481C260.399 31.6481 261.173 31.8374 261.852 32.2159C262.531 32.5945 263.06 33.1288 263.439 33.8191C263.817 34.4982 264.007 35.2831 264.007 36.1738ZM262.019 35.5726C262.008 34.8712 261.758 34.309 261.268 33.8859C260.778 33.4628 260.171 33.2513 259.448 33.2513C258.791 33.2513 258.229 33.4628 257.761 33.8859C257.293 34.2978 257.015 34.8601 256.926 35.5726H262.019ZM270.523 31.6481C271.246 31.6481 271.892 31.7984 272.46 32.099C273.039 32.3996 273.49 32.845 273.813 33.435C274.135 34.0251 274.297 34.7376 274.297 35.5726V41H272.41V35.8565C272.41 35.0326 272.204 34.4036 271.792 33.9694C271.38 33.5241 270.818 33.3014 270.105 33.3014C269.393 33.3014 268.825 33.5241 268.402 33.9694C267.99 34.4036 267.784 35.0326 267.784 35.8565V41H265.88V31.7984H267.784V32.8505C268.096 32.472 268.491 32.177 268.97 31.9654C269.459 31.7539 269.977 31.6481 270.523 31.6481ZM278.946 33.3515V38.4449C278.946 38.7901 279.024 39.0406 279.18 39.1964C279.347 39.3412 279.625 39.4135 280.015 39.4135H281.184V41H279.681C278.824 41 278.167 40.7996 277.71 40.3988C277.254 39.998 277.026 39.3467 277.026 38.4449V33.3515H275.94V31.7984H277.026V29.5106H278.946V31.7984H281.184V33.3515H278.946Z"
        fill="#1A4402" />
    <path
        d="M104.338 65.0221C103.457 65.0221 102.645 64.8178 101.9 64.4093C101.165 63.9917 100.58 63.4153 100.144 62.68C99.7171 61.9356 99.5038 61.1005 99.5038 60.1745C99.5038 59.2486 99.7171 58.418 100.144 57.6827C100.58 56.9474 101.165 56.3755 101.9 55.967C102.645 55.5494 103.457 55.3406 104.338 55.3406C105.227 55.3406 106.04 55.5494 106.775 55.967C107.52 56.3755 108.105 56.9474 108.532 57.6827C108.958 58.418 109.172 59.2486 109.172 60.1745C109.172 61.1005 108.958 61.9356 108.532 62.68C108.105 63.4153 107.52 63.9917 106.775 64.4093C106.04 64.8178 105.227 65.0221 104.338 65.0221ZM104.338 63.674C104.964 63.674 105.522 63.5333 106.013 63.2519C106.503 62.9614 106.884 62.5529 107.156 62.0264C107.438 61.4908 107.579 60.8735 107.579 60.1745C107.579 59.4755 107.438 58.8628 107.156 58.3363C106.884 57.8097 106.503 57.4058 106.013 57.1244C105.522 56.843 104.964 56.7023 104.338 56.7023C103.711 56.7023 103.153 56.843 102.663 57.1244C102.173 57.4058 101.787 57.8097 101.505 58.3363C101.233 58.8628 101.097 59.4755 101.097 60.1745C101.097 60.8735 101.233 61.4908 101.505 62.0264C101.787 62.5529 102.173 62.9614 102.663 63.2519C103.153 63.5333 103.711 63.674 104.338 63.674ZM114.485 57.3014C115.075 57.3014 115.601 57.4239 116.064 57.669C116.536 57.9141 116.904 58.2773 117.167 58.7584C117.43 59.2395 117.562 59.8205 117.562 60.5013V64.9268H116.023V60.7328C116.023 60.061 115.855 59.5482 115.52 59.1941C115.184 58.831 114.725 58.6494 114.144 58.6494C113.563 58.6494 113.1 58.831 112.755 59.1941C112.419 59.5482 112.252 60.061 112.252 60.7328V64.9268H110.699V57.4239H112.252V58.2818C112.506 57.9732 112.828 57.7326 113.218 57.5601C113.618 57.3876 114.04 57.3014 114.485 57.3014ZM121.094 54.8504V64.9268H119.542V54.8504H121.094ZM123.922 56.4299C123.641 56.4299 123.405 56.3346 123.214 56.144C123.024 55.9533 122.928 55.7173 122.928 55.4359C122.928 55.1545 123.024 54.9185 123.214 54.7278C123.405 54.5372 123.641 54.4419 123.922 54.4419C124.195 54.4419 124.426 54.5372 124.617 54.7278C124.807 54.9185 124.903 55.1545 124.903 55.4359C124.903 55.7173 124.807 55.9533 124.617 56.144C124.426 56.3346 124.195 56.4299 123.922 56.4299ZM124.685 57.4239V64.9268H123.132V57.4239H124.685ZM130.508 57.3014C131.098 57.3014 131.625 57.4239 132.088 57.669C132.56 57.9141 132.927 58.2773 133.191 58.7584C133.454 59.2395 133.586 59.8205 133.586 60.5013V64.9268H132.047V60.7328C132.047 60.061 131.879 59.5482 131.543 59.1941C131.207 58.831 130.749 58.6494 130.168 58.6494C129.587 58.6494 129.124 58.831 128.779 59.1941C128.443 59.5482 128.275 60.061 128.275 60.7328V64.9268H126.723V57.4239H128.275V58.2818C128.529 57.9732 128.852 57.7326 129.242 57.5601C129.641 57.3876 130.063 57.3014 130.508 57.3014ZM142.442 60.9915C142.442 61.2729 142.424 61.5271 142.388 61.7541H136.655C136.7 62.3532 136.923 62.8343 137.322 63.1974C137.722 63.5605 138.212 63.7421 138.793 63.7421C139.628 63.7421 140.218 63.3926 140.563 62.6936H142.238C142.011 63.3835 141.598 63.9509 140.999 64.3957C140.409 64.8314 139.673 65.0493 138.793 65.0493C138.076 65.0493 137.431 64.8904 136.859 64.5727C136.296 64.2459 135.852 63.792 135.525 63.2111C135.207 62.621 135.048 61.9402 135.048 61.1685C135.048 60.3969 135.203 59.7206 135.511 59.1396C135.829 58.5496 136.269 58.0957 136.832 57.778C137.404 57.4603 138.058 57.3014 138.793 57.3014C139.501 57.3014 140.132 57.4557 140.686 57.7644C141.239 58.073 141.671 58.5087 141.979 59.0716C142.288 59.6253 142.442 60.2653 142.442 60.9915ZM140.822 60.5013C140.813 59.9294 140.608 59.471 140.209 59.126C139.81 58.7811 139.315 58.6086 138.725 58.6086C138.189 58.6086 137.731 58.7811 137.349 59.126C136.968 59.4619 136.741 59.9203 136.669 60.5013H140.822ZM146.989 61.1413C146.989 60.3878 147.144 59.7206 147.452 59.1396C147.77 58.5587 148.197 58.1093 148.732 57.7916C149.277 57.4648 149.876 57.3014 150.53 57.3014C151.12 57.3014 151.633 57.4194 152.069 57.6554C152.513 57.8824 152.867 58.1683 153.131 58.5133V57.4239H154.697V64.9268H153.131V63.8102C152.867 64.1642 152.509 64.4593 152.055 64.6953C151.601 64.9313 151.084 65.0493 150.503 65.0493C149.858 65.0493 149.268 64.8859 148.732 64.5591C148.197 64.2232 147.77 63.7603 147.452 63.1702C147.144 62.5711 146.989 61.8948 146.989 61.1413ZM153.131 61.1685C153.131 60.6511 153.022 60.2018 152.804 59.8205C152.595 59.4392 152.318 59.1487 151.973 58.949C151.628 58.7493 151.256 58.6494 150.857 58.6494C150.457 58.6494 150.085 58.7493 149.74 58.949C149.395 59.1396 149.114 59.4256 148.896 59.8069C148.687 60.1791 148.583 60.6239 148.583 61.1413C148.583 61.6587 148.687 62.1126 148.896 62.503C149.114 62.8933 149.395 63.1929 149.74 63.4017C150.094 63.6014 150.466 63.7013 150.857 63.7013C151.256 63.7013 151.628 63.6014 151.973 63.4017C152.318 63.202 152.595 62.9115 152.804 62.5302C153.022 62.1399 153.131 61.686 153.131 61.1685ZM158.288 58.5269C158.551 58.1819 158.91 57.8915 159.363 57.6554C159.817 57.4194 160.33 57.3014 160.902 57.3014C161.556 57.3014 162.15 57.4648 162.686 57.7916C163.231 58.1093 163.657 58.5587 163.966 59.1396C164.275 59.7206 164.429 60.3878 164.429 61.1413C164.429 61.8948 164.275 62.5711 163.966 63.1702C163.657 63.7603 163.231 64.2232 162.686 64.5591C162.15 64.8859 161.556 65.0493 160.902 65.0493C160.33 65.0493 159.822 64.9358 159.377 64.7089C158.932 64.4729 158.569 64.1824 158.288 63.8374V68.4943H156.735V57.4239H158.288V58.5269ZM162.849 61.1413C162.849 60.6239 162.74 60.1791 162.523 59.8069C162.314 59.4256 162.032 59.1396 161.678 58.949C161.333 58.7493 160.961 58.6494 160.562 58.6494C160.171 58.6494 159.799 58.7493 159.445 58.949C159.1 59.1487 158.819 59.4392 158.601 59.8205C158.392 60.2018 158.288 60.6511 158.288 61.1685C158.288 61.686 158.392 62.1399 158.601 62.5302C158.819 62.9115 159.1 63.202 159.445 63.4017C159.799 63.6014 160.171 63.7013 160.562 63.7013C160.961 63.7013 161.333 63.6014 161.678 63.4017C162.032 63.1929 162.314 62.8933 162.523 62.503C162.74 62.1126 162.849 61.6587 162.849 61.1413ZM167.516 58.5269C167.78 58.1819 168.138 57.8915 168.592 57.6554C169.046 57.4194 169.559 57.3014 170.131 57.3014C170.784 57.3014 171.379 57.4648 171.914 57.7916C172.459 58.1093 172.886 58.5587 173.194 59.1396C173.503 59.7206 173.657 60.3878 173.657 61.1413C173.657 61.8948 173.503 62.5711 173.194 63.1702C172.886 63.7603 172.459 64.2232 171.914 64.5591C171.379 64.8859 170.784 65.0493 170.131 65.0493C169.559 65.0493 169.05 64.9358 168.606 64.7089C168.161 64.4729 167.798 64.1824 167.516 63.8374V68.4943H165.964V57.4239H167.516V58.5269ZM172.078 61.1413C172.078 60.6239 171.969 60.1791 171.751 59.8069C171.542 59.4256 171.261 59.1396 170.907 58.949C170.562 58.7493 170.19 58.6494 169.79 58.6494C169.4 58.6494 169.028 58.7493 168.674 58.949C168.329 59.1487 168.047 59.4392 167.829 59.8205C167.621 60.2018 167.516 60.6511 167.516 61.1685C167.516 61.686 167.621 62.1399 167.829 62.5302C168.047 62.9115 168.329 63.202 168.674 63.4017C169.028 63.6014 169.4 63.7013 169.79 63.7013C170.19 63.7013 170.562 63.6014 170.907 63.4017C171.261 63.1929 171.542 62.8933 171.751 62.503C171.969 62.1126 172.078 61.6587 172.078 61.1413ZM178.447 65.0493C177.739 65.0493 177.099 64.8904 176.527 64.5727C175.955 64.2459 175.506 63.792 175.179 63.2111C174.852 62.621 174.689 61.9402 174.689 61.1685C174.689 60.406 174.857 59.7297 175.192 59.1396C175.528 58.5496 175.987 58.0957 176.568 57.778C177.149 57.4603 177.798 57.3014 178.515 57.3014C179.232 57.3014 179.881 57.4603 180.462 57.778C181.043 58.0957 181.502 58.5496 181.837 59.1396C182.173 59.7297 182.341 60.406 182.341 61.1685C182.341 61.9311 182.169 62.6074 181.824 63.1974C181.479 63.7875 181.007 64.2459 180.408 64.5727C179.818 64.8904 179.164 65.0493 178.447 65.0493ZM178.447 63.7013C178.846 63.7013 179.219 63.6059 179.563 63.4153C179.917 63.2247 180.203 62.9387 180.421 62.5574C180.639 62.1762 180.748 61.7132 180.748 61.1685C180.748 60.6239 180.644 60.1654 180.435 59.7933C180.226 59.412 179.949 59.126 179.604 58.9354C179.259 58.7448 178.887 58.6494 178.488 58.6494C178.088 58.6494 177.716 58.7448 177.371 58.9354C177.035 59.126 176.767 59.412 176.568 59.7933C176.368 60.1654 176.268 60.6239 176.268 61.1685C176.268 61.9765 176.472 62.6028 176.881 63.0476C177.299 63.4834 177.821 63.7013 178.447 63.7013ZM184.666 56.4299C184.384 56.4299 184.148 56.3346 183.958 56.144C183.767 55.9533 183.672 55.7173 183.672 55.4359C183.672 55.1545 183.767 54.9185 183.958 54.7278C184.148 54.5372 184.384 54.4419 184.666 54.4419C184.938 54.4419 185.169 54.5372 185.36 54.7278C185.551 54.9185 185.646 55.1545 185.646 55.4359C185.646 55.7173 185.551 55.9533 185.36 56.144C185.169 56.3346 184.938 56.4299 184.666 56.4299ZM185.428 57.4239V64.9268H183.876V57.4239H185.428ZM191.252 57.3014C191.842 57.3014 192.368 57.4239 192.831 57.669C193.303 57.9141 193.671 58.2773 193.934 58.7584C194.197 59.2395 194.329 59.8205 194.329 60.5013V64.9268H192.79V60.7328C192.79 60.061 192.622 59.5482 192.286 59.1941C191.951 58.831 191.492 58.6494 190.911 58.6494C190.33 58.6494 189.867 58.831 189.522 59.1941C189.186 59.5482 189.018 60.061 189.018 60.7328V64.9268H187.466V57.4239H189.018V58.2818C189.273 57.9732 189.595 57.7326 189.985 57.5601C190.385 57.3876 190.807 57.3014 191.252 57.3014ZM198.12 58.6903V62.8434C198.12 63.1248 198.184 63.3291 198.311 63.4562C198.447 63.5742 198.674 63.6332 198.992 63.6332H199.945V64.9268H198.719C198.02 64.9268 197.485 64.7634 197.112 64.4366C196.74 64.1098 196.554 63.5787 196.554 62.8434V58.6903H195.669V57.4239H196.554V55.5585H198.12V57.4239H199.945V58.6903H198.12ZM210.458 57.3014C211.048 57.3014 211.574 57.4239 212.037 57.669C212.509 57.9141 212.877 58.2773 213.14 58.7584C213.413 59.2395 213.549 59.8205 213.549 60.5013V64.9268H212.01V60.7328C212.01 60.061 211.842 59.5482 211.506 59.1941C211.17 58.831 210.712 58.6494 210.131 58.6494C209.55 58.6494 209.087 58.831 208.742 59.1941C208.406 59.5482 208.238 60.061 208.238 60.7328V64.9268H206.7V60.7328C206.7 60.061 206.532 59.5482 206.196 59.1941C205.86 58.831 205.401 58.6494 204.82 58.6494C204.239 58.6494 203.777 58.831 203.432 59.1941C203.096 59.5482 202.928 60.061 202.928 60.7328V64.9268H201.375V57.4239H202.928V58.2818C203.182 57.9732 203.504 57.7326 203.895 57.5601C204.285 57.3876 204.702 57.3014 205.147 57.3014C205.746 57.3014 206.282 57.4285 206.754 57.6827C207.226 57.9368 207.589 58.3045 207.843 58.7856C208.07 58.3317 208.424 57.9732 208.905 57.7099C209.387 57.4376 209.904 57.3014 210.458 57.3014ZM222.401 60.9915C222.401 61.2729 222.382 61.5271 222.346 61.7541H216.613C216.659 62.3532 216.881 62.8343 217.281 63.1974C217.68 63.5605 218.17 63.7421 218.751 63.7421C219.586 63.7421 220.176 63.3926 220.521 62.6936H222.196C221.969 63.3835 221.556 63.9509 220.957 64.3957C220.367 64.8314 219.632 65.0493 218.751 65.0493C218.034 65.0493 217.39 64.8904 216.818 64.5727C216.255 64.2459 215.81 63.792 215.483 63.2111C215.165 62.621 215.007 61.9402 215.007 61.1685C215.007 60.3969 215.161 59.7206 215.47 59.1396C215.787 58.5496 216.228 58.0957 216.79 57.778C217.362 57.4603 218.016 57.3014 218.751 57.3014C219.459 57.3014 220.09 57.4557 220.644 57.7644C221.198 58.073 221.629 58.5087 221.938 59.0716C222.246 59.6253 222.401 60.2653 222.401 60.9915ZM220.78 60.5013C220.771 59.9294 220.567 59.471 220.167 59.126C219.768 58.7811 219.273 58.6086 218.683 58.6086C218.148 58.6086 217.689 58.7811 217.308 59.126C216.927 59.4619 216.7 59.9203 216.627 60.5013H220.78ZM227.714 57.3014C228.304 57.3014 228.83 57.4239 229.293 57.669C229.765 57.9141 230.133 58.2773 230.396 58.7584C230.659 59.2395 230.791 59.8205 230.791 60.5013V64.9268H229.252V60.7328C229.252 60.061 229.084 59.5482 228.748 59.1941C228.413 58.831 227.954 58.6494 227.373 58.6494C226.792 58.6494 226.329 58.831 225.984 59.1941C225.648 59.5482 225.48 60.061 225.48 60.7328V64.9268H223.928V57.4239H225.48V58.2818C225.735 57.9732 226.057 57.7326 226.447 57.5601C226.847 57.3876 227.269 57.3014 227.714 57.3014ZM234.582 58.6903V62.8434C234.582 63.1248 234.646 63.3291 234.773 63.4562C234.909 63.5742 235.136 63.6332 235.454 63.6332H236.407V64.9268H235.181C234.482 64.9268 233.947 64.7634 233.574 64.4366C233.202 64.1098 233.016 63.5787 233.016 62.8434V58.6903H232.131V57.4239H233.016V55.5585H234.582V57.4239H236.407V58.6903H234.582Z"
        fill="#749D1C" />
    <path
        d="M56.3357 34.496H52.7372C51.7828 34.496 50.8675 34.8643 50.1927 35.5199C49.5178 36.1756 49.1387 37.0648 49.1387 37.992V58.9681C49.1387 59.8953 49.5178 60.7845 50.1927 61.4402C50.8675 62.0958 51.7828 62.4641 52.7372 62.4641H70.7298C71.6842 62.4641 72.5994 62.0958 73.2743 61.4402C73.9492 60.7845 74.3283 59.8953 74.3283 58.9681V37.992C74.3283 37.0648 73.9492 36.1756 73.2743 35.5199C72.5994 34.8643 71.6842 34.496 70.7298 34.496H67.1313"
        stroke="#1A4402" stroke-width="3.47443" stroke-linecap="round" stroke-linejoin="round" />
    <path
        d="M63.533 31H59.9345C57.947 31 56.3359 32.5652 56.3359 34.496C56.3359 36.4268 57.947 37.992 59.9345 37.992H63.533C65.5204 37.992 67.1315 36.4268 67.1315 34.496C67.1315 32.5652 65.5204 31 63.533 31Z"
        stroke="#1A4402" stroke-width="3.47443" stroke-linecap="round" stroke-linejoin="round" />
    <path
        d="M63.533 53.7241H67.1315M56.3359 46.7321H56.3539H56.3359ZM63.533 46.7321H67.1315H63.533ZM56.3359 53.7241H56.3539H56.3359Z"
        stroke="#1A4402" stroke-width="3.47443" stroke-linecap="round" stroke-linejoin="round" />
    <defs>
        <filter id="filter0_bd_0_1" x="-11.743" y="-14.743" width="359.978" height="122.486"
            filterUnits="userSpaceOnUse" color-interpolation-filters="sRGB">
            <feFlood flood-opacity="0" result="BackgroundImageFix" />
            <feGaussianBlur in="BackgroundImageFix" stdDeviation="14.3715" />
            <feComposite in2="SourceAlpha" operator="in" result="effect1_backgroundBlur_0_1" />
            <feColorMatrix in="SourceAlpha" type="matrix" values="0 0 0 0 0 0 0 0 0 0 0 0 0 0 0 0 0 0 127 0"
                result="hardAlpha" />
            <feMorphology radius="0.718575" operator="erode" in="SourceAlpha" result="effect2_dropShadow_0_1" />
            <feOffset dy="2.8743" />
            <feGaussianBlur stdDeviation="8.6229" />
            <feComposite in2="hardAlpha" operator="out" />
            <feColorMatrix type="matrix" values="0 0 0 0 0 0 0 0 0 0 0 0 0 0 0 0 0 0 0.2 0" />
            <feBlend mode="normal" in2="effect1_backgroundBlur_0_1" result="effect2_dropShadow_0_1" />
            <feBlend mode="normal" in="SourceGraphic" in2="effect2_dropShadow_0_1" result="shape" />
        </filter>
    </defs>
</svg>