<svg width="18" height="20" viewBox="0 0 18 20" fill="none" xmlns="http://www.w3.org/2000/svg">
    <path
        d="M8 9.89898V14.999C8 15.2642 8.10536 15.5186 8.29289 15.7061C8.48043 15.8936 8.73478 15.999 9 15.999C9.26522 15.999 9.51957 15.8936 9.70711 15.7061C9.89464 15.5186 10 15.2642 10 14.999V9.89898C11.214 9.65116 12.2928 8.96139 13.0272 7.96339C13.7616 6.96539 14.0992 5.73026 13.9747 4.49746C13.8501 3.26465 13.2723 2.12201 12.3532 1.29104C11.434 0.46008 10.2391 0 9 0C7.76092 0 6.56598 0.46008 5.64685 1.29104C4.72771 2.12201 4.14986 3.26465 4.02532 4.49746C3.90078 5.73026 4.23843 6.96539 4.9728 7.96339C5.70718 8.96139 6.78596 9.65116 8 9.89898ZM9 1.99898C9.59334 1.99898 10.1734 2.17493 10.6667 2.50457C11.1601 2.83422 11.5446 3.30275 11.7716 3.85093C11.9987 4.39911 12.0581 5.00231 11.9424 5.58425C11.8266 6.16619 11.5409 6.70074 11.1213 7.1203C10.7018 7.53986 10.1672 7.82558 9.58527 7.94134C9.00333 8.05709 8.40013 7.99768 7.85195 7.77062C7.30377 7.54356 6.83524 7.15904 6.50559 6.66569C6.17595 6.17234 6 5.59232 6 4.99898C6 4.20333 6.31607 3.44027 6.87868 2.87766C7.44129 2.31505 8.20435 1.99898 9 1.99898ZM13.21 12.419C13.0787 12.3914 12.9432 12.39 12.8113 12.4147C12.6795 12.4395 12.5537 12.49 12.4414 12.5634C12.329 12.6367 12.2322 12.7315 12.1565 12.8423C12.0808 12.9531 12.0276 13.0777 12 13.209C11.9724 13.3403 11.971 13.4758 11.9958 13.6076C12.0205 13.7395 12.071 13.8652 12.1444 13.9776C12.2178 14.09 12.3125 14.1868 12.4233 14.2625C12.5341 14.3382 12.6587 14.3914 12.79 14.419C15.06 14.869 16 15.679 16 15.999C16 16.579 13.55 17.999 9 17.999C4.45 17.999 2 16.579 2 15.999C2 15.679 2.94 14.869 5.21 14.379C5.34132 14.3514 5.46593 14.2982 5.5767 14.2225C5.68747 14.1468 5.78224 14.05 5.8556 13.9376C5.92896 13.8252 5.97947 13.6995 6.00424 13.5676C6.02902 13.4358 6.02758 13.3003 6 13.169C5.97242 13.0377 5.91925 12.9131 5.84352 12.8023C5.76778 12.6915 5.67097 12.5967 5.55861 12.5234C5.44626 12.45 5.32055 12.3995 5.18867 12.3747C5.05679 12.35 4.92132 12.3514 4.79 12.379C1.75 13.079 0 14.389 0 15.999C0 18.629 4.53 19.999 9 19.999C13.47 19.999 18 18.629 18 15.999C18 14.389 16.25 13.079 13.21 12.419Z"
        fill="black" />
</svg>