<svg width="334" height="99" viewBox="0 0 334 99" fill="none" xmlns="http://www.w3.org/2000/svg">
    <g filter="url(#filter0_bd_0_1)">
        <rect x="17" y="14" width="300" height="65" rx="15" fill="white" />
        <rect x="17.5" y="14.5" width="299" height="64" rx="14.5" stroke="#1A4402" stroke-opacity="0.5" />
    </g>
    <path
        d="M109.803 28.3937L106.363 40H104.209L101.771 31.2159L99.1822 40L97.0446 40.0167L93.7548 28.3937H95.7755L98.1802 37.8457L100.785 28.3937H102.923L105.344 37.7956L107.766 28.3937H109.803ZM119.807 35.1738C119.807 35.5189 119.785 35.8306 119.74 36.109H112.709C112.765 36.8437 113.038 37.4338 113.528 37.8791C114.018 38.3245 114.619 38.5471 115.331 38.5471C116.356 38.5471 117.079 38.1185 117.502 37.2612H119.556C119.278 38.1074 118.771 38.8032 118.037 39.3487C117.313 39.8831 116.411 40.1503 115.331 40.1503C114.452 40.1503 113.661 39.9555 112.96 39.5658C112.27 39.165 111.724 38.6084 111.323 37.8958C110.934 37.1722 110.739 36.3372 110.739 35.3909C110.739 34.4445 110.928 33.6151 111.307 32.9026C111.696 32.1789 112.236 31.6223 112.927 31.2326C113.628 30.843 114.429 30.6481 115.331 30.6481C116.2 30.6481 116.973 30.8374 117.653 31.2159C118.332 31.5945 118.86 32.1288 119.239 32.8191C119.618 33.4982 119.807 34.2831 119.807 35.1738ZM117.82 34.5726C117.808 33.8712 117.558 33.309 117.068 32.8859C116.578 32.4628 115.971 32.2513 115.248 32.2513C114.591 32.2513 114.029 32.4628 113.561 32.8859C113.094 33.2978 112.815 33.8601 112.726 34.5726H117.82ZM123.584 27.6422V40H121.68V27.6422H123.584ZM127.987 27.6422V40H126.084V27.6422H127.987ZM143.809 42.1042L141.772 39.8998C141.271 40.0445 140.72 40.1169 140.119 40.1169C139.039 40.1169 138.042 39.8664 137.129 39.3654C136.228 38.8533 135.51 38.1463 134.975 37.2445C134.452 36.3316 134.19 35.3074 134.19 34.1718C134.19 33.0362 134.452 32.0175 134.975 31.1157C135.51 30.2139 136.228 29.5126 137.129 29.0116C138.042 28.4994 139.039 28.2434 140.119 28.2434C141.21 28.2434 142.206 28.4994 143.108 29.0116C144.021 29.5126 144.739 30.2139 145.262 31.1157C145.785 32.0175 146.047 33.0362 146.047 34.1718C146.047 35.2406 145.813 36.2092 145.346 37.0775C144.889 37.9348 144.255 38.6251 143.442 39.1483L146.231 42.1042H143.809ZM136.144 34.1718C136.144 35.029 136.311 35.7861 136.645 36.443C136.99 37.0887 137.463 37.5897 138.065 37.9459C138.666 38.2911 139.35 38.4636 140.119 38.4636C140.887 38.4636 141.572 38.2911 142.173 37.9459C142.774 37.5897 143.242 37.0887 143.576 36.443C143.921 35.7861 144.093 35.029 144.093 34.1718C144.093 33.3145 143.921 32.563 143.576 31.9173C143.242 31.2716 142.774 30.7762 142.173 30.431C141.572 30.0859 140.887 29.9133 140.119 29.9133C139.35 29.9133 138.666 30.0859 138.065 30.431C137.463 30.7762 136.99 31.2716 136.645 31.9173C136.311 32.563 136.144 33.3145 136.144 34.1718ZM156.303 30.7984V40H154.399V38.9145C154.098 39.293 153.703 39.5936 153.213 39.8163C152.734 40.0278 152.222 40.1336 151.677 40.1336C150.953 40.1336 150.302 39.9833 149.723 39.6827C149.155 39.3821 148.704 38.9368 148.37 38.3467C148.047 37.7567 147.886 37.0441 147.886 36.2092V30.7984H149.773V35.9253C149.773 36.7491 149.979 37.3837 150.391 37.829C150.803 38.2632 151.365 38.4803 152.078 38.4803C152.79 38.4803 153.352 38.2632 153.764 37.829C154.187 37.3837 154.399 36.7491 154.399 35.9253V30.7984H156.303ZM158.18 35.3575C158.18 34.4334 158.369 33.6151 158.748 32.9026C159.137 32.1901 159.661 31.639 160.317 31.2493C160.985 30.8485 161.72 30.6481 162.522 30.6481C163.245 30.6481 163.874 30.7929 164.409 31.0823C164.954 31.3607 165.389 31.7114 165.711 32.1344V30.7984H167.632V40H165.711V38.6306C165.389 39.0648 164.949 39.4266 164.392 39.7161C163.835 40.0056 163.201 40.1503 162.488 40.1503C161.698 40.1503 160.974 39.9499 160.317 39.5491C159.661 39.1372 159.137 38.5694 158.748 37.8457C158.369 37.1109 158.18 36.2815 158.18 35.3575ZM165.711 35.3909C165.711 34.7563 165.578 34.2052 165.311 33.7376C165.055 33.27 164.715 32.9137 164.292 32.6688C163.869 32.4239 163.412 32.3014 162.923 32.3014C162.433 32.3014 161.976 32.4239 161.553 32.6688C161.13 32.9026 160.785 33.2533 160.518 33.7209C160.262 34.1774 160.134 34.7229 160.134 35.3575C160.134 35.9921 160.262 36.5487 160.518 37.0274C160.785 37.5062 161.13 37.8736 161.553 38.1296C161.987 38.3746 162.444 38.497 162.923 38.497C163.412 38.497 163.869 38.3746 164.292 38.1296C164.715 37.8847 165.055 37.5284 165.311 37.0608C165.578 36.5821 165.711 36.0255 165.711 35.3909ZM172.036 27.6422V40H170.132V27.6422H172.036ZM175.504 29.5794C175.159 29.5794 174.87 29.4625 174.636 29.2287C174.402 28.9949 174.285 28.7054 174.285 28.3603C174.285 28.0151 174.402 27.7257 174.636 27.4919C174.87 27.2581 175.159 27.1412 175.504 27.1412C175.838 27.1412 176.122 27.2581 176.356 27.4919C176.59 27.7257 176.707 28.0151 176.707 28.3603C176.707 28.7054 176.59 28.9949 176.356 29.2287C176.122 29.4625 175.838 29.5794 175.504 29.5794ZM176.439 30.7984V40H174.536V30.7984H176.439ZM182.797 32.3515H181.093V40H179.173V32.3515H178.087V30.7984H179.173V30.1471C179.173 29.0895 179.451 28.3213 180.008 27.8426C180.576 27.3527 181.461 27.1078 182.663 27.1078V28.6943C182.084 28.6943 181.678 28.8056 181.444 29.0283C181.21 29.2398 181.093 29.6128 181.093 30.1471V30.7984H182.797V32.3515ZM185.452 29.5794C185.107 29.5794 184.818 29.4625 184.584 29.2287C184.35 28.9949 184.233 28.7054 184.233 28.3603C184.233 28.0151 184.35 27.7257 184.584 27.4919C184.818 27.2581 185.107 27.1412 185.452 27.1412C185.786 27.1412 186.07 27.2581 186.304 27.4919C186.538 27.7257 186.655 28.0151 186.655 28.3603C186.655 28.7054 186.538 28.9949 186.304 29.2287C186.07 29.4625 185.786 29.5794 185.452 29.5794ZM186.388 30.7984V40H184.484V30.7984H186.388ZM197.32 35.1738C197.32 35.5189 197.298 35.8306 197.254 36.109H190.223C190.279 36.8437 190.551 37.4338 191.041 37.8791C191.531 38.3245 192.132 38.5471 192.845 38.5471C193.869 38.5471 194.593 38.1185 195.016 37.2612H197.07C196.792 38.1074 196.285 38.8032 195.55 39.3487C194.827 39.8831 193.925 40.1503 192.845 40.1503C191.965 40.1503 191.175 39.9555 190.474 39.5658C189.783 39.165 189.238 38.6084 188.837 37.8958C188.447 37.1722 188.252 36.3372 188.252 35.3909C188.252 34.4445 188.442 33.6151 188.82 32.9026C189.21 32.1789 189.75 31.6223 190.44 31.2326C191.142 30.843 191.943 30.6481 192.845 30.6481C193.713 30.6481 194.487 30.8374 195.166 31.2159C195.845 31.5945 196.374 32.1288 196.753 32.8191C197.131 33.4982 197.32 34.2831 197.32 35.1738ZM195.333 34.5726C195.322 33.8712 195.072 33.309 194.582 32.8859C194.092 32.4628 193.485 32.2513 192.761 32.2513C192.105 32.2513 191.542 32.4628 191.075 32.8859C190.607 33.2978 190.329 33.8601 190.24 34.5726H195.333ZM198.559 35.3575C198.559 34.4334 198.749 33.6151 199.127 32.9026C199.517 32.1901 200.04 31.639 200.697 31.2493C201.365 30.8485 202.105 30.6481 202.918 30.6481C203.519 30.6481 204.109 30.7817 204.688 31.0489C205.278 31.305 205.746 31.6501 206.091 32.0843V27.6422H208.011V40H206.091V38.6139C205.779 39.0592 205.345 39.4266 204.788 39.7161C204.243 40.0056 203.614 40.1503 202.901 40.1503C202.1 40.1503 201.365 39.9499 200.697 39.5491C200.04 39.1372 199.517 38.5694 199.127 37.8457C198.749 37.1109 198.559 36.2815 198.559 35.3575ZM206.091 35.3909C206.091 34.7563 205.957 34.2052 205.69 33.7376C205.434 33.27 205.094 32.9137 204.671 32.6688C204.248 32.4239 203.792 32.3014 203.302 32.3014C202.812 32.3014 202.356 32.4239 201.933 32.6688C201.51 32.9026 201.164 33.2533 200.897 33.7209C200.641 34.1774 200.513 34.7229 200.513 35.3575C200.513 35.9921 200.641 36.5487 200.897 37.0274C201.164 37.5062 201.51 37.8736 201.933 38.1296C202.367 38.3746 202.823 38.497 203.302 38.497C203.792 38.497 204.248 38.3746 204.671 38.1296C205.094 37.8847 205.434 37.5284 205.69 37.0608C205.957 36.5821 206.091 36.0255 206.091 35.3909ZM214.215 35.3575C214.215 34.4334 214.405 33.6151 214.783 32.9026C215.173 32.1901 215.696 31.639 216.353 31.2493C217.021 30.8485 217.761 30.6481 218.574 30.6481C219.175 30.6481 219.765 30.7817 220.344 31.0489C220.934 31.305 221.402 31.6501 221.747 32.0843V27.6422H223.667V40H221.747V38.6139C221.435 39.0592 221.001 39.4266 220.444 39.7161C219.899 40.0056 219.27 40.1503 218.557 40.1503C217.756 40.1503 217.021 39.9499 216.353 39.5491C215.696 39.1372 215.173 38.5694 214.783 37.8457C214.405 37.1109 214.215 36.2815 214.215 35.3575ZM221.747 35.3909C221.747 34.7563 221.613 34.2052 221.346 33.7376C221.09 33.27 220.751 32.9137 220.327 32.6688C219.904 32.4239 219.448 32.3014 218.958 32.3014C218.468 32.3014 218.012 32.4239 217.589 32.6688C217.166 32.9026 216.821 33.2533 216.553 33.7209C216.297 34.1774 216.169 34.7229 216.169 35.3575C216.169 35.9921 216.297 36.5487 216.553 37.0274C216.821 37.5062 217.166 37.8736 217.589 38.1296C218.023 38.3746 218.479 38.497 218.958 38.497C219.448 38.497 219.904 38.3746 220.327 38.1296C220.751 37.8847 221.09 37.5284 221.346 37.0608C221.613 36.5821 221.747 36.0255 221.747 35.3909ZM230.159 40.1503C229.291 40.1503 228.506 39.9555 227.805 39.5658C227.103 39.165 226.552 38.6084 226.151 37.8958C225.75 37.1722 225.55 36.3372 225.55 35.3909C225.55 34.4557 225.756 33.6263 226.168 32.9026C226.58 32.1789 227.142 31.6223 227.855 31.2326C228.567 30.843 229.363 30.6481 230.243 30.6481C231.122 30.6481 231.918 30.843 232.631 31.2326C233.343 31.6223 233.905 32.1789 234.317 32.9026C234.729 33.6263 234.935 34.4557 234.935 35.3909C234.935 36.3261 234.724 37.1555 234.301 37.8791C233.878 38.6028 233.299 39.165 232.564 39.5658C231.84 39.9555 231.039 40.1503 230.159 40.1503ZM230.159 38.497C230.649 38.497 231.105 38.3801 231.529 38.1463C231.963 37.9125 232.313 37.5618 232.581 37.0942C232.848 36.6266 232.981 36.0589 232.981 35.3909C232.981 34.7229 232.853 34.1607 232.597 33.7042C232.341 33.2366 232.002 32.8859 231.579 32.6521C231.156 32.4183 230.699 32.3014 230.209 32.3014C229.719 32.3014 229.263 32.4183 228.84 32.6521C228.428 32.8859 228.1 33.2366 227.855 33.7042C227.61 34.1607 227.487 34.7229 227.487 35.3909C227.487 36.3817 227.738 37.1499 228.239 37.6954C228.751 38.2298 229.391 38.497 230.159 38.497ZM236.183 35.3909C236.183 34.4445 236.372 33.6151 236.75 32.9026C237.14 32.1789 237.675 31.6223 238.354 31.2326C239.033 30.843 239.812 30.6481 240.692 30.6481C241.805 30.6481 242.723 30.9153 243.447 31.4497C244.182 31.973 244.677 32.7245 244.933 33.7042H242.879C242.712 33.2477 242.445 32.8915 242.078 32.6354C241.71 32.3793 241.248 32.2513 240.692 32.2513C239.912 32.2513 239.289 32.5296 238.821 33.0863C238.365 33.6318 238.137 34.4 238.137 35.3909C238.137 36.3817 238.365 37.1555 238.821 37.7121C239.289 38.2688 239.912 38.5471 240.692 38.5471C241.794 38.5471 242.523 38.0628 242.879 37.0942H244.933C244.666 38.0294 244.165 38.7754 243.43 39.332C242.696 39.8775 241.783 40.1503 240.692 40.1503C239.812 40.1503 239.033 39.9555 238.354 39.5658C237.675 39.165 237.14 38.6084 236.75 37.8958C236.372 37.1722 236.183 36.3372 236.183 35.3909ZM249.052 32.3515V37.4449C249.052 37.7901 249.13 38.0406 249.285 38.1964C249.452 38.3412 249.731 38.4135 250.12 38.4135H251.289V40H249.786C248.929 40 248.272 39.7996 247.816 39.3988C247.359 38.998 247.131 38.3467 247.131 37.4449V32.3515H246.046V30.7984H247.131V28.5106H249.052V30.7984H251.289V32.3515H249.052ZM257.035 40.1503C256.167 40.1503 255.382 39.9555 254.681 39.5658C253.979 39.165 253.428 38.6084 253.027 37.8958C252.627 37.1722 252.426 36.3372 252.426 35.3909C252.426 34.4557 252.632 33.6263 253.044 32.9026C253.456 32.1789 254.018 31.6223 254.731 31.2326C255.443 30.843 256.239 30.6481 257.119 30.6481C257.998 30.6481 258.794 30.843 259.507 31.2326C260.219 31.6223 260.782 32.1789 261.194 32.9026C261.606 33.6263 261.811 34.4557 261.811 35.3909C261.811 36.3261 261.6 37.1555 261.177 37.8791C260.754 38.6028 260.175 39.165 259.44 39.5658C258.716 39.9555 257.915 40.1503 257.035 40.1503ZM257.035 38.497C257.525 38.497 257.982 38.3801 258.405 38.1463C258.839 37.9125 259.19 37.5618 259.457 37.0942C259.724 36.6266 259.858 36.0589 259.858 35.3909C259.858 34.7229 259.73 34.1607 259.474 33.7042C259.217 33.2366 258.878 32.8859 258.455 32.6521C258.032 32.4183 257.575 32.3014 257.085 32.3014C256.596 32.3014 256.139 32.4183 255.716 32.6521C255.304 32.8859 254.976 33.2366 254.731 33.7042C254.486 34.1607 254.363 34.7229 254.363 35.3909C254.363 36.3817 254.614 37.1499 255.115 37.6954C255.627 38.2298 256.267 38.497 257.035 38.497ZM265.597 32.1344C265.876 31.6668 266.243 31.305 266.699 31.0489C267.167 30.7817 267.718 30.6481 268.353 30.6481V32.6187H267.868C267.122 32.6187 266.555 32.808 266.165 33.1865C265.786 33.565 265.597 34.2219 265.597 35.1571V40H263.693V30.7984H265.597V32.1344ZM273.443 40.1503C272.719 40.1503 272.068 40.0223 271.489 39.7662C270.921 39.499 270.47 39.1427 270.136 38.6974C269.802 38.241 269.624 37.7344 269.602 37.1777H271.572C271.606 37.5674 271.789 37.8958 272.123 38.163C272.468 38.4191 272.897 38.5471 273.409 38.5471C273.944 38.5471 274.356 38.4469 274.645 38.2465C274.946 38.035 275.096 37.7678 275.096 37.4449C275.096 37.0998 274.929 36.8437 274.595 36.6767C274.272 36.5098 273.754 36.3261 273.042 36.1257C272.352 35.9364 271.789 35.7527 271.355 35.5746C270.921 35.3964 270.542 35.1237 270.22 34.7563C269.908 34.3889 269.752 33.9046 269.752 33.3034C269.752 32.8135 269.897 32.3682 270.186 31.9674C270.476 31.5555 270.888 31.2326 271.422 30.9988C271.967 30.765 272.591 30.6481 273.292 30.6481C274.339 30.6481 275.179 30.9153 275.814 31.4497C276.46 31.973 276.805 32.6911 276.849 33.604H274.946C274.912 33.1921 274.745 32.8636 274.445 32.6187C274.144 32.3738 273.738 32.2513 273.225 32.2513C272.725 32.2513 272.34 32.3459 272.073 32.5352C271.806 32.7245 271.672 32.975 271.672 33.2867C271.672 33.5316 271.761 33.7376 271.94 33.9046C272.118 34.0716 272.335 34.2052 272.591 34.3054C272.847 34.3944 273.225 34.5113 273.726 34.6561C274.394 34.8342 274.94 35.0179 275.363 35.2072C275.797 35.3853 276.17 35.6525 276.482 36.0088C276.794 36.365 276.955 36.8382 276.966 37.4282C276.966 37.9515 276.822 38.4191 276.532 38.831C276.243 39.2429 275.831 39.5658 275.296 39.7996C274.773 40.0334 274.155 40.1503 273.443 40.1503Z"
        fill="#1A4402" />
    <path
        d="M100.601 54.4984V55.7699H98.0721V64H96.5135V55.7699H93.9707V54.4984H100.601ZM103.738 57.5608C103.966 57.178 104.267 56.8818 104.64 56.6722C105.023 56.4534 105.474 56.3441 105.994 56.3441V57.9573H105.597C104.987 57.9573 104.522 58.1122 104.203 58.4221C103.893 58.732 103.738 59.2697 103.738 60.0353V64H102.18V56.4671H103.738V57.5608ZM114.331 60.049C114.331 60.3315 114.312 60.5867 114.276 60.8146H108.52C108.566 61.4161 108.789 61.8992 109.19 62.2637C109.591 62.6283 110.083 62.8106 110.667 62.8106C111.505 62.8106 112.098 62.4597 112.444 61.7579H114.125C113.898 62.4506 113.483 63.0202 112.881 63.4668C112.289 63.9043 111.551 64.123 110.667 64.123C109.947 64.123 109.3 63.9635 108.725 63.6445C108.16 63.3164 107.714 62.8607 107.386 62.2774C107.067 61.685 106.907 61.0014 106.907 60.2267C106.907 59.452 107.062 58.773 107.372 58.1897C107.691 57.5973 108.133 57.1416 108.698 56.8226C109.272 56.5036 109.928 56.3441 110.667 56.3441C111.378 56.3441 112.011 56.499 112.567 56.8089C113.123 57.1188 113.556 57.5563 113.866 58.1213C114.176 58.6773 114.331 59.3199 114.331 60.049ZM112.704 59.5568C112.695 58.9826 112.489 58.5224 112.088 58.176C111.687 57.8297 111.191 57.6565 110.598 57.6565C110.061 57.6565 109.6 57.8297 109.217 58.176C108.835 58.5133 108.607 58.9735 108.534 59.5568H112.704ZM115.345 60.1994C115.345 59.4429 115.5 58.773 115.81 58.1897C116.129 57.6064 116.557 57.1552 117.095 56.8362C117.642 56.5081 118.243 56.3441 118.899 56.3441C119.492 56.3441 120.007 56.4626 120.444 56.6995C120.891 56.9274 121.246 57.2145 121.511 57.5608V56.4671H123.083V64H121.511V62.879C121.246 63.2344 120.886 63.5306 120.431 63.7676C119.975 64.0046 119.455 64.123 118.872 64.123C118.225 64.123 117.632 63.959 117.095 63.6309C116.557 63.2936 116.129 62.8288 115.81 62.2364C115.5 61.6349 115.345 60.9559 115.345 60.1994ZM121.511 60.2267C121.511 59.7072 121.401 59.2561 121.182 58.8733C120.973 58.4905 120.695 58.1988 120.348 57.9983C120.002 57.7978 119.628 57.6975 119.227 57.6975C118.826 57.6975 118.453 57.7978 118.106 57.9983C117.76 58.1897 117.478 58.4768 117.259 58.8596C117.049 59.2333 116.944 59.6799 116.944 60.1994C116.944 60.7189 117.049 61.1746 117.259 61.5665C117.478 61.9584 117.76 62.2592 118.106 62.4688C118.462 62.6693 118.836 62.7696 119.227 62.7696C119.628 62.7696 120.002 62.6693 120.348 62.4688C120.695 62.2683 120.973 61.9766 121.182 61.5939C121.401 61.2019 121.511 60.7462 121.511 60.2267ZM126.948 57.7385V61.9083C126.948 62.1908 127.012 62.3959 127.14 62.5235C127.276 62.642 127.504 62.7012 127.823 62.7012H128.78V64H127.55C126.848 64 126.31 63.8359 125.936 63.5078C125.563 63.1797 125.376 62.6465 125.376 61.9083V57.7385H124.487V56.4671H125.376V54.5941H126.948V56.4671H128.78V57.7385H126.948ZM143.885 56.4671L141.547 64H139.906L138.389 58.4358L136.871 64H135.231L132.879 56.4671H134.465L136.037 62.5235L137.637 56.4671H139.264L140.795 62.4962L142.353 56.4671H143.885ZM145.842 55.4691C145.56 55.4691 145.323 55.3734 145.131 55.182C144.94 54.9906 144.844 54.7536 144.844 54.4711C144.844 54.1886 144.94 53.9516 145.131 53.7602C145.323 53.5688 145.56 53.4731 145.842 53.4731C146.116 53.4731 146.348 53.5688 146.54 53.7602C146.731 53.9516 146.827 54.1886 146.827 54.4711C146.827 54.7536 146.731 54.9906 146.54 55.182C146.348 55.3734 146.116 55.4691 145.842 55.4691ZM146.608 56.4671V64H145.049V56.4671H146.608ZM150.472 57.7385V61.9083C150.472 62.1908 150.536 62.3959 150.664 62.5235C150.8 62.642 151.028 62.7012 151.347 62.7012H152.304V64H151.074C150.372 64 149.834 63.8359 149.461 63.5078C149.087 63.1797 148.9 62.6465 148.9 61.9083V57.7385H148.012V56.4671H148.9V54.5941H150.472V56.4671H152.304V57.7385H150.472ZM157.637 56.3441C158.211 56.3441 158.722 56.4671 159.168 56.7132C159.624 56.9593 159.979 57.3238 160.235 57.8069C160.499 58.29 160.631 58.8733 160.631 59.5568V64H159.086V59.7892C159.086 59.1148 158.918 58.5998 158.58 58.2444C158.243 57.8798 157.783 57.6975 157.2 57.6975C156.616 57.6975 156.151 57.8798 155.805 58.2444C155.468 58.5998 155.299 59.1148 155.299 59.7892V64H153.741V53.8832H155.299V57.3421C155.564 57.0231 155.896 56.777 156.297 56.6038C156.707 56.4307 157.154 56.3441 157.637 56.3441ZM165.651 60.2267C165.651 59.452 165.806 58.773 166.116 58.1897C166.435 57.5973 166.872 57.1416 167.428 56.8226C167.984 56.5036 168.622 56.3441 169.342 56.3441C170.254 56.3441 171.006 56.5628 171.598 57.0003C172.199 57.4287 172.605 58.0439 172.815 58.8459H171.133C170.996 58.4722 170.778 58.1806 170.477 57.971C170.176 57.7613 169.798 57.6565 169.342 57.6565C168.704 57.6565 168.194 57.8844 167.811 58.3401C167.437 58.7867 167.25 59.4156 167.25 60.2267C167.25 61.0379 167.437 61.6713 167.811 62.127C168.194 62.5827 168.704 62.8106 169.342 62.8106C170.244 62.8106 170.841 62.4141 171.133 61.6212H172.815C172.596 62.3868 172.186 62.9974 171.584 63.4531C170.983 63.8997 170.235 64.123 169.342 64.123C168.622 64.123 167.984 63.9635 167.428 63.6445C166.872 63.3164 166.435 62.8607 166.116 62.2774C165.806 61.685 165.651 61.0014 165.651 60.2267ZM173.848 60.1994C173.848 59.4429 174.003 58.773 174.313 58.1897C174.632 57.6064 175.061 57.1552 175.598 56.8362C176.145 56.5081 176.747 56.3441 177.403 56.3441C177.995 56.3441 178.51 56.4626 178.948 56.6995C179.394 56.9274 179.75 57.2145 180.014 57.5608V56.4671H181.586V64H180.014V62.879C179.75 63.2344 179.39 63.5306 178.934 63.7676C178.478 64.0046 177.959 64.123 177.376 64.123C176.728 64.123 176.136 63.959 175.598 63.6309C175.061 63.2936 174.632 62.8288 174.313 62.2364C174.003 61.6349 173.848 60.9559 173.848 60.1994ZM180.014 60.2267C180.014 59.7072 179.905 59.2561 179.686 58.8733C179.476 58.4905 179.198 58.1988 178.852 57.9983C178.506 57.7978 178.132 57.6975 177.731 57.6975C177.33 57.6975 176.956 57.7978 176.61 57.9983C176.264 58.1897 175.981 58.4768 175.762 58.8596C175.553 59.2333 175.448 59.6799 175.448 60.1994C175.448 60.7189 175.553 61.1746 175.762 61.5665C175.981 61.9584 176.264 62.2592 176.61 62.4688C176.965 62.6693 177.339 62.7696 177.731 62.7696C178.132 62.7696 178.506 62.6693 178.852 62.4688C179.198 62.2683 179.476 61.9766 179.686 61.5939C179.905 61.2019 180.014 60.7462 180.014 60.2267ZM185.192 57.5608C185.42 57.178 185.721 56.8818 186.094 56.6722C186.477 56.4534 186.928 56.3441 187.448 56.3441V57.9573H187.051C186.441 57.9573 185.976 58.1122 185.657 58.4221C185.347 58.732 185.192 59.2697 185.192 60.0353V64H183.633V56.4671H185.192V57.5608ZM195.784 60.049C195.784 60.3315 195.766 60.5867 195.73 60.8146H189.974C190.02 61.4161 190.243 61.8992 190.644 62.2637C191.045 62.6283 191.537 62.8106 192.12 62.8106C192.959 62.8106 193.551 62.4597 193.898 61.7579H195.579C195.351 62.4506 194.937 63.0202 194.335 63.4668C193.743 63.9043 193.004 64.123 192.12 64.123C191.4 64.123 190.753 63.9635 190.179 63.6445C189.614 63.3164 189.167 62.8607 188.839 62.2774C188.52 61.685 188.361 61.0014 188.361 60.2267C188.361 59.452 188.516 58.773 188.826 58.1897C189.145 57.5973 189.587 57.1416 190.152 56.8226C190.726 56.5036 191.382 56.3441 192.12 56.3441C192.831 56.3441 193.465 56.499 194.021 56.8089C194.577 57.1188 195.01 57.5563 195.319 58.1213C195.629 58.6773 195.784 59.3199 195.784 60.049ZM194.157 59.5568C194.148 58.9826 193.943 58.5224 193.542 58.176C193.141 57.8297 192.644 57.6565 192.052 57.6565C191.514 57.6565 191.054 57.8297 190.671 58.176C190.288 58.5133 190.061 58.9735 189.988 59.5568H194.157Z"
        fill="#749D1C" />
    <path
        d="M60.671 53.0339C66.0811 53.0339 70.4669 48.773 70.4669 43.5169C70.4669 38.2609 66.0811 34 60.671 34C55.2608 34 50.875 38.2609 50.875 43.5169C50.875 48.773 55.2608 53.0339 60.671 53.0339Z"
        stroke="#1A4402" stroke-width="3.47443" stroke-linecap="round" stroke-linejoin="round" />
    <path d="M76.0645 58.4721L67.668 50.3147" stroke="#1A4402" stroke-width="3.47443" stroke-linecap="round"
        stroke-linejoin="round" />
    <defs>
        <filter id="filter0_bd_0_1" x="-11.743" y="-14.743" width="357.486" height="122.486"
            filterUnits="userSpaceOnUse" color-interpolation-filters="sRGB">
            <feFlood flood-opacity="0" result="BackgroundImageFix" />
            <feGaussianBlur in="BackgroundImageFix" stdDeviation="14.3715" />
            <feComposite in2="SourceAlpha" operator="in" result="effect1_backgroundBlur_0_1" />
            <feColorMatrix in="SourceAlpha" type="matrix" values="0 0 0 0 0 0 0 0 0 0 0 0 0 0 0 0 0 0 127 0"
                result="hardAlpha" />
            <feMorphology radius="0.718575" operator="erode" in="SourceAlpha" result="effect2_dropShadow_0_1" />
            <feOffset dy="2.8743" />
            <feGaussianBlur stdDeviation="8.6229" />
            <feComposite in2="hardAlpha" operator="out" />
            <feColorMatrix type="matrix" values="0 0 0 0 0 0 0 0 0 0 0 0 0 0 0 0 0 0 0.2 0" />
            <feBlend mode="normal" in2="effect1_backgroundBlur_0_1" result="effect2_dropShadow_0_1" />
            <feBlend mode="normal" in="SourceGraphic" in2="effect2_dropShadow_0_1" result="shape" />
        </filter>
    </defs>
</svg>